<?xml version="1.0" encoding="iso-8859-1"?>
<!DOCTYPE MIDIFile PUBLIC
  "-//Recordare//DTD MusicXML 0.9 MIDI//EN"
  "http://www.musicxml.org/dtds/midixml.dtd">
<MIDIFile>
<Format>1</Format>
<TrackCount>4</TrackCount>
<TicksPerBeat>480</TicksPerBeat>
<TimestampType>Absolute</TimestampType>
<Track Number="0">
  <Event>
    <Absolute>0</Absolute>
    <TrackName>WTJ</TrackName>
  </Event>
  <Event>
    <Absolute>0</Absolute>
    <SetTempo Value="483870"/>
  </Event>
  <Event>
    <Absolute>0</Absolute>
    <TimeSignature Numerator="4" LogDenominator="2" MIDIClocksPerMetronomeClick="24" ThirtySecondsPer24Clocks="8"/>
  </Event>
  <Event>
    <Absolute>0</Absolute>
    <EndOfTrack/>
  </Event>
</Track>
<Track Number="1">
  <Event>
    <Absolute>0</Absolute>
    <TrackName>MIDI 01</TrackName>
  </Event>
  <Event>
    <Absolute>4005</Absolute>
    <NoteOn Channel="1" Note="100" Velocity="127"/>
  </Event>
  <Event>
    <Absolute>4081</Absolute>
    <NoteOff Channel="1" Note="100" Velocity="64"/>
  </Event>
  <Event>
    <Absolute>4157</Absolute>
    <NoteOn Channel="1" Note="100" Velocity="127"/>
  </Event>
  <Event>
    <Absolute>4233</Absolute>
    <NoteOff Channel="1" Note="100" Velocity="64"/>
  </Event>
  <Event>
    <Absolute>4310</Absolute>
    <NoteOn Channel="1" Note="100" Velocity="127"/>
  </Event>
  <Event>
    <Absolute>4386</Absolute>
    <NoteOff Channel="1" Note="100" Velocity="64"/>
  </Event>
  <Event>
    <Absolute>4462</Absolute>
    <NoteOn Channel="1" Note="99" Velocity="127"/>
  </Event>
  <Event>
    <Absolute>4538</Absolute>
    <NoteOff Channel="1" Note="99" Velocity="64"/>
  </Event>
  <Event>
    <Absolute>4615</Absolute>
    <NoteOn Channel="1" Note="100" Velocity="127"/>
  </Event>
  <Event>
    <Absolute>4691</Absolute>
    <NoteOff Channel="1" Note="100" Velocity="64"/>
  </Event>
  <Event>
    <Absolute>4767</Absolute>
    <NoteOn Channel="1" Note="99" Velocity="127"/>
  </Event>
  <Event>
    <Absolute>4843</Absolute>
    <NoteOff Channel="1" Note="99" Velocity="64"/>
  </Event>
  <Event>
    <Absolute>4919</Absolute>
    <NoteOn Channel="1" Note="98" Velocity="127"/>
  </Event>
  <Event>
    <Absolute>4995</Absolute>
    <NoteOff Channel="1" Note="98" Velocity="64"/>
  </Event>
  <Event>
    <Absolute>5072</Absolute>
    <NoteOn Channel="1" Note="100" Velocity="127"/>
  </Event>
  <Event>
    <Absolute>5148</Absolute>
    <NoteOff Channel="1" Note="100" Velocity="64"/>
  </Event>
  <Event>
    <Absolute>5224</Absolute>
    <NoteOn Channel="1" Note="98" Velocity="127"/>
  </Event>
  <Event>
    <Absolute>5300</Absolute>
    <NoteOff Channel="1" Note="98" Velocity="64"/>
  </Event>
  <Event>
    <Absolute>5377</Absolute>
    <NoteOn Channel="1" Note="97" Velocity="127"/>
  </Event>
  <Event>
    <Absolute>5453</Absolute>
    <NoteOff Channel="1" Note="97" Velocity="64"/>
  </Event>
  <Event>
    <Absolute>5529</Absolute>
    <NoteOn Channel="1" Note="100" Velocity="127"/>
  </Event>
  <Event>
    <Absolute>5605</Absolute>
    <NoteOff Channel="1" Note="100" Velocity="64"/>
  </Event>
  <Event>
    <Absolute>5682</Absolute>
    <NoteOn Channel="1" Note="98" Velocity="127"/>
  </Event>
  <Event>
    <Absolute>5758</Absolute>
    <NoteOff Channel="1" Note="98" Velocity="64"/>
  </Event>
  <Event>
    <Absolute>5834</Absolute>
    <NoteOn Channel="1" Note="97" Velocity="127"/>
  </Event>
  <Event>
    <Absolute>5910</Absolute>
    <NoteOff Channel="1" Note="97" Velocity="64"/>
  </Event>
  <Event>
    <Absolute>5987</Absolute>
    <NoteOn Channel="1" Note="100" Velocity="127"/>
  </Event>
  <Event>
    <Absolute>6063</Absolute>
    <NoteOff Channel="1" Note="100" Velocity="64"/>
  </Event>
  <Event>
    <Absolute>6139</Absolute>
    <NoteOn Channel="1" Note="96" Velocity="127"/>
  </Event>
  <Event>
    <Absolute>6215</Absolute>
    <NoteOff Channel="1" Note="96" Velocity="64"/>
  </Event>
  <Event>
    <Absolute>6292</Absolute>
    <NoteOn Channel="1" Note="100" Velocity="127"/>
  </Event>
  <Event>
    <Absolute>6368</Absolute>
    <NoteOff Channel="1" Note="100" Velocity="64"/>
  </Event>
  <Event>
    <Absolute>6444</Absolute>
    <NoteOn Channel="1" Note="100" Velocity="127"/>
  </Event>
  <Event>
    <Absolute>6521</Absolute>
    <NoteOff Channel="1" Note="100" Velocity="64"/>
  </Event>
  <Event>
    <Absolute>6599</Absolute>
    <NoteOn Channel="1" Note="100" Velocity="127"/>
  </Event>
  <Event>
    <Absolute>6676</Absolute>
    <NoteOff Channel="1" Note="100" Velocity="64"/>
  </Event>
  <Event>
    <Absolute>6753</Absolute>
    <NoteOn Channel="1" Note="100" Velocity="127"/>
  </Event>
  <Event>
    <Absolute>6830</Absolute>
    <NoteOff Channel="1" Note="100" Velocity="64"/>
  </Event>
  <Event>
    <Absolute>6907</Absolute>
    <NoteOn Channel="1" Note="99" Velocity="127"/>
  </Event>
  <Event>
    <Absolute>6984</Absolute>
    <NoteOff Channel="1" Note="99" Velocity="64"/>
  </Event>
  <Event>
    <Absolute>7061</Absolute>
    <NoteOn Channel="1" Note="100" Velocity="127"/>
  </Event>
  <Event>
    <Absolute>7138</Absolute>
    <NoteOff Channel="1" Note="100" Velocity="64"/>
  </Event>
  <Event>
    <Absolute>7215</Absolute>
    <NoteOn Channel="1" Note="99" Velocity="127"/>
  </Event>
  <Event>
    <Absolute>7292</Absolute>
    <NoteOff Channel="1" Note="99" Velocity="64"/>
  </Event>
  <Event>
    <Absolute>7369</Absolute>
    <NoteOn Channel="1" Note="98" Velocity="127"/>
  </Event>
  <Event>
    <Absolute>7446</Absolute>
    <NoteOff Channel="1" Note="98" Velocity="64"/>
  </Event>
  <Event>
    <Absolute>7523</Absolute>
    <NoteOn Channel="1" Note="100" Velocity="127"/>
  </Event>
  <Event>
    <Absolute>7600</Absolute>
    <NoteOff Channel="1" Note="100" Velocity="64"/>
  </Event>
  <Event>
    <Absolute>7678</Absolute>
    <NoteOn Channel="1" Note="98" Velocity="127"/>
  </Event>
  <Event>
    <Absolute>7755</Absolute>
    <NoteOff Channel="1" Note="98" Velocity="64"/>
  </Event>
  <Event>
    <Absolute>7832</Absolute>
    <NoteOn Channel="1" Note="97" Velocity="127"/>
  </Event>
  <Event>
    <Absolute>7909</Absolute>
    <NoteOff Channel="1" Note="97" Velocity="64"/>
  </Event>
  <Event>
    <Absolute>7986</Absolute>
    <NoteOn Channel="1" Note="100" Velocity="127"/>
  </Event>
  <Event>
    <Absolute>8063</Absolute>
    <NoteOff Channel="1" Note="100" Velocity="64"/>
  </Event>
  <Event>
    <Absolute>8140</Absolute>
    <NoteOn Channel="1" Note="98" Velocity="127"/>
  </Event>
  <Event>
    <Absolute>8217</Absolute>
    <NoteOff Channel="1" Note="98" Velocity="64"/>
  </Event>
  <Event>
    <Absolute>8294</Absolute>
    <NoteOn Channel="1" Note="97" Velocity="127"/>
  </Event>
  <Event>
    <Absolute>8371</Absolute>
    <NoteOff Channel="1" Note="97" Velocity="64"/>
  </Event>
  <Event>
    <Absolute>8448</Absolute>
    <NoteOn Channel="1" Note="100" Velocity="127"/>
  </Event>
  <Event>
    <Absolute>8525</Absolute>
    <NoteOff Channel="1" Note="100" Velocity="64"/>
  </Event>
  <Event>
    <Absolute>8603</Absolute>
    <NoteOn Channel="1" Note="96" Velocity="127"/>
  </Event>
  <Event>
    <Absolute>8680</Absolute>
    <NoteOff Channel="1" Note="96" Velocity="64"/>
  </Event>
  <Event>
    <Absolute>8757</Absolute>
    <NoteOn Channel="1" Note="96" Velocity="127"/>
  </Event>
  <Event>
    <Absolute>8834</Absolute>
    <NoteOff Channel="1" Note="96" Velocity="64"/>
  </Event>
  <Event>
    <Absolute>8911</Absolute>
    <NoteOn Channel="1" Note="96" Velocity="127"/>
  </Event>
  <Event>
    <Absolute>8986</Absolute>
    <NoteOff Channel="1" Note="96" Velocity="64"/>
  </Event>
  <Event>
    <Absolute>8986</Absolute>
    <NoteOn Channel="1" Note="98" Velocity="127"/>
  </Event>
  <Event>
    <Absolute>10721</Absolute>
    <NoteOff Channel="1" Note="98" Velocity="64"/>
  </Event>
  <Event>
    <Absolute>10721</Absolute>
    <NoteOn Channel="1" Note="97" Velocity="127"/>
  </Event>
  <Event>
    <Absolute>10790</Absolute>
    <NoteOff Channel="1" Note="97" Velocity="64"/>
  </Event>
  <Event>
    <Absolute>10999</Absolute>
    <NoteOn Channel="1" Note="99" Velocity="127"/>
  </Event>
  <Event>
    <Absolute>11068</Absolute>
    <NoteOff Channel="1" Note="99" Velocity="64"/>
  </Event>
  <Event>
    <Absolute>11276</Absolute>
    <NoteOn Channel="1" Note="99" Velocity="127"/>
  </Event>
  <Event>
    <Absolute>11349</Absolute>
    <NoteOff Channel="1" Note="99" Velocity="64"/>
  </Event>
  <Event>
    <Absolute>11423</Absolute>
    <NoteOn Channel="1" Note="100" Velocity="127"/>
  </Event>
  <Event>
    <Absolute>11496</Absolute>
    <NoteOff Channel="1" Note="100" Velocity="64"/>
  </Event>
  <Event>
    <Absolute>11570</Absolute>
    <NoteOn Channel="1" Note="99" Velocity="127"/>
  </Event>
  <Event>
    <Absolute>11643</Absolute>
    <NoteOff Channel="1" Note="99" Velocity="64"/>
  </Event>
  <Event>
    <Absolute>11718</Absolute>
    <NoteOn Channel="1" Note="98" Velocity="127"/>
  </Event>
  <Event>
    <Absolute>13338</Absolute>
    <NoteOff Channel="1" Note="98" Velocity="64"/>
  </Event>
  <Event>
    <Absolute>13338</Absolute>
    <NoteOn Channel="1" Note="96" Velocity="127"/>
  </Event>
  <Event>
    <Absolute>13411</Absolute>
    <NoteOff Channel="1" Note="96" Velocity="64"/>
  </Event>
  <Event>
    <Absolute>13485</Absolute>
    <NoteOn Channel="1" Note="96" Velocity="127"/>
  </Event>
  <Event>
    <Absolute>13558</Absolute>
    <NoteOff Channel="1" Note="96" Velocity="64"/>
  </Event>
  <Event>
    <Absolute>13632</Absolute>
    <NoteOn Channel="1" Note="96" Velocity="127"/>
  </Event>
  <Event>
    <Absolute>13704</Absolute>
    <NoteOff Channel="1" Note="96" Velocity="64"/>
  </Event>
  <Event>
    <Absolute>13814</Absolute>
    <NoteOn Channel="1" Note="98" Velocity="127"/>
  </Event>
  <Event>
    <Absolute>15526</Absolute>
    <NoteOff Channel="1" Note="98" Velocity="64"/>
  </Event>
  <Event>
    <Absolute>15672</Absolute>
    <NoteOn Channel="1" Note="98" Velocity="127"/>
  </Event>
  <Event>
    <Absolute>15744</Absolute>
    <NoteOff Channel="1" Note="98" Velocity="64"/>
  </Event>
  <Event>
    <Absolute>15964</Absolute>
    <NoteOn Channel="1" Note="96" Velocity="127"/>
  </Event>
  <Event>
    <Absolute>17901</Absolute>
    <NoteOff Channel="1" Note="96" Velocity="64"/>
  </Event>
  <Event>
    <Absolute>18051</Absolute>
    <NoteOn Channel="1" Note="98" Velocity="127"/>
  </Event>
  <Event>
    <Absolute>18125</Absolute>
    <NoteOff Channel="1" Note="98" Velocity="64"/>
  </Event>
  <Event>
    <Absolute>18200</Absolute>
    <NoteOn Channel="1" Note="98" Velocity="127"/>
  </Event>
  <Event>
    <Absolute>18274</Absolute>
    <NoteOff Channel="1" Note="98" Velocity="64"/>
  </Event>
  <Event>
    <Absolute>18355</Absolute>
    <NoteOn Channel="1" Note="98" Velocity="127"/>
  </Event>
  <Event>
    <Absolute>18355</Absolute>
    <NoteOn Channel="1" Note="99" Velocity="127"/>
  </Event>
  <Event>
    <Absolute>20422</Absolute>
    <NoteOff Channel="1" Note="98" Velocity="64"/>
  </Event>
  <Event>
    <Absolute>20422</Absolute>
    <NoteOff Channel="1" Note="99" Velocity="64"/>
  </Event>
  <Event>
    <Absolute>20422</Absolute>
    <NoteOn Channel="1" Note="98" Velocity="127"/>
  </Event>
  <Event>
    <Absolute>20422</Absolute>
    <NoteOn Channel="1" Note="99" Velocity="127"/>
  </Event>
  <Event>
    <Absolute>20718</Absolute>
    <NoteOff Channel="1" Note="98" Velocity="64"/>
  </Event>
  <Event>
    <Absolute>20718</Absolute>
    <NoteOff Channel="1" Note="99" Velocity="64"/>
  </Event>
  <Event>
    <Absolute>20719</Absolute>
    <NoteOn Channel="1" Note="97" Velocity="127"/>
  </Event>
  <Event>
    <Absolute>20719</Absolute>
    <NoteOn Channel="1" Note="99" Velocity="127"/>
  </Event>
  <Event>
    <Absolute>22802</Absolute>
    <NoteOff Channel="1" Note="97" Velocity="64"/>
  </Event>
  <Event>
    <Absolute>22802</Absolute>
    <NoteOff Channel="1" Note="99" Velocity="64"/>
  </Event>
  <Event>
    <Absolute>22802</Absolute>
    <NoteOn Channel="1" Note="96" Velocity="127"/>
  </Event>
  <Event>
    <Absolute>22802</Absolute>
    <NoteOn Channel="1" Note="98" Velocity="127"/>
  </Event>
  <Event>
    <Absolute>22876</Absolute>
    <NoteOff Channel="1" Note="96" Velocity="64"/>
  </Event>
  <Event>
    <Absolute>22876</Absolute>
    <NoteOff Channel="1" Note="98" Velocity="64"/>
  </Event>
  <Event>
    <Absolute>22951</Absolute>
    <NoteOn Channel="1" Note="96" Velocity="127"/>
  </Event>
  <Event>
    <Absolute>22951</Absolute>
    <NoteOn Channel="1" Note="98" Velocity="127"/>
  </Event>
  <Event>
    <Absolute>23025</Absolute>
    <NoteOff Channel="1" Note="96" Velocity="64"/>
  </Event>
  <Event>
    <Absolute>23025</Absolute>
    <NoteOff Channel="1" Note="98" Velocity="64"/>
  </Event>
  <Event>
    <Absolute>23100</Absolute>
    <NoteOn Channel="1" Note="96" Velocity="127"/>
  </Event>
  <Event>
    <Absolute>23100</Absolute>
    <NoteOn Channel="1" Note="98" Velocity="127"/>
  </Event>
  <Event>
    <Absolute>25194</Absolute>
    <NoteOff Channel="1" Note="96" Velocity="64"/>
  </Event>
  <Event>
    <Absolute>25194</Absolute>
    <NoteOff Channel="1" Note="98" Velocity="64"/>
  </Event>
  <Event>
    <Absolute>25194</Absolute>
    <NoteOn Channel="1" Note="96" Velocity="127"/>
  </Event>
  <Event>
    <Absolute>25268</Absolute>
    <NoteOff Channel="1" Note="96" Velocity="64"/>
  </Event>
  <Event>
    <Absolute>25493</Absolute>
    <NoteOn Channel="1" Note="97" Velocity="127"/>
  </Event>
  <Event>
    <Absolute>25493</Absolute>
    <NoteOn Channel="1" Note="99" Velocity="127"/>
  </Event>
  <Event>
    <Absolute>26479</Absolute>
    <NoteOff Channel="1" Note="97" Velocity="64"/>
  </Event>
  <Event>
    <Absolute>26479</Absolute>
    <NoteOff Channel="1" Note="99" Velocity="64"/>
  </Event>
  <Event>
    <Absolute>26624</Absolute>
    <NoteOn Channel="1" Note="96" Velocity="127"/>
  </Event>
  <Event>
    <Absolute>26624</Absolute>
    <NoteOn Channel="1" Note="98" Velocity="127"/>
  </Event>
  <Event>
    <Absolute>26624</Absolute>
    <NoteOn Channel="1" Note="99" Velocity="127"/>
  </Event>
  <Event>
    <Absolute>27593</Absolute>
    <NoteOff Channel="1" Note="96" Velocity="64"/>
  </Event>
  <Event>
    <Absolute>27593</Absolute>
    <NoteOff Channel="1" Note="98" Velocity="64"/>
  </Event>
  <Event>
    <Absolute>27593</Absolute>
    <NoteOff Channel="1" Note="99" Velocity="64"/>
  </Event>
  <Event>
    <Absolute>27732</Absolute>
    <NoteOn Channel="1" Note="96" Velocity="127"/>
  </Event>
  <Event>
    <Absolute>27798</Absolute>
    <NoteOff Channel="1" Note="96" Velocity="64"/>
  </Event>
  <Event>
    <Absolute>27999</Absolute>
    <NoteOn Channel="1" Note="97" Velocity="127"/>
  </Event>
  <Event>
    <Absolute>28065</Absolute>
    <NoteOff Channel="1" Note="97" Velocity="64"/>
  </Event>
  <Event>
    <Absolute>28266</Absolute>
    <NoteOn Channel="1" Note="98" Velocity="127"/>
  </Event>
  <Event>
    <Absolute>28332</Absolute>
    <NoteOff Channel="1" Note="98" Velocity="64"/>
  </Event>
  <Event>
    <Absolute>28531</Absolute>
    <NoteOn Channel="1" Note="99" Velocity="127"/>
  </Event>
  <Event>
    <Absolute>28597</Absolute>
    <NoteOff Channel="1" Note="99" Velocity="64"/>
  </Event>
  <Event>
    <Absolute>28796</Absolute>
    <NoteOn Channel="1" Note="96" Velocity="127"/>
  </Event>
  <Event>
    <Absolute>28861</Absolute>
    <NoteOff Channel="1" Note="96" Velocity="64"/>
  </Event>
  <Event>
    <Absolute>29059</Absolute>
    <NoteOn Channel="1" Note="97" Velocity="127"/>
  </Event>
  <Event>
    <Absolute>29124</Absolute>
    <NoteOff Channel="1" Note="97" Velocity="64"/>
  </Event>
  <Event>
    <Absolute>29322</Absolute>
    <NoteOn Channel="1" Note="98" Velocity="127"/>
  </Event>
  <Event>
    <Absolute>29387</Absolute>
    <NoteOff Channel="1" Note="98" Velocity="64"/>
  </Event>
  <Event>
    <Absolute>29582</Absolute>
    <NoteOn Channel="1" Note="99" Velocity="127"/>
  </Event>
  <Event>
    <Absolute>29647</Absolute>
    <NoteOff Channel="1" Note="99" Velocity="64"/>
  </Event>
  <Event>
    <Absolute>29842</Absolute>
    <NoteOn Channel="1" Note="99" Velocity="127"/>
  </Event>
  <Event>
    <Absolute>30097</Absolute>
    <NoteOff Channel="1" Note="99" Velocity="64"/>
  </Event>
  <Event>
    <Absolute>30098</Absolute>
    <NoteOn Channel="1" Note="99" Velocity="127"/>
  </Event>
  <Event>
    <Absolute>30098</Absolute>
    <NoteOn Channel="1" Note="100" Velocity="127"/>
  </Event>
  <Event>
    <Absolute>30161</Absolute>
    <NoteOff Channel="1" Note="99" Velocity="64"/>
  </Event>
  <Event>
    <Absolute>30161</Absolute>
    <NoteOff Channel="1" Note="100" Velocity="64"/>
  </Event>
  <Event>
    <Absolute>30354</Absolute>
    <NoteOn Channel="1" Note="99" Velocity="127"/>
  </Event>
  <Event>
    <Absolute>30415</Absolute>
    <NoteOff Channel="1" Note="99" Velocity="64"/>
  </Event>
  <Event>
    <Absolute>30599</Absolute>
    <NoteOn Channel="1" Note="98" Velocity="127"/>
  </Event>
  <Event>
    <Absolute>30660</Absolute>
    <NoteOff Channel="1" Note="98" Velocity="64"/>
  </Event>
  <Event>
    <Absolute>30844</Absolute>
    <NoteOn Channel="1" Note="97" Velocity="127"/>
  </Event>
  <Event>
    <Absolute>31248</Absolute>
    <NoteOff Channel="1" Note="97" Velocity="64"/>
  </Event>
  <Event>
    <Absolute>31384</Absolute>
    <NoteOn Channel="1" Note="100" Velocity="127"/>
  </Event>
  <Event>
    <Absolute>31840</Absolute>
    <NoteOff Channel="1" Note="100" Velocity="64"/>
  </Event>
  <Event>
    <Absolute>31840</Absolute>
    <NoteOn Channel="1" Note="98" Velocity="127"/>
  </Event>
  <Event>
    <Absolute>31840</Absolute>
    <NoteOn Channel="1" Note="99" Velocity="127"/>
  </Event>
  <Event>
    <Absolute>31902</Absolute>
    <NoteOff Channel="1" Note="98" Velocity="64"/>
  </Event>
  <Event>
    <Absolute>31902</Absolute>
    <NoteOff Channel="1" Note="99" Velocity="64"/>
  </Event>
  <Event>
    <Absolute>32090</Absolute>
    <NoteOn Channel="1" Note="98" Velocity="127"/>
  </Event>
  <Event>
    <Absolute>32090</Absolute>
    <NoteOn Channel="1" Note="99" Velocity="127"/>
  </Event>
  <Event>
    <Absolute>32152</Absolute>
    <NoteOff Channel="1" Note="98" Velocity="64"/>
  </Event>
  <Event>
    <Absolute>32152</Absolute>
    <NoteOff Channel="1" Note="99" Velocity="64"/>
  </Event>
  <Event>
    <Absolute>32340</Absolute>
    <NoteOn Channel="1" Note="97" Velocity="127"/>
  </Event>
  <Event>
    <Absolute>32401</Absolute>
    <NoteOff Channel="1" Note="97" Velocity="64"/>
  </Event>
  <Event>
    <Absolute>32464</Absolute>
    <NoteOn Channel="1" Note="98" Velocity="127"/>
  </Event>
  <Event>
    <Absolute>32525</Absolute>
    <NoteOff Channel="1" Note="98" Velocity="64"/>
  </Event>
  <Event>
    <Absolute>32587</Absolute>
    <NoteOn Channel="1" Note="98" Velocity="127"/>
  </Event>
  <Event>
    <Absolute>32587</Absolute>
    <NoteOn Channel="1" Note="99" Velocity="127"/>
  </Event>
  <Event>
    <Absolute>32648</Absolute>
    <NoteOff Channel="1" Note="98" Velocity="64"/>
  </Event>
  <Event>
    <Absolute>32648</Absolute>
    <NoteOff Channel="1" Note="99" Velocity="64"/>
  </Event>
  <Event>
    <Absolute>32711</Absolute>
    <NoteOn Channel="1" Note="98" Velocity="127"/>
  </Event>
  <Event>
    <Absolute>32711</Absolute>
    <NoteOn Channel="1" Note="99" Velocity="127"/>
  </Event>
  <Event>
    <Absolute>32772</Absolute>
    <NoteOff Channel="1" Note="98" Velocity="64"/>
  </Event>
  <Event>
    <Absolute>32772</Absolute>
    <NoteOff Channel="1" Note="99" Velocity="64"/>
  </Event>
  <Event>
    <Absolute>32958</Absolute>
    <NoteOn Channel="1" Note="99" Velocity="127"/>
  </Event>
  <Event>
    <Absolute>33019</Absolute>
    <NoteOff Channel="1" Note="99" Velocity="64"/>
  </Event>
  <Event>
    <Absolute>33082</Absolute>
    <NoteOn Channel="1" Note="98" Velocity="127"/>
  </Event>
  <Event>
    <Absolute>33143</Absolute>
    <NoteOff Channel="1" Note="98" Velocity="64"/>
  </Event>
  <Event>
    <Absolute>33329</Absolute>
    <NoteOn Channel="1" Note="97" Velocity="127"/>
  </Event>
  <Event>
    <Absolute>33390</Absolute>
    <NoteOff Channel="1" Note="97" Velocity="64"/>
  </Event>
  <Event>
    <Absolute>33576</Absolute>
    <NoteOn Channel="1" Note="96" Velocity="127"/>
  </Event>
  <Event>
    <Absolute>33637</Absolute>
    <NoteOff Channel="1" Note="96" Velocity="64"/>
  </Event>
  <Event>
    <Absolute>33823</Absolute>
    <NoteOn Channel="1" Note="98" Velocity="127"/>
  </Event>
  <Event>
    <Absolute>33823</Absolute>
    <NoteOn Channel="1" Note="99" Velocity="127"/>
  </Event>
  <Event>
    <Absolute>33884</Absolute>
    <NoteOff Channel="1" Note="98" Velocity="64"/>
  </Event>
  <Event>
    <Absolute>33884</Absolute>
    <NoteOff Channel="1" Note="99" Velocity="64"/>
  </Event>
  <Event>
    <Absolute>34070</Absolute>
    <NoteOn Channel="1" Note="98" Velocity="127"/>
  </Event>
  <Event>
    <Absolute>34131</Absolute>
    <NoteOff Channel="1" Note="98" Velocity="64"/>
  </Event>
  <Event>
    <Absolute>34194</Absolute>
    <NoteOn Channel="1" Note="98" Velocity="127"/>
  </Event>
  <Event>
    <Absolute>34255</Absolute>
    <NoteOff Channel="1" Note="98" Velocity="64"/>
  </Event>
  <Event>
    <Absolute>34318</Absolute>
    <NoteOn Channel="1" Note="97" Velocity="127"/>
  </Event>
  <Event>
    <Absolute>34379</Absolute>
    <NoteOff Channel="1" Note="97" Velocity="64"/>
  </Event>
  <Event>
    <Absolute>34440</Absolute>
    <NoteOn Channel="1" Note="98" Velocity="127"/>
  </Event>
  <Event>
    <Absolute>34501</Absolute>
    <NoteOff Channel="1" Note="98" Velocity="64"/>
  </Event>
  <Event>
    <Absolute>34563</Absolute>
    <NoteOn Channel="1" Note="98" Velocity="127"/>
  </Event>
  <Event>
    <Absolute>34563</Absolute>
    <NoteOn Channel="1" Note="99" Velocity="127"/>
  </Event>
  <Event>
    <Absolute>34624</Absolute>
    <NoteOff Channel="1" Note="98" Velocity="64"/>
  </Event>
  <Event>
    <Absolute>34624</Absolute>
    <NoteOff Channel="1" Note="99" Velocity="64"/>
  </Event>
  <Event>
    <Absolute>34685</Absolute>
    <NoteOn Channel="1" Note="98" Velocity="127"/>
  </Event>
  <Event>
    <Absolute>34685</Absolute>
    <NoteOn Channel="1" Note="99" Velocity="127"/>
  </Event>
  <Event>
    <Absolute>34746</Absolute>
    <NoteOff Channel="1" Note="98" Velocity="64"/>
  </Event>
  <Event>
    <Absolute>34746</Absolute>
    <NoteOff Channel="1" Note="99" Velocity="64"/>
  </Event>
  <Event>
    <Absolute>34931</Absolute>
    <NoteOn Channel="1" Note="99" Velocity="127"/>
  </Event>
  <Event>
    <Absolute>34992</Absolute>
    <NoteOff Channel="1" Note="99" Velocity="64"/>
  </Event>
  <Event>
    <Absolute>35053</Absolute>
    <NoteOn Channel="1" Note="98" Velocity="127"/>
  </Event>
  <Event>
    <Absolute>35114</Absolute>
    <NoteOff Channel="1" Note="98" Velocity="64"/>
  </Event>
  <Event>
    <Absolute>35299</Absolute>
    <NoteOn Channel="1" Note="97" Velocity="127"/>
  </Event>
  <Event>
    <Absolute>35360</Absolute>
    <NoteOff Channel="1" Note="97" Velocity="64"/>
  </Event>
  <Event>
    <Absolute>35544</Absolute>
    <NoteOn Channel="1" Note="96" Velocity="127"/>
  </Event>
  <Event>
    <Absolute>35605</Absolute>
    <NoteOff Channel="1" Note="96" Velocity="64"/>
  </Event>
  <Event>
    <Absolute>35789</Absolute>
    <NoteOn Channel="1" Note="98" Velocity="127"/>
  </Event>
  <Event>
    <Absolute>35789</Absolute>
    <NoteOn Channel="1" Note="99" Velocity="127"/>
  </Event>
  <Event>
    <Absolute>35850</Absolute>
    <NoteOff Channel="1" Note="98" Velocity="64"/>
  </Event>
  <Event>
    <Absolute>35850</Absolute>
    <NoteOff Channel="1" Note="99" Velocity="64"/>
  </Event>
  <Event>
    <Absolute>36035</Absolute>
    <NoteOn Channel="1" Note="98" Velocity="127"/>
  </Event>
  <Event>
    <Absolute>36096</Absolute>
    <NoteOff Channel="1" Note="98" Velocity="64"/>
  </Event>
  <Event>
    <Absolute>36158</Absolute>
    <NoteOn Channel="1" Note="98" Velocity="127"/>
  </Event>
  <Event>
    <Absolute>36219</Absolute>
    <NoteOff Channel="1" Note="98" Velocity="64"/>
  </Event>
  <Event>
    <Absolute>36281</Absolute>
    <NoteOn Channel="1" Note="97" Velocity="127"/>
  </Event>
  <Event>
    <Absolute>36342</Absolute>
    <NoteOff Channel="1" Note="97" Velocity="64"/>
  </Event>
  <Event>
    <Absolute>36404</Absolute>
    <NoteOn Channel="1" Note="98" Velocity="127"/>
  </Event>
  <Event>
    <Absolute>36465</Absolute>
    <NoteOff Channel="1" Note="98" Velocity="64"/>
  </Event>
  <Event>
    <Absolute>36527</Absolute>
    <NoteOn Channel="1" Note="98" Velocity="127"/>
  </Event>
  <Event>
    <Absolute>36527</Absolute>
    <NoteOn Channel="1" Note="99" Velocity="127"/>
  </Event>
  <Event>
    <Absolute>36588</Absolute>
    <NoteOff Channel="1" Note="98" Velocity="64"/>
  </Event>
  <Event>
    <Absolute>36588</Absolute>
    <NoteOff Channel="1" Note="99" Velocity="64"/>
  </Event>
  <Event>
    <Absolute>36650</Absolute>
    <NoteOn Channel="1" Note="98" Velocity="127"/>
  </Event>
  <Event>
    <Absolute>36650</Absolute>
    <NoteOn Channel="1" Note="99" Velocity="127"/>
  </Event>
  <Event>
    <Absolute>36711</Absolute>
    <NoteOff Channel="1" Note="98" Velocity="64"/>
  </Event>
  <Event>
    <Absolute>36711</Absolute>
    <NoteOff Channel="1" Note="99" Velocity="64"/>
  </Event>
  <Event>
    <Absolute>36896</Absolute>
    <NoteOn Channel="1" Note="99" Velocity="127"/>
  </Event>
  <Event>
    <Absolute>36957</Absolute>
    <NoteOff Channel="1" Note="99" Velocity="64"/>
  </Event>
  <Event>
    <Absolute>37019</Absolute>
    <NoteOn Channel="1" Note="98" Velocity="127"/>
  </Event>
  <Event>
    <Absolute>37080</Absolute>
    <NoteOff Channel="1" Note="98" Velocity="64"/>
  </Event>
  <Event>
    <Absolute>37264</Absolute>
    <NoteOn Channel="1" Note="97" Velocity="127"/>
  </Event>
  <Event>
    <Absolute>37325</Absolute>
    <NoteOff Channel="1" Note="97" Velocity="64"/>
  </Event>
  <Event>
    <Absolute>37510</Absolute>
    <NoteOn Channel="1" Note="96" Velocity="127"/>
  </Event>
  <Event>
    <Absolute>37571</Absolute>
    <NoteOff Channel="1" Note="96" Velocity="64"/>
  </Event>
  <Event>
    <Absolute>37756</Absolute>
    <NoteOn Channel="1" Note="100" Velocity="127"/>
  </Event>
  <Event>
    <Absolute>37817</Absolute>
    <NoteOff Channel="1" Note="100" Velocity="64"/>
  </Event>
  <Event>
    <Absolute>37879</Absolute>
    <NoteOn Channel="1" Note="99" Velocity="127"/>
  </Event>
  <Event>
    <Absolute>37940</Absolute>
    <NoteOff Channel="1" Note="99" Velocity="64"/>
  </Event>
  <Event>
    <Absolute>38002</Absolute>
    <NoteOn Channel="1" Note="98" Velocity="127"/>
  </Event>
  <Event>
    <Absolute>38063</Absolute>
    <NoteOff Channel="1" Note="98" Velocity="64"/>
  </Event>
  <Event>
    <Absolute>38125</Absolute>
    <NoteOn Channel="1" Note="97" Velocity="127"/>
  </Event>
  <Event>
    <Absolute>38186</Absolute>
    <NoteOff Channel="1" Note="97" Velocity="64"/>
  </Event>
  <Event>
    <Absolute>38248</Absolute>
    <NoteOn Channel="1" Note="98" Velocity="127"/>
  </Event>
  <Event>
    <Absolute>38309</Absolute>
    <NoteOff Channel="1" Note="98" Velocity="64"/>
  </Event>
  <Event>
    <Absolute>38370</Absolute>
    <NoteOn Channel="1" Note="97" Velocity="127"/>
  </Event>
  <Event>
    <Absolute>38431</Absolute>
    <NoteOff Channel="1" Note="97" Velocity="64"/>
  </Event>
  <Event>
    <Absolute>38492</Absolute>
    <NoteOn Channel="1" Note="96" Velocity="127"/>
  </Event>
  <Event>
    <Absolute>38553</Absolute>
    <NoteOff Channel="1" Note="96" Velocity="64"/>
  </Event>
  <Event>
    <Absolute>38615</Absolute>
    <NoteOn Channel="1" Note="100" Velocity="127"/>
  </Event>
  <Event>
    <Absolute>39226</Absolute>
    <NoteOff Channel="1" Note="100" Velocity="64"/>
  </Event>
  <Event>
    <Absolute>39226</Absolute>
    <NoteOn Channel="1" Note="99" Velocity="127"/>
  </Event>
  <Event>
    <Absolute>39287</Absolute>
    <NoteOff Channel="1" Note="99" Velocity="64"/>
  </Event>
  <Event>
    <Absolute>39349</Absolute>
    <NoteOn Channel="1" Note="98" Velocity="127"/>
  </Event>
  <Event>
    <Absolute>39410</Absolute>
    <NoteOff Channel="1" Note="98" Velocity="64"/>
  </Event>
  <Event>
    <Absolute>39471</Absolute>
    <NoteOn Channel="1" Note="97" Velocity="127"/>
  </Event>
  <Event>
    <Absolute>39532</Absolute>
    <NoteOff Channel="1" Note="97" Velocity="64"/>
  </Event>
  <Event>
    <Absolute>39593</Absolute>
    <NoteOn Channel="1" Note="96" Velocity="127"/>
  </Event>
  <Event>
    <Absolute>39654</Absolute>
    <NoteOff Channel="1" Note="96" Velocity="64"/>
  </Event>
  <Event>
    <Absolute>39716</Absolute>
    <NoteOn Channel="1" Note="98" Velocity="127"/>
  </Event>
  <Event>
    <Absolute>39716</Absolute>
    <NoteOn Channel="1" Note="99" Velocity="127"/>
  </Event>
  <Event>
    <Absolute>39776</Absolute>
    <NoteOff Channel="1" Note="98" Velocity="64"/>
  </Event>
  <Event>
    <Absolute>39776</Absolute>
    <NoteOff Channel="1" Note="99" Velocity="64"/>
  </Event>
  <Event>
    <Absolute>39837</Absolute>
    <NoteOn Channel="1" Note="98" Velocity="127"/>
  </Event>
  <Event>
    <Absolute>39897</Absolute>
    <NoteOff Channel="1" Note="98" Velocity="64"/>
  </Event>
  <Event>
    <Absolute>39958</Absolute>
    <NoteOn Channel="1" Note="98" Velocity="127"/>
  </Event>
  <Event>
    <Absolute>40018</Absolute>
    <NoteOff Channel="1" Note="98" Velocity="64"/>
  </Event>
  <Event>
    <Absolute>40201</Absolute>
    <NoteOn Channel="1" Note="97" Velocity="127"/>
  </Event>
  <Event>
    <Absolute>40261</Absolute>
    <NoteOff Channel="1" Note="97" Velocity="64"/>
  </Event>
  <Event>
    <Absolute>40322</Absolute>
    <NoteOn Channel="1" Note="98" Velocity="127"/>
  </Event>
  <Event>
    <Absolute>40382</Absolute>
    <NoteOff Channel="1" Note="98" Velocity="64"/>
  </Event>
  <Event>
    <Absolute>40444</Absolute>
    <NoteOn Channel="1" Note="98" Velocity="127"/>
  </Event>
  <Event>
    <Absolute>40444</Absolute>
    <NoteOn Channel="1" Note="99" Velocity="127"/>
  </Event>
  <Event>
    <Absolute>40504</Absolute>
    <NoteOff Channel="1" Note="98" Velocity="64"/>
  </Event>
  <Event>
    <Absolute>40504</Absolute>
    <NoteOff Channel="1" Note="99" Velocity="64"/>
  </Event>
  <Event>
    <Absolute>40565</Absolute>
    <NoteOn Channel="1" Note="98" Velocity="127"/>
  </Event>
  <Event>
    <Absolute>40565</Absolute>
    <NoteOn Channel="1" Note="99" Velocity="127"/>
  </Event>
  <Event>
    <Absolute>40625</Absolute>
    <NoteOff Channel="1" Note="98" Velocity="64"/>
  </Event>
  <Event>
    <Absolute>40625</Absolute>
    <NoteOff Channel="1" Note="99" Velocity="64"/>
  </Event>
  <Event>
    <Absolute>40808</Absolute>
    <NoteOn Channel="1" Note="99" Velocity="127"/>
  </Event>
  <Event>
    <Absolute>40868</Absolute>
    <NoteOff Channel="1" Note="99" Velocity="64"/>
  </Event>
  <Event>
    <Absolute>40929</Absolute>
    <NoteOn Channel="1" Note="98" Velocity="127"/>
  </Event>
  <Event>
    <Absolute>40989</Absolute>
    <NoteOff Channel="1" Note="98" Velocity="64"/>
  </Event>
  <Event>
    <Absolute>41172</Absolute>
    <NoteOn Channel="1" Note="97" Velocity="127"/>
  </Event>
  <Event>
    <Absolute>41232</Absolute>
    <NoteOff Channel="1" Note="97" Velocity="64"/>
  </Event>
  <Event>
    <Absolute>41414</Absolute>
    <NoteOn Channel="1" Note="96" Velocity="127"/>
  </Event>
  <Event>
    <Absolute>41474</Absolute>
    <NoteOff Channel="1" Note="96" Velocity="64"/>
  </Event>
  <Event>
    <Absolute>41536</Absolute>
    <NoteOn Channel="1" Note="96" Velocity="127"/>
  </Event>
  <Event>
    <Absolute>41596</Absolute>
    <NoteOff Channel="1" Note="96" Velocity="64"/>
  </Event>
  <Event>
    <Absolute>41657</Absolute>
    <NoteOn Channel="1" Note="98" Velocity="127"/>
  </Event>
  <Event>
    <Absolute>41657</Absolute>
    <NoteOn Channel="1" Note="99" Velocity="127"/>
  </Event>
  <Event>
    <Absolute>41717</Absolute>
    <NoteOff Channel="1" Note="98" Velocity="64"/>
  </Event>
  <Event>
    <Absolute>41717</Absolute>
    <NoteOff Channel="1" Note="99" Velocity="64"/>
  </Event>
  <Event>
    <Absolute>41778</Absolute>
    <NoteOn Channel="1" Note="98" Velocity="127"/>
  </Event>
  <Event>
    <Absolute>41838</Absolute>
    <NoteOff Channel="1" Note="98" Velocity="64"/>
  </Event>
  <Event>
    <Absolute>41899</Absolute>
    <NoteOn Channel="1" Note="98" Velocity="127"/>
  </Event>
  <Event>
    <Absolute>41959</Absolute>
    <NoteOff Channel="1" Note="98" Velocity="64"/>
  </Event>
  <Event>
    <Absolute>42142</Absolute>
    <NoteOn Channel="1" Note="97" Velocity="127"/>
  </Event>
  <Event>
    <Absolute>42202</Absolute>
    <NoteOff Channel="1" Note="97" Velocity="64"/>
  </Event>
  <Event>
    <Absolute>42263</Absolute>
    <NoteOn Channel="1" Note="98" Velocity="127"/>
  </Event>
  <Event>
    <Absolute>42323</Absolute>
    <NoteOff Channel="1" Note="98" Velocity="64"/>
  </Event>
  <Event>
    <Absolute>42383</Absolute>
    <NoteOn Channel="1" Note="98" Velocity="127"/>
  </Event>
  <Event>
    <Absolute>42383</Absolute>
    <NoteOn Channel="1" Note="99" Velocity="127"/>
  </Event>
  <Event>
    <Absolute>42443</Absolute>
    <NoteOff Channel="1" Note="98" Velocity="64"/>
  </Event>
  <Event>
    <Absolute>42443</Absolute>
    <NoteOff Channel="1" Note="99" Velocity="64"/>
  </Event>
  <Event>
    <Absolute>42504</Absolute>
    <NoteOn Channel="1" Note="98" Velocity="127"/>
  </Event>
  <Event>
    <Absolute>42504</Absolute>
    <NoteOn Channel="1" Note="99" Velocity="127"/>
  </Event>
  <Event>
    <Absolute>42564</Absolute>
    <NoteOff Channel="1" Note="98" Velocity="64"/>
  </Event>
  <Event>
    <Absolute>42564</Absolute>
    <NoteOff Channel="1" Note="99" Velocity="64"/>
  </Event>
  <Event>
    <Absolute>42746</Absolute>
    <NoteOn Channel="1" Note="99" Velocity="127"/>
  </Event>
  <Event>
    <Absolute>42806</Absolute>
    <NoteOff Channel="1" Note="99" Velocity="64"/>
  </Event>
  <Event>
    <Absolute>42866</Absolute>
    <NoteOn Channel="1" Note="98" Velocity="127"/>
  </Event>
  <Event>
    <Absolute>42926</Absolute>
    <NoteOff Channel="1" Note="98" Velocity="64"/>
  </Event>
  <Event>
    <Absolute>43108</Absolute>
    <NoteOn Channel="1" Note="97" Velocity="127"/>
  </Event>
  <Event>
    <Absolute>43168</Absolute>
    <NoteOff Channel="1" Note="97" Velocity="64"/>
  </Event>
  <Event>
    <Absolute>43349</Absolute>
    <NoteOn Channel="1" Note="96" Velocity="127"/>
  </Event>
  <Event>
    <Absolute>43409</Absolute>
    <NoteOff Channel="1" Note="96" Velocity="64"/>
  </Event>
  <Event>
    <Absolute>43470</Absolute>
    <NoteOn Channel="1" Note="96" Velocity="127"/>
  </Event>
  <Event>
    <Absolute>43530</Absolute>
    <NoteOff Channel="1" Note="96" Velocity="64"/>
  </Event>
  <Event>
    <Absolute>43591</Absolute>
    <NoteOn Channel="1" Note="98" Velocity="127"/>
  </Event>
  <Event>
    <Absolute>43591</Absolute>
    <NoteOn Channel="1" Note="99" Velocity="127"/>
  </Event>
  <Event>
    <Absolute>43651</Absolute>
    <NoteOff Channel="1" Note="98" Velocity="64"/>
  </Event>
  <Event>
    <Absolute>43651</Absolute>
    <NoteOff Channel="1" Note="99" Velocity="64"/>
  </Event>
  <Event>
    <Absolute>43711</Absolute>
    <NoteOn Channel="1" Note="98" Velocity="127"/>
  </Event>
  <Event>
    <Absolute>43771</Absolute>
    <NoteOff Channel="1" Note="98" Velocity="64"/>
  </Event>
  <Event>
    <Absolute>43832</Absolute>
    <NoteOn Channel="1" Note="98" Velocity="127"/>
  </Event>
  <Event>
    <Absolute>43892</Absolute>
    <NoteOff Channel="1" Note="98" Velocity="64"/>
  </Event>
  <Event>
    <Absolute>44073</Absolute>
    <NoteOn Channel="1" Note="97" Velocity="127"/>
  </Event>
  <Event>
    <Absolute>44133</Absolute>
    <NoteOff Channel="1" Note="97" Velocity="64"/>
  </Event>
  <Event>
    <Absolute>44195</Absolute>
    <NoteOn Channel="1" Note="98" Velocity="127"/>
  </Event>
  <Event>
    <Absolute>44255</Absolute>
    <NoteOff Channel="1" Note="98" Velocity="64"/>
  </Event>
  <Event>
    <Absolute>44316</Absolute>
    <NoteOn Channel="1" Note="98" Velocity="127"/>
  </Event>
  <Event>
    <Absolute>44316</Absolute>
    <NoteOn Channel="1" Note="99" Velocity="127"/>
  </Event>
  <Event>
    <Absolute>44376</Absolute>
    <NoteOff Channel="1" Note="98" Velocity="64"/>
  </Event>
  <Event>
    <Absolute>44376</Absolute>
    <NoteOff Channel="1" Note="99" Velocity="64"/>
  </Event>
  <Event>
    <Absolute>44438</Absolute>
    <NoteOn Channel="1" Note="98" Velocity="127"/>
  </Event>
  <Event>
    <Absolute>44438</Absolute>
    <NoteOn Channel="1" Note="99" Velocity="127"/>
  </Event>
  <Event>
    <Absolute>44498</Absolute>
    <NoteOff Channel="1" Note="98" Velocity="64"/>
  </Event>
  <Event>
    <Absolute>44498</Absolute>
    <NoteOff Channel="1" Note="99" Velocity="64"/>
  </Event>
  <Event>
    <Absolute>44681</Absolute>
    <NoteOn Channel="1" Note="99" Velocity="127"/>
  </Event>
  <Event>
    <Absolute>44741</Absolute>
    <NoteOff Channel="1" Note="99" Velocity="64"/>
  </Event>
  <Event>
    <Absolute>44802</Absolute>
    <NoteOn Channel="1" Note="98" Velocity="127"/>
  </Event>
  <Event>
    <Absolute>44862</Absolute>
    <NoteOff Channel="1" Note="98" Velocity="64"/>
  </Event>
  <Event>
    <Absolute>45045</Absolute>
    <NoteOn Channel="1" Note="97" Velocity="127"/>
  </Event>
  <Event>
    <Absolute>45105</Absolute>
    <NoteOff Channel="1" Note="97" Velocity="64"/>
  </Event>
  <Event>
    <Absolute>45288</Absolute>
    <NoteOn Channel="1" Note="96" Velocity="127"/>
  </Event>
  <Event>
    <Absolute>45348</Absolute>
    <NoteOff Channel="1" Note="96" Velocity="64"/>
  </Event>
  <Event>
    <Absolute>45410</Absolute>
    <NoteOn Channel="1" Note="96" Velocity="127"/>
  </Event>
  <Event>
    <Absolute>45470</Absolute>
    <NoteOff Channel="1" Note="96" Velocity="64"/>
  </Event>
  <Event>
    <Absolute>45531</Absolute>
    <NoteOn Channel="1" Note="98" Velocity="127"/>
  </Event>
  <Event>
    <Absolute>45531</Absolute>
    <NoteOn Channel="1" Note="99" Velocity="127"/>
  </Event>
  <Event>
    <Absolute>45591</Absolute>
    <NoteOff Channel="1" Note="98" Velocity="64"/>
  </Event>
  <Event>
    <Absolute>45591</Absolute>
    <NoteOff Channel="1" Note="99" Velocity="64"/>
  </Event>
  <Event>
    <Absolute>45652</Absolute>
    <NoteOn Channel="1" Note="98" Velocity="127"/>
  </Event>
  <Event>
    <Absolute>45712</Absolute>
    <NoteOff Channel="1" Note="98" Velocity="64"/>
  </Event>
  <Event>
    <Absolute>45774</Absolute>
    <NoteOn Channel="1" Note="98" Velocity="127"/>
  </Event>
  <Event>
    <Absolute>45834</Absolute>
    <NoteOff Channel="1" Note="98" Velocity="64"/>
  </Event>
  <Event>
    <Absolute>46017</Absolute>
    <NoteOn Channel="1" Note="97" Velocity="127"/>
  </Event>
  <Event>
    <Absolute>46077</Absolute>
    <NoteOff Channel="1" Note="97" Velocity="64"/>
  </Event>
  <Event>
    <Absolute>46137</Absolute>
    <NoteOn Channel="1" Note="98" Velocity="127"/>
  </Event>
  <Event>
    <Absolute>46197</Absolute>
    <NoteOff Channel="1" Note="98" Velocity="64"/>
  </Event>
  <Event>
    <Absolute>46258</Absolute>
    <NoteOn Channel="1" Note="98" Velocity="127"/>
  </Event>
  <Event>
    <Absolute>46258</Absolute>
    <NoteOn Channel="1" Note="99" Velocity="127"/>
  </Event>
  <Event>
    <Absolute>46318</Absolute>
    <NoteOff Channel="1" Note="98" Velocity="64"/>
  </Event>
  <Event>
    <Absolute>46318</Absolute>
    <NoteOff Channel="1" Note="99" Velocity="64"/>
  </Event>
  <Event>
    <Absolute>46378</Absolute>
    <NoteOn Channel="1" Note="98" Velocity="127"/>
  </Event>
  <Event>
    <Absolute>46378</Absolute>
    <NoteOn Channel="1" Note="99" Velocity="127"/>
  </Event>
  <Event>
    <Absolute>46438</Absolute>
    <NoteOff Channel="1" Note="98" Velocity="64"/>
  </Event>
  <Event>
    <Absolute>46438</Absolute>
    <NoteOff Channel="1" Note="99" Velocity="64"/>
  </Event>
  <Event>
    <Absolute>46619</Absolute>
    <NoteOn Channel="1" Note="99" Velocity="127"/>
  </Event>
  <Event>
    <Absolute>46679</Absolute>
    <NoteOff Channel="1" Note="99" Velocity="64"/>
  </Event>
  <Event>
    <Absolute>46739</Absolute>
    <NoteOn Channel="1" Note="98" Velocity="127"/>
  </Event>
  <Event>
    <Absolute>46799</Absolute>
    <NoteOff Channel="1" Note="98" Velocity="64"/>
  </Event>
  <Event>
    <Absolute>46980</Absolute>
    <NoteOn Channel="1" Note="97" Velocity="127"/>
  </Event>
  <Event>
    <Absolute>47038</Absolute>
    <NoteOff Channel="1" Note="97" Velocity="64"/>
  </Event>
  <Event>
    <Absolute>47216</Absolute>
    <NoteOn Channel="1" Note="96" Velocity="127"/>
  </Event>
  <Event>
    <Absolute>47274</Absolute>
    <NoteOff Channel="1" Note="96" Velocity="64"/>
  </Event>
  <Event>
    <Absolute>47452</Absolute>
    <NoteOn Channel="1" Note="98" Velocity="127"/>
  </Event>
  <Event>
    <Absolute>47452</Absolute>
    <NoteOn Channel="1" Note="100" Velocity="127"/>
  </Event>
  <Event>
    <Absolute>47510</Absolute>
    <NoteOff Channel="1" Note="98" Velocity="64"/>
  </Event>
  <Event>
    <Absolute>47510</Absolute>
    <NoteOff Channel="1" Note="100" Velocity="64"/>
  </Event>
  <Event>
    <Absolute>47687</Absolute>
    <NoteOn Channel="1" Note="98" Velocity="127"/>
  </Event>
  <Event>
    <Absolute>47687</Absolute>
    <NoteOn Channel="1" Note="100" Velocity="127"/>
  </Event>
  <Event>
    <Absolute>47745</Absolute>
    <NoteOff Channel="1" Note="98" Velocity="64"/>
  </Event>
  <Event>
    <Absolute>47745</Absolute>
    <NoteOff Channel="1" Note="100" Velocity="64"/>
  </Event>
  <Event>
    <Absolute>47923</Absolute>
    <NoteOn Channel="1" Note="98" Velocity="127"/>
  </Event>
  <Event>
    <Absolute>47923</Absolute>
    <NoteOn Channel="1" Note="99" Velocity="127"/>
  </Event>
  <Event>
    <Absolute>47984</Absolute>
    <NoteOff Channel="1" Note="98" Velocity="64"/>
  </Event>
  <Event>
    <Absolute>47984</Absolute>
    <NoteOff Channel="1" Note="99" Velocity="64"/>
  </Event>
  <Event>
    <Absolute>48169</Absolute>
    <NoteOn Channel="1" Note="98" Velocity="127"/>
  </Event>
  <Event>
    <Absolute>48230</Absolute>
    <NoteOff Channel="1" Note="98" Velocity="64"/>
  </Event>
  <Event>
    <Absolute>48292</Absolute>
    <NoteOn Channel="1" Note="98" Velocity="127"/>
  </Event>
  <Event>
    <Absolute>48292</Absolute>
    <NoteOn Channel="1" Note="100" Velocity="127"/>
  </Event>
  <Event>
    <Absolute>48353</Absolute>
    <NoteOff Channel="1" Note="98" Velocity="64"/>
  </Event>
  <Event>
    <Absolute>48353</Absolute>
    <NoteOff Channel="1" Note="100" Velocity="64"/>
  </Event>
  <Event>
    <Absolute>48539</Absolute>
    <NoteOn Channel="1" Note="98" Velocity="127"/>
  </Event>
  <Event>
    <Absolute>48539</Absolute>
    <NoteOn Channel="1" Note="99" Velocity="127"/>
  </Event>
  <Event>
    <Absolute>48600</Absolute>
    <NoteOff Channel="1" Note="98" Velocity="64"/>
  </Event>
  <Event>
    <Absolute>48600</Absolute>
    <NoteOff Channel="1" Note="99" Velocity="64"/>
  </Event>
  <Event>
    <Absolute>48662</Absolute>
    <NoteOn Channel="1" Note="98" Velocity="127"/>
  </Event>
  <Event>
    <Absolute>48662</Absolute>
    <NoteOn Channel="1" Note="99" Velocity="127"/>
  </Event>
  <Event>
    <Absolute>48723</Absolute>
    <NoteOff Channel="1" Note="98" Velocity="64"/>
  </Event>
  <Event>
    <Absolute>48723</Absolute>
    <NoteOff Channel="1" Note="99" Velocity="64"/>
  </Event>
  <Event>
    <Absolute>48908</Absolute>
    <NoteOn Channel="1" Note="97" Velocity="127"/>
  </Event>
  <Event>
    <Absolute>48908</Absolute>
    <NoteOn Channel="1" Note="99" Velocity="127"/>
  </Event>
  <Event>
    <Absolute>48969</Absolute>
    <NoteOff Channel="1" Note="97" Velocity="64"/>
  </Event>
  <Event>
    <Absolute>48969</Absolute>
    <NoteOff Channel="1" Note="99" Velocity="64"/>
  </Event>
  <Event>
    <Absolute>49152</Absolute>
    <NoteOn Channel="1" Note="97" Velocity="127"/>
  </Event>
  <Event>
    <Absolute>49152</Absolute>
    <NoteOn Channel="1" Note="98" Velocity="127"/>
  </Event>
  <Event>
    <Absolute>49213</Absolute>
    <NoteOff Channel="1" Note="97" Velocity="64"/>
  </Event>
  <Event>
    <Absolute>49213</Absolute>
    <NoteOff Channel="1" Note="98" Velocity="64"/>
  </Event>
  <Event>
    <Absolute>49396</Absolute>
    <NoteOn Channel="1" Note="98" Velocity="127"/>
  </Event>
  <Event>
    <Absolute>49396</Absolute>
    <NoteOn Channel="1" Note="100" Velocity="127"/>
  </Event>
  <Event>
    <Absolute>49457</Absolute>
    <NoteOff Channel="1" Note="98" Velocity="64"/>
  </Event>
  <Event>
    <Absolute>49457</Absolute>
    <NoteOff Channel="1" Note="100" Velocity="64"/>
  </Event>
  <Event>
    <Absolute>49641</Absolute>
    <NoteOn Channel="1" Note="98" Velocity="127"/>
  </Event>
  <Event>
    <Absolute>49702</Absolute>
    <NoteOff Channel="1" Note="98" Velocity="64"/>
  </Event>
  <Event>
    <Absolute>49763</Absolute>
    <NoteOn Channel="1" Note="98" Velocity="127"/>
  </Event>
  <Event>
    <Absolute>49824</Absolute>
    <NoteOff Channel="1" Note="98" Velocity="64"/>
  </Event>
  <Event>
    <Absolute>49885</Absolute>
    <NoteOn Channel="1" Note="98" Velocity="127"/>
  </Event>
  <Event>
    <Absolute>49885</Absolute>
    <NoteOn Channel="1" Note="99" Velocity="127"/>
  </Event>
  <Event>
    <Absolute>49946</Absolute>
    <NoteOff Channel="1" Note="98" Velocity="64"/>
  </Event>
  <Event>
    <Absolute>49946</Absolute>
    <NoteOff Channel="1" Note="99" Velocity="64"/>
  </Event>
  <Event>
    <Absolute>50130</Absolute>
    <NoteOn Channel="1" Note="98" Velocity="127"/>
  </Event>
  <Event>
    <Absolute>50191</Absolute>
    <NoteOff Channel="1" Note="98" Velocity="64"/>
  </Event>
  <Event>
    <Absolute>50252</Absolute>
    <NoteOn Channel="1" Note="98" Velocity="127"/>
  </Event>
  <Event>
    <Absolute>50252</Absolute>
    <NoteOn Channel="1" Note="100" Velocity="127"/>
  </Event>
  <Event>
    <Absolute>50313</Absolute>
    <NoteOff Channel="1" Note="98" Velocity="64"/>
  </Event>
  <Event>
    <Absolute>50313</Absolute>
    <NoteOff Channel="1" Note="100" Velocity="64"/>
  </Event>
  <Event>
    <Absolute>50497</Absolute>
    <NoteOn Channel="1" Note="98" Velocity="127"/>
  </Event>
  <Event>
    <Absolute>50497</Absolute>
    <NoteOn Channel="1" Note="99" Velocity="127"/>
  </Event>
  <Event>
    <Absolute>50558</Absolute>
    <NoteOff Channel="1" Note="98" Velocity="64"/>
  </Event>
  <Event>
    <Absolute>50558</Absolute>
    <NoteOff Channel="1" Note="99" Velocity="64"/>
  </Event>
  <Event>
    <Absolute>50620</Absolute>
    <NoteOn Channel="1" Note="98" Velocity="127"/>
  </Event>
  <Event>
    <Absolute>50620</Absolute>
    <NoteOn Channel="1" Note="99" Velocity="127"/>
  </Event>
  <Event>
    <Absolute>50681</Absolute>
    <NoteOff Channel="1" Note="98" Velocity="64"/>
  </Event>
  <Event>
    <Absolute>50681</Absolute>
    <NoteOff Channel="1" Note="99" Velocity="64"/>
  </Event>
  <Event>
    <Absolute>50865</Absolute>
    <NoteOn Channel="1" Note="97" Velocity="127"/>
  </Event>
  <Event>
    <Absolute>50865</Absolute>
    <NoteOn Channel="1" Note="99" Velocity="127"/>
  </Event>
  <Event>
    <Absolute>50926</Absolute>
    <NoteOff Channel="1" Note="97" Velocity="64"/>
  </Event>
  <Event>
    <Absolute>50926</Absolute>
    <NoteOff Channel="1" Note="99" Velocity="64"/>
  </Event>
  <Event>
    <Absolute>51110</Absolute>
    <NoteOn Channel="1" Note="97" Velocity="127"/>
  </Event>
  <Event>
    <Absolute>51110</Absolute>
    <NoteOn Channel="1" Note="98" Velocity="127"/>
  </Event>
  <Event>
    <Absolute>51171</Absolute>
    <NoteOff Channel="1" Note="97" Velocity="64"/>
  </Event>
  <Event>
    <Absolute>51171</Absolute>
    <NoteOff Channel="1" Note="98" Velocity="64"/>
  </Event>
  <Event>
    <Absolute>51355</Absolute>
    <NoteOn Channel="1" Note="98" Velocity="127"/>
  </Event>
  <Event>
    <Absolute>51355</Absolute>
    <NoteOn Channel="1" Note="100" Velocity="127"/>
  </Event>
  <Event>
    <Absolute>51416</Absolute>
    <NoteOff Channel="1" Note="98" Velocity="64"/>
  </Event>
  <Event>
    <Absolute>51416</Absolute>
    <NoteOff Channel="1" Note="100" Velocity="64"/>
  </Event>
  <Event>
    <Absolute>51600</Absolute>
    <NoteOn Channel="1" Note="98" Velocity="127"/>
  </Event>
  <Event>
    <Absolute>51661</Absolute>
    <NoteOff Channel="1" Note="98" Velocity="64"/>
  </Event>
  <Event>
    <Absolute>51723</Absolute>
    <NoteOn Channel="1" Note="98" Velocity="127"/>
  </Event>
  <Event>
    <Absolute>51784</Absolute>
    <NoteOff Channel="1" Note="98" Velocity="64"/>
  </Event>
  <Event>
    <Absolute>51845</Absolute>
    <NoteOn Channel="1" Note="98" Velocity="127"/>
  </Event>
  <Event>
    <Absolute>51845</Absolute>
    <NoteOn Channel="1" Note="99" Velocity="127"/>
  </Event>
  <Event>
    <Absolute>51905</Absolute>
    <NoteOff Channel="1" Note="98" Velocity="64"/>
  </Event>
  <Event>
    <Absolute>51905</Absolute>
    <NoteOff Channel="1" Note="99" Velocity="64"/>
  </Event>
  <Event>
    <Absolute>52088</Absolute>
    <NoteOn Channel="1" Note="98" Velocity="127"/>
  </Event>
  <Event>
    <Absolute>52148</Absolute>
    <NoteOff Channel="1" Note="98" Velocity="64"/>
  </Event>
  <Event>
    <Absolute>52210</Absolute>
    <NoteOn Channel="1" Note="98" Velocity="127"/>
  </Event>
  <Event>
    <Absolute>52210</Absolute>
    <NoteOn Channel="1" Note="100" Velocity="127"/>
  </Event>
  <Event>
    <Absolute>52270</Absolute>
    <NoteOff Channel="1" Note="98" Velocity="64"/>
  </Event>
  <Event>
    <Absolute>52270</Absolute>
    <NoteOff Channel="1" Note="100" Velocity="64"/>
  </Event>
  <Event>
    <Absolute>52453</Absolute>
    <NoteOn Channel="1" Note="98" Velocity="127"/>
  </Event>
  <Event>
    <Absolute>52453</Absolute>
    <NoteOn Channel="1" Note="99" Velocity="127"/>
  </Event>
  <Event>
    <Absolute>52513</Absolute>
    <NoteOff Channel="1" Note="98" Velocity="64"/>
  </Event>
  <Event>
    <Absolute>52513</Absolute>
    <NoteOff Channel="1" Note="99" Velocity="64"/>
  </Event>
  <Event>
    <Absolute>52574</Absolute>
    <NoteOn Channel="1" Note="98" Velocity="127"/>
  </Event>
  <Event>
    <Absolute>52574</Absolute>
    <NoteOn Channel="1" Note="99" Velocity="127"/>
  </Event>
  <Event>
    <Absolute>52634</Absolute>
    <NoteOff Channel="1" Note="98" Velocity="64"/>
  </Event>
  <Event>
    <Absolute>52634</Absolute>
    <NoteOff Channel="1" Note="99" Velocity="64"/>
  </Event>
  <Event>
    <Absolute>52817</Absolute>
    <NoteOn Channel="1" Note="97" Velocity="127"/>
  </Event>
  <Event>
    <Absolute>52817</Absolute>
    <NoteOn Channel="1" Note="99" Velocity="127"/>
  </Event>
  <Event>
    <Absolute>52877</Absolute>
    <NoteOff Channel="1" Note="97" Velocity="64"/>
  </Event>
  <Event>
    <Absolute>52877</Absolute>
    <NoteOff Channel="1" Note="99" Velocity="64"/>
  </Event>
  <Event>
    <Absolute>53061</Absolute>
    <NoteOn Channel="1" Note="97" Velocity="127"/>
  </Event>
  <Event>
    <Absolute>53061</Absolute>
    <NoteOn Channel="1" Note="98" Velocity="127"/>
  </Event>
  <Event>
    <Absolute>53121</Absolute>
    <NoteOff Channel="1" Note="97" Velocity="64"/>
  </Event>
  <Event>
    <Absolute>53121</Absolute>
    <NoteOff Channel="1" Note="98" Velocity="64"/>
  </Event>
  <Event>
    <Absolute>53304</Absolute>
    <NoteOn Channel="1" Note="98" Velocity="127"/>
  </Event>
  <Event>
    <Absolute>53304</Absolute>
    <NoteOn Channel="1" Note="100" Velocity="127"/>
  </Event>
  <Event>
    <Absolute>53364</Absolute>
    <NoteOff Channel="1" Note="98" Velocity="64"/>
  </Event>
  <Event>
    <Absolute>53364</Absolute>
    <NoteOff Channel="1" Note="100" Velocity="64"/>
  </Event>
  <Event>
    <Absolute>53547</Absolute>
    <NoteOn Channel="1" Note="98" Velocity="127"/>
  </Event>
  <Event>
    <Absolute>53607</Absolute>
    <NoteOff Channel="1" Note="98" Velocity="64"/>
  </Event>
  <Event>
    <Absolute>53669</Absolute>
    <NoteOn Channel="1" Note="98" Velocity="127"/>
  </Event>
  <Event>
    <Absolute>53729</Absolute>
    <NoteOff Channel="1" Note="98" Velocity="64"/>
  </Event>
  <Event>
    <Absolute>53790</Absolute>
    <NoteOn Channel="1" Note="98" Velocity="127"/>
  </Event>
  <Event>
    <Absolute>53790</Absolute>
    <NoteOn Channel="1" Note="99" Velocity="127"/>
  </Event>
  <Event>
    <Absolute>53851</Absolute>
    <NoteOff Channel="1" Note="98" Velocity="64"/>
  </Event>
  <Event>
    <Absolute>53851</Absolute>
    <NoteOff Channel="1" Note="99" Velocity="64"/>
  </Event>
  <Event>
    <Absolute>54036</Absolute>
    <NoteOn Channel="1" Note="98" Velocity="127"/>
  </Event>
  <Event>
    <Absolute>54097</Absolute>
    <NoteOff Channel="1" Note="98" Velocity="64"/>
  </Event>
  <Event>
    <Absolute>54159</Absolute>
    <NoteOn Channel="1" Note="98" Velocity="127"/>
  </Event>
  <Event>
    <Absolute>54159</Absolute>
    <NoteOn Channel="1" Note="100" Velocity="127"/>
  </Event>
  <Event>
    <Absolute>54220</Absolute>
    <NoteOff Channel="1" Note="98" Velocity="64"/>
  </Event>
  <Event>
    <Absolute>54220</Absolute>
    <NoteOff Channel="1" Note="100" Velocity="64"/>
  </Event>
  <Event>
    <Absolute>54405</Absolute>
    <NoteOn Channel="1" Note="98" Velocity="127"/>
  </Event>
  <Event>
    <Absolute>54405</Absolute>
    <NoteOn Channel="1" Note="99" Velocity="127"/>
  </Event>
  <Event>
    <Absolute>54466</Absolute>
    <NoteOff Channel="1" Note="98" Velocity="64"/>
  </Event>
  <Event>
    <Absolute>54466</Absolute>
    <NoteOff Channel="1" Note="99" Velocity="64"/>
  </Event>
  <Event>
    <Absolute>54527</Absolute>
    <NoteOn Channel="1" Note="98" Velocity="127"/>
  </Event>
  <Event>
    <Absolute>54527</Absolute>
    <NoteOn Channel="1" Note="99" Velocity="127"/>
  </Event>
  <Event>
    <Absolute>54588</Absolute>
    <NoteOff Channel="1" Note="98" Velocity="64"/>
  </Event>
  <Event>
    <Absolute>54588</Absolute>
    <NoteOff Channel="1" Note="99" Velocity="64"/>
  </Event>
  <Event>
    <Absolute>54773</Absolute>
    <NoteOn Channel="1" Note="97" Velocity="127"/>
  </Event>
  <Event>
    <Absolute>54773</Absolute>
    <NoteOn Channel="1" Note="99" Velocity="127"/>
  </Event>
  <Event>
    <Absolute>54834</Absolute>
    <NoteOff Channel="1" Note="97" Velocity="64"/>
  </Event>
  <Event>
    <Absolute>54834</Absolute>
    <NoteOff Channel="1" Note="99" Velocity="64"/>
  </Event>
  <Event>
    <Absolute>55019</Absolute>
    <NoteOn Channel="1" Note="97" Velocity="127"/>
  </Event>
  <Event>
    <Absolute>55019</Absolute>
    <NoteOn Channel="1" Note="98" Velocity="127"/>
  </Event>
  <Event>
    <Absolute>55080</Absolute>
    <NoteOff Channel="1" Note="97" Velocity="64"/>
  </Event>
  <Event>
    <Absolute>55080</Absolute>
    <NoteOff Channel="1" Note="98" Velocity="64"/>
  </Event>
  <Event>
    <Absolute>55265</Absolute>
    <NoteOn Channel="1" Note="99" Velocity="127"/>
  </Event>
  <Event>
    <Absolute>55756</Absolute>
    <NoteOff Channel="1" Note="99" Velocity="64"/>
  </Event>
  <Event>
    <Absolute>55756</Absolute>
    <NoteOn Channel="1" Note="98" Velocity="127"/>
  </Event>
  <Event>
    <Absolute>56247</Absolute>
    <NoteOff Channel="1" Note="98" Velocity="64"/>
  </Event>
  <Event>
    <Absolute>56248</Absolute>
    <NoteOn Channel="1" Note="97" Velocity="127"/>
  </Event>
  <Event>
    <Absolute>56739</Absolute>
    <NoteOff Channel="1" Note="97" Velocity="64"/>
  </Event>
  <Event>
    <Absolute>56739</Absolute>
    <NoteOn Channel="1" Note="96" Velocity="127"/>
  </Event>
  <Event>
    <Absolute>56800</Absolute>
    <NoteOff Channel="1" Note="96" Velocity="64"/>
  </Event>
  <Event>
    <Absolute>56985</Absolute>
    <NoteOn Channel="1" Note="96" Velocity="127"/>
  </Event>
  <Event>
    <Absolute>57046</Absolute>
    <NoteOff Channel="1" Note="96" Velocity="64"/>
  </Event>
  <Event>
    <Absolute>57108</Absolute>
    <NoteOn Channel="1" Note="96" Velocity="127"/>
  </Event>
  <Event>
    <Absolute>57169</Absolute>
    <NoteOff Channel="1" Note="96" Velocity="64"/>
  </Event>
  <Event>
    <Absolute>57231</Absolute>
    <NoteOn Channel="1" Note="97" Velocity="127"/>
  </Event>
  <Event>
    <Absolute>57231</Absolute>
    <NoteOn Channel="1" Note="100" Velocity="127"/>
  </Event>
  <Event>
    <Absolute>57720</Absolute>
    <NoteOff Channel="1" Note="97" Velocity="64"/>
  </Event>
  <Event>
    <Absolute>57720</Absolute>
    <NoteOff Channel="1" Note="100" Velocity="64"/>
  </Event>
  <Event>
    <Absolute>57720</Absolute>
    <NoteOn Channel="1" Note="99" Velocity="127"/>
  </Event>
  <Event>
    <Absolute>57781</Absolute>
    <NoteOff Channel="1" Note="99" Velocity="64"/>
  </Event>
  <Event>
    <Absolute>57965</Absolute>
    <NoteOn Channel="1" Note="99" Velocity="127"/>
  </Event>
  <Event>
    <Absolute>57965</Absolute>
    <NoteOn Channel="1" Note="100" Velocity="127"/>
  </Event>
  <Event>
    <Absolute>58026</Absolute>
    <NoteOff Channel="1" Note="99" Velocity="64"/>
  </Event>
  <Event>
    <Absolute>58026</Absolute>
    <NoteOff Channel="1" Note="100" Velocity="64"/>
  </Event>
  <Event>
    <Absolute>58087</Absolute>
    <NoteOn Channel="1" Note="99" Velocity="127"/>
  </Event>
  <Event>
    <Absolute>58087</Absolute>
    <NoteOn Channel="1" Note="100" Velocity="127"/>
  </Event>
  <Event>
    <Absolute>58148</Absolute>
    <NoteOff Channel="1" Note="99" Velocity="64"/>
  </Event>
  <Event>
    <Absolute>58148</Absolute>
    <NoteOff Channel="1" Note="100" Velocity="64"/>
  </Event>
  <Event>
    <Absolute>58210</Absolute>
    <NoteOn Channel="1" Note="99" Velocity="127"/>
  </Event>
  <Event>
    <Absolute>58210</Absolute>
    <NoteOn Channel="1" Note="100" Velocity="127"/>
  </Event>
  <Event>
    <Absolute>59188</Absolute>
    <NoteOn Channel="1" Note="100" Velocity="127"/>
  </Event>
  <Event>
    <Absolute>59188</Absolute>
    <NoteOff Channel="1" Note="99" Velocity="64"/>
  </Event>
  <Event>
    <Absolute>59188</Absolute>
    <NoteOff Channel="1" Note="100" Velocity="64"/>
  </Event>
  <Event>
    <Absolute>59249</Absolute>
    <NoteOff Channel="1" Note="100" Velocity="64"/>
  </Event>
  <Event>
    <Absolute>59433</Absolute>
    <NoteOn Channel="1" Note="100" Velocity="127"/>
  </Event>
  <Event>
    <Absolute>59494</Absolute>
    <NoteOff Channel="1" Note="100" Velocity="64"/>
  </Event>
  <Event>
    <Absolute>59678</Absolute>
    <NoteOn Channel="1" Note="99" Velocity="127"/>
  </Event>
  <Event>
    <Absolute>59739</Absolute>
    <NoteOff Channel="1" Note="99" Velocity="64"/>
  </Event>
  <Event>
    <Absolute>59923</Absolute>
    <NoteOn Channel="1" Note="98" Velocity="127"/>
  </Event>
  <Event>
    <Absolute>59984</Absolute>
    <NoteOff Channel="1" Note="98" Velocity="64"/>
  </Event>
  <Event>
    <Absolute>60045</Absolute>
    <NoteOn Channel="1" Note="98" Velocity="127"/>
  </Event>
  <Event>
    <Absolute>60106</Absolute>
    <NoteOff Channel="1" Note="98" Velocity="64"/>
  </Event>
  <Event>
    <Absolute>60290</Absolute>
    <NoteOn Channel="1" Note="97" Velocity="127"/>
  </Event>
  <Event>
    <Absolute>60351</Absolute>
    <NoteOff Channel="1" Note="97" Velocity="64"/>
  </Event>
  <Event>
    <Absolute>60412</Absolute>
    <NoteOn Channel="1" Note="97" Velocity="127"/>
  </Event>
  <Event>
    <Absolute>60473</Absolute>
    <NoteOff Channel="1" Note="97" Velocity="64"/>
  </Event>
  <Event>
    <Absolute>60657</Absolute>
    <NoteOn Channel="1" Note="96" Velocity="127"/>
  </Event>
  <Event>
    <Absolute>60718</Absolute>
    <NoteOff Channel="1" Note="96" Velocity="64"/>
  </Event>
  <Event>
    <Absolute>60718</Absolute>
    <NoteOn Channel="1" Note="97" Velocity="127"/>
  </Event>
  <Event>
    <Absolute>60779</Absolute>
    <NoteOff Channel="1" Note="97" Velocity="64"/>
  </Event>
  <Event>
    <Absolute>60902</Absolute>
    <NoteOn Channel="1" Note="96" Velocity="127"/>
  </Event>
  <Event>
    <Absolute>60963</Absolute>
    <NoteOff Channel="1" Note="96" Velocity="64"/>
  </Event>
  <Event>
    <Absolute>61146</Absolute>
    <NoteOn Channel="1" Note="100" Velocity="127"/>
  </Event>
  <Event>
    <Absolute>61207</Absolute>
    <NoteOff Channel="1" Note="100" Velocity="64"/>
  </Event>
  <Event>
    <Absolute>61391</Absolute>
    <NoteOn Channel="1" Note="100" Velocity="127"/>
  </Event>
  <Event>
    <Absolute>61452</Absolute>
    <NoteOff Channel="1" Note="100" Velocity="64"/>
  </Event>
  <Event>
    <Absolute>61636</Absolute>
    <NoteOn Channel="1" Note="99" Velocity="127"/>
  </Event>
  <Event>
    <Absolute>61696</Absolute>
    <NoteOff Channel="1" Note="99" Velocity="64"/>
  </Event>
  <Event>
    <Absolute>61876</Absolute>
    <NoteOn Channel="1" Note="98" Velocity="127"/>
  </Event>
  <Event>
    <Absolute>61936</Absolute>
    <NoteOff Channel="1" Note="98" Velocity="64"/>
  </Event>
  <Event>
    <Absolute>61996</Absolute>
    <NoteOn Channel="1" Note="98" Velocity="127"/>
  </Event>
  <Event>
    <Absolute>62056</Absolute>
    <NoteOff Channel="1" Note="98" Velocity="64"/>
  </Event>
  <Event>
    <Absolute>62237</Absolute>
    <NoteOn Channel="1" Note="97" Velocity="127"/>
  </Event>
  <Event>
    <Absolute>62297</Absolute>
    <NoteOff Channel="1" Note="97" Velocity="64"/>
  </Event>
  <Event>
    <Absolute>62357</Absolute>
    <NoteOn Channel="1" Note="97" Velocity="127"/>
  </Event>
  <Event>
    <Absolute>62417</Absolute>
    <NoteOff Channel="1" Note="97" Velocity="64"/>
  </Event>
  <Event>
    <Absolute>62597</Absolute>
    <NoteOn Channel="1" Note="96" Velocity="127"/>
  </Event>
  <Event>
    <Absolute>62658</Absolute>
    <NoteOff Channel="1" Note="96" Velocity="64"/>
  </Event>
  <Event>
    <Absolute>62658</Absolute>
    <NoteOn Channel="1" Note="97" Velocity="127"/>
  </Event>
  <Event>
    <Absolute>62719</Absolute>
    <NoteOff Channel="1" Note="97" Velocity="64"/>
  </Event>
  <Event>
    <Absolute>62842</Absolute>
    <NoteOn Channel="1" Note="96" Velocity="127"/>
  </Event>
  <Event>
    <Absolute>62903</Absolute>
    <NoteOff Channel="1" Note="96" Velocity="64"/>
  </Event>
  <Event>
    <Absolute>63086</Absolute>
    <NoteOn Channel="1" Note="100" Velocity="127"/>
  </Event>
  <Event>
    <Absolute>63147</Absolute>
    <NoteOff Channel="1" Note="100" Velocity="64"/>
  </Event>
  <Event>
    <Absolute>63331</Absolute>
    <NoteOn Channel="1" Note="100" Velocity="127"/>
  </Event>
  <Event>
    <Absolute>63392</Absolute>
    <NoteOff Channel="1" Note="100" Velocity="64"/>
  </Event>
  <Event>
    <Absolute>63575</Absolute>
    <NoteOn Channel="1" Note="99" Velocity="127"/>
  </Event>
  <Event>
    <Absolute>63635</Absolute>
    <NoteOff Channel="1" Note="99" Velocity="64"/>
  </Event>
  <Event>
    <Absolute>63818</Absolute>
    <NoteOn Channel="1" Note="98" Velocity="127"/>
  </Event>
  <Event>
    <Absolute>63878</Absolute>
    <NoteOff Channel="1" Note="98" Velocity="64"/>
  </Event>
  <Event>
    <Absolute>63939</Absolute>
    <NoteOn Channel="1" Note="98" Velocity="127"/>
  </Event>
  <Event>
    <Absolute>63999</Absolute>
    <NoteOff Channel="1" Note="98" Velocity="64"/>
  </Event>
  <Event>
    <Absolute>64182</Absolute>
    <NoteOn Channel="1" Note="97" Velocity="127"/>
  </Event>
  <Event>
    <Absolute>64242</Absolute>
    <NoteOff Channel="1" Note="97" Velocity="64"/>
  </Event>
  <Event>
    <Absolute>64303</Absolute>
    <NoteOn Channel="1" Note="97" Velocity="127"/>
  </Event>
  <Event>
    <Absolute>64363</Absolute>
    <NoteOff Channel="1" Note="97" Velocity="64"/>
  </Event>
  <Event>
    <Absolute>64545</Absolute>
    <NoteOn Channel="1" Note="96" Velocity="127"/>
  </Event>
  <Event>
    <Absolute>64605</Absolute>
    <NoteOff Channel="1" Note="96" Velocity="64"/>
  </Event>
  <Event>
    <Absolute>64606</Absolute>
    <NoteOn Channel="1" Note="97" Velocity="127"/>
  </Event>
  <Event>
    <Absolute>64666</Absolute>
    <NoteOff Channel="1" Note="97" Velocity="64"/>
  </Event>
  <Event>
    <Absolute>64788</Absolute>
    <NoteOn Channel="1" Note="96" Velocity="127"/>
  </Event>
  <Event>
    <Absolute>64848</Absolute>
    <NoteOff Channel="1" Note="96" Velocity="64"/>
  </Event>
  <Event>
    <Absolute>65030</Absolute>
    <NoteOn Channel="1" Note="100" Velocity="127"/>
  </Event>
  <Event>
    <Absolute>65393</Absolute>
    <NoteOff Channel="1" Note="100" Velocity="64"/>
  </Event>
  <Event>
    <Absolute>65394</Absolute>
    <NoteOn Channel="1" Note="99" Velocity="127"/>
  </Event>
  <Event>
    <Absolute>65757</Absolute>
    <NoteOff Channel="1" Note="99" Velocity="64"/>
  </Event>
  <Event>
    <Absolute>65758</Absolute>
    <NoteOn Channel="1" Note="98" Velocity="127"/>
  </Event>
  <Event>
    <Absolute>65758</Absolute>
    <NoteOn Channel="1" Note="100" Velocity="127"/>
  </Event>
  <Event>
    <Absolute>66242</Absolute>
    <NoteOff Channel="1" Note="98" Velocity="64"/>
  </Event>
  <Event>
    <Absolute>66242</Absolute>
    <NoteOff Channel="1" Note="100" Velocity="64"/>
  </Event>
  <Event>
    <Absolute>66243</Absolute>
    <NoteOn Channel="1" Note="97" Velocity="127"/>
  </Event>
  <Event>
    <Absolute>66303</Absolute>
    <NoteOff Channel="1" Note="97" Velocity="64"/>
  </Event>
  <Event>
    <Absolute>66485</Absolute>
    <NoteOn Channel="1" Note="96" Velocity="127"/>
  </Event>
  <Event>
    <Absolute>66545</Absolute>
    <NoteOff Channel="1" Note="96" Velocity="64"/>
  </Event>
  <Event>
    <Absolute>66546</Absolute>
    <NoteOn Channel="1" Note="97" Velocity="127"/>
  </Event>
  <Event>
    <Absolute>66606</Absolute>
    <NoteOff Channel="1" Note="97" Velocity="64"/>
  </Event>
  <Event>
    <Absolute>66728</Absolute>
    <NoteOn Channel="1" Note="96" Velocity="127"/>
  </Event>
  <Event>
    <Absolute>66788</Absolute>
    <NoteOff Channel="1" Note="96" Velocity="64"/>
  </Event>
  <Event>
    <Absolute>66970</Absolute>
    <NoteOn Channel="1" Note="98" Velocity="127"/>
  </Event>
  <Event>
    <Absolute>66970</Absolute>
    <NoteOn Channel="1" Note="99" Velocity="127"/>
  </Event>
  <Event>
    <Absolute>67030</Absolute>
    <NoteOff Channel="1" Note="98" Velocity="64"/>
  </Event>
  <Event>
    <Absolute>67030</Absolute>
    <NoteOff Channel="1" Note="99" Velocity="64"/>
  </Event>
  <Event>
    <Absolute>67213</Absolute>
    <NoteOn Channel="1" Note="99" Velocity="127"/>
  </Event>
  <Event>
    <Absolute>67273</Absolute>
    <NoteOff Channel="1" Note="99" Velocity="64"/>
  </Event>
  <Event>
    <Absolute>67455</Absolute>
    <NoteOn Channel="1" Note="97" Velocity="127"/>
  </Event>
  <Event>
    <Absolute>67515</Absolute>
    <NoteOff Channel="1" Note="97" Velocity="64"/>
  </Event>
  <Event>
    <Absolute>67576</Absolute>
    <NoteOn Channel="1" Note="98" Velocity="127"/>
  </Event>
  <Event>
    <Absolute>67636</Absolute>
    <NoteOff Channel="1" Note="98" Velocity="64"/>
  </Event>
  <Event>
    <Absolute>67698</Absolute>
    <NoteOn Channel="1" Note="98" Velocity="127"/>
  </Event>
  <Event>
    <Absolute>67698</Absolute>
    <NoteOn Channel="1" Note="99" Velocity="127"/>
  </Event>
  <Event>
    <Absolute>67758</Absolute>
    <NoteOff Channel="1" Note="98" Velocity="64"/>
  </Event>
  <Event>
    <Absolute>67758</Absolute>
    <NoteOff Channel="1" Note="99" Velocity="64"/>
  </Event>
  <Event>
    <Absolute>67819</Absolute>
    <NoteOn Channel="1" Note="98" Velocity="127"/>
  </Event>
  <Event>
    <Absolute>67819</Absolute>
    <NoteOn Channel="1" Note="99" Velocity="127"/>
  </Event>
  <Event>
    <Absolute>67879</Absolute>
    <NoteOff Channel="1" Note="98" Velocity="64"/>
  </Event>
  <Event>
    <Absolute>67879</Absolute>
    <NoteOff Channel="1" Note="99" Velocity="64"/>
  </Event>
  <Event>
    <Absolute>67940</Absolute>
    <NoteOn Channel="1" Note="99" Velocity="127"/>
  </Event>
  <Event>
    <Absolute>68000</Absolute>
    <NoteOff Channel="1" Note="99" Velocity="64"/>
  </Event>
  <Event>
    <Absolute>68061</Absolute>
    <NoteOn Channel="1" Note="99" Velocity="127"/>
  </Event>
  <Event>
    <Absolute>68121</Absolute>
    <NoteOff Channel="1" Note="99" Velocity="64"/>
  </Event>
  <Event>
    <Absolute>68183</Absolute>
    <NoteOn Channel="1" Note="98" Velocity="127"/>
  </Event>
  <Event>
    <Absolute>68243</Absolute>
    <NoteOff Channel="1" Note="98" Velocity="64"/>
  </Event>
  <Event>
    <Absolute>68425</Absolute>
    <NoteOn Channel="1" Note="97" Velocity="127"/>
  </Event>
  <Event>
    <Absolute>68484</Absolute>
    <NoteOff Channel="1" Note="97" Velocity="64"/>
  </Event>
  <Event>
    <Absolute>68662</Absolute>
    <NoteOn Channel="1" Note="96" Velocity="127"/>
  </Event>
  <Event>
    <Absolute>68721</Absolute>
    <NoteOff Channel="1" Note="96" Velocity="64"/>
  </Event>
  <Event>
    <Absolute>68781</Absolute>
    <NoteOn Channel="1" Note="96" Velocity="127"/>
  </Event>
  <Event>
    <Absolute>68840</Absolute>
    <NoteOff Channel="1" Note="96" Velocity="64"/>
  </Event>
  <Event>
    <Absolute>68899</Absolute>
    <NoteOn Channel="1" Note="98" Velocity="127"/>
  </Event>
  <Event>
    <Absolute>68899</Absolute>
    <NoteOn Channel="1" Note="99" Velocity="127"/>
  </Event>
  <Event>
    <Absolute>68958</Absolute>
    <NoteOff Channel="1" Note="98" Velocity="64"/>
  </Event>
  <Event>
    <Absolute>68958</Absolute>
    <NoteOff Channel="1" Note="99" Velocity="64"/>
  </Event>
  <Event>
    <Absolute>69018</Absolute>
    <NoteOn Channel="1" Note="98" Velocity="127"/>
  </Event>
  <Event>
    <Absolute>69077</Absolute>
    <NoteOff Channel="1" Note="98" Velocity="64"/>
  </Event>
  <Event>
    <Absolute>69136</Absolute>
    <NoteOn Channel="1" Note="98" Velocity="127"/>
  </Event>
  <Event>
    <Absolute>69195</Absolute>
    <NoteOff Channel="1" Note="98" Velocity="64"/>
  </Event>
  <Event>
    <Absolute>69373</Absolute>
    <NoteOn Channel="1" Note="97" Velocity="127"/>
  </Event>
  <Event>
    <Absolute>69433</Absolute>
    <NoteOff Channel="1" Note="97" Velocity="64"/>
  </Event>
  <Event>
    <Absolute>69495</Absolute>
    <NoteOn Channel="1" Note="98" Velocity="127"/>
  </Event>
  <Event>
    <Absolute>69555</Absolute>
    <NoteOff Channel="1" Note="98" Velocity="64"/>
  </Event>
  <Event>
    <Absolute>69616</Absolute>
    <NoteOn Channel="1" Note="99" Velocity="127"/>
  </Event>
  <Event>
    <Absolute>69676</Absolute>
    <NoteOff Channel="1" Note="99" Velocity="64"/>
  </Event>
  <Event>
    <Absolute>69738</Absolute>
    <NoteOn Channel="1" Note="100" Velocity="127"/>
  </Event>
  <Event>
    <Absolute>69798</Absolute>
    <NoteOff Channel="1" Note="100" Velocity="64"/>
  </Event>
  <Event>
    <Absolute>69981</Absolute>
    <NoteOn Channel="1" Note="99" Velocity="127"/>
  </Event>
  <Event>
    <Absolute>70041</Absolute>
    <NoteOff Channel="1" Note="99" Velocity="64"/>
  </Event>
  <Event>
    <Absolute>70102</Absolute>
    <NoteOn Channel="1" Note="98" Velocity="127"/>
  </Event>
  <Event>
    <Absolute>70162</Absolute>
    <NoteOff Channel="1" Note="98" Velocity="64"/>
  </Event>
  <Event>
    <Absolute>70224</Absolute>
    <NoteOn Channel="1" Note="97" Velocity="127"/>
  </Event>
  <Event>
    <Absolute>70284</Absolute>
    <NoteOff Channel="1" Note="97" Velocity="64"/>
  </Event>
  <Event>
    <Absolute>70346</Absolute>
    <NoteOn Channel="1" Note="99" Velocity="127"/>
  </Event>
  <Event>
    <Absolute>70407</Absolute>
    <NoteOff Channel="1" Note="99" Velocity="64"/>
  </Event>
  <Event>
    <Absolute>70468</Absolute>
    <NoteOn Channel="1" Note="98" Velocity="127"/>
  </Event>
  <Event>
    <Absolute>70529</Absolute>
    <NoteOff Channel="1" Note="98" Velocity="64"/>
  </Event>
  <Event>
    <Absolute>70590</Absolute>
    <NoteOn Channel="1" Note="97" Velocity="127"/>
  </Event>
  <Event>
    <Absolute>70651</Absolute>
    <NoteOff Channel="1" Note="97" Velocity="64"/>
  </Event>
  <Event>
    <Absolute>70712</Absolute>
    <NoteOn Channel="1" Note="96" Velocity="127"/>
  </Event>
  <Event>
    <Absolute>70773</Absolute>
    <NoteOff Channel="1" Note="96" Velocity="64"/>
  </Event>
  <Event>
    <Absolute>70834</Absolute>
    <NoteOn Channel="1" Note="98" Velocity="127"/>
  </Event>
  <Event>
    <Absolute>70834</Absolute>
    <NoteOn Channel="1" Note="99" Velocity="127"/>
  </Event>
  <Event>
    <Absolute>70895</Absolute>
    <NoteOff Channel="1" Note="98" Velocity="64"/>
  </Event>
  <Event>
    <Absolute>70895</Absolute>
    <NoteOff Channel="1" Note="99" Velocity="64"/>
  </Event>
  <Event>
    <Absolute>70956</Absolute>
    <NoteOn Channel="1" Note="98" Velocity="127"/>
  </Event>
  <Event>
    <Absolute>71017</Absolute>
    <NoteOff Channel="1" Note="98" Velocity="64"/>
  </Event>
  <Event>
    <Absolute>71078</Absolute>
    <NoteOn Channel="1" Note="98" Velocity="127"/>
  </Event>
  <Event>
    <Absolute>71139</Absolute>
    <NoteOff Channel="1" Note="98" Velocity="64"/>
  </Event>
  <Event>
    <Absolute>71322</Absolute>
    <NoteOn Channel="1" Note="97" Velocity="127"/>
  </Event>
  <Event>
    <Absolute>71382</Absolute>
    <NoteOff Channel="1" Note="97" Velocity="64"/>
  </Event>
  <Event>
    <Absolute>71442</Absolute>
    <NoteOn Channel="1" Note="98" Velocity="127"/>
  </Event>
  <Event>
    <Absolute>71502</Absolute>
    <NoteOff Channel="1" Note="98" Velocity="64"/>
  </Event>
  <Event>
    <Absolute>71562</Absolute>
    <NoteOn Channel="1" Note="98" Velocity="127"/>
  </Event>
  <Event>
    <Absolute>71562</Absolute>
    <NoteOn Channel="1" Note="99" Velocity="127"/>
  </Event>
  <Event>
    <Absolute>71622</Absolute>
    <NoteOff Channel="1" Note="98" Velocity="64"/>
  </Event>
  <Event>
    <Absolute>71622</Absolute>
    <NoteOff Channel="1" Note="99" Velocity="64"/>
  </Event>
  <Event>
    <Absolute>71682</Absolute>
    <NoteOn Channel="1" Note="98" Velocity="127"/>
  </Event>
  <Event>
    <Absolute>71682</Absolute>
    <NoteOn Channel="1" Note="99" Velocity="127"/>
  </Event>
  <Event>
    <Absolute>71742</Absolute>
    <NoteOff Channel="1" Note="98" Velocity="64"/>
  </Event>
  <Event>
    <Absolute>71742</Absolute>
    <NoteOff Channel="1" Note="99" Velocity="64"/>
  </Event>
  <Event>
    <Absolute>71922</Absolute>
    <NoteOn Channel="1" Note="99" Velocity="127"/>
  </Event>
  <Event>
    <Absolute>71982</Absolute>
    <NoteOff Channel="1" Note="99" Velocity="64"/>
  </Event>
  <Event>
    <Absolute>72042</Absolute>
    <NoteOn Channel="1" Note="98" Velocity="127"/>
  </Event>
  <Event>
    <Absolute>72102</Absolute>
    <NoteOff Channel="1" Note="98" Velocity="64"/>
  </Event>
  <Event>
    <Absolute>72282</Absolute>
    <NoteOn Channel="1" Note="97" Velocity="127"/>
  </Event>
  <Event>
    <Absolute>72342</Absolute>
    <NoteOff Channel="1" Note="97" Velocity="64"/>
  </Event>
  <Event>
    <Absolute>72523</Absolute>
    <NoteOn Channel="1" Note="96" Velocity="127"/>
  </Event>
  <Event>
    <Absolute>72583</Absolute>
    <NoteOff Channel="1" Note="96" Velocity="64"/>
  </Event>
  <Event>
    <Absolute>72643</Absolute>
    <NoteOn Channel="1" Note="96" Velocity="127"/>
  </Event>
  <Event>
    <Absolute>72703</Absolute>
    <NoteOff Channel="1" Note="96" Velocity="64"/>
  </Event>
  <Event>
    <Absolute>72764</Absolute>
    <NoteOn Channel="1" Note="97" Velocity="127"/>
  </Event>
  <Event>
    <Absolute>72824</Absolute>
    <NoteOff Channel="1" Note="97" Velocity="64"/>
  </Event>
  <Event>
    <Absolute>72884</Absolute>
    <NoteOn Channel="1" Note="97" Velocity="127"/>
  </Event>
  <Event>
    <Absolute>72944</Absolute>
    <NoteOff Channel="1" Note="97" Velocity="64"/>
  </Event>
  <Event>
    <Absolute>73005</Absolute>
    <NoteOn Channel="1" Note="97" Velocity="127"/>
  </Event>
  <Event>
    <Absolute>73065</Absolute>
    <NoteOff Channel="1" Note="97" Velocity="64"/>
  </Event>
  <Event>
    <Absolute>73125</Absolute>
    <NoteOn Channel="1" Note="97" Velocity="127"/>
  </Event>
  <Event>
    <Absolute>73185</Absolute>
    <NoteOff Channel="1" Note="97" Velocity="64"/>
  </Event>
  <Event>
    <Absolute>73246</Absolute>
    <NoteOn Channel="1" Note="98" Velocity="127"/>
  </Event>
  <Event>
    <Absolute>73305</Absolute>
    <NoteOff Channel="1" Note="98" Velocity="64"/>
  </Event>
  <Event>
    <Absolute>73366</Absolute>
    <NoteOn Channel="1" Note="99" Velocity="127"/>
  </Event>
  <Event>
    <Absolute>73425</Absolute>
    <NoteOff Channel="1" Note="99" Velocity="64"/>
  </Event>
  <Event>
    <Absolute>73486</Absolute>
    <NoteOn Channel="1" Note="97" Velocity="127"/>
  </Event>
  <Event>
    <Absolute>73545</Absolute>
    <NoteOff Channel="1" Note="97" Velocity="64"/>
  </Event>
  <Event>
    <Absolute>73605</Absolute>
    <NoteOn Channel="1" Note="100" Velocity="127"/>
  </Event>
  <Event>
    <Absolute>73664</Absolute>
    <NoteOff Channel="1" Note="100" Velocity="64"/>
  </Event>
  <Event>
    <Absolute>73725</Absolute>
    <NoteOn Channel="1" Note="97" Velocity="127"/>
  </Event>
  <Event>
    <Absolute>73784</Absolute>
    <NoteOff Channel="1" Note="97" Velocity="64"/>
  </Event>
  <Event>
    <Absolute>73845</Absolute>
    <NoteOn Channel="1" Note="97" Velocity="127"/>
  </Event>
  <Event>
    <Absolute>73904</Absolute>
    <NoteOff Channel="1" Note="97" Velocity="64"/>
  </Event>
  <Event>
    <Absolute>73965</Absolute>
    <NoteOn Channel="1" Note="98" Velocity="127"/>
  </Event>
  <Event>
    <Absolute>74024</Absolute>
    <NoteOff Channel="1" Note="98" Velocity="64"/>
  </Event>
  <Event>
    <Absolute>74085</Absolute>
    <NoteOn Channel="1" Note="99" Velocity="127"/>
  </Event>
  <Event>
    <Absolute>74144</Absolute>
    <NoteOff Channel="1" Note="99" Velocity="64"/>
  </Event>
  <Event>
    <Absolute>74205</Absolute>
    <NoteOn Channel="1" Note="100" Velocity="127"/>
  </Event>
  <Event>
    <Absolute>74265</Absolute>
    <NoteOff Channel="1" Note="100" Velocity="64"/>
  </Event>
  <Event>
    <Absolute>74448</Absolute>
    <NoteOn Channel="1" Note="99" Velocity="127"/>
  </Event>
  <Event>
    <Absolute>74508</Absolute>
    <NoteOff Channel="1" Note="99" Velocity="64"/>
  </Event>
  <Event>
    <Absolute>74691</Absolute>
    <NoteOn Channel="1" Note="98" Velocity="127"/>
  </Event>
  <Event>
    <Absolute>74691</Absolute>
    <NoteOn Channel="1" Note="100" Velocity="127"/>
  </Event>
  <Event>
    <Absolute>74751</Absolute>
    <NoteOff Channel="1" Note="98" Velocity="64"/>
  </Event>
  <Event>
    <Absolute>74751</Absolute>
    <NoteOff Channel="1" Note="100" Velocity="64"/>
  </Event>
  <Event>
    <Absolute>74934</Absolute>
    <NoteOn Channel="1" Note="98" Velocity="127"/>
  </Event>
  <Event>
    <Absolute>74934</Absolute>
    <NoteOn Channel="1" Note="100" Velocity="127"/>
  </Event>
  <Event>
    <Absolute>74994</Absolute>
    <NoteOff Channel="1" Note="98" Velocity="64"/>
  </Event>
  <Event>
    <Absolute>74994</Absolute>
    <NoteOff Channel="1" Note="100" Velocity="64"/>
  </Event>
  <Event>
    <Absolute>75177</Absolute>
    <NoteOn Channel="1" Note="98" Velocity="127"/>
  </Event>
  <Event>
    <Absolute>75177</Absolute>
    <NoteOn Channel="1" Note="99" Velocity="127"/>
  </Event>
  <Event>
    <Absolute>75237</Absolute>
    <NoteOff Channel="1" Note="98" Velocity="64"/>
  </Event>
  <Event>
    <Absolute>75237</Absolute>
    <NoteOff Channel="1" Note="99" Velocity="64"/>
  </Event>
  <Event>
    <Absolute>75420</Absolute>
    <NoteOn Channel="1" Note="98" Velocity="127"/>
  </Event>
  <Event>
    <Absolute>75480</Absolute>
    <NoteOff Channel="1" Note="98" Velocity="64"/>
  </Event>
  <Event>
    <Absolute>75541</Absolute>
    <NoteOn Channel="1" Note="98" Velocity="127"/>
  </Event>
  <Event>
    <Absolute>75541</Absolute>
    <NoteOn Channel="1" Note="100" Velocity="127"/>
  </Event>
  <Event>
    <Absolute>75601</Absolute>
    <NoteOff Channel="1" Note="98" Velocity="64"/>
  </Event>
  <Event>
    <Absolute>75601</Absolute>
    <NoteOff Channel="1" Note="100" Velocity="64"/>
  </Event>
  <Event>
    <Absolute>75784</Absolute>
    <NoteOn Channel="1" Note="98" Velocity="127"/>
  </Event>
  <Event>
    <Absolute>75784</Absolute>
    <NoteOn Channel="1" Note="99" Velocity="127"/>
  </Event>
  <Event>
    <Absolute>75844</Absolute>
    <NoteOff Channel="1" Note="98" Velocity="64"/>
  </Event>
  <Event>
    <Absolute>75844</Absolute>
    <NoteOff Channel="1" Note="99" Velocity="64"/>
  </Event>
  <Event>
    <Absolute>75906</Absolute>
    <NoteOn Channel="1" Note="98" Velocity="127"/>
  </Event>
  <Event>
    <Absolute>75906</Absolute>
    <NoteOn Channel="1" Note="99" Velocity="127"/>
  </Event>
  <Event>
    <Absolute>75966</Absolute>
    <NoteOff Channel="1" Note="98" Velocity="64"/>
  </Event>
  <Event>
    <Absolute>75966</Absolute>
    <NoteOff Channel="1" Note="99" Velocity="64"/>
  </Event>
  <Event>
    <Absolute>76149</Absolute>
    <NoteOn Channel="1" Note="97" Velocity="127"/>
  </Event>
  <Event>
    <Absolute>76149</Absolute>
    <NoteOn Channel="1" Note="99" Velocity="127"/>
  </Event>
  <Event>
    <Absolute>76210</Absolute>
    <NoteOff Channel="1" Note="97" Velocity="64"/>
  </Event>
  <Event>
    <Absolute>76210</Absolute>
    <NoteOff Channel="1" Note="99" Velocity="64"/>
  </Event>
  <Event>
    <Absolute>76393</Absolute>
    <NoteOn Channel="1" Note="97" Velocity="127"/>
  </Event>
  <Event>
    <Absolute>76393</Absolute>
    <NoteOn Channel="1" Note="98" Velocity="127"/>
  </Event>
  <Event>
    <Absolute>76454</Absolute>
    <NoteOff Channel="1" Note="97" Velocity="64"/>
  </Event>
  <Event>
    <Absolute>76454</Absolute>
    <NoteOff Channel="1" Note="98" Velocity="64"/>
  </Event>
  <Event>
    <Absolute>76637</Absolute>
    <NoteOn Channel="1" Note="98" Velocity="127"/>
  </Event>
  <Event>
    <Absolute>76637</Absolute>
    <NoteOn Channel="1" Note="100" Velocity="127"/>
  </Event>
  <Event>
    <Absolute>76698</Absolute>
    <NoteOff Channel="1" Note="98" Velocity="64"/>
  </Event>
  <Event>
    <Absolute>76698</Absolute>
    <NoteOff Channel="1" Note="100" Velocity="64"/>
  </Event>
  <Event>
    <Absolute>76881</Absolute>
    <NoteOn Channel="1" Note="98" Velocity="127"/>
  </Event>
  <Event>
    <Absolute>76942</Absolute>
    <NoteOff Channel="1" Note="98" Velocity="64"/>
  </Event>
  <Event>
    <Absolute>77003</Absolute>
    <NoteOn Channel="1" Note="98" Velocity="127"/>
  </Event>
  <Event>
    <Absolute>77064</Absolute>
    <NoteOff Channel="1" Note="98" Velocity="64"/>
  </Event>
  <Event>
    <Absolute>77125</Absolute>
    <NoteOn Channel="1" Note="98" Velocity="127"/>
  </Event>
  <Event>
    <Absolute>77125</Absolute>
    <NoteOn Channel="1" Note="99" Velocity="127"/>
  </Event>
  <Event>
    <Absolute>77185</Absolute>
    <NoteOff Channel="1" Note="98" Velocity="64"/>
  </Event>
  <Event>
    <Absolute>77185</Absolute>
    <NoteOff Channel="1" Note="99" Velocity="64"/>
  </Event>
  <Event>
    <Absolute>77367</Absolute>
    <NoteOn Channel="1" Note="98" Velocity="127"/>
  </Event>
  <Event>
    <Absolute>77427</Absolute>
    <NoteOff Channel="1" Note="98" Velocity="64"/>
  </Event>
  <Event>
    <Absolute>77488</Absolute>
    <NoteOn Channel="1" Note="98" Velocity="127"/>
  </Event>
  <Event>
    <Absolute>77488</Absolute>
    <NoteOn Channel="1" Note="100" Velocity="127"/>
  </Event>
  <Event>
    <Absolute>77548</Absolute>
    <NoteOff Channel="1" Note="98" Velocity="64"/>
  </Event>
  <Event>
    <Absolute>77548</Absolute>
    <NoteOff Channel="1" Note="100" Velocity="64"/>
  </Event>
  <Event>
    <Absolute>77730</Absolute>
    <NoteOn Channel="1" Note="98" Velocity="127"/>
  </Event>
  <Event>
    <Absolute>77730</Absolute>
    <NoteOn Channel="1" Note="99" Velocity="127"/>
  </Event>
  <Event>
    <Absolute>77790</Absolute>
    <NoteOff Channel="1" Note="98" Velocity="64"/>
  </Event>
  <Event>
    <Absolute>77790</Absolute>
    <NoteOff Channel="1" Note="99" Velocity="64"/>
  </Event>
  <Event>
    <Absolute>77851</Absolute>
    <NoteOn Channel="1" Note="98" Velocity="127"/>
  </Event>
  <Event>
    <Absolute>77851</Absolute>
    <NoteOn Channel="1" Note="99" Velocity="127"/>
  </Event>
  <Event>
    <Absolute>77911</Absolute>
    <NoteOff Channel="1" Note="98" Velocity="64"/>
  </Event>
  <Event>
    <Absolute>77911</Absolute>
    <NoteOff Channel="1" Note="99" Velocity="64"/>
  </Event>
  <Event>
    <Absolute>78093</Absolute>
    <NoteOn Channel="1" Note="97" Velocity="127"/>
  </Event>
  <Event>
    <Absolute>78093</Absolute>
    <NoteOn Channel="1" Note="99" Velocity="127"/>
  </Event>
  <Event>
    <Absolute>78153</Absolute>
    <NoteOff Channel="1" Note="97" Velocity="64"/>
  </Event>
  <Event>
    <Absolute>78153</Absolute>
    <NoteOff Channel="1" Note="99" Velocity="64"/>
  </Event>
  <Event>
    <Absolute>78335</Absolute>
    <NoteOn Channel="1" Note="97" Velocity="127"/>
  </Event>
  <Event>
    <Absolute>78335</Absolute>
    <NoteOn Channel="1" Note="98" Velocity="127"/>
  </Event>
  <Event>
    <Absolute>78395</Absolute>
    <NoteOff Channel="1" Note="97" Velocity="64"/>
  </Event>
  <Event>
    <Absolute>78395</Absolute>
    <NoteOff Channel="1" Note="98" Velocity="64"/>
  </Event>
  <Event>
    <Absolute>78577</Absolute>
    <NoteOn Channel="1" Note="98" Velocity="127"/>
  </Event>
  <Event>
    <Absolute>78577</Absolute>
    <NoteOn Channel="1" Note="100" Velocity="127"/>
  </Event>
  <Event>
    <Absolute>78637</Absolute>
    <NoteOff Channel="1" Note="98" Velocity="64"/>
  </Event>
  <Event>
    <Absolute>78637</Absolute>
    <NoteOff Channel="1" Note="100" Velocity="64"/>
  </Event>
  <Event>
    <Absolute>78819</Absolute>
    <NoteOn Channel="1" Note="98" Velocity="127"/>
  </Event>
  <Event>
    <Absolute>78879</Absolute>
    <NoteOff Channel="1" Note="98" Velocity="64"/>
  </Event>
  <Event>
    <Absolute>79061</Absolute>
    <NoteOn Channel="1" Note="98" Velocity="127"/>
  </Event>
  <Event>
    <Absolute>79061</Absolute>
    <NoteOn Channel="1" Note="99" Velocity="127"/>
  </Event>
  <Event>
    <Absolute>79121</Absolute>
    <NoteOff Channel="1" Note="98" Velocity="64"/>
  </Event>
  <Event>
    <Absolute>79121</Absolute>
    <NoteOff Channel="1" Note="99" Velocity="64"/>
  </Event>
  <Event>
    <Absolute>79304</Absolute>
    <NoteOn Channel="1" Note="98" Velocity="127"/>
  </Event>
  <Event>
    <Absolute>79364</Absolute>
    <NoteOff Channel="1" Note="98" Velocity="64"/>
  </Event>
  <Event>
    <Absolute>79426</Absolute>
    <NoteOn Channel="1" Note="98" Velocity="127"/>
  </Event>
  <Event>
    <Absolute>79426</Absolute>
    <NoteOn Channel="1" Note="100" Velocity="127"/>
  </Event>
  <Event>
    <Absolute>79486</Absolute>
    <NoteOff Channel="1" Note="98" Velocity="64"/>
  </Event>
  <Event>
    <Absolute>79486</Absolute>
    <NoteOff Channel="1" Note="100" Velocity="64"/>
  </Event>
  <Event>
    <Absolute>79668</Absolute>
    <NoteOn Channel="1" Note="98" Velocity="127"/>
  </Event>
  <Event>
    <Absolute>79668</Absolute>
    <NoteOn Channel="1" Note="99" Velocity="127"/>
  </Event>
  <Event>
    <Absolute>79728</Absolute>
    <NoteOff Channel="1" Note="98" Velocity="64"/>
  </Event>
  <Event>
    <Absolute>79728</Absolute>
    <NoteOff Channel="1" Note="99" Velocity="64"/>
  </Event>
  <Event>
    <Absolute>79790</Absolute>
    <NoteOn Channel="1" Note="98" Velocity="127"/>
  </Event>
  <Event>
    <Absolute>79790</Absolute>
    <NoteOn Channel="1" Note="99" Velocity="127"/>
  </Event>
  <Event>
    <Absolute>79850</Absolute>
    <NoteOff Channel="1" Note="98" Velocity="64"/>
  </Event>
  <Event>
    <Absolute>79850</Absolute>
    <NoteOff Channel="1" Note="99" Velocity="64"/>
  </Event>
  <Event>
    <Absolute>80033</Absolute>
    <NoteOn Channel="1" Note="97" Velocity="127"/>
  </Event>
  <Event>
    <Absolute>80033</Absolute>
    <NoteOn Channel="1" Note="99" Velocity="127"/>
  </Event>
  <Event>
    <Absolute>80093</Absolute>
    <NoteOff Channel="1" Note="97" Velocity="64"/>
  </Event>
  <Event>
    <Absolute>80093</Absolute>
    <NoteOff Channel="1" Note="99" Velocity="64"/>
  </Event>
  <Event>
    <Absolute>80276</Absolute>
    <NoteOn Channel="1" Note="97" Velocity="127"/>
  </Event>
  <Event>
    <Absolute>80276</Absolute>
    <NoteOn Channel="1" Note="98" Velocity="127"/>
  </Event>
  <Event>
    <Absolute>80336</Absolute>
    <NoteOff Channel="1" Note="97" Velocity="64"/>
  </Event>
  <Event>
    <Absolute>80336</Absolute>
    <NoteOff Channel="1" Note="98" Velocity="64"/>
  </Event>
  <Event>
    <Absolute>80519</Absolute>
    <NoteOn Channel="1" Note="98" Velocity="127"/>
  </Event>
  <Event>
    <Absolute>80519</Absolute>
    <NoteOn Channel="1" Note="100" Velocity="127"/>
  </Event>
  <Event>
    <Absolute>80579</Absolute>
    <NoteOff Channel="1" Note="98" Velocity="64"/>
  </Event>
  <Event>
    <Absolute>80579</Absolute>
    <NoteOff Channel="1" Note="100" Velocity="64"/>
  </Event>
  <Event>
    <Absolute>80762</Absolute>
    <NoteOn Channel="1" Note="98" Velocity="127"/>
  </Event>
  <Event>
    <Absolute>80822</Absolute>
    <NoteOff Channel="1" Note="98" Velocity="64"/>
  </Event>
  <Event>
    <Absolute>80883</Absolute>
    <NoteOn Channel="1" Note="98" Velocity="127"/>
  </Event>
  <Event>
    <Absolute>80943</Absolute>
    <NoteOff Channel="1" Note="98" Velocity="64"/>
  </Event>
  <Event>
    <Absolute>81005</Absolute>
    <NoteOn Channel="1" Note="98" Velocity="127"/>
  </Event>
  <Event>
    <Absolute>81005</Absolute>
    <NoteOn Channel="1" Note="99" Velocity="127"/>
  </Event>
  <Event>
    <Absolute>81065</Absolute>
    <NoteOff Channel="1" Note="98" Velocity="64"/>
  </Event>
  <Event>
    <Absolute>81065</Absolute>
    <NoteOff Channel="1" Note="99" Velocity="64"/>
  </Event>
  <Event>
    <Absolute>81248</Absolute>
    <NoteOn Channel="1" Note="98" Velocity="127"/>
  </Event>
  <Event>
    <Absolute>81308</Absolute>
    <NoteOff Channel="1" Note="98" Velocity="64"/>
  </Event>
  <Event>
    <Absolute>81369</Absolute>
    <NoteOn Channel="1" Note="98" Velocity="127"/>
  </Event>
  <Event>
    <Absolute>81369</Absolute>
    <NoteOn Channel="1" Note="100" Velocity="127"/>
  </Event>
  <Event>
    <Absolute>81429</Absolute>
    <NoteOff Channel="1" Note="98" Velocity="64"/>
  </Event>
  <Event>
    <Absolute>81429</Absolute>
    <NoteOff Channel="1" Note="100" Velocity="64"/>
  </Event>
  <Event>
    <Absolute>81612</Absolute>
    <NoteOn Channel="1" Note="98" Velocity="127"/>
  </Event>
  <Event>
    <Absolute>81612</Absolute>
    <NoteOn Channel="1" Note="99" Velocity="127"/>
  </Event>
  <Event>
    <Absolute>81672</Absolute>
    <NoteOff Channel="1" Note="98" Velocity="64"/>
  </Event>
  <Event>
    <Absolute>81672</Absolute>
    <NoteOff Channel="1" Note="99" Velocity="64"/>
  </Event>
  <Event>
    <Absolute>81733</Absolute>
    <NoteOn Channel="1" Note="98" Velocity="127"/>
  </Event>
  <Event>
    <Absolute>81733</Absolute>
    <NoteOn Channel="1" Note="99" Velocity="127"/>
  </Event>
  <Event>
    <Absolute>81793</Absolute>
    <NoteOff Channel="1" Note="98" Velocity="64"/>
  </Event>
  <Event>
    <Absolute>81793</Absolute>
    <NoteOff Channel="1" Note="99" Velocity="64"/>
  </Event>
  <Event>
    <Absolute>81976</Absolute>
    <NoteOn Channel="1" Note="97" Velocity="127"/>
  </Event>
  <Event>
    <Absolute>81976</Absolute>
    <NoteOn Channel="1" Note="99" Velocity="127"/>
  </Event>
  <Event>
    <Absolute>82036</Absolute>
    <NoteOff Channel="1" Note="97" Velocity="64"/>
  </Event>
  <Event>
    <Absolute>82036</Absolute>
    <NoteOff Channel="1" Note="99" Velocity="64"/>
  </Event>
  <Event>
    <Absolute>82219</Absolute>
    <NoteOn Channel="1" Note="97" Velocity="127"/>
  </Event>
  <Event>
    <Absolute>82219</Absolute>
    <NoteOn Channel="1" Note="98" Velocity="127"/>
  </Event>
  <Event>
    <Absolute>82279</Absolute>
    <NoteOff Channel="1" Note="97" Velocity="64"/>
  </Event>
  <Event>
    <Absolute>82279</Absolute>
    <NoteOff Channel="1" Note="98" Velocity="64"/>
  </Event>
  <Event>
    <Absolute>82461</Absolute>
    <NoteOn Channel="1" Note="99" Velocity="127"/>
  </Event>
  <Event>
    <Absolute>82946</Absolute>
    <NoteOff Channel="1" Note="99" Velocity="64"/>
  </Event>
  <Event>
    <Absolute>82947</Absolute>
    <NoteOn Channel="1" Note="98" Velocity="127"/>
  </Event>
  <Event>
    <Absolute>83432</Absolute>
    <NoteOff Channel="1" Note="98" Velocity="64"/>
  </Event>
  <Event>
    <Absolute>83433</Absolute>
    <NoteOn Channel="1" Note="97" Velocity="127"/>
  </Event>
  <Event>
    <Absolute>83918</Absolute>
    <NoteOff Channel="1" Note="97" Velocity="64"/>
  </Event>
  <Event>
    <Absolute>83919</Absolute>
    <NoteOn Channel="1" Note="96" Velocity="127"/>
  </Event>
  <Event>
    <Absolute>83979</Absolute>
    <NoteOff Channel="1" Note="96" Velocity="64"/>
  </Event>
  <Event>
    <Absolute>84162</Absolute>
    <NoteOn Channel="1" Note="96" Velocity="127"/>
  </Event>
  <Event>
    <Absolute>84222</Absolute>
    <NoteOff Channel="1" Note="96" Velocity="64"/>
  </Event>
  <Event>
    <Absolute>84284</Absolute>
    <NoteOn Channel="1" Note="96" Velocity="127"/>
  </Event>
  <Event>
    <Absolute>84344</Absolute>
    <NoteOff Channel="1" Note="96" Velocity="64"/>
  </Event>
  <Event>
    <Absolute>84405</Absolute>
    <NoteOn Channel="1" Note="97" Velocity="127"/>
  </Event>
  <Event>
    <Absolute>84405</Absolute>
    <NoteOn Channel="1" Note="100" Velocity="127"/>
  </Event>
  <Event>
    <Absolute>84890</Absolute>
    <NoteOff Channel="1" Note="97" Velocity="64"/>
  </Event>
  <Event>
    <Absolute>84890</Absolute>
    <NoteOff Channel="1" Note="100" Velocity="64"/>
  </Event>
  <Event>
    <Absolute>84891</Absolute>
    <NoteOn Channel="1" Note="97" Velocity="127"/>
  </Event>
  <Event>
    <Absolute>84891</Absolute>
    <NoteOn Channel="1" Note="99" Velocity="127"/>
  </Event>
  <Event>
    <Absolute>84951</Absolute>
    <NoteOff Channel="1" Note="97" Velocity="64"/>
  </Event>
  <Event>
    <Absolute>84951</Absolute>
    <NoteOff Channel="1" Note="99" Velocity="64"/>
  </Event>
  <Event>
    <Absolute>85134</Absolute>
    <NoteOn Channel="1" Note="100" Velocity="127"/>
  </Event>
  <Event>
    <Absolute>85194</Absolute>
    <NoteOff Channel="1" Note="100" Velocity="64"/>
  </Event>
  <Event>
    <Absolute>85256</Absolute>
    <NoteOn Channel="1" Note="100" Velocity="127"/>
  </Event>
  <Event>
    <Absolute>85316</Absolute>
    <NoteOff Channel="1" Note="100" Velocity="64"/>
  </Event>
  <Event>
    <Absolute>85377</Absolute>
    <NoteOn Channel="1" Note="99" Velocity="127"/>
  </Event>
  <Event>
    <Absolute>85377</Absolute>
    <NoteOn Channel="1" Note="100" Velocity="127"/>
  </Event>
  <Event>
    <Absolute>86357</Absolute>
    <NoteOff Channel="1" Note="99" Velocity="64"/>
  </Event>
  <Event>
    <Absolute>86357</Absolute>
    <NoteOff Channel="1" Note="100" Velocity="64"/>
  </Event>
  <Event>
    <Absolute>86357</Absolute>
    <NoteOn Channel="1" Note="100" Velocity="127"/>
  </Event>
  <Event>
    <Absolute>86418</Absolute>
    <NoteOff Channel="1" Note="100" Velocity="64"/>
  </Event>
  <Event>
    <Absolute>86604</Absolute>
    <NoteOn Channel="1" Note="100" Velocity="127"/>
  </Event>
  <Event>
    <Absolute>86665</Absolute>
    <NoteOff Channel="1" Note="100" Velocity="64"/>
  </Event>
  <Event>
    <Absolute>86851</Absolute>
    <NoteOn Channel="1" Note="99" Velocity="127"/>
  </Event>
  <Event>
    <Absolute>86912</Absolute>
    <NoteOff Channel="1" Note="99" Velocity="64"/>
  </Event>
  <Event>
    <Absolute>87099</Absolute>
    <NoteOn Channel="1" Note="98" Velocity="127"/>
  </Event>
  <Event>
    <Absolute>87160</Absolute>
    <NoteOff Channel="1" Note="98" Velocity="64"/>
  </Event>
  <Event>
    <Absolute>87222</Absolute>
    <NoteOn Channel="1" Note="98" Velocity="127"/>
  </Event>
  <Event>
    <Absolute>87283</Absolute>
    <NoteOff Channel="1" Note="98" Velocity="64"/>
  </Event>
  <Event>
    <Absolute>87469</Absolute>
    <NoteOn Channel="1" Note="97" Velocity="127"/>
  </Event>
  <Event>
    <Absolute>87530</Absolute>
    <NoteOff Channel="1" Note="97" Velocity="64"/>
  </Event>
  <Event>
    <Absolute>87593</Absolute>
    <NoteOn Channel="1" Note="97" Velocity="127"/>
  </Event>
  <Event>
    <Absolute>87654</Absolute>
    <NoteOff Channel="1" Note="97" Velocity="64"/>
  </Event>
  <Event>
    <Absolute>87840</Absolute>
    <NoteOn Channel="1" Note="96" Velocity="127"/>
  </Event>
  <Event>
    <Absolute>87900</Absolute>
    <NoteOff Channel="1" Note="96" Velocity="64"/>
  </Event>
  <Event>
    <Absolute>87901</Absolute>
    <NoteOn Channel="1" Note="97" Velocity="127"/>
  </Event>
  <Event>
    <Absolute>87961</Absolute>
    <NoteOff Channel="1" Note="97" Velocity="64"/>
  </Event>
  <Event>
    <Absolute>88084</Absolute>
    <NoteOn Channel="1" Note="96" Velocity="127"/>
  </Event>
  <Event>
    <Absolute>88144</Absolute>
    <NoteOff Channel="1" Note="96" Velocity="64"/>
  </Event>
  <Event>
    <Absolute>88328</Absolute>
    <NoteOn Channel="1" Note="100" Velocity="127"/>
  </Event>
  <Event>
    <Absolute>88388</Absolute>
    <NoteOff Channel="1" Note="100" Velocity="64"/>
  </Event>
  <Event>
    <Absolute>88572</Absolute>
    <NoteOn Channel="1" Note="100" Velocity="127"/>
  </Event>
  <Event>
    <Absolute>88632</Absolute>
    <NoteOff Channel="1" Note="100" Velocity="64"/>
  </Event>
  <Event>
    <Absolute>88816</Absolute>
    <NoteOn Channel="1" Note="99" Velocity="127"/>
  </Event>
  <Event>
    <Absolute>88875</Absolute>
    <NoteOff Channel="1" Note="99" Velocity="64"/>
  </Event>
  <Event>
    <Absolute>89053</Absolute>
    <NoteOn Channel="1" Note="98" Velocity="127"/>
  </Event>
  <Event>
    <Absolute>89112</Absolute>
    <NoteOff Channel="1" Note="98" Velocity="64"/>
  </Event>
  <Event>
    <Absolute>89171</Absolute>
    <NoteOn Channel="1" Note="98" Velocity="127"/>
  </Event>
  <Event>
    <Absolute>89230</Absolute>
    <NoteOff Channel="1" Note="98" Velocity="64"/>
  </Event>
  <Event>
    <Absolute>89408</Absolute>
    <NoteOn Channel="1" Note="97" Velocity="127"/>
  </Event>
  <Event>
    <Absolute>89467</Absolute>
    <NoteOff Channel="1" Note="97" Velocity="64"/>
  </Event>
  <Event>
    <Absolute>89527</Absolute>
    <NoteOn Channel="1" Note="97" Velocity="127"/>
  </Event>
  <Event>
    <Absolute>89586</Absolute>
    <NoteOff Channel="1" Note="97" Velocity="64"/>
  </Event>
  <Event>
    <Absolute>89764</Absolute>
    <NoteOn Channel="1" Note="96" Velocity="127"/>
  </Event>
  <Event>
    <Absolute>89824</Absolute>
    <NoteOff Channel="1" Note="96" Velocity="64"/>
  </Event>
  <Event>
    <Absolute>89824</Absolute>
    <NoteOn Channel="1" Note="97" Velocity="127"/>
  </Event>
  <Event>
    <Absolute>89884</Absolute>
    <NoteOff Channel="1" Note="97" Velocity="64"/>
  </Event>
  <Event>
    <Absolute>90004</Absolute>
    <NoteOn Channel="1" Note="96" Velocity="127"/>
  </Event>
  <Event>
    <Absolute>90064</Absolute>
    <NoteOff Channel="1" Note="96" Velocity="64"/>
  </Event>
  <Event>
    <Absolute>90245</Absolute>
    <NoteOn Channel="1" Note="100" Velocity="127"/>
  </Event>
  <Event>
    <Absolute>90305</Absolute>
    <NoteOff Channel="1" Note="100" Velocity="64"/>
  </Event>
  <Event>
    <Absolute>90486</Absolute>
    <NoteOn Channel="1" Note="100" Velocity="127"/>
  </Event>
  <Event>
    <Absolute>90546</Absolute>
    <NoteOff Channel="1" Note="100" Velocity="64"/>
  </Event>
  <Event>
    <Absolute>90727</Absolute>
    <NoteOn Channel="1" Note="99" Velocity="127"/>
  </Event>
  <Event>
    <Absolute>90787</Absolute>
    <NoteOff Channel="1" Note="99" Velocity="64"/>
  </Event>
  <Event>
    <Absolute>90967</Absolute>
    <NoteOn Channel="1" Note="98" Velocity="127"/>
  </Event>
  <Event>
    <Absolute>91027</Absolute>
    <NoteOff Channel="1" Note="98" Velocity="64"/>
  </Event>
  <Event>
    <Absolute>91088</Absolute>
    <NoteOn Channel="1" Note="98" Velocity="127"/>
  </Event>
  <Event>
    <Absolute>91148</Absolute>
    <NoteOff Channel="1" Note="98" Velocity="64"/>
  </Event>
  <Event>
    <Absolute>91329</Absolute>
    <NoteOn Channel="1" Note="97" Velocity="127"/>
  </Event>
  <Event>
    <Absolute>91389</Absolute>
    <NoteOff Channel="1" Note="97" Velocity="64"/>
  </Event>
  <Event>
    <Absolute>91449</Absolute>
    <NoteOn Channel="1" Note="97" Velocity="127"/>
  </Event>
  <Event>
    <Absolute>91509</Absolute>
    <NoteOff Channel="1" Note="97" Velocity="64"/>
  </Event>
  <Event>
    <Absolute>91690</Absolute>
    <NoteOn Channel="1" Note="96" Velocity="127"/>
  </Event>
  <Event>
    <Absolute>91749</Absolute>
    <NoteOff Channel="1" Note="96" Velocity="64"/>
  </Event>
  <Event>
    <Absolute>91749</Absolute>
    <NoteOn Channel="1" Note="97" Velocity="127"/>
  </Event>
  <Event>
    <Absolute>91808</Absolute>
    <NoteOff Channel="1" Note="97" Velocity="64"/>
  </Event>
  <Event>
    <Absolute>92167</Absolute>
    <NoteOn Channel="1" Note="98" Velocity="127"/>
  </Event>
  <Event>
    <Absolute>92167</Absolute>
    <NoteOn Channel="1" Note="99" Velocity="127"/>
  </Event>
  <Event>
    <Absolute>92529</Absolute>
    <NoteOff Channel="1" Note="98" Velocity="64"/>
  </Event>
  <Event>
    <Absolute>92529</Absolute>
    <NoteOff Channel="1" Note="99" Velocity="64"/>
  </Event>
  <Event>
    <Absolute>92530</Absolute>
    <NoteOn Channel="1" Note="98" Velocity="127"/>
  </Event>
  <Event>
    <Absolute>92530</Absolute>
    <NoteOn Channel="1" Note="99" Velocity="127"/>
  </Event>
  <Event>
    <Absolute>92892</Absolute>
    <NoteOff Channel="1" Note="98" Velocity="64"/>
  </Event>
  <Event>
    <Absolute>92892</Absolute>
    <NoteOff Channel="1" Note="99" Velocity="64"/>
  </Event>
  <Event>
    <Absolute>92893</Absolute>
    <NoteOn Channel="1" Note="98" Velocity="127"/>
  </Event>
  <Event>
    <Absolute>92893</Absolute>
    <NoteOn Channel="1" Note="99" Velocity="127"/>
  </Event>
  <Event>
    <Absolute>94111</Absolute>
    <NoteOff Channel="1" Note="98" Velocity="64"/>
  </Event>
  <Event>
    <Absolute>94111</Absolute>
    <NoteOff Channel="1" Note="99" Velocity="64"/>
  </Event>
  <Event>
    <Absolute>94111</Absolute>
    <NoteOn Channel="1" Note="96" Velocity="127"/>
  </Event>
  <Event>
    <Absolute>94173</Absolute>
    <NoteOff Channel="1" Note="96" Velocity="64"/>
  </Event>
  <Event>
    <Absolute>94360</Absolute>
    <NoteOn Channel="1" Note="97" Velocity="127"/>
  </Event>
  <Event>
    <Absolute>94360</Absolute>
    <NoteOn Channel="1" Note="99" Velocity="127"/>
  </Event>
  <Event>
    <Absolute>94422</Absolute>
    <NoteOff Channel="1" Note="97" Velocity="64"/>
  </Event>
  <Event>
    <Absolute>94422</Absolute>
    <NoteOff Channel="1" Note="99" Velocity="64"/>
  </Event>
  <Event>
    <Absolute>94609</Absolute>
    <NoteOn Channel="1" Note="98" Velocity="127"/>
  </Event>
  <Event>
    <Absolute>94609</Absolute>
    <NoteOn Channel="1" Note="100" Velocity="127"/>
  </Event>
  <Event>
    <Absolute>94671</Absolute>
    <NoteOff Channel="1" Note="98" Velocity="64"/>
  </Event>
  <Event>
    <Absolute>94671</Absolute>
    <NoteOff Channel="1" Note="100" Velocity="64"/>
  </Event>
  <Event>
    <Absolute>94858</Absolute>
    <NoteOn Channel="1" Note="96" Velocity="127"/>
  </Event>
  <Event>
    <Absolute>94920</Absolute>
    <NoteOff Channel="1" Note="96" Velocity="64"/>
  </Event>
  <Event>
    <Absolute>95107</Absolute>
    <NoteOn Channel="1" Note="96" Velocity="127"/>
  </Event>
  <Event>
    <Absolute>95169</Absolute>
    <NoteOff Channel="1" Note="96" Velocity="64"/>
  </Event>
  <Event>
    <Absolute>95356</Absolute>
    <NoteOn Channel="1" Note="98" Velocity="127"/>
  </Event>
  <Event>
    <Absolute>95356</Absolute>
    <NoteOn Channel="1" Note="99" Velocity="127"/>
  </Event>
  <Event>
    <Absolute>95418</Absolute>
    <NoteOff Channel="1" Note="98" Velocity="64"/>
  </Event>
  <Event>
    <Absolute>95418</Absolute>
    <NoteOff Channel="1" Note="99" Velocity="64"/>
  </Event>
  <Event>
    <Absolute>95853</Absolute>
    <NoteOn Channel="1" Note="98" Velocity="127"/>
  </Event>
  <Event>
    <Absolute>95853</Absolute>
    <NoteOn Channel="1" Note="99" Velocity="127"/>
  </Event>
  <Event>
    <Absolute>96319</Absolute>
    <NoteOff Channel="1" Note="98" Velocity="64"/>
  </Event>
  <Event>
    <Absolute>96319</Absolute>
    <NoteOff Channel="1" Note="99" Velocity="64"/>
  </Event>
  <Event>
    <Absolute>96351</Absolute>
    <NoteOn Channel="1" Note="97" Velocity="127"/>
  </Event>
  <Event>
    <Absolute>96351</Absolute>
    <NoteOn Channel="1" Note="99" Velocity="127"/>
  </Event>
  <Event>
    <Absolute>96413</Absolute>
    <NoteOff Channel="1" Note="97" Velocity="64"/>
  </Event>
  <Event>
    <Absolute>96413</Absolute>
    <NoteOff Channel="1" Note="99" Velocity="64"/>
  </Event>
  <Event>
    <Absolute>96600</Absolute>
    <NoteOn Channel="1" Note="98" Velocity="127"/>
  </Event>
  <Event>
    <Absolute>96600</Absolute>
    <NoteOn Channel="1" Note="100" Velocity="127"/>
  </Event>
  <Event>
    <Absolute>96662</Absolute>
    <NoteOff Channel="1" Note="98" Velocity="64"/>
  </Event>
  <Event>
    <Absolute>96662</Absolute>
    <NoteOff Channel="1" Note="100" Velocity="64"/>
  </Event>
  <Event>
    <Absolute>96849</Absolute>
    <NoteOn Channel="1" Note="96" Velocity="127"/>
  </Event>
  <Event>
    <Absolute>96911</Absolute>
    <NoteOff Channel="1" Note="96" Velocity="64"/>
  </Event>
  <Event>
    <Absolute>97098</Absolute>
    <NoteOn Channel="1" Note="96" Velocity="127"/>
  </Event>
  <Event>
    <Absolute>97160</Absolute>
    <NoteOff Channel="1" Note="96" Velocity="64"/>
  </Event>
  <Event>
    <Absolute>97347</Absolute>
    <NoteOn Channel="1" Note="99" Velocity="127"/>
  </Event>
  <Event>
    <Absolute>97347</Absolute>
    <NoteOn Channel="1" Note="100" Velocity="127"/>
  </Event>
  <Event>
    <Absolute>98093</Absolute>
    <NoteOff Channel="1" Note="99" Velocity="64"/>
  </Event>
  <Event>
    <Absolute>98093</Absolute>
    <NoteOff Channel="1" Note="100" Velocity="64"/>
  </Event>
  <Event>
    <Absolute>98342</Absolute>
    <NoteOn Channel="1" Note="97" Velocity="127"/>
  </Event>
  <Event>
    <Absolute>98404</Absolute>
    <NoteOff Channel="1" Note="97" Velocity="64"/>
  </Event>
  <Event>
    <Absolute>98591</Absolute>
    <NoteOn Channel="1" Note="98" Velocity="127"/>
  </Event>
  <Event>
    <Absolute>98652</Absolute>
    <NoteOff Channel="1" Note="98" Velocity="64"/>
  </Event>
  <Event>
    <Absolute>99087</Absolute>
    <NoteOn Channel="1" Note="96" Velocity="127"/>
  </Event>
  <Event>
    <Absolute>99148</Absolute>
    <NoteOff Channel="1" Note="96" Velocity="64"/>
  </Event>
  <Event>
    <Absolute>99334</Absolute>
    <NoteOn Channel="1" Note="97" Velocity="127"/>
  </Event>
  <Event>
    <Absolute>99334</Absolute>
    <NoteOn Channel="1" Note="98" Velocity="127"/>
  </Event>
  <Event>
    <Absolute>99334</Absolute>
    <NoteOn Channel="1" Note="99" Velocity="127"/>
  </Event>
  <Event>
    <Absolute>99395</Absolute>
    <NoteOff Channel="1" Note="97" Velocity="64"/>
  </Event>
  <Event>
    <Absolute>99395</Absolute>
    <NoteOff Channel="1" Note="98" Velocity="64"/>
  </Event>
  <Event>
    <Absolute>99395</Absolute>
    <NoteOff Channel="1" Note="99" Velocity="64"/>
  </Event>
  <Event>
    <Absolute>99827</Absolute>
    <NoteOn Channel="1" Note="97" Velocity="127"/>
  </Event>
  <Event>
    <Absolute>99827</Absolute>
    <NoteOn Channel="1" Note="98" Velocity="127"/>
  </Event>
  <Event>
    <Absolute>99827</Absolute>
    <NoteOn Channel="1" Note="99" Velocity="127"/>
  </Event>
  <Event>
    <Absolute>100255</Absolute>
    <NoteOff Channel="1" Note="97" Velocity="64"/>
  </Event>
  <Event>
    <Absolute>100255</Absolute>
    <NoteOff Channel="1" Note="98" Velocity="64"/>
  </Event>
  <Event>
    <Absolute>100255</Absolute>
    <NoteOff Channel="1" Note="99" Velocity="64"/>
  </Event>
  <Event>
    <Absolute>100317</Absolute>
    <NoteOn Channel="1" Note="96" Velocity="127"/>
  </Event>
  <Event>
    <Absolute>100317</Absolute>
    <NoteOn Channel="1" Note="98" Velocity="127"/>
  </Event>
  <Event>
    <Absolute>100378</Absolute>
    <NoteOff Channel="1" Note="96" Velocity="64"/>
  </Event>
  <Event>
    <Absolute>100378</Absolute>
    <NoteOff Channel="1" Note="98" Velocity="64"/>
  </Event>
  <Event>
    <Absolute>100562</Absolute>
    <NoteOn Channel="1" Note="97" Velocity="127"/>
  </Event>
  <Event>
    <Absolute>100562</Absolute>
    <NoteOn Channel="1" Note="99" Velocity="127"/>
  </Event>
  <Event>
    <Absolute>100623</Absolute>
    <NoteOff Channel="1" Note="97" Velocity="64"/>
  </Event>
  <Event>
    <Absolute>100623</Absolute>
    <NoteOff Channel="1" Note="99" Velocity="64"/>
  </Event>
  <Event>
    <Absolute>101052</Absolute>
    <NoteOn Channel="1" Note="96" Velocity="127"/>
  </Event>
  <Event>
    <Absolute>101113</Absolute>
    <NoteOff Channel="1" Note="96" Velocity="64"/>
  </Event>
  <Event>
    <Absolute>101297</Absolute>
    <NoteOn Channel="1" Note="98" Velocity="127"/>
  </Event>
  <Event>
    <Absolute>101297</Absolute>
    <NoteOn Channel="1" Note="99" Velocity="127"/>
  </Event>
  <Event>
    <Absolute>101297</Absolute>
    <NoteOn Channel="1" Note="100" Velocity="127"/>
  </Event>
  <Event>
    <Absolute>101786</Absolute>
    <NoteOff Channel="1" Note="98" Velocity="64"/>
  </Event>
  <Event>
    <Absolute>101786</Absolute>
    <NoteOff Channel="1" Note="99" Velocity="64"/>
  </Event>
  <Event>
    <Absolute>101786</Absolute>
    <NoteOff Channel="1" Note="100" Velocity="64"/>
  </Event>
  <Event>
    <Absolute>102032</Absolute>
    <NoteOn Channel="1" Note="97" Velocity="127"/>
  </Event>
  <Event>
    <Absolute>102093</Absolute>
    <NoteOff Channel="1" Note="97" Velocity="64"/>
  </Event>
  <Event>
    <Absolute>102195</Absolute>
    <NoteOn Channel="1" Note="98" Velocity="127"/>
  </Event>
  <Event>
    <Absolute>102256</Absolute>
    <NoteOff Channel="1" Note="98" Velocity="64"/>
  </Event>
  <Event>
    <Absolute>102358</Absolute>
    <NoteOn Channel="1" Note="99" Velocity="127"/>
  </Event>
  <Event>
    <Absolute>102419</Absolute>
    <NoteOff Channel="1" Note="99" Velocity="64"/>
  </Event>
  <Event>
    <Absolute>102461</Absolute>
    <NoteOn Channel="1" Note="100" Velocity="127"/>
  </Event>
  <Event>
    <Absolute>103523</Absolute>
    <NoteOff Channel="1" Note="100" Velocity="64"/>
  </Event>
  <Event>
    <Absolute>103523</Absolute>
    <NoteOn Channel="1" Note="99" Velocity="127"/>
  </Event>
  <Event>
    <Absolute>103585</Absolute>
    <NoteOff Channel="1" Note="99" Velocity="64"/>
  </Event>
  <Event>
    <Absolute>103647</Absolute>
    <NoteOn Channel="1" Note="98" Velocity="127"/>
  </Event>
  <Event>
    <Absolute>103709</Absolute>
    <NoteOff Channel="1" Note="98" Velocity="64"/>
  </Event>
  <Event>
    <Absolute>103895</Absolute>
    <NoteOn Channel="1" Note="97" Velocity="127"/>
  </Event>
  <Event>
    <Absolute>103957</Absolute>
    <NoteOff Channel="1" Note="97" Velocity="64"/>
  </Event>
  <Event>
    <Absolute>104019</Absolute>
    <NoteOn Channel="1" Note="98" Velocity="127"/>
  </Event>
  <Event>
    <Absolute>104762</Absolute>
    <NoteOff Channel="1" Note="98" Velocity="64"/>
  </Event>
  <Event>
    <Absolute>104762</Absolute>
    <NoteOn Channel="1" Note="97" Velocity="127"/>
  </Event>
  <Event>
    <Absolute>104823</Absolute>
    <NoteOff Channel="1" Note="97" Velocity="64"/>
  </Event>
  <Event>
    <Absolute>104886</Absolute>
    <NoteOn Channel="1" Note="98" Velocity="127"/>
  </Event>
  <Event>
    <Absolute>104947</Absolute>
    <NoteOff Channel="1" Note="98" Velocity="64"/>
  </Event>
  <Event>
    <Absolute>105009</Absolute>
    <NoteOn Channel="1" Note="96" Velocity="127"/>
  </Event>
  <Event>
    <Absolute>105625</Absolute>
    <NoteOff Channel="1" Note="96" Velocity="64"/>
  </Event>
  <Event>
    <Absolute>105873</Absolute>
    <NoteOn Channel="1" Note="99" Velocity="127"/>
  </Event>
  <Event>
    <Absolute>105934</Absolute>
    <NoteOff Channel="1" Note="99" Velocity="64"/>
  </Event>
  <Event>
    <Absolute>105934</Absolute>
    <NoteOn Channel="1" Note="100" Velocity="127"/>
  </Event>
  <Event>
    <Absolute>105995</Absolute>
    <NoteOff Channel="1" Note="100" Velocity="64"/>
  </Event>
  <Event>
    <Absolute>106160</Absolute>
    <NoteOn Channel="1" Note="99" Velocity="127"/>
  </Event>
  <Event>
    <Absolute>106221</Absolute>
    <NoteOff Channel="1" Note="99" Velocity="64"/>
  </Event>
  <Event>
    <Absolute>106325</Absolute>
    <NoteOn Channel="1" Note="98" Velocity="127"/>
  </Event>
  <Event>
    <Absolute>106386</Absolute>
    <NoteOff Channel="1" Note="98" Velocity="64"/>
  </Event>
  <Event>
    <Absolute>106489</Absolute>
    <NoteOn Channel="1" Note="99" Velocity="127"/>
  </Event>
  <Event>
    <Absolute>106550</Absolute>
    <NoteOff Channel="1" Note="99" Velocity="64"/>
  </Event>
  <Event>
    <Absolute>106736</Absolute>
    <NoteOn Channel="1" Note="98" Velocity="127"/>
  </Event>
  <Event>
    <Absolute>106797</Absolute>
    <NoteOff Channel="1" Note="98" Velocity="64"/>
  </Event>
  <Event>
    <Absolute>106859</Absolute>
    <NoteOn Channel="1" Note="99" Velocity="127"/>
  </Event>
  <Event>
    <Absolute>106920</Absolute>
    <NoteOff Channel="1" Note="99" Velocity="64"/>
  </Event>
  <Event>
    <Absolute>106983</Absolute>
    <NoteOn Channel="1" Note="98" Velocity="127"/>
  </Event>
  <Event>
    <Absolute>107044</Absolute>
    <NoteOff Channel="1" Note="98" Velocity="64"/>
  </Event>
  <Event>
    <Absolute>107106</Absolute>
    <NoteOn Channel="1" Note="97" Velocity="127"/>
  </Event>
  <Event>
    <Absolute>107167</Absolute>
    <NoteOff Channel="1" Note="97" Velocity="64"/>
  </Event>
  <Event>
    <Absolute>107230</Absolute>
    <NoteOn Channel="1" Note="98" Velocity="127"/>
  </Event>
  <Event>
    <Absolute>107291</Absolute>
    <NoteOff Channel="1" Note="98" Velocity="64"/>
  </Event>
  <Event>
    <Absolute>107353</Absolute>
    <NoteOn Channel="1" Note="97" Velocity="127"/>
  </Event>
  <Event>
    <Absolute>107414</Absolute>
    <NoteOff Channel="1" Note="97" Velocity="64"/>
  </Event>
  <Event>
    <Absolute>107476</Absolute>
    <NoteOn Channel="1" Note="99" Velocity="127"/>
  </Event>
  <Event>
    <Absolute>107536</Absolute>
    <NoteOff Channel="1" Note="99" Velocity="64"/>
  </Event>
  <Event>
    <Absolute>107598</Absolute>
    <NoteOn Channel="1" Note="98" Velocity="127"/>
  </Event>
  <Event>
    <Absolute>107658</Absolute>
    <NoteOff Channel="1" Note="98" Velocity="64"/>
  </Event>
  <Event>
    <Absolute>107719</Absolute>
    <NoteOn Channel="1" Note="97" Velocity="127"/>
  </Event>
  <Event>
    <Absolute>107779</Absolute>
    <NoteOff Channel="1" Note="97" Velocity="64"/>
  </Event>
  <Event>
    <Absolute>107840</Absolute>
    <NoteOn Channel="1" Note="96" Velocity="127"/>
  </Event>
  <Event>
    <Absolute>107900</Absolute>
    <NoteOff Channel="1" Note="96" Velocity="64"/>
  </Event>
  <Event>
    <Absolute>107961</Absolute>
    <NoteOn Channel="1" Note="97" Velocity="127"/>
  </Event>
  <Event>
    <Absolute>108021</Absolute>
    <NoteOff Channel="1" Note="97" Velocity="64"/>
  </Event>
  <Event>
    <Absolute>108052</Absolute>
    <NoteOn Channel="1" Note="98" Velocity="127"/>
  </Event>
  <Event>
    <Absolute>108112</Absolute>
    <NoteOff Channel="1" Note="98" Velocity="64"/>
  </Event>
  <Event>
    <Absolute>108204</Absolute>
    <NoteOn Channel="1" Note="97" Velocity="127"/>
  </Event>
  <Event>
    <Absolute>108264</Absolute>
    <NoteOff Channel="1" Note="97" Velocity="64"/>
  </Event>
  <Event>
    <Absolute>108325</Absolute>
    <NoteOn Channel="1" Note="96" Velocity="127"/>
  </Event>
  <Event>
    <Absolute>108385</Absolute>
    <NoteOff Channel="1" Note="96" Velocity="64"/>
  </Event>
  <Event>
    <Absolute>108447</Absolute>
    <NoteOn Channel="1" Note="98" Velocity="127"/>
  </Event>
  <Event>
    <Absolute>108507</Absolute>
    <NoteOff Channel="1" Note="98" Velocity="64"/>
  </Event>
  <Event>
    <Absolute>108507</Absolute>
    <NoteOn Channel="1" Note="99" Velocity="127"/>
  </Event>
  <Event>
    <Absolute>108567</Absolute>
    <NoteOff Channel="1" Note="99" Velocity="64"/>
  </Event>
  <Event>
    <Absolute>108750</Absolute>
    <NoteOn Channel="1" Note="98" Velocity="127"/>
  </Event>
  <Event>
    <Absolute>108810</Absolute>
    <NoteOff Channel="1" Note="98" Velocity="64"/>
  </Event>
  <Event>
    <Absolute>108932</Absolute>
    <NoteOn Channel="1" Note="97" Velocity="127"/>
  </Event>
  <Event>
    <Absolute>109902</Absolute>
    <NoteOff Channel="1" Note="97" Velocity="64"/>
  </Event>
  <Event>
    <Absolute>109902</Absolute>
    <NoteOn Channel="1" Note="98" Velocity="127"/>
  </Event>
  <Event>
    <Absolute>109902</Absolute>
    <NoteOn Channel="1" Note="99" Velocity="127"/>
  </Event>
  <Event>
    <Absolute>109963</Absolute>
    <NoteOff Channel="1" Note="98" Velocity="64"/>
  </Event>
  <Event>
    <Absolute>109963</Absolute>
    <NoteOff Channel="1" Note="99" Velocity="64"/>
  </Event>
  <Event>
    <Absolute>110148</Absolute>
    <NoteOn Channel="1" Note="98" Velocity="127"/>
  </Event>
  <Event>
    <Absolute>110209</Absolute>
    <NoteOff Channel="1" Note="98" Velocity="64"/>
  </Event>
  <Event>
    <Absolute>110394</Absolute>
    <NoteOn Channel="1" Note="97" Velocity="127"/>
  </Event>
  <Event>
    <Absolute>110453</Absolute>
    <NoteOff Channel="1" Note="97" Velocity="64"/>
  </Event>
  <Event>
    <Absolute>110514</Absolute>
    <NoteOn Channel="1" Note="98" Velocity="127"/>
  </Event>
  <Event>
    <Absolute>110573</Absolute>
    <NoteOff Channel="1" Note="98" Velocity="64"/>
  </Event>
  <Event>
    <Absolute>110633</Absolute>
    <NoteOn Channel="1" Note="98" Velocity="127"/>
  </Event>
  <Event>
    <Absolute>110633</Absolute>
    <NoteOn Channel="1" Note="99" Velocity="127"/>
  </Event>
  <Event>
    <Absolute>110692</Absolute>
    <NoteOff Channel="1" Note="98" Velocity="64"/>
  </Event>
  <Event>
    <Absolute>110692</Absolute>
    <NoteOff Channel="1" Note="99" Velocity="64"/>
  </Event>
  <Event>
    <Absolute>110752</Absolute>
    <NoteOn Channel="1" Note="98" Velocity="127"/>
  </Event>
  <Event>
    <Absolute>110752</Absolute>
    <NoteOn Channel="1" Note="99" Velocity="127"/>
  </Event>
  <Event>
    <Absolute>110811</Absolute>
    <NoteOff Channel="1" Note="98" Velocity="64"/>
  </Event>
  <Event>
    <Absolute>110811</Absolute>
    <NoteOff Channel="1" Note="99" Velocity="64"/>
  </Event>
  <Event>
    <Absolute>110991</Absolute>
    <NoteOn Channel="1" Note="99" Velocity="127"/>
  </Event>
  <Event>
    <Absolute>111050</Absolute>
    <NoteOff Channel="1" Note="99" Velocity="64"/>
  </Event>
  <Event>
    <Absolute>111110</Absolute>
    <NoteOn Channel="1" Note="98" Velocity="127"/>
  </Event>
  <Event>
    <Absolute>111169</Absolute>
    <NoteOff Channel="1" Note="98" Velocity="64"/>
  </Event>
  <Event>
    <Absolute>111349</Absolute>
    <NoteOn Channel="1" Note="97" Velocity="127"/>
  </Event>
  <Event>
    <Absolute>111408</Absolute>
    <NoteOff Channel="1" Note="97" Velocity="64"/>
  </Event>
  <Event>
    <Absolute>111589</Absolute>
    <NoteOn Channel="1" Note="96" Velocity="127"/>
  </Event>
  <Event>
    <Absolute>111648</Absolute>
    <NoteOff Channel="1" Note="96" Velocity="64"/>
  </Event>
  <Event>
    <Absolute>111829</Absolute>
    <NoteOn Channel="1" Note="100" Velocity="127"/>
  </Event>
  <Event>
    <Absolute>111888</Absolute>
    <NoteOff Channel="1" Note="100" Velocity="64"/>
  </Event>
  <Event>
    <Absolute>111949</Absolute>
    <NoteOn Channel="1" Note="99" Velocity="127"/>
  </Event>
  <Event>
    <Absolute>112008</Absolute>
    <NoteOff Channel="1" Note="99" Velocity="64"/>
  </Event>
  <Event>
    <Absolute>112069</Absolute>
    <NoteOn Channel="1" Note="98" Velocity="127"/>
  </Event>
  <Event>
    <Absolute>112128</Absolute>
    <NoteOff Channel="1" Note="98" Velocity="64"/>
  </Event>
  <Event>
    <Absolute>112189</Absolute>
    <NoteOn Channel="1" Note="97" Velocity="127"/>
  </Event>
  <Event>
    <Absolute>112248</Absolute>
    <NoteOff Channel="1" Note="97" Velocity="64"/>
  </Event>
  <Event>
    <Absolute>112309</Absolute>
    <NoteOn Channel="1" Note="99" Velocity="127"/>
  </Event>
  <Event>
    <Absolute>112369</Absolute>
    <NoteOff Channel="1" Note="99" Velocity="64"/>
  </Event>
  <Event>
    <Absolute>112430</Absolute>
    <NoteOn Channel="1" Note="98" Velocity="127"/>
  </Event>
  <Event>
    <Absolute>112490</Absolute>
    <NoteOff Channel="1" Note="98" Velocity="64"/>
  </Event>
  <Event>
    <Absolute>112550</Absolute>
    <NoteOn Channel="1" Note="97" Velocity="127"/>
  </Event>
  <Event>
    <Absolute>112610</Absolute>
    <NoteOff Channel="1" Note="97" Velocity="64"/>
  </Event>
  <Event>
    <Absolute>112671</Absolute>
    <NoteOn Channel="1" Note="96" Velocity="127"/>
  </Event>
  <Event>
    <Absolute>112731</Absolute>
    <NoteOff Channel="1" Note="96" Velocity="64"/>
  </Event>
  <Event>
    <Absolute>112792</Absolute>
    <NoteOn Channel="1" Note="99" Velocity="127"/>
  </Event>
  <Event>
    <Absolute>112852</Absolute>
    <NoteOff Channel="1" Note="99" Velocity="64"/>
  </Event>
  <Event>
    <Absolute>112912</Absolute>
    <NoteOn Channel="1" Note="98" Velocity="127"/>
  </Event>
  <Event>
    <Absolute>112972</Absolute>
    <NoteOff Channel="1" Note="98" Velocity="64"/>
  </Event>
  <Event>
    <Absolute>113033</Absolute>
    <NoteOn Channel="1" Note="97" Velocity="127"/>
  </Event>
  <Event>
    <Absolute>113093</Absolute>
    <NoteOff Channel="1" Note="97" Velocity="64"/>
  </Event>
  <Event>
    <Absolute>113154</Absolute>
    <NoteOn Channel="1" Note="96" Velocity="127"/>
  </Event>
  <Event>
    <Absolute>113214</Absolute>
    <NoteOff Channel="1" Note="96" Velocity="64"/>
  </Event>
  <Event>
    <Absolute>113274</Absolute>
    <NoteOn Channel="1" Note="98" Velocity="127"/>
  </Event>
  <Event>
    <Absolute>113334</Absolute>
    <NoteOff Channel="1" Note="98" Velocity="64"/>
  </Event>
  <Event>
    <Absolute>113396</Absolute>
    <NoteOn Channel="1" Note="96" Velocity="127"/>
  </Event>
  <Event>
    <Absolute>113456</Absolute>
    <NoteOff Channel="1" Note="96" Velocity="64"/>
  </Event>
  <Event>
    <Absolute>113518</Absolute>
    <NoteOn Channel="1" Note="97" Velocity="127"/>
  </Event>
  <Event>
    <Absolute>113578</Absolute>
    <NoteOff Channel="1" Note="97" Velocity="64"/>
  </Event>
  <Event>
    <Absolute>113640</Absolute>
    <NoteOn Channel="1" Note="98" Velocity="127"/>
  </Event>
  <Event>
    <Absolute>113700</Absolute>
    <NoteOff Channel="1" Note="98" Velocity="64"/>
  </Event>
  <Event>
    <Absolute>113762</Absolute>
    <NoteOn Channel="1" Note="98" Velocity="127"/>
  </Event>
  <Event>
    <Absolute>113762</Absolute>
    <NoteOn Channel="1" Note="99" Velocity="127"/>
  </Event>
  <Event>
    <Absolute>113822</Absolute>
    <NoteOff Channel="1" Note="98" Velocity="64"/>
  </Event>
  <Event>
    <Absolute>113822</Absolute>
    <NoteOff Channel="1" Note="99" Velocity="64"/>
  </Event>
  <Event>
    <Absolute>113884</Absolute>
    <NoteOn Channel="1" Note="98" Velocity="127"/>
  </Event>
  <Event>
    <Absolute>113944</Absolute>
    <NoteOff Channel="1" Note="98" Velocity="64"/>
  </Event>
  <Event>
    <Absolute>114005</Absolute>
    <NoteOn Channel="1" Note="98" Velocity="127"/>
  </Event>
  <Event>
    <Absolute>114065</Absolute>
    <NoteOff Channel="1" Note="98" Velocity="64"/>
  </Event>
  <Event>
    <Absolute>114249</Absolute>
    <NoteOn Channel="1" Note="97" Velocity="127"/>
  </Event>
  <Event>
    <Absolute>114308</Absolute>
    <NoteOff Channel="1" Note="97" Velocity="64"/>
  </Event>
  <Event>
    <Absolute>114368</Absolute>
    <NoteOn Channel="1" Note="98" Velocity="127"/>
  </Event>
  <Event>
    <Absolute>114427</Absolute>
    <NoteOff Channel="1" Note="98" Velocity="64"/>
  </Event>
  <Event>
    <Absolute>114486</Absolute>
    <NoteOn Channel="1" Note="98" Velocity="127"/>
  </Event>
  <Event>
    <Absolute>114486</Absolute>
    <NoteOn Channel="1" Note="99" Velocity="127"/>
  </Event>
  <Event>
    <Absolute>114545</Absolute>
    <NoteOff Channel="1" Note="98" Velocity="64"/>
  </Event>
  <Event>
    <Absolute>114545</Absolute>
    <NoteOff Channel="1" Note="99" Velocity="64"/>
  </Event>
  <Event>
    <Absolute>114605</Absolute>
    <NoteOn Channel="1" Note="98" Velocity="127"/>
  </Event>
  <Event>
    <Absolute>114605</Absolute>
    <NoteOn Channel="1" Note="99" Velocity="127"/>
  </Event>
  <Event>
    <Absolute>114664</Absolute>
    <NoteOff Channel="1" Note="98" Velocity="64"/>
  </Event>
  <Event>
    <Absolute>114664</Absolute>
    <NoteOff Channel="1" Note="99" Velocity="64"/>
  </Event>
  <Event>
    <Absolute>114842</Absolute>
    <NoteOn Channel="1" Note="99" Velocity="127"/>
  </Event>
  <Event>
    <Absolute>114901</Absolute>
    <NoteOff Channel="1" Note="99" Velocity="64"/>
  </Event>
  <Event>
    <Absolute>114961</Absolute>
    <NoteOn Channel="1" Note="98" Velocity="127"/>
  </Event>
  <Event>
    <Absolute>115020</Absolute>
    <NoteOff Channel="1" Note="98" Velocity="64"/>
  </Event>
  <Event>
    <Absolute>115198</Absolute>
    <NoteOn Channel="1" Note="97" Velocity="127"/>
  </Event>
  <Event>
    <Absolute>115258</Absolute>
    <NoteOff Channel="1" Note="97" Velocity="64"/>
  </Event>
  <Event>
    <Absolute>115439</Absolute>
    <NoteOn Channel="1" Note="96" Velocity="127"/>
  </Event>
  <Event>
    <Absolute>115499</Absolute>
    <NoteOff Channel="1" Note="96" Velocity="64"/>
  </Event>
  <Event>
    <Absolute>115559</Absolute>
    <NoteOn Channel="1" Note="96" Velocity="127"/>
  </Event>
  <Event>
    <Absolute>115619</Absolute>
    <NoteOff Channel="1" Note="96" Velocity="64"/>
  </Event>
  <Event>
    <Absolute>115680</Absolute>
    <NoteOn Channel="1" Note="97" Velocity="127"/>
  </Event>
  <Event>
    <Absolute>115740</Absolute>
    <NoteOff Channel="1" Note="97" Velocity="64"/>
  </Event>
  <Event>
    <Absolute>115800</Absolute>
    <NoteOn Channel="1" Note="97" Velocity="127"/>
  </Event>
  <Event>
    <Absolute>115860</Absolute>
    <NoteOff Channel="1" Note="97" Velocity="64"/>
  </Event>
  <Event>
    <Absolute>115921</Absolute>
    <NoteOn Channel="1" Note="98" Velocity="127"/>
  </Event>
  <Event>
    <Absolute>116522</Absolute>
    <NoteOff Channel="1" Note="98" Velocity="64"/>
  </Event>
  <Event>
    <Absolute>116523</Absolute>
    <NoteOn Channel="1" Note="96" Velocity="127"/>
  </Event>
  <Event>
    <Absolute>116583</Absolute>
    <NoteOff Channel="1" Note="96" Velocity="64"/>
  </Event>
  <Event>
    <Absolute>116583</Absolute>
    <NoteOn Channel="1" Note="97" Velocity="127"/>
  </Event>
  <Event>
    <Absolute>116643</Absolute>
    <NoteOff Channel="1" Note="97" Velocity="64"/>
  </Event>
  <Event>
    <Absolute>116643</Absolute>
    <NoteOn Channel="1" Note="98" Velocity="127"/>
  </Event>
  <Event>
    <Absolute>116673</Absolute>
    <NoteOff Channel="1" Note="98" Velocity="64"/>
  </Event>
  <Event>
    <Absolute>116723</Absolute>
    <NoteOn Channel="1" Note="99" Velocity="127"/>
  </Event>
  <Event>
    <Absolute>116753</Absolute>
    <NoteOff Channel="1" Note="99" Velocity="64"/>
  </Event>
  <Event>
    <Absolute>116803</Absolute>
    <NoteOn Channel="1" Note="98" Velocity="127"/>
  </Event>
  <Event>
    <Absolute>116833</Absolute>
    <NoteOff Channel="1" Note="98" Velocity="64"/>
  </Event>
  <Event>
    <Absolute>116884</Absolute>
    <NoteOn Channel="1" Note="97" Velocity="127"/>
  </Event>
  <Event>
    <Absolute>116914</Absolute>
    <NoteOff Channel="1" Note="97" Velocity="64"/>
  </Event>
  <Event>
    <Absolute>117004</Absolute>
    <NoteOn Channel="1" Note="98" Velocity="127"/>
  </Event>
  <Event>
    <Absolute>117034</Absolute>
    <NoteOff Channel="1" Note="98" Velocity="64"/>
  </Event>
  <Event>
    <Absolute>117124</Absolute>
    <NoteOn Channel="1" Note="99" Velocity="127"/>
  </Event>
  <Event>
    <Absolute>117183</Absolute>
    <NoteOff Channel="1" Note="99" Velocity="64"/>
  </Event>
  <Event>
    <Absolute>117184</Absolute>
    <NoteOn Channel="1" Note="100" Velocity="127"/>
  </Event>
  <Event>
    <Absolute>117599</Absolute>
    <NoteOff Channel="1" Note="100" Velocity="64"/>
  </Event>
  <Event>
    <Absolute>117600</Absolute>
    <NoteOn Channel="1" Note="98" Velocity="127"/>
  </Event>
  <Event>
    <Absolute>117600</Absolute>
    <NoteOn Channel="1" Note="100" Velocity="127"/>
  </Event>
  <Event>
    <Absolute>117659</Absolute>
    <NoteOff Channel="1" Note="98" Velocity="64"/>
  </Event>
  <Event>
    <Absolute>117659</Absolute>
    <NoteOff Channel="1" Note="100" Velocity="64"/>
  </Event>
  <Event>
    <Absolute>117837</Absolute>
    <NoteOn Channel="1" Note="98" Velocity="127"/>
  </Event>
  <Event>
    <Absolute>117837</Absolute>
    <NoteOn Channel="1" Note="100" Velocity="127"/>
  </Event>
  <Event>
    <Absolute>117896</Absolute>
    <NoteOff Channel="1" Note="98" Velocity="64"/>
  </Event>
  <Event>
    <Absolute>117896</Absolute>
    <NoteOff Channel="1" Note="100" Velocity="64"/>
  </Event>
  <Event>
    <Absolute>118075</Absolute>
    <NoteOn Channel="1" Note="98" Velocity="127"/>
  </Event>
  <Event>
    <Absolute>118075</Absolute>
    <NoteOn Channel="1" Note="99" Velocity="127"/>
  </Event>
  <Event>
    <Absolute>118135</Absolute>
    <NoteOff Channel="1" Note="98" Velocity="64"/>
  </Event>
  <Event>
    <Absolute>118135</Absolute>
    <NoteOff Channel="1" Note="99" Velocity="64"/>
  </Event>
  <Event>
    <Absolute>118317</Absolute>
    <NoteOn Channel="1" Note="98" Velocity="127"/>
  </Event>
  <Event>
    <Absolute>118377</Absolute>
    <NoteOff Channel="1" Note="98" Velocity="64"/>
  </Event>
  <Event>
    <Absolute>118438</Absolute>
    <NoteOn Channel="1" Note="98" Velocity="127"/>
  </Event>
  <Event>
    <Absolute>118438</Absolute>
    <NoteOn Channel="1" Note="100" Velocity="127"/>
  </Event>
  <Event>
    <Absolute>118498</Absolute>
    <NoteOff Channel="1" Note="98" Velocity="64"/>
  </Event>
  <Event>
    <Absolute>118498</Absolute>
    <NoteOff Channel="1" Note="100" Velocity="64"/>
  </Event>
  <Event>
    <Absolute>118680</Absolute>
    <NoteOn Channel="1" Note="98" Velocity="127"/>
  </Event>
  <Event>
    <Absolute>118680</Absolute>
    <NoteOn Channel="1" Note="100" Velocity="127"/>
  </Event>
  <Event>
    <Absolute>118740</Absolute>
    <NoteOff Channel="1" Note="98" Velocity="64"/>
  </Event>
  <Event>
    <Absolute>118740</Absolute>
    <NoteOff Channel="1" Note="100" Velocity="64"/>
  </Event>
  <Event>
    <Absolute>118801</Absolute>
    <NoteOn Channel="1" Note="98" Velocity="127"/>
  </Event>
  <Event>
    <Absolute>118801</Absolute>
    <NoteOn Channel="1" Note="99" Velocity="127"/>
  </Event>
  <Event>
    <Absolute>118861</Absolute>
    <NoteOff Channel="1" Note="98" Velocity="64"/>
  </Event>
  <Event>
    <Absolute>118861</Absolute>
    <NoteOff Channel="1" Note="99" Velocity="64"/>
  </Event>
  <Event>
    <Absolute>119043</Absolute>
    <NoteOn Channel="1" Note="96" Velocity="127"/>
  </Event>
  <Event>
    <Absolute>119043</Absolute>
    <NoteOn Channel="1" Note="97" Velocity="127"/>
  </Event>
  <Event>
    <Absolute>119103</Absolute>
    <NoteOff Channel="1" Note="96" Velocity="64"/>
  </Event>
  <Event>
    <Absolute>119103</Absolute>
    <NoteOff Channel="1" Note="97" Velocity="64"/>
  </Event>
  <Event>
    <Absolute>119164</Absolute>
    <NoteOn Channel="1" Note="96" Velocity="127"/>
  </Event>
  <Event>
    <Absolute>119164</Absolute>
    <NoteOn Channel="1" Note="97" Velocity="127"/>
  </Event>
  <Event>
    <Absolute>119224</Absolute>
    <NoteOff Channel="1" Note="96" Velocity="64"/>
  </Event>
  <Event>
    <Absolute>119224</Absolute>
    <NoteOff Channel="1" Note="97" Velocity="64"/>
  </Event>
  <Event>
    <Absolute>119284</Absolute>
    <NoteOn Channel="1" Note="96" Velocity="127"/>
  </Event>
  <Event>
    <Absolute>119284</Absolute>
    <NoteOn Channel="1" Note="97" Velocity="127"/>
  </Event>
  <Event>
    <Absolute>119344</Absolute>
    <NoteOff Channel="1" Note="96" Velocity="64"/>
  </Event>
  <Event>
    <Absolute>119344</Absolute>
    <NoteOff Channel="1" Note="97" Velocity="64"/>
  </Event>
  <Event>
    <Absolute>119404</Absolute>
    <NoteOn Channel="1" Note="96" Velocity="127"/>
  </Event>
  <Event>
    <Absolute>119404</Absolute>
    <NoteOn Channel="1" Note="97" Velocity="127"/>
  </Event>
  <Event>
    <Absolute>119464</Absolute>
    <NoteOff Channel="1" Note="96" Velocity="64"/>
  </Event>
  <Event>
    <Absolute>119464</Absolute>
    <NoteOff Channel="1" Note="97" Velocity="64"/>
  </Event>
  <Event>
    <Absolute>119525</Absolute>
    <NoteOn Channel="1" Note="98" Velocity="127"/>
  </Event>
  <Event>
    <Absolute>119525</Absolute>
    <NoteOn Channel="1" Note="100" Velocity="127"/>
  </Event>
  <Event>
    <Absolute>119585</Absolute>
    <NoteOff Channel="1" Note="98" Velocity="64"/>
  </Event>
  <Event>
    <Absolute>119585</Absolute>
    <NoteOff Channel="1" Note="100" Velocity="64"/>
  </Event>
  <Event>
    <Absolute>119765</Absolute>
    <NoteOn Channel="1" Note="98" Velocity="127"/>
  </Event>
  <Event>
    <Absolute>119765</Absolute>
    <NoteOn Channel="1" Note="100" Velocity="127"/>
  </Event>
  <Event>
    <Absolute>119825</Absolute>
    <NoteOff Channel="1" Note="98" Velocity="64"/>
  </Event>
  <Event>
    <Absolute>119825</Absolute>
    <NoteOff Channel="1" Note="100" Velocity="64"/>
  </Event>
  <Event>
    <Absolute>120006</Absolute>
    <NoteOn Channel="1" Note="98" Velocity="127"/>
  </Event>
  <Event>
    <Absolute>120006</Absolute>
    <NoteOn Channel="1" Note="99" Velocity="127"/>
  </Event>
  <Event>
    <Absolute>120066</Absolute>
    <NoteOff Channel="1" Note="98" Velocity="64"/>
  </Event>
  <Event>
    <Absolute>120066</Absolute>
    <NoteOff Channel="1" Note="99" Velocity="64"/>
  </Event>
  <Event>
    <Absolute>120249</Absolute>
    <NoteOn Channel="1" Note="98" Velocity="127"/>
  </Event>
  <Event>
    <Absolute>120249</Absolute>
    <NoteOn Channel="1" Note="100" Velocity="127"/>
  </Event>
  <Event>
    <Absolute>120309</Absolute>
    <NoteOff Channel="1" Note="98" Velocity="64"/>
  </Event>
  <Event>
    <Absolute>120309</Absolute>
    <NoteOff Channel="1" Note="100" Velocity="64"/>
  </Event>
  <Event>
    <Absolute>120370</Absolute>
    <NoteOn Channel="1" Note="98" Velocity="127"/>
  </Event>
  <Event>
    <Absolute>120370</Absolute>
    <NoteOn Channel="1" Note="100" Velocity="127"/>
  </Event>
  <Event>
    <Absolute>120733</Absolute>
    <NoteOff Channel="1" Note="98" Velocity="64"/>
  </Event>
  <Event>
    <Absolute>120733</Absolute>
    <NoteOff Channel="1" Note="100" Velocity="64"/>
  </Event>
  <Event>
    <Absolute>120734</Absolute>
    <NoteOn Channel="1" Note="98" Velocity="127"/>
  </Event>
  <Event>
    <Absolute>120734</Absolute>
    <NoteOn Channel="1" Note="99" Velocity="127"/>
  </Event>
  <Event>
    <Absolute>120794</Absolute>
    <NoteOff Channel="1" Note="98" Velocity="64"/>
  </Event>
  <Event>
    <Absolute>120794</Absolute>
    <NoteOff Channel="1" Note="99" Velocity="64"/>
  </Event>
  <Event>
    <Absolute>120977</Absolute>
    <NoteOn Channel="1" Note="96" Velocity="127"/>
  </Event>
  <Event>
    <Absolute>120977</Absolute>
    <NoteOn Channel="1" Note="97" Velocity="127"/>
  </Event>
  <Event>
    <Absolute>121037</Absolute>
    <NoteOff Channel="1" Note="96" Velocity="64"/>
  </Event>
  <Event>
    <Absolute>121037</Absolute>
    <NoteOff Channel="1" Note="97" Velocity="64"/>
  </Event>
  <Event>
    <Absolute>121097</Absolute>
    <NoteOn Channel="1" Note="96" Velocity="127"/>
  </Event>
  <Event>
    <Absolute>121097</Absolute>
    <NoteOn Channel="1" Note="97" Velocity="127"/>
  </Event>
  <Event>
    <Absolute>121157</Absolute>
    <NoteOff Channel="1" Note="96" Velocity="64"/>
  </Event>
  <Event>
    <Absolute>121157</Absolute>
    <NoteOff Channel="1" Note="97" Velocity="64"/>
  </Event>
  <Event>
    <Absolute>121217</Absolute>
    <NoteOn Channel="1" Note="96" Velocity="127"/>
  </Event>
  <Event>
    <Absolute>121217</Absolute>
    <NoteOn Channel="1" Note="97" Velocity="127"/>
  </Event>
  <Event>
    <Absolute>121277</Absolute>
    <NoteOff Channel="1" Note="96" Velocity="64"/>
  </Event>
  <Event>
    <Absolute>121277</Absolute>
    <NoteOff Channel="1" Note="97" Velocity="64"/>
  </Event>
  <Event>
    <Absolute>121337</Absolute>
    <NoteOn Channel="1" Note="96" Velocity="127"/>
  </Event>
  <Event>
    <Absolute>121337</Absolute>
    <NoteOn Channel="1" Note="97" Velocity="127"/>
  </Event>
  <Event>
    <Absolute>121397</Absolute>
    <NoteOff Channel="1" Note="96" Velocity="64"/>
  </Event>
  <Event>
    <Absolute>121397</Absolute>
    <NoteOff Channel="1" Note="97" Velocity="64"/>
  </Event>
  <Event>
    <Absolute>121458</Absolute>
    <NoteOn Channel="1" Note="98" Velocity="127"/>
  </Event>
  <Event>
    <Absolute>121458</Absolute>
    <NoteOn Channel="1" Note="100" Velocity="127"/>
  </Event>
  <Event>
    <Absolute>121518</Absolute>
    <NoteOff Channel="1" Note="98" Velocity="64"/>
  </Event>
  <Event>
    <Absolute>121518</Absolute>
    <NoteOff Channel="1" Note="100" Velocity="64"/>
  </Event>
  <Event>
    <Absolute>121698</Absolute>
    <NoteOn Channel="1" Note="98" Velocity="127"/>
  </Event>
  <Event>
    <Absolute>121698</Absolute>
    <NoteOn Channel="1" Note="100" Velocity="127"/>
  </Event>
  <Event>
    <Absolute>121758</Absolute>
    <NoteOff Channel="1" Note="98" Velocity="64"/>
  </Event>
  <Event>
    <Absolute>121758</Absolute>
    <NoteOff Channel="1" Note="100" Velocity="64"/>
  </Event>
  <Event>
    <Absolute>121938</Absolute>
    <NoteOn Channel="1" Note="98" Velocity="127"/>
  </Event>
  <Event>
    <Absolute>121938</Absolute>
    <NoteOn Channel="1" Note="99" Velocity="127"/>
  </Event>
  <Event>
    <Absolute>121998</Absolute>
    <NoteOff Channel="1" Note="98" Velocity="64"/>
  </Event>
  <Event>
    <Absolute>121998</Absolute>
    <NoteOff Channel="1" Note="99" Velocity="64"/>
  </Event>
  <Event>
    <Absolute>122180</Absolute>
    <NoteOn Channel="1" Note="98" Velocity="127"/>
  </Event>
  <Event>
    <Absolute>122240</Absolute>
    <NoteOff Channel="1" Note="98" Velocity="64"/>
  </Event>
  <Event>
    <Absolute>122301</Absolute>
    <NoteOn Channel="1" Note="98" Velocity="127"/>
  </Event>
  <Event>
    <Absolute>122301</Absolute>
    <NoteOn Channel="1" Note="100" Velocity="127"/>
  </Event>
  <Event>
    <Absolute>122663</Absolute>
    <NoteOff Channel="1" Note="98" Velocity="64"/>
  </Event>
  <Event>
    <Absolute>122663</Absolute>
    <NoteOff Channel="1" Note="100" Velocity="64"/>
  </Event>
  <Event>
    <Absolute>122664</Absolute>
    <NoteOn Channel="1" Note="96" Velocity="127"/>
  </Event>
  <Event>
    <Absolute>122664</Absolute>
    <NoteOn Channel="1" Note="97" Velocity="127"/>
  </Event>
  <Event>
    <Absolute>122724</Absolute>
    <NoteOff Channel="1" Note="96" Velocity="64"/>
  </Event>
  <Event>
    <Absolute>122724</Absolute>
    <NoteOff Channel="1" Note="97" Velocity="64"/>
  </Event>
  <Event>
    <Absolute>122784</Absolute>
    <NoteOn Channel="1" Note="96" Velocity="127"/>
  </Event>
  <Event>
    <Absolute>122784</Absolute>
    <NoteOn Channel="1" Note="97" Velocity="127"/>
  </Event>
  <Event>
    <Absolute>122844</Absolute>
    <NoteOff Channel="1" Note="96" Velocity="64"/>
  </Event>
  <Event>
    <Absolute>122844</Absolute>
    <NoteOff Channel="1" Note="97" Velocity="64"/>
  </Event>
  <Event>
    <Absolute>122905</Absolute>
    <NoteOn Channel="1" Note="96" Velocity="127"/>
  </Event>
  <Event>
    <Absolute>122905</Absolute>
    <NoteOn Channel="1" Note="97" Velocity="127"/>
  </Event>
  <Event>
    <Absolute>122965</Absolute>
    <NoteOff Channel="1" Note="96" Velocity="64"/>
  </Event>
  <Event>
    <Absolute>122965</Absolute>
    <NoteOff Channel="1" Note="97" Velocity="64"/>
  </Event>
  <Event>
    <Absolute>123026</Absolute>
    <NoteOn Channel="1" Note="96" Velocity="127"/>
  </Event>
  <Event>
    <Absolute>123026</Absolute>
    <NoteOn Channel="1" Note="97" Velocity="127"/>
  </Event>
  <Event>
    <Absolute>123086</Absolute>
    <NoteOff Channel="1" Note="96" Velocity="64"/>
  </Event>
  <Event>
    <Absolute>123086</Absolute>
    <NoteOff Channel="1" Note="97" Velocity="64"/>
  </Event>
  <Event>
    <Absolute>123146</Absolute>
    <NoteOn Channel="1" Note="96" Velocity="127"/>
  </Event>
  <Event>
    <Absolute>123146</Absolute>
    <NoteOn Channel="1" Note="97" Velocity="127"/>
  </Event>
  <Event>
    <Absolute>123206</Absolute>
    <NoteOff Channel="1" Note="96" Velocity="64"/>
  </Event>
  <Event>
    <Absolute>123206</Absolute>
    <NoteOff Channel="1" Note="97" Velocity="64"/>
  </Event>
  <Event>
    <Absolute>123267</Absolute>
    <NoteOn Channel="1" Note="96" Velocity="127"/>
  </Event>
  <Event>
    <Absolute>123267</Absolute>
    <NoteOn Channel="1" Note="97" Velocity="127"/>
  </Event>
  <Event>
    <Absolute>123327</Absolute>
    <NoteOff Channel="1" Note="96" Velocity="64"/>
  </Event>
  <Event>
    <Absolute>123327</Absolute>
    <NoteOff Channel="1" Note="97" Velocity="64"/>
  </Event>
  <Event>
    <Absolute>123387</Absolute>
    <NoteOn Channel="1" Note="98" Velocity="127"/>
  </Event>
  <Event>
    <Absolute>123387</Absolute>
    <NoteOn Channel="1" Note="100" Velocity="127"/>
  </Event>
  <Event>
    <Absolute>123447</Absolute>
    <NoteOff Channel="1" Note="98" Velocity="64"/>
  </Event>
  <Event>
    <Absolute>123447</Absolute>
    <NoteOff Channel="1" Note="100" Velocity="64"/>
  </Event>
  <Event>
    <Absolute>123629</Absolute>
    <NoteOn Channel="1" Note="98" Velocity="127"/>
  </Event>
  <Event>
    <Absolute>123629</Absolute>
    <NoteOn Channel="1" Note="100" Velocity="127"/>
  </Event>
  <Event>
    <Absolute>123689</Absolute>
    <NoteOff Channel="1" Note="98" Velocity="64"/>
  </Event>
  <Event>
    <Absolute>123689</Absolute>
    <NoteOff Channel="1" Note="100" Velocity="64"/>
  </Event>
  <Event>
    <Absolute>123870</Absolute>
    <NoteOn Channel="1" Note="98" Velocity="127"/>
  </Event>
  <Event>
    <Absolute>123870</Absolute>
    <NoteOn Channel="1" Note="99" Velocity="127"/>
  </Event>
  <Event>
    <Absolute>123931</Absolute>
    <NoteOff Channel="1" Note="98" Velocity="64"/>
  </Event>
  <Event>
    <Absolute>123931</Absolute>
    <NoteOff Channel="1" Note="99" Velocity="64"/>
  </Event>
  <Event>
    <Absolute>124115</Absolute>
    <NoteOn Channel="1" Note="98" Velocity="127"/>
  </Event>
  <Event>
    <Absolute>124115</Absolute>
    <NoteOn Channel="1" Note="100" Velocity="127"/>
  </Event>
  <Event>
    <Absolute>124176</Absolute>
    <NoteOff Channel="1" Note="98" Velocity="64"/>
  </Event>
  <Event>
    <Absolute>124176</Absolute>
    <NoteOff Channel="1" Note="100" Velocity="64"/>
  </Event>
  <Event>
    <Absolute>124238</Absolute>
    <NoteOn Channel="1" Note="98" Velocity="127"/>
  </Event>
  <Event>
    <Absolute>124238</Absolute>
    <NoteOn Channel="1" Note="100" Velocity="127"/>
  </Event>
  <Event>
    <Absolute>124606</Absolute>
    <NoteOff Channel="1" Note="98" Velocity="64"/>
  </Event>
  <Event>
    <Absolute>124606</Absolute>
    <NoteOff Channel="1" Note="100" Velocity="64"/>
  </Event>
  <Event>
    <Absolute>124607</Absolute>
    <NoteOn Channel="1" Note="99" Velocity="127"/>
  </Event>
  <Event>
    <Absolute>124668</Absolute>
    <NoteOff Channel="1" Note="99" Velocity="64"/>
  </Event>
  <Event>
    <Absolute>124852</Absolute>
    <NoteOn Channel="1" Note="98" Velocity="127"/>
  </Event>
  <Event>
    <Absolute>124913</Absolute>
    <NoteOff Channel="1" Note="98" Velocity="64"/>
  </Event>
  <Event>
    <Absolute>125098</Absolute>
    <NoteOn Channel="1" Note="97" Velocity="127"/>
  </Event>
  <Event>
    <Absolute>125159</Absolute>
    <NoteOff Channel="1" Note="97" Velocity="64"/>
  </Event>
  <Event>
    <Absolute>125344</Absolute>
    <NoteOn Channel="1" Note="99" Velocity="127"/>
  </Event>
  <Event>
    <Absolute>125829</Absolute>
    <NoteOff Channel="1" Note="99" Velocity="64"/>
  </Event>
  <Event>
    <Absolute>125829</Absolute>
    <NoteOn Channel="1" Note="98" Velocity="127"/>
  </Event>
  <Event>
    <Absolute>126314</Absolute>
    <NoteOff Channel="1" Note="98" Velocity="64"/>
  </Event>
  <Event>
    <Absolute>126315</Absolute>
    <NoteOn Channel="1" Note="97" Velocity="127"/>
  </Event>
  <Event>
    <Absolute>126800</Absolute>
    <NoteOff Channel="1" Note="97" Velocity="64"/>
  </Event>
  <Event>
    <Absolute>126800</Absolute>
    <NoteOn Channel="1" Note="96" Velocity="127"/>
  </Event>
  <Event>
    <Absolute>127310</Absolute>
    <NoteOff Channel="1" Note="96" Velocity="64"/>
  </Event>
  <Event>
    <Absolute>127311</Absolute>
    <NoteOn Channel="1" Note="97" Velocity="127"/>
  </Event>
  <Event>
    <Absolute>127311</Absolute>
    <NoteOn Channel="1" Note="100" Velocity="127"/>
  </Event>
  <Event>
    <Absolute>127799</Absolute>
    <NoteOff Channel="1" Note="97" Velocity="64"/>
  </Event>
  <Event>
    <Absolute>127799</Absolute>
    <NoteOff Channel="1" Note="100" Velocity="64"/>
  </Event>
  <Event>
    <Absolute>127799</Absolute>
    <NoteOn Channel="1" Note="97" Velocity="127"/>
  </Event>
  <Event>
    <Absolute>127799</Absolute>
    <NoteOn Channel="1" Note="99" Velocity="127"/>
  </Event>
  <Event>
    <Absolute>127860</Absolute>
    <NoteOff Channel="1" Note="97" Velocity="64"/>
  </Event>
  <Event>
    <Absolute>127860</Absolute>
    <NoteOff Channel="1" Note="99" Velocity="64"/>
  </Event>
  <Event>
    <Absolute>128043</Absolute>
    <NoteOn Channel="1" Note="98" Velocity="127"/>
  </Event>
  <Event>
    <Absolute>128104</Absolute>
    <NoteOff Channel="1" Note="98" Velocity="64"/>
  </Event>
  <Event>
    <Absolute>128165</Absolute>
    <NoteOn Channel="1" Note="99" Velocity="127"/>
  </Event>
  <Event>
    <Absolute>128165</Absolute>
    <NoteOn Channel="1" Note="100" Velocity="127"/>
  </Event>
  <Event>
    <Absolute>128226</Absolute>
    <NoteOff Channel="1" Note="99" Velocity="64"/>
  </Event>
  <Event>
    <Absolute>128226</Absolute>
    <NoteOff Channel="1" Note="100" Velocity="64"/>
  </Event>
  <Event>
    <Absolute>128287</Absolute>
    <NoteOn Channel="1" Note="98" Velocity="127"/>
  </Event>
  <Event>
    <Absolute>128287</Absolute>
    <NoteOn Channel="1" Note="99" Velocity="127"/>
  </Event>
  <Event>
    <Absolute>128775</Absolute>
    <NoteOff Channel="1" Note="98" Velocity="64"/>
  </Event>
  <Event>
    <Absolute>128775</Absolute>
    <NoteOff Channel="1" Note="99" Velocity="64"/>
  </Event>
  <Event>
    <Absolute>129264</Absolute>
    <NoteOn Channel="1" Note="100" Velocity="127"/>
  </Event>
  <Event>
    <Absolute>129325</Absolute>
    <NoteOff Channel="1" Note="100" Velocity="64"/>
  </Event>
  <Event>
    <Absolute>129509</Absolute>
    <NoteOn Channel="1" Note="100" Velocity="127"/>
  </Event>
  <Event>
    <Absolute>129570</Absolute>
    <NoteOff Channel="1" Note="100" Velocity="64"/>
  </Event>
  <Event>
    <Absolute>129753</Absolute>
    <NoteOn Channel="1" Note="99" Velocity="127"/>
  </Event>
  <Event>
    <Absolute>129814</Absolute>
    <NoteOff Channel="1" Note="99" Velocity="64"/>
  </Event>
  <Event>
    <Absolute>129997</Absolute>
    <NoteOn Channel="1" Note="98" Velocity="127"/>
  </Event>
  <Event>
    <Absolute>130058</Absolute>
    <NoteOff Channel="1" Note="98" Velocity="64"/>
  </Event>
  <Event>
    <Absolute>130119</Absolute>
    <NoteOn Channel="1" Note="98" Velocity="127"/>
  </Event>
  <Event>
    <Absolute>130180</Absolute>
    <NoteOff Channel="1" Note="98" Velocity="64"/>
  </Event>
  <Event>
    <Absolute>130363</Absolute>
    <NoteOn Channel="1" Note="97" Velocity="127"/>
  </Event>
  <Event>
    <Absolute>130424</Absolute>
    <NoteOff Channel="1" Note="97" Velocity="64"/>
  </Event>
  <Event>
    <Absolute>130485</Absolute>
    <NoteOn Channel="1" Note="97" Velocity="127"/>
  </Event>
  <Event>
    <Absolute>130546</Absolute>
    <NoteOff Channel="1" Note="97" Velocity="64"/>
  </Event>
  <Event>
    <Absolute>130730</Absolute>
    <NoteOn Channel="1" Note="96" Velocity="127"/>
  </Event>
  <Event>
    <Absolute>130791</Absolute>
    <NoteOff Channel="1" Note="96" Velocity="64"/>
  </Event>
  <Event>
    <Absolute>130791</Absolute>
    <NoteOn Channel="1" Note="97" Velocity="127"/>
  </Event>
  <Event>
    <Absolute>130852</Absolute>
    <NoteOff Channel="1" Note="97" Velocity="64"/>
  </Event>
  <Event>
    <Absolute>130974</Absolute>
    <NoteOn Channel="1" Note="96" Velocity="127"/>
  </Event>
  <Event>
    <Absolute>131035</Absolute>
    <NoteOff Channel="1" Note="96" Velocity="64"/>
  </Event>
  <Event>
    <Absolute>131218</Absolute>
    <NoteOn Channel="1" Note="100" Velocity="127"/>
  </Event>
  <Event>
    <Absolute>131279</Absolute>
    <NoteOff Channel="1" Note="100" Velocity="64"/>
  </Event>
  <Event>
    <Absolute>131465</Absolute>
    <NoteOn Channel="1" Note="100" Velocity="127"/>
  </Event>
  <Event>
    <Absolute>131526</Absolute>
    <NoteOff Channel="1" Note="100" Velocity="64"/>
  </Event>
  <Event>
    <Absolute>131713</Absolute>
    <NoteOn Channel="1" Note="99" Velocity="127"/>
  </Event>
  <Event>
    <Absolute>131773</Absolute>
    <NoteOff Channel="1" Note="99" Velocity="64"/>
  </Event>
  <Event>
    <Absolute>131954</Absolute>
    <NoteOn Channel="1" Note="98" Velocity="127"/>
  </Event>
  <Event>
    <Absolute>132014</Absolute>
    <NoteOff Channel="1" Note="98" Velocity="64"/>
  </Event>
  <Event>
    <Absolute>132074</Absolute>
    <NoteOn Channel="1" Note="98" Velocity="127"/>
  </Event>
  <Event>
    <Absolute>132134</Absolute>
    <NoteOff Channel="1" Note="98" Velocity="64"/>
  </Event>
  <Event>
    <Absolute>132315</Absolute>
    <NoteOn Channel="1" Note="97" Velocity="127"/>
  </Event>
  <Event>
    <Absolute>132375</Absolute>
    <NoteOff Channel="1" Note="97" Velocity="64"/>
  </Event>
  <Event>
    <Absolute>132436</Absolute>
    <NoteOn Channel="1" Note="97" Velocity="127"/>
  </Event>
  <Event>
    <Absolute>132496</Absolute>
    <NoteOff Channel="1" Note="97" Velocity="64"/>
  </Event>
  <Event>
    <Absolute>132677</Absolute>
    <NoteOn Channel="1" Note="96" Velocity="127"/>
  </Event>
  <Event>
    <Absolute>132737</Absolute>
    <NoteOff Channel="1" Note="96" Velocity="64"/>
  </Event>
  <Event>
    <Absolute>132738</Absolute>
    <NoteOn Channel="1" Note="97" Velocity="127"/>
  </Event>
  <Event>
    <Absolute>132798</Absolute>
    <NoteOff Channel="1" Note="97" Velocity="64"/>
  </Event>
  <Event>
    <Absolute>132920</Absolute>
    <NoteOn Channel="1" Note="96" Velocity="127"/>
  </Event>
  <Event>
    <Absolute>132980</Absolute>
    <NoteOff Channel="1" Note="96" Velocity="64"/>
  </Event>
  <Event>
    <Absolute>133162</Absolute>
    <NoteOn Channel="1" Note="100" Velocity="127"/>
  </Event>
  <Event>
    <Absolute>133222</Absolute>
    <NoteOff Channel="1" Note="100" Velocity="64"/>
  </Event>
  <Event>
    <Absolute>133405</Absolute>
    <NoteOn Channel="1" Note="100" Velocity="127"/>
  </Event>
  <Event>
    <Absolute>133465</Absolute>
    <NoteOff Channel="1" Note="100" Velocity="64"/>
  </Event>
  <Event>
    <Absolute>133647</Absolute>
    <NoteOn Channel="1" Note="99" Velocity="127"/>
  </Event>
  <Event>
    <Absolute>133707</Absolute>
    <NoteOff Channel="1" Note="99" Velocity="64"/>
  </Event>
  <Event>
    <Absolute>133888</Absolute>
    <NoteOn Channel="1" Note="98" Velocity="127"/>
  </Event>
  <Event>
    <Absolute>133948</Absolute>
    <NoteOff Channel="1" Note="98" Velocity="64"/>
  </Event>
  <Event>
    <Absolute>134008</Absolute>
    <NoteOn Channel="1" Note="98" Velocity="127"/>
  </Event>
  <Event>
    <Absolute>134068</Absolute>
    <NoteOff Channel="1" Note="98" Velocity="64"/>
  </Event>
  <Event>
    <Absolute>134248</Absolute>
    <NoteOn Channel="1" Note="97" Velocity="127"/>
  </Event>
  <Event>
    <Absolute>134308</Absolute>
    <NoteOff Channel="1" Note="97" Velocity="64"/>
  </Event>
  <Event>
    <Absolute>134368</Absolute>
    <NoteOn Channel="1" Note="97" Velocity="127"/>
  </Event>
  <Event>
    <Absolute>134428</Absolute>
    <NoteOff Channel="1" Note="97" Velocity="64"/>
  </Event>
  <Event>
    <Absolute>134608</Absolute>
    <NoteOn Channel="1" Note="96" Velocity="127"/>
  </Event>
  <Event>
    <Absolute>134667</Absolute>
    <NoteOff Channel="1" Note="96" Velocity="64"/>
  </Event>
  <Event>
    <Absolute>134668</Absolute>
    <NoteOn Channel="1" Note="97" Velocity="127"/>
  </Event>
  <Event>
    <Absolute>134727</Absolute>
    <NoteOff Channel="1" Note="97" Velocity="64"/>
  </Event>
  <Event>
    <Absolute>134848</Absolute>
    <NoteOn Channel="1" Note="96" Velocity="127"/>
  </Event>
  <Event>
    <Absolute>134907</Absolute>
    <NoteOff Channel="1" Note="96" Velocity="64"/>
  </Event>
  <Event>
    <Absolute>135087</Absolute>
    <NoteOn Channel="1" Note="100" Velocity="127"/>
  </Event>
  <Event>
    <Absolute>135451</Absolute>
    <NoteOff Channel="1" Note="100" Velocity="64"/>
  </Event>
  <Event>
    <Absolute>135451</Absolute>
    <NoteOn Channel="1" Note="99" Velocity="127"/>
  </Event>
  <Event>
    <Absolute>135815</Absolute>
    <NoteOff Channel="1" Note="99" Velocity="64"/>
  </Event>
  <Event>
    <Absolute>135815</Absolute>
    <NoteOn Channel="1" Note="98" Velocity="127"/>
  </Event>
  <Event>
    <Absolute>136300</Absolute>
    <NoteOff Channel="1" Note="98" Velocity="64"/>
  </Event>
  <Event>
    <Absolute>136301</Absolute>
    <NoteOn Channel="1" Note="97" Velocity="127"/>
  </Event>
  <Event>
    <Absolute>136361</Absolute>
    <NoteOff Channel="1" Note="97" Velocity="64"/>
  </Event>
  <Event>
    <Absolute>136544</Absolute>
    <NoteOn Channel="1" Note="96" Velocity="127"/>
  </Event>
  <Event>
    <Absolute>136606</Absolute>
    <NoteOff Channel="1" Note="96" Velocity="64"/>
  </Event>
  <Event>
    <Absolute>136606</Absolute>
    <NoteOn Channel="1" Note="97" Velocity="127"/>
  </Event>
  <Event>
    <Absolute>136668</Absolute>
    <NoteOff Channel="1" Note="97" Velocity="64"/>
  </Event>
  <Event>
    <Absolute>136793</Absolute>
    <NoteOn Channel="1" Note="96" Velocity="127"/>
  </Event>
  <Event>
    <Absolute>136855</Absolute>
    <NoteOff Channel="1" Note="96" Velocity="64"/>
  </Event>
  <Event>
    <Absolute>137042</Absolute>
    <NoteOn Channel="1" Note="96" Velocity="127"/>
  </Event>
  <Event>
    <Absolute>137042</Absolute>
    <NoteOn Channel="1" Note="98" Velocity="127"/>
  </Event>
  <Event>
    <Absolute>138565</Absolute>
    <NoteOff Channel="1" Note="96" Velocity="64"/>
  </Event>
  <Event>
    <Absolute>138565</Absolute>
    <NoteOff Channel="1" Note="98" Velocity="64"/>
  </Event>
  <Event>
    <Absolute>138565</Absolute>
    <NoteOn Channel="1" Note="96" Velocity="127"/>
  </Event>
  <Event>
    <Absolute>138625</Absolute>
    <NoteOff Channel="1" Note="96" Velocity="64"/>
  </Event>
  <Event>
    <Absolute>139052</Absolute>
    <NoteOn Channel="1" Note="97" Velocity="127"/>
  </Event>
  <Event>
    <Absolute>139052</Absolute>
    <NoteOn Channel="1" Note="99" Velocity="127"/>
  </Event>
  <Event>
    <Absolute>140543</Absolute>
    <NoteOff Channel="1" Note="97" Velocity="64"/>
  </Event>
  <Event>
    <Absolute>140543</Absolute>
    <NoteOff Channel="1" Note="99" Velocity="64"/>
  </Event>
  <Event>
    <Absolute>140544</Absolute>
    <NoteOn Channel="1" Note="96" Velocity="127"/>
  </Event>
  <Event>
    <Absolute>140544</Absolute>
    <NoteOn Channel="1" Note="99" Velocity="127"/>
  </Event>
  <Event>
    <Absolute>140606</Absolute>
    <NoteOff Channel="1" Note="96" Velocity="64"/>
  </Event>
  <Event>
    <Absolute>140606</Absolute>
    <NoteOff Channel="1" Note="99" Velocity="64"/>
  </Event>
  <Event>
    <Absolute>141042</Absolute>
    <NoteOn Channel="1" Note="96" Velocity="127"/>
  </Event>
  <Event>
    <Absolute>141042</Absolute>
    <NoteOn Channel="1" Note="98" Velocity="127"/>
  </Event>
  <Event>
    <Absolute>141788</Absolute>
    <NoteOff Channel="1" Note="96" Velocity="64"/>
  </Event>
  <Event>
    <Absolute>141788</Absolute>
    <NoteOff Channel="1" Note="98" Velocity="64"/>
  </Event>
  <Event>
    <Absolute>141789</Absolute>
    <NoteOn Channel="1" Note="99" Velocity="127"/>
  </Event>
  <Event>
    <Absolute>141850</Absolute>
    <NoteOff Channel="1" Note="99" Velocity="64"/>
  </Event>
  <Event>
    <Absolute>142037</Absolute>
    <NoteOn Channel="1" Note="98" Velocity="127"/>
  </Event>
  <Event>
    <Absolute>142098</Absolute>
    <NoteOff Channel="1" Note="98" Velocity="64"/>
  </Event>
  <Event>
    <Absolute>142285</Absolute>
    <NoteOn Channel="1" Note="97" Velocity="127"/>
  </Event>
  <Event>
    <Absolute>142346</Absolute>
    <NoteOff Channel="1" Note="97" Velocity="64"/>
  </Event>
  <Event>
    <Absolute>142533</Absolute>
    <NoteOn Channel="1" Note="96" Velocity="127"/>
  </Event>
  <Event>
    <Absolute>142533</Absolute>
    <NoteOn Channel="1" Note="97" Velocity="127"/>
  </Event>
  <Event>
    <Absolute>142594</Absolute>
    <NoteOff Channel="1" Note="96" Velocity="64"/>
  </Event>
  <Event>
    <Absolute>142594</Absolute>
    <NoteOff Channel="1" Note="97" Velocity="64"/>
  </Event>
  <Event>
    <Absolute>143026</Absolute>
    <NoteOn Channel="1" Note="97" Velocity="127"/>
  </Event>
  <Event>
    <Absolute>143026</Absolute>
    <NoteOn Channel="1" Note="99" Velocity="127"/>
  </Event>
  <Event>
    <Absolute>143763</Absolute>
    <NoteOff Channel="1" Note="97" Velocity="64"/>
  </Event>
  <Event>
    <Absolute>143763</Absolute>
    <NoteOff Channel="1" Note="99" Velocity="64"/>
  </Event>
  <Event>
    <Absolute>143764</Absolute>
    <NoteOn Channel="1" Note="100" Velocity="127"/>
  </Event>
  <Event>
    <Absolute>143825</Absolute>
    <NoteOff Channel="1" Note="100" Velocity="64"/>
  </Event>
  <Event>
    <Absolute>144009</Absolute>
    <NoteOn Channel="1" Note="99" Velocity="127"/>
  </Event>
  <Event>
    <Absolute>144070</Absolute>
    <NoteOff Channel="1" Note="99" Velocity="64"/>
  </Event>
  <Event>
    <Absolute>144253</Absolute>
    <NoteOn Channel="1" Note="98" Velocity="127"/>
  </Event>
  <Event>
    <Absolute>144314</Absolute>
    <NoteOff Channel="1" Note="98" Velocity="64"/>
  </Event>
  <Event>
    <Absolute>144498</Absolute>
    <NoteOn Channel="1" Note="97" Velocity="127"/>
  </Event>
  <Event>
    <Absolute>144498</Absolute>
    <NoteOn Channel="1" Note="98" Velocity="127"/>
  </Event>
  <Event>
    <Absolute>144558</Absolute>
    <NoteOff Channel="1" Note="97" Velocity="64"/>
  </Event>
  <Event>
    <Absolute>144558</Absolute>
    <NoteOff Channel="1" Note="98" Velocity="64"/>
  </Event>
  <Event>
    <Absolute>144739</Absolute>
    <NoteOn Channel="1" Note="99" Velocity="127"/>
  </Event>
  <Event>
    <Absolute>144799</Absolute>
    <NoteOff Channel="1" Note="99" Velocity="64"/>
  </Event>
  <Event>
    <Absolute>144980</Absolute>
    <NoteOn Channel="1" Note="98" Velocity="127"/>
  </Event>
  <Event>
    <Absolute>145044</Absolute>
    <NoteOff Channel="1" Note="98" Velocity="64"/>
  </Event>
  <Event>
    <Absolute>145239</Absolute>
    <NoteOn Channel="1" Note="97" Velocity="127"/>
  </Event>
  <Event>
    <Absolute>145303</Absolute>
    <NoteOff Channel="1" Note="97" Velocity="64"/>
  </Event>
  <Event>
    <Absolute>145498</Absolute>
    <NoteOn Channel="1" Note="96" Velocity="127"/>
  </Event>
  <Event>
    <Absolute>145498</Absolute>
    <NoteOn Channel="1" Note="98" Velocity="127"/>
  </Event>
  <Event>
    <Absolute>146248</Absolute>
    <NoteOff Channel="1" Note="96" Velocity="64"/>
  </Event>
  <Event>
    <Absolute>146248</Absolute>
    <NoteOff Channel="1" Note="98" Velocity="64"/>
  </Event>
  <Event>
    <Absolute>146499</Absolute>
    <NoteOn Channel="1" Note="96" Velocity="127"/>
  </Event>
  <Event>
    <Absolute>146499</Absolute>
    <NoteOn Channel="1" Note="97" Velocity="127"/>
  </Event>
  <Event>
    <Absolute>146559</Absolute>
    <NoteOff Channel="1" Note="96" Velocity="64"/>
  </Event>
  <Event>
    <Absolute>146559</Absolute>
    <NoteOff Channel="1" Note="97" Velocity="64"/>
  </Event>
  <Event>
    <Absolute>146981</Absolute>
    <NoteOn Channel="1" Note="97" Velocity="127"/>
  </Event>
  <Event>
    <Absolute>146981</Absolute>
    <NoteOn Channel="1" Note="99" Velocity="127"/>
  </Event>
  <Event>
    <Absolute>147701</Absolute>
    <NoteOff Channel="1" Note="97" Velocity="64"/>
  </Event>
  <Event>
    <Absolute>147701</Absolute>
    <NoteOff Channel="1" Note="99" Velocity="64"/>
  </Event>
  <Event>
    <Absolute>147702</Absolute>
    <NoteOn Channel="1" Note="100" Velocity="127"/>
  </Event>
  <Event>
    <Absolute>147761</Absolute>
    <NoteOff Channel="1" Note="100" Velocity="64"/>
  </Event>
  <Event>
    <Absolute>147940</Absolute>
    <NoteOn Channel="1" Note="99" Velocity="127"/>
  </Event>
  <Event>
    <Absolute>147999</Absolute>
    <NoteOff Channel="1" Note="99" Velocity="64"/>
  </Event>
  <Event>
    <Absolute>148178</Absolute>
    <NoteOn Channel="1" Note="98" Velocity="127"/>
  </Event>
  <Event>
    <Absolute>148237</Absolute>
    <NoteOff Channel="1" Note="98" Velocity="64"/>
  </Event>
  <Event>
    <Absolute>148417</Absolute>
    <NoteOn Channel="1" Note="96" Velocity="127"/>
  </Event>
  <Event>
    <Absolute>148417</Absolute>
    <NoteOn Channel="1" Note="99" Velocity="127"/>
  </Event>
  <Event>
    <Absolute>148477</Absolute>
    <NoteOff Channel="1" Note="96" Velocity="64"/>
  </Event>
  <Event>
    <Absolute>148477</Absolute>
    <NoteOff Channel="1" Note="99" Velocity="64"/>
  </Event>
  <Event>
    <Absolute>148903</Absolute>
    <NoteOn Channel="1" Note="96" Velocity="127"/>
  </Event>
  <Event>
    <Absolute>148903</Absolute>
    <NoteOn Channel="1" Note="98" Velocity="127"/>
  </Event>
  <Event>
    <Absolute>150116</Absolute>
    <NoteOff Channel="1" Note="96" Velocity="64"/>
  </Event>
  <Event>
    <Absolute>150116</Absolute>
    <NoteOff Channel="1" Note="98" Velocity="64"/>
  </Event>
  <Event>
    <Absolute>150359</Absolute>
    <NoteOn Channel="1" Note="96" Velocity="127"/>
  </Event>
  <Event>
    <Absolute>150359</Absolute>
    <NoteOn Channel="1" Note="97" Velocity="127"/>
  </Event>
  <Event>
    <Absolute>150419</Absolute>
    <NoteOff Channel="1" Note="96" Velocity="64"/>
  </Event>
  <Event>
    <Absolute>150419</Absolute>
    <NoteOff Channel="1" Note="97" Velocity="64"/>
  </Event>
  <Event>
    <Absolute>150839</Absolute>
    <NoteOn Channel="1" Note="97" Velocity="127"/>
  </Event>
  <Event>
    <Absolute>150839</Absolute>
    <NoteOn Channel="1" Note="99" Velocity="127"/>
  </Event>
  <Event>
    <Absolute>150897</Absolute>
    <NoteOff Channel="1" Note="97" Velocity="64"/>
  </Event>
  <Event>
    <Absolute>150897</Absolute>
    <NoteOff Channel="1" Note="99" Velocity="64"/>
  </Event>
  <Event>
    <Absolute>151075</Absolute>
    <NoteOn Channel="1" Note="97" Velocity="127"/>
  </Event>
  <Event>
    <Absolute>151075</Absolute>
    <NoteOn Channel="1" Note="99" Velocity="127"/>
  </Event>
  <Event>
    <Absolute>151133</Absolute>
    <NoteOff Channel="1" Note="97" Velocity="64"/>
  </Event>
  <Event>
    <Absolute>151133</Absolute>
    <NoteOff Channel="1" Note="99" Velocity="64"/>
  </Event>
  <Event>
    <Absolute>151310</Absolute>
    <NoteOn Channel="1" Note="97" Velocity="127"/>
  </Event>
  <Event>
    <Absolute>151310</Absolute>
    <NoteOn Channel="1" Note="99" Velocity="127"/>
  </Event>
  <Event>
    <Absolute>151368</Absolute>
    <NoteOff Channel="1" Note="97" Velocity="64"/>
  </Event>
  <Event>
    <Absolute>151368</Absolute>
    <NoteOff Channel="1" Note="99" Velocity="64"/>
  </Event>
  <Event>
    <Absolute>151545</Absolute>
    <NoteOn Channel="1" Note="97" Velocity="127"/>
  </Event>
  <Event>
    <Absolute>151545</Absolute>
    <NoteOn Channel="1" Note="99" Velocity="127"/>
  </Event>
  <Event>
    <Absolute>151603</Absolute>
    <NoteOff Channel="1" Note="97" Velocity="64"/>
  </Event>
  <Event>
    <Absolute>151603</Absolute>
    <NoteOff Channel="1" Note="99" Velocity="64"/>
  </Event>
  <Event>
    <Absolute>151780</Absolute>
    <NoteOn Channel="1" Note="97" Velocity="127"/>
  </Event>
  <Event>
    <Absolute>151780</Absolute>
    <NoteOn Channel="1" Note="99" Velocity="127"/>
  </Event>
  <Event>
    <Absolute>151838</Absolute>
    <NoteOff Channel="1" Note="97" Velocity="64"/>
  </Event>
  <Event>
    <Absolute>151838</Absolute>
    <NoteOff Channel="1" Note="99" Velocity="64"/>
  </Event>
  <Event>
    <Absolute>152249</Absolute>
    <NoteOn Channel="1" Note="96" Velocity="127"/>
  </Event>
  <Event>
    <Absolute>152249</Absolute>
    <NoteOn Channel="1" Note="98" Velocity="127"/>
  </Event>
  <Event>
    <Absolute>152312</Absolute>
    <NoteOff Channel="1" Note="96" Velocity="64"/>
  </Event>
  <Event>
    <Absolute>152312</Absolute>
    <NoteOff Channel="1" Note="98" Velocity="64"/>
  </Event>
  <Event>
    <Absolute>152753</Absolute>
    <NoteOn Channel="1" Note="97" Velocity="127"/>
  </Event>
  <Event>
    <Absolute>152753</Absolute>
    <NoteOn Channel="1" Note="99" Velocity="127"/>
  </Event>
  <Event>
    <Absolute>152811</Absolute>
    <NoteOff Channel="1" Note="97" Velocity="64"/>
  </Event>
  <Event>
    <Absolute>152811</Absolute>
    <NoteOff Channel="1" Note="99" Velocity="64"/>
  </Event>
  <Event>
    <Absolute>152987</Absolute>
    <NoteOn Channel="1" Note="97" Velocity="127"/>
  </Event>
  <Event>
    <Absolute>152987</Absolute>
    <NoteOn Channel="1" Note="99" Velocity="127"/>
  </Event>
  <Event>
    <Absolute>153045</Absolute>
    <NoteOff Channel="1" Note="97" Velocity="64"/>
  </Event>
  <Event>
    <Absolute>153045</Absolute>
    <NoteOff Channel="1" Note="99" Velocity="64"/>
  </Event>
  <Event>
    <Absolute>153221</Absolute>
    <NoteOn Channel="1" Note="97" Velocity="127"/>
  </Event>
  <Event>
    <Absolute>153221</Absolute>
    <NoteOn Channel="1" Note="99" Velocity="127"/>
  </Event>
  <Event>
    <Absolute>153280</Absolute>
    <NoteOff Channel="1" Note="97" Velocity="64"/>
  </Event>
  <Event>
    <Absolute>153280</Absolute>
    <NoteOff Channel="1" Note="99" Velocity="64"/>
  </Event>
  <Event>
    <Absolute>153457</Absolute>
    <NoteOn Channel="1" Note="97" Velocity="127"/>
  </Event>
  <Event>
    <Absolute>153457</Absolute>
    <NoteOn Channel="1" Note="99" Velocity="127"/>
  </Event>
  <Event>
    <Absolute>153516</Absolute>
    <NoteOff Channel="1" Note="97" Velocity="64"/>
  </Event>
  <Event>
    <Absolute>153516</Absolute>
    <NoteOff Channel="1" Note="99" Velocity="64"/>
  </Event>
  <Event>
    <Absolute>153576</Absolute>
    <NoteOn Channel="1" Note="97" Velocity="127"/>
  </Event>
  <Event>
    <Absolute>153576</Absolute>
    <NoteOn Channel="1" Note="99" Velocity="127"/>
  </Event>
  <Event>
    <Absolute>153635</Absolute>
    <NoteOff Channel="1" Note="97" Velocity="64"/>
  </Event>
  <Event>
    <Absolute>153635</Absolute>
    <NoteOff Channel="1" Note="99" Velocity="64"/>
  </Event>
  <Event>
    <Absolute>153694</Absolute>
    <NoteOn Channel="1" Note="97" Velocity="127"/>
  </Event>
  <Event>
    <Absolute>153694</Absolute>
    <NoteOn Channel="1" Note="99" Velocity="127"/>
  </Event>
  <Event>
    <Absolute>153753</Absolute>
    <NoteOff Channel="1" Note="97" Velocity="64"/>
  </Event>
  <Event>
    <Absolute>153753</Absolute>
    <NoteOff Channel="1" Note="99" Velocity="64"/>
  </Event>
  <Event>
    <Absolute>154168</Absolute>
    <NoteOn Channel="1" Note="96" Velocity="127"/>
  </Event>
  <Event>
    <Absolute>154168</Absolute>
    <NoteOn Channel="1" Note="98" Velocity="127"/>
  </Event>
  <Event>
    <Absolute>154227</Absolute>
    <NoteOff Channel="1" Note="96" Velocity="64"/>
  </Event>
  <Event>
    <Absolute>154227</Absolute>
    <NoteOff Channel="1" Note="98" Velocity="64"/>
  </Event>
  <Event>
    <Absolute>154645</Absolute>
    <NoteOn Channel="1" Note="97" Velocity="127"/>
  </Event>
  <Event>
    <Absolute>154645</Absolute>
    <NoteOn Channel="1" Note="99" Velocity="127"/>
  </Event>
  <Event>
    <Absolute>154704</Absolute>
    <NoteOff Channel="1" Note="97" Velocity="64"/>
  </Event>
  <Event>
    <Absolute>154704</Absolute>
    <NoteOff Channel="1" Note="99" Velocity="64"/>
  </Event>
  <Event>
    <Absolute>154884</Absolute>
    <NoteOn Channel="1" Note="97" Velocity="127"/>
  </Event>
  <Event>
    <Absolute>154884</Absolute>
    <NoteOn Channel="1" Note="99" Velocity="127"/>
  </Event>
  <Event>
    <Absolute>154943</Absolute>
    <NoteOff Channel="1" Note="97" Velocity="64"/>
  </Event>
  <Event>
    <Absolute>154943</Absolute>
    <NoteOff Channel="1" Note="99" Velocity="64"/>
  </Event>
  <Event>
    <Absolute>155123</Absolute>
    <NoteOn Channel="1" Note="97" Velocity="127"/>
  </Event>
  <Event>
    <Absolute>155123</Absolute>
    <NoteOn Channel="1" Note="99" Velocity="127"/>
  </Event>
  <Event>
    <Absolute>155183</Absolute>
    <NoteOff Channel="1" Note="97" Velocity="64"/>
  </Event>
  <Event>
    <Absolute>155183</Absolute>
    <NoteOff Channel="1" Note="99" Velocity="64"/>
  </Event>
  <Event>
    <Absolute>155366</Absolute>
    <NoteOn Channel="1" Note="97" Velocity="127"/>
  </Event>
  <Event>
    <Absolute>155366</Absolute>
    <NoteOn Channel="1" Note="99" Velocity="127"/>
  </Event>
  <Event>
    <Absolute>155426</Absolute>
    <NoteOff Channel="1" Note="97" Velocity="64"/>
  </Event>
  <Event>
    <Absolute>155426</Absolute>
    <NoteOff Channel="1" Note="99" Velocity="64"/>
  </Event>
  <Event>
    <Absolute>155609</Absolute>
    <NoteOn Channel="1" Note="97" Velocity="127"/>
  </Event>
  <Event>
    <Absolute>155609</Absolute>
    <NoteOn Channel="1" Note="99" Velocity="127"/>
  </Event>
  <Event>
    <Absolute>155669</Absolute>
    <NoteOff Channel="1" Note="97" Velocity="64"/>
  </Event>
  <Event>
    <Absolute>155669</Absolute>
    <NoteOff Channel="1" Note="99" Velocity="64"/>
  </Event>
  <Event>
    <Absolute>156095</Absolute>
    <NoteOn Channel="1" Note="96" Velocity="127"/>
  </Event>
  <Event>
    <Absolute>156095</Absolute>
    <NoteOn Channel="1" Note="98" Velocity="127"/>
  </Event>
  <Event>
    <Absolute>156155</Absolute>
    <NoteOff Channel="1" Note="96" Velocity="64"/>
  </Event>
  <Event>
    <Absolute>156155</Absolute>
    <NoteOff Channel="1" Note="98" Velocity="64"/>
  </Event>
  <Event>
    <Absolute>156576</Absolute>
    <NoteOn Channel="1" Note="98" Velocity="127"/>
  </Event>
  <Event>
    <Absolute>156576</Absolute>
    <NoteOn Channel="1" Note="100" Velocity="127"/>
  </Event>
  <Event>
    <Absolute>156635</Absolute>
    <NoteOff Channel="1" Note="98" Velocity="64"/>
  </Event>
  <Event>
    <Absolute>156635</Absolute>
    <NoteOff Channel="1" Note="100" Velocity="64"/>
  </Event>
  <Event>
    <Absolute>156814</Absolute>
    <NoteOn Channel="1" Note="98" Velocity="127"/>
  </Event>
  <Event>
    <Absolute>156814</Absolute>
    <NoteOn Channel="1" Note="100" Velocity="127"/>
  </Event>
  <Event>
    <Absolute>156873</Absolute>
    <NoteOff Channel="1" Note="98" Velocity="64"/>
  </Event>
  <Event>
    <Absolute>156873</Absolute>
    <NoteOff Channel="1" Note="100" Velocity="64"/>
  </Event>
  <Event>
    <Absolute>157051</Absolute>
    <NoteOn Channel="1" Note="98" Velocity="127"/>
  </Event>
  <Event>
    <Absolute>157051</Absolute>
    <NoteOn Channel="1" Note="100" Velocity="127"/>
  </Event>
  <Event>
    <Absolute>157110</Absolute>
    <NoteOff Channel="1" Note="98" Velocity="64"/>
  </Event>
  <Event>
    <Absolute>157110</Absolute>
    <NoteOff Channel="1" Note="100" Velocity="64"/>
  </Event>
  <Event>
    <Absolute>157288</Absolute>
    <NoteOn Channel="1" Note="98" Velocity="127"/>
  </Event>
  <Event>
    <Absolute>157288</Absolute>
    <NoteOn Channel="1" Note="100" Velocity="127"/>
  </Event>
  <Event>
    <Absolute>157347</Absolute>
    <NoteOff Channel="1" Note="98" Velocity="64"/>
  </Event>
  <Event>
    <Absolute>157347</Absolute>
    <NoteOff Channel="1" Note="100" Velocity="64"/>
  </Event>
  <Event>
    <Absolute>157525</Absolute>
    <NoteOn Channel="1" Note="98" Velocity="127"/>
  </Event>
  <Event>
    <Absolute>157525</Absolute>
    <NoteOn Channel="1" Note="100" Velocity="127"/>
  </Event>
  <Event>
    <Absolute>158375</Absolute>
    <NoteOff Channel="1" Note="98" Velocity="64"/>
  </Event>
  <Event>
    <Absolute>158375</Absolute>
    <NoteOff Channel="1" Note="100" Velocity="64"/>
  </Event>
  <Event>
    <Absolute>158501</Absolute>
    <NoteOn Channel="1" Note="99" Velocity="127"/>
  </Event>
  <Event>
    <Absolute>158564</Absolute>
    <NoteOff Channel="1" Note="99" Velocity="64"/>
  </Event>
  <Event>
    <Absolute>158564</Absolute>
    <NoteOn Channel="1" Note="100" Velocity="127"/>
  </Event>
  <Event>
    <Absolute>159006</Absolute>
    <NoteOff Channel="1" Note="100" Velocity="64"/>
  </Event>
  <Event>
    <Absolute>159006</Absolute>
    <NoteOn Channel="1" Note="99" Velocity="127"/>
  </Event>
  <Event>
    <Absolute>159067</Absolute>
    <NoteOff Channel="1" Note="99" Velocity="64"/>
  </Event>
  <Event>
    <Absolute>159068</Absolute>
    <NoteOn Channel="1" Note="100" Velocity="127"/>
  </Event>
  <Event>
    <Absolute>159744</Absolute>
    <NoteOff Channel="1" Note="100" Velocity="64"/>
  </Event>
  <Event>
    <Absolute>159745</Absolute>
    <NoteOn Channel="1" Note="100" Velocity="127"/>
  </Event>
  <Event>
    <Absolute>159806</Absolute>
    <NoteOff Channel="1" Note="100" Velocity="64"/>
  </Event>
  <Event>
    <Absolute>159991</Absolute>
    <NoteOn Channel="1" Note="100" Velocity="127"/>
  </Event>
  <Event>
    <Absolute>160052</Absolute>
    <NoteOff Channel="1" Note="100" Velocity="64"/>
  </Event>
  <Event>
    <Absolute>160237</Absolute>
    <NoteOn Channel="1" Note="99" Velocity="127"/>
  </Event>
  <Event>
    <Absolute>160298</Absolute>
    <NoteOff Channel="1" Note="99" Velocity="64"/>
  </Event>
  <Event>
    <Absolute>160360</Absolute>
    <NoteOn Channel="1" Note="100" Velocity="127"/>
  </Event>
  <Event>
    <Absolute>160729</Absolute>
    <NoteOff Channel="1" Note="100" Velocity="64"/>
  </Event>
  <Event>
    <Absolute>160729</Absolute>
    <NoteOn Channel="1" Note="99" Velocity="127"/>
  </Event>
  <Event>
    <Absolute>160790</Absolute>
    <NoteOff Channel="1" Note="99" Velocity="64"/>
  </Event>
  <Event>
    <Absolute>160852</Absolute>
    <NoteOn Channel="1" Note="100" Velocity="127"/>
  </Event>
  <Event>
    <Absolute>160913</Absolute>
    <NoteOff Channel="1" Note="100" Velocity="64"/>
  </Event>
  <Event>
    <Absolute>160975</Absolute>
    <NoteOn Channel="1" Note="100" Velocity="127"/>
  </Event>
  <Event>
    <Absolute>161036</Absolute>
    <NoteOff Channel="1" Note="100" Velocity="64"/>
  </Event>
  <Event>
    <Absolute>161221</Absolute>
    <NoteOn Channel="1" Note="99" Velocity="127"/>
  </Event>
  <Event>
    <Absolute>161282</Absolute>
    <NoteOff Channel="1" Note="99" Velocity="64"/>
  </Event>
  <Event>
    <Absolute>161344</Absolute>
    <NoteOn Channel="1" Note="100" Velocity="127"/>
  </Event>
  <Event>
    <Absolute>162205</Absolute>
    <NoteOff Channel="1" Note="100" Velocity="64"/>
  </Event>
  <Event>
    <Absolute>162205</Absolute>
    <NoteOn Channel="1" Note="96" Velocity="127"/>
  </Event>
  <Event>
    <Absolute>162266</Absolute>
    <NoteOff Channel="1" Note="96" Velocity="64"/>
  </Event>
  <Event>
    <Absolute>162451</Absolute>
    <NoteOn Channel="1" Note="97" Velocity="127"/>
  </Event>
  <Event>
    <Absolute>162451</Absolute>
    <NoteOn Channel="1" Note="98" Velocity="127"/>
  </Event>
  <Event>
    <Absolute>162512</Absolute>
    <NoteOff Channel="1" Note="97" Velocity="64"/>
  </Event>
  <Event>
    <Absolute>162512</Absolute>
    <NoteOff Channel="1" Note="98" Velocity="64"/>
  </Event>
  <Event>
    <Absolute>162697</Absolute>
    <NoteOn Channel="1" Note="98" Velocity="127"/>
  </Event>
  <Event>
    <Absolute>162697</Absolute>
    <NoteOn Channel="1" Note="99" Velocity="127"/>
  </Event>
  <Event>
    <Absolute>162758</Absolute>
    <NoteOff Channel="1" Note="98" Velocity="64"/>
  </Event>
  <Event>
    <Absolute>162758</Absolute>
    <NoteOff Channel="1" Note="99" Velocity="64"/>
  </Event>
  <Event>
    <Absolute>162943</Absolute>
    <NoteOn Channel="1" Note="100" Velocity="127"/>
  </Event>
  <Event>
    <Absolute>163003</Absolute>
    <NoteOff Channel="1" Note="100" Velocity="64"/>
  </Event>
  <Event>
    <Absolute>163187</Absolute>
    <NoteOn Channel="1" Note="98" Velocity="127"/>
  </Event>
  <Event>
    <Absolute>163247</Absolute>
    <NoteOff Channel="1" Note="98" Velocity="64"/>
  </Event>
  <Event>
    <Absolute>163431</Absolute>
    <NoteOn Channel="1" Note="99" Velocity="127"/>
  </Event>
  <Event>
    <Absolute>163491</Absolute>
    <NoteOff Channel="1" Note="99" Velocity="64"/>
  </Event>
  <Event>
    <Absolute>163675</Absolute>
    <NoteOn Channel="1" Note="98" Velocity="127"/>
  </Event>
  <Event>
    <Absolute>163918</Absolute>
    <NoteOff Channel="1" Note="98" Velocity="64"/>
  </Event>
  <Event>
    <Absolute>163918</Absolute>
    <NoteOn Channel="1" Note="97" Velocity="127"/>
  </Event>
  <Event>
    <Absolute>164161</Absolute>
    <NoteOff Channel="1" Note="97" Velocity="64"/>
  </Event>
  <Event>
    <Absolute>164162</Absolute>
    <NoteOn Channel="1" Note="96" Velocity="127"/>
  </Event>
  <Event>
    <Absolute>164222</Absolute>
    <NoteOff Channel="1" Note="96" Velocity="64"/>
  </Event>
  <Event>
    <Absolute>164406</Absolute>
    <NoteOn Channel="1" Note="99" Velocity="127"/>
  </Event>
  <Event>
    <Absolute>165137</Absolute>
    <NoteOff Channel="1" Note="99" Velocity="64"/>
  </Event>
  <Event>
    <Absolute>165137</Absolute>
    <NoteOn Channel="1" Note="98" Velocity="127"/>
  </Event>
  <Event>
    <Absolute>165705</Absolute>
    <NoteOff Channel="1" Note="98" Velocity="64"/>
  </Event>
  <Event>
    <Absolute>165706</Absolute>
    <NoteOn Channel="1" Note="97" Velocity="127"/>
  </Event>
  <Event>
    <Absolute>165766</Absolute>
    <NoteOff Channel="1" Note="97" Velocity="64"/>
  </Event>
  <Event>
    <Absolute>165868</Absolute>
    <NoteOn Channel="1" Note="100" Velocity="127"/>
  </Event>
  <Event>
    <Absolute>166355</Absolute>
    <NoteOff Channel="1" Note="100" Velocity="64"/>
  </Event>
  <Event>
    <Absolute>166356</Absolute>
    <NoteOn Channel="1" Note="96" Velocity="127"/>
  </Event>
  <Event>
    <Absolute>166418</Absolute>
    <NoteOff Channel="1" Note="96" Velocity="64"/>
  </Event>
  <Event>
    <Absolute>166481</Absolute>
    <NoteOn Channel="1" Note="97" Velocity="127"/>
  </Event>
  <Event>
    <Absolute>167354</Absolute>
    <NoteOff Channel="1" Note="97" Velocity="64"/>
  </Event>
  <Event>
    <Absolute>167354</Absolute>
    <NoteOn Channel="1" Note="98" Velocity="127"/>
  </Event>
  <Event>
    <Absolute>167416</Absolute>
    <NoteOff Channel="1" Note="98" Velocity="64"/>
  </Event>
  <Event>
    <Absolute>167604</Absolute>
    <NoteOn Channel="1" Note="97" Velocity="127"/>
  </Event>
  <Event>
    <Absolute>167666</Absolute>
    <NoteOff Channel="1" Note="97" Velocity="64"/>
  </Event>
  <Event>
    <Absolute>167853</Absolute>
    <NoteOn Channel="1" Note="98" Velocity="127"/>
  </Event>
  <Event>
    <Absolute>167915</Absolute>
    <NoteOff Channel="1" Note="98" Velocity="64"/>
  </Event>
  <Event>
    <Absolute>167978</Absolute>
    <NoteOn Channel="1" Note="99" Velocity="127"/>
  </Event>
  <Event>
    <Absolute>168040</Absolute>
    <NoteOff Channel="1" Note="99" Velocity="64"/>
  </Event>
  <Event>
    <Absolute>168103</Absolute>
    <NoteOn Channel="1" Note="98" Velocity="127"/>
  </Event>
  <Event>
    <Absolute>169094</Absolute>
    <NoteOff Channel="1" Note="98" Velocity="64"/>
  </Event>
  <Event>
    <Absolute>169094</Absolute>
    <NoteOn Channel="1" Note="96" Velocity="127"/>
  </Event>
  <Event>
    <Absolute>169154</Absolute>
    <NoteOff Channel="1" Note="96" Velocity="64"/>
  </Event>
  <Event>
    <Absolute>169215</Absolute>
    <NoteOn Channel="1" Note="96" Velocity="127"/>
  </Event>
  <Event>
    <Absolute>169275</Absolute>
    <NoteOff Channel="1" Note="96" Velocity="64"/>
  </Event>
  <Event>
    <Absolute>169337</Absolute>
    <NoteOn Channel="1" Note="97" Velocity="127"/>
  </Event>
  <Event>
    <Absolute>169397</Absolute>
    <NoteOff Channel="1" Note="97" Velocity="64"/>
  </Event>
  <Event>
    <Absolute>169579</Absolute>
    <NoteOn Channel="1" Note="98" Velocity="127"/>
  </Event>
  <Event>
    <Absolute>170070</Absolute>
    <NoteOff Channel="1" Note="98" Velocity="64"/>
  </Event>
  <Event>
    <Absolute>170070</Absolute>
    <NoteOn Channel="1" Note="98" Velocity="127"/>
  </Event>
  <Event>
    <Absolute>170132</Absolute>
    <NoteOff Channel="1" Note="98" Velocity="64"/>
  </Event>
  <Event>
    <Absolute>170133</Absolute>
    <NoteOn Channel="1" Note="99" Velocity="127"/>
  </Event>
  <Event>
    <Absolute>171062</Absolute>
    <NoteOff Channel="1" Note="99" Velocity="64"/>
  </Event>
  <Event>
    <Absolute>171308</Absolute>
    <NoteOn Channel="1" Note="98" Velocity="127"/>
  </Event>
  <Event>
    <Absolute>171369</Absolute>
    <NoteOff Channel="1" Note="98" Velocity="64"/>
  </Event>
  <Event>
    <Absolute>171555</Absolute>
    <NoteOn Channel="1" Note="97" Velocity="127"/>
  </Event>
  <Event>
    <Absolute>171616</Absolute>
    <NoteOff Channel="1" Note="97" Velocity="64"/>
  </Event>
  <Event>
    <Absolute>171801</Absolute>
    <NoteOn Channel="1" Note="98" Velocity="127"/>
  </Event>
  <Event>
    <Absolute>171862</Absolute>
    <NoteOff Channel="1" Note="98" Velocity="64"/>
  </Event>
  <Event>
    <Absolute>171924</Absolute>
    <NoteOn Channel="1" Note="99" Velocity="127"/>
  </Event>
  <Event>
    <Absolute>171985</Absolute>
    <NoteOff Channel="1" Note="99" Velocity="64"/>
  </Event>
  <Event>
    <Absolute>172047</Absolute>
    <NoteOn Channel="1" Note="98" Velocity="127"/>
  </Event>
  <Event>
    <Absolute>173285</Absolute>
    <NoteOff Channel="1" Note="98" Velocity="64"/>
  </Event>
  <Event>
    <Absolute>173286</Absolute>
    <NoteOn Channel="1" Note="99" Velocity="127"/>
  </Event>
  <Event>
    <Absolute>173348</Absolute>
    <NoteOff Channel="1" Note="99" Velocity="64"/>
  </Event>
  <Event>
    <Absolute>173410</Absolute>
    <NoteOn Channel="1" Note="98" Velocity="127"/>
  </Event>
  <Event>
    <Absolute>173472</Absolute>
    <NoteOff Channel="1" Note="98" Velocity="64"/>
  </Event>
  <Event>
    <Absolute>173535</Absolute>
    <NoteOn Channel="1" Note="97" Velocity="127"/>
  </Event>
  <Event>
    <Absolute>174027</Absolute>
    <NoteOff Channel="1" Note="97" Velocity="64"/>
  </Event>
  <Event>
    <Absolute>174028</Absolute>
    <NoteOn Channel="1" Note="99" Velocity="127"/>
  </Event>
  <Event>
    <Absolute>174028</Absolute>
    <NoteOn Channel="1" Note="100" Velocity="127"/>
  </Event>
  <Event>
    <Absolute>175134</Absolute>
    <NoteOff Channel="1" Note="99" Velocity="64"/>
  </Event>
  <Event>
    <Absolute>175134</Absolute>
    <NoteOff Channel="1" Note="100" Velocity="64"/>
  </Event>
  <Event>
    <Absolute>175256</Absolute>
    <NoteOn Channel="1" Note="99" Velocity="127"/>
  </Event>
  <Event>
    <Absolute>175256</Absolute>
    <NoteOn Channel="1" Note="100" Velocity="127"/>
  </Event>
  <Event>
    <Absolute>175317</Absolute>
    <NoteOff Channel="1" Note="99" Velocity="64"/>
  </Event>
  <Event>
    <Absolute>175317</Absolute>
    <NoteOff Channel="1" Note="100" Velocity="64"/>
  </Event>
  <Event>
    <Absolute>175501</Absolute>
    <NoteOn Channel="1" Note="100" Velocity="127"/>
  </Event>
  <Event>
    <Absolute>175562</Absolute>
    <NoteOff Channel="1" Note="100" Velocity="64"/>
  </Event>
  <Event>
    <Absolute>175623</Absolute>
    <NoteOn Channel="1" Note="99" Velocity="127"/>
  </Event>
  <Event>
    <Absolute>175684</Absolute>
    <NoteOff Channel="1" Note="99" Velocity="64"/>
  </Event>
  <Event>
    <Absolute>175745</Absolute>
    <NoteOn Channel="1" Note="98" Velocity="127"/>
  </Event>
  <Event>
    <Absolute>175806</Absolute>
    <NoteOff Channel="1" Note="98" Velocity="64"/>
  </Event>
  <Event>
    <Absolute>175989</Absolute>
    <NoteOn Channel="1" Note="97" Velocity="127"/>
  </Event>
  <Event>
    <Absolute>177089</Absolute>
    <NoteOff Channel="1" Note="97" Velocity="64"/>
  </Event>
  <Event>
    <Absolute>177213</Absolute>
    <NoteOn Channel="1" Note="97" Velocity="127"/>
  </Event>
  <Event>
    <Absolute>177274</Absolute>
    <NoteOff Channel="1" Note="97" Velocity="64"/>
  </Event>
  <Event>
    <Absolute>177274</Absolute>
    <NoteOn Channel="1" Note="98" Velocity="127"/>
  </Event>
  <Event>
    <Absolute>177335</Absolute>
    <NoteOff Channel="1" Note="98" Velocity="64"/>
  </Event>
  <Event>
    <Absolute>177458</Absolute>
    <NoteOn Channel="1" Note="100" Velocity="127"/>
  </Event>
  <Event>
    <Absolute>177519</Absolute>
    <NoteOff Channel="1" Note="100" Velocity="64"/>
  </Event>
  <Event>
    <Absolute>177704</Absolute>
    <NoteOn Channel="1" Note="98" Velocity="127"/>
  </Event>
  <Event>
    <Absolute>177765</Absolute>
    <NoteOff Channel="1" Note="98" Velocity="64"/>
  </Event>
  <Event>
    <Absolute>177949</Absolute>
    <NoteOn Channel="1" Note="100" Velocity="127"/>
  </Event>
  <Event>
    <Absolute>178685</Absolute>
    <NoteOff Channel="1" Note="100" Velocity="64"/>
  </Event>
  <Event>
    <Absolute>178686</Absolute>
    <NoteOn Channel="1" Note="99" Velocity="127"/>
  </Event>
  <Event>
    <Absolute>178686</Absolute>
    <NoteOn Channel="1" Note="100" Velocity="127"/>
  </Event>
  <Event>
    <Absolute>179183</Absolute>
    <NoteOff Channel="1" Note="99" Velocity="64"/>
  </Event>
  <Event>
    <Absolute>179183</Absolute>
    <NoteOff Channel="1" Note="100" Velocity="64"/>
  </Event>
  <Event>
    <Absolute>179184</Absolute>
    <NoteOn Channel="1" Note="98" Velocity="127"/>
  </Event>
  <Event>
    <Absolute>179184</Absolute>
    <NoteOn Channel="1" Note="100" Velocity="127"/>
  </Event>
  <Event>
    <Absolute>179681</Absolute>
    <NoteOff Channel="1" Note="98" Velocity="64"/>
  </Event>
  <Event>
    <Absolute>179681</Absolute>
    <NoteOff Channel="1" Note="100" Velocity="64"/>
  </Event>
  <Event>
    <Absolute>179681</Absolute>
    <NoteOn Channel="1" Note="97" Velocity="127"/>
  </Event>
  <Event>
    <Absolute>179681</Absolute>
    <NoteOn Channel="1" Note="100" Velocity="127"/>
  </Event>
  <Event>
    <Absolute>180162</Absolute>
    <NoteOff Channel="1" Note="97" Velocity="64"/>
  </Event>
  <Event>
    <Absolute>180162</Absolute>
    <NoteOff Channel="1" Note="100" Velocity="64"/>
  </Event>
  <Event>
    <Absolute>180162</Absolute>
    <NoteOn Channel="1" Note="98" Velocity="127"/>
  </Event>
  <Event>
    <Absolute>180162</Absolute>
    <NoteOn Channel="1" Note="99" Velocity="127"/>
  </Event>
  <Event>
    <Absolute>180222</Absolute>
    <NoteOff Channel="1" Note="98" Velocity="64"/>
  </Event>
  <Event>
    <Absolute>180222</Absolute>
    <NoteOff Channel="1" Note="99" Velocity="64"/>
  </Event>
  <Event>
    <Absolute>180282</Absolute>
    <NoteOn Channel="1" Note="97" Velocity="127"/>
  </Event>
  <Event>
    <Absolute>180282</Absolute>
    <NoteOn Channel="1" Note="98" Velocity="127"/>
  </Event>
  <Event>
    <Absolute>180342</Absolute>
    <NoteOff Channel="1" Note="97" Velocity="64"/>
  </Event>
  <Event>
    <Absolute>180342</Absolute>
    <NoteOff Channel="1" Note="98" Velocity="64"/>
  </Event>
  <Event>
    <Absolute>180523</Absolute>
    <NoteOn Channel="1" Note="97" Velocity="127"/>
  </Event>
  <Event>
    <Absolute>180583</Absolute>
    <NoteOff Channel="1" Note="97" Velocity="64"/>
  </Event>
  <Event>
    <Absolute>180643</Absolute>
    <NoteOn Channel="1" Note="98" Velocity="127"/>
  </Event>
  <Event>
    <Absolute>180643</Absolute>
    <NoteOn Channel="1" Note="99" Velocity="127"/>
  </Event>
  <Event>
    <Absolute>180703</Absolute>
    <NoteOff Channel="1" Note="98" Velocity="64"/>
  </Event>
  <Event>
    <Absolute>180703</Absolute>
    <NoteOff Channel="1" Note="99" Velocity="64"/>
  </Event>
  <Event>
    <Absolute>180886</Absolute>
    <NoteOn Channel="1" Note="97" Velocity="127"/>
  </Event>
  <Event>
    <Absolute>180886</Absolute>
    <NoteOn Channel="1" Note="98" Velocity="127"/>
  </Event>
  <Event>
    <Absolute>180946</Absolute>
    <NoteOff Channel="1" Note="97" Velocity="64"/>
  </Event>
  <Event>
    <Absolute>180946</Absolute>
    <NoteOff Channel="1" Note="98" Velocity="64"/>
  </Event>
  <Event>
    <Absolute>181007</Absolute>
    <NoteOn Channel="1" Note="97" Velocity="127"/>
  </Event>
  <Event>
    <Absolute>181007</Absolute>
    <NoteOn Channel="1" Note="99" Velocity="127"/>
  </Event>
  <Event>
    <Absolute>181612</Absolute>
    <NoteOff Channel="1" Note="97" Velocity="64"/>
  </Event>
  <Event>
    <Absolute>181612</Absolute>
    <NoteOff Channel="1" Note="99" Velocity="64"/>
  </Event>
  <Event>
    <Absolute>181613</Absolute>
    <NoteOn Channel="1" Note="97" Velocity="127"/>
  </Event>
  <Event>
    <Absolute>181673</Absolute>
    <NoteOff Channel="1" Note="97" Velocity="64"/>
  </Event>
  <Event>
    <Absolute>181855</Absolute>
    <NoteOn Channel="1" Note="98" Velocity="127"/>
  </Event>
  <Event>
    <Absolute>181915</Absolute>
    <NoteOff Channel="1" Note="98" Velocity="64"/>
  </Event>
  <Event>
    <Absolute>181916</Absolute>
    <NoteOn Channel="1" Note="99" Velocity="127"/>
  </Event>
  <Event>
    <Absolute>182340</Absolute>
    <NoteOff Channel="1" Note="99" Velocity="64"/>
  </Event>
  <Event>
    <Absolute>182340</Absolute>
    <NoteOn Channel="1" Note="99" Velocity="127"/>
  </Event>
  <Event>
    <Absolute>182400</Absolute>
    <NoteOff Channel="1" Note="99" Velocity="64"/>
  </Event>
  <Event>
    <Absolute>182582</Absolute>
    <NoteOn Channel="1" Note="98" Velocity="127"/>
  </Event>
  <Event>
    <Absolute>182582</Absolute>
    <NoteOn Channel="1" Note="99" Velocity="127"/>
  </Event>
  <Event>
    <Absolute>182643</Absolute>
    <NoteOff Channel="1" Note="98" Velocity="64"/>
  </Event>
  <Event>
    <Absolute>182643</Absolute>
    <NoteOff Channel="1" Note="99" Velocity="64"/>
  </Event>
  <Event>
    <Absolute>182828</Absolute>
    <NoteOn Channel="1" Note="98" Velocity="127"/>
  </Event>
  <Event>
    <Absolute>182828</Absolute>
    <NoteOn Channel="1" Note="99" Velocity="127"/>
  </Event>
  <Event>
    <Absolute>182889</Absolute>
    <NoteOff Channel="1" Note="98" Velocity="64"/>
  </Event>
  <Event>
    <Absolute>182889</Absolute>
    <NoteOff Channel="1" Note="99" Velocity="64"/>
  </Event>
  <Event>
    <Absolute>183074</Absolute>
    <NoteOn Channel="1" Note="97" Velocity="127"/>
  </Event>
  <Event>
    <Absolute>183074</Absolute>
    <NoteOn Channel="1" Note="99" Velocity="127"/>
  </Event>
  <Event>
    <Absolute>183135</Absolute>
    <NoteOff Channel="1" Note="97" Velocity="64"/>
  </Event>
  <Event>
    <Absolute>183135</Absolute>
    <NoteOff Channel="1" Note="99" Velocity="64"/>
  </Event>
  <Event>
    <Absolute>183320</Absolute>
    <NoteOn Channel="1" Note="97" Velocity="127"/>
  </Event>
  <Event>
    <Absolute>183320</Absolute>
    <NoteOn Channel="1" Note="99" Velocity="127"/>
  </Event>
  <Event>
    <Absolute>183381</Absolute>
    <NoteOff Channel="1" Note="97" Velocity="64"/>
  </Event>
  <Event>
    <Absolute>183381</Absolute>
    <NoteOff Channel="1" Note="99" Velocity="64"/>
  </Event>
  <Event>
    <Absolute>183566</Absolute>
    <NoteOn Channel="1" Note="96" Velocity="127"/>
  </Event>
  <Event>
    <Absolute>183626</Absolute>
    <NoteOff Channel="1" Note="96" Velocity="64"/>
  </Event>
  <Event>
    <Absolute>183809</Absolute>
    <NoteOn Channel="1" Note="96" Velocity="127"/>
  </Event>
  <Event>
    <Absolute>183809</Absolute>
    <NoteOn Channel="1" Note="99" Velocity="127"/>
  </Event>
  <Event>
    <Absolute>183869</Absolute>
    <NoteOff Channel="1" Note="96" Velocity="64"/>
  </Event>
  <Event>
    <Absolute>183869</Absolute>
    <NoteOff Channel="1" Note="99" Velocity="64"/>
  </Event>
  <Event>
    <Absolute>184052</Absolute>
    <NoteOn Channel="1" Note="98" Velocity="127"/>
  </Event>
  <Event>
    <Absolute>184416</Absolute>
    <NoteOff Channel="1" Note="98" Velocity="64"/>
  </Event>
  <Event>
    <Absolute>184416</Absolute>
    <NoteOn Channel="1" Note="96" Velocity="127"/>
  </Event>
  <Event>
    <Absolute>184476</Absolute>
    <NoteOff Channel="1" Note="96" Velocity="64"/>
  </Event>
  <Event>
    <Absolute>184538</Absolute>
    <NoteOn Channel="1" Note="98" Velocity="127"/>
  </Event>
  <Event>
    <Absolute>184597</Absolute>
    <NoteOff Channel="1" Note="98" Velocity="64"/>
  </Event>
  <Event>
    <Absolute>184775</Absolute>
    <NoteOn Channel="1" Note="96" Velocity="127"/>
  </Event>
  <Event>
    <Absolute>185130</Absolute>
    <NoteOff Channel="1" Note="96" Velocity="64"/>
  </Event>
  <Event>
    <Absolute>185130</Absolute>
    <NoteOn Channel="1" Note="97" Velocity="127"/>
  </Event>
  <Event>
    <Absolute>185189</Absolute>
    <NoteOff Channel="1" Note="97" Velocity="64"/>
  </Event>
  <Event>
    <Absolute>185248</Absolute>
    <NoteOn Channel="1" Note="98" Velocity="127"/>
  </Event>
  <Event>
    <Absolute>185307</Absolute>
    <NoteOff Channel="1" Note="98" Velocity="64"/>
  </Event>
  <Event>
    <Absolute>185367</Absolute>
    <NoteOn Channel="1" Note="99" Velocity="127"/>
  </Event>
  <Event>
    <Absolute>185426</Absolute>
    <NoteOff Channel="1" Note="99" Velocity="64"/>
  </Event>
  <Event>
    <Absolute>185485</Absolute>
    <NoteOn Channel="1" Note="97" Velocity="127"/>
  </Event>
  <Event>
    <Absolute>185547</Absolute>
    <NoteOff Channel="1" Note="97" Velocity="64"/>
  </Event>
  <Event>
    <Absolute>185734</Absolute>
    <NoteOn Channel="1" Note="99" Velocity="127"/>
  </Event>
  <Event>
    <Absolute>185796</Absolute>
    <NoteOff Channel="1" Note="99" Velocity="64"/>
  </Event>
  <Event>
    <Absolute>185797</Absolute>
    <NoteOn Channel="1" Note="100" Velocity="127"/>
  </Event>
  <Event>
    <Absolute>186483</Absolute>
    <NoteOff Channel="1" Note="100" Velocity="64"/>
  </Event>
  <Event>
    <Absolute>186483</Absolute>
    <NoteOn Channel="1" Note="99" Velocity="127"/>
  </Event>
  <Event>
    <Absolute>186969</Absolute>
    <NoteOff Channel="1" Note="99" Velocity="64"/>
  </Event>
  <Event>
    <Absolute>186969</Absolute>
    <NoteOn Channel="1" Note="97" Velocity="127"/>
  </Event>
  <Event>
    <Absolute>187029</Absolute>
    <NoteOff Channel="1" Note="97" Velocity="64"/>
  </Event>
  <Event>
    <Absolute>187030</Absolute>
    <NoteOn Channel="1" Note="98" Velocity="127"/>
  </Event>
  <Event>
    <Absolute>187453</Absolute>
    <NoteOff Channel="1" Note="98" Velocity="64"/>
  </Event>
  <Event>
    <Absolute>187453</Absolute>
    <NoteOn Channel="1" Note="97" Velocity="127"/>
  </Event>
  <Event>
    <Absolute>187936</Absolute>
    <NoteOff Channel="1" Note="97" Velocity="64"/>
  </Event>
  <Event>
    <Absolute>187936</Absolute>
    <NoteOn Channel="1" Note="99" Velocity="127"/>
  </Event>
  <Event>
    <Absolute>187996</Absolute>
    <NoteOff Channel="1" Note="99" Velocity="64"/>
  </Event>
  <Event>
    <Absolute>188057</Absolute>
    <NoteOn Channel="1" Note="98" Velocity="127"/>
  </Event>
  <Event>
    <Absolute>188117</Absolute>
    <NoteOff Channel="1" Note="98" Velocity="64"/>
  </Event>
  <Event>
    <Absolute>188178</Absolute>
    <NoteOn Channel="1" Note="97" Velocity="127"/>
  </Event>
  <Event>
    <Absolute>188238</Absolute>
    <NoteOff Channel="1" Note="97" Velocity="64"/>
  </Event>
  <Event>
    <Absolute>188299</Absolute>
    <NoteOn Channel="1" Note="96" Velocity="127"/>
  </Event>
  <Event>
    <Absolute>188359</Absolute>
    <NoteOff Channel="1" Note="96" Velocity="64"/>
  </Event>
  <Event>
    <Absolute>188420</Absolute>
    <NoteOn Channel="1" Note="97" Velocity="127"/>
  </Event>
  <Event>
    <Absolute>188480</Absolute>
    <NoteOff Channel="1" Note="97" Velocity="64"/>
  </Event>
  <Event>
    <Absolute>188542</Absolute>
    <NoteOn Channel="1" Note="98" Velocity="127"/>
  </Event>
  <Event>
    <Absolute>188602</Absolute>
    <NoteOff Channel="1" Note="98" Velocity="64"/>
  </Event>
  <Event>
    <Absolute>188663</Absolute>
    <NoteOn Channel="1" Note="98" Velocity="127"/>
  </Event>
  <Event>
    <Absolute>188663</Absolute>
    <NoteOn Channel="1" Note="99" Velocity="127"/>
  </Event>
  <Event>
    <Absolute>188723</Absolute>
    <NoteOff Channel="1" Note="98" Velocity="64"/>
  </Event>
  <Event>
    <Absolute>188723</Absolute>
    <NoteOff Channel="1" Note="99" Velocity="64"/>
  </Event>
  <Event>
    <Absolute>188785</Absolute>
    <NoteOn Channel="1" Note="97" Velocity="127"/>
  </Event>
  <Event>
    <Absolute>188785</Absolute>
    <NoteOn Channel="1" Note="98" Velocity="127"/>
  </Event>
  <Event>
    <Absolute>189271</Absolute>
    <NoteOff Channel="1" Note="97" Velocity="64"/>
  </Event>
  <Event>
    <Absolute>189271</Absolute>
    <NoteOff Channel="1" Note="98" Velocity="64"/>
  </Event>
  <Event>
    <Absolute>189392</Absolute>
    <NoteOn Channel="1" Note="96" Velocity="127"/>
  </Event>
  <Event>
    <Absolute>189452</Absolute>
    <NoteOff Channel="1" Note="96" Velocity="64"/>
  </Event>
  <Event>
    <Absolute>189635</Absolute>
    <NoteOn Channel="1" Note="99" Velocity="127"/>
  </Event>
  <Event>
    <Absolute>190121</Absolute>
    <NoteOff Channel="1" Note="99" Velocity="64"/>
  </Event>
  <Event>
    <Absolute>190122</Absolute>
    <NoteOn Channel="1" Note="98" Velocity="127"/>
  </Event>
  <Event>
    <Absolute>190182</Absolute>
    <NoteOff Channel="1" Note="98" Velocity="64"/>
  </Event>
  <Event>
    <Absolute>190365</Absolute>
    <NoteOn Channel="1" Note="97" Velocity="127"/>
  </Event>
  <Event>
    <Absolute>190426</Absolute>
    <NoteOff Channel="1" Note="97" Velocity="64"/>
  </Event>
  <Event>
    <Absolute>190610</Absolute>
    <NoteOn Channel="1" Note="98" Velocity="127"/>
  </Event>
  <Event>
    <Absolute>191101</Absolute>
    <NoteOff Channel="1" Note="98" Velocity="64"/>
  </Event>
  <Event>
    <Absolute>191102</Absolute>
    <NoteOn Channel="1" Note="97" Velocity="127"/>
  </Event>
  <Event>
    <Absolute>191163</Absolute>
    <NoteOff Channel="1" Note="97" Velocity="64"/>
  </Event>
  <Event>
    <Absolute>191347</Absolute>
    <NoteOn Channel="1" Note="96" Velocity="127"/>
  </Event>
  <Event>
    <Absolute>191405</Absolute>
    <NoteOff Channel="1" Note="96" Velocity="64"/>
  </Event>
  <Event>
    <Absolute>191582</Absolute>
    <NoteOn Channel="1" Note="99" Velocity="127"/>
  </Event>
  <Event>
    <Absolute>191640</Absolute>
    <NoteOff Channel="1" Note="99" Velocity="64"/>
  </Event>
  <Event>
    <Absolute>191640</Absolute>
    <NoteOn Channel="1" Note="100" Velocity="127"/>
  </Event>
  <Event>
    <Absolute>192049</Absolute>
    <NoteOff Channel="1" Note="100" Velocity="64"/>
  </Event>
  <Event>
    <Absolute>192050</Absolute>
    <NoteOn Channel="1" Note="99" Velocity="127"/>
  </Event>
  <Event>
    <Absolute>192108</Absolute>
    <NoteOff Channel="1" Note="99" Velocity="64"/>
  </Event>
  <Event>
    <Absolute>192285</Absolute>
    <NoteOn Channel="1" Note="98" Velocity="127"/>
  </Event>
  <Event>
    <Absolute>192344</Absolute>
    <NoteOff Channel="1" Note="98" Velocity="64"/>
  </Event>
  <Event>
    <Absolute>192523</Absolute>
    <NoteOn Channel="1" Note="97" Velocity="127"/>
  </Event>
  <Event>
    <Absolute>193237</Absolute>
    <NoteOff Channel="1" Note="97" Velocity="64"/>
  </Event>
  <Event>
    <Absolute>193237</Absolute>
    <NoteOn Channel="1" Note="96" Velocity="127"/>
  </Event>
  <Event>
    <Absolute>193237</Absolute>
    <NoteOn Channel="1" Note="98" Velocity="127"/>
  </Event>
  <Event>
    <Absolute>193712</Absolute>
    <NoteOff Channel="1" Note="96" Velocity="64"/>
  </Event>
  <Event>
    <Absolute>193712</Absolute>
    <NoteOff Channel="1" Note="98" Velocity="64"/>
  </Event>
  <Event>
    <Absolute>193713</Absolute>
    <NoteOn Channel="1" Note="97" Velocity="127"/>
  </Event>
  <Event>
    <Absolute>197171</Absolute>
    <NoteOff Channel="1" Note="97" Velocity="64"/>
  </Event>
  <Event>
    <Absolute>197530</Absolute>
    <NoteOn Channel="1" Note="97" Velocity="127"/>
  </Event>
  <Event>
    <Absolute>197530</Absolute>
    <NoteOn Channel="1" Note="99" Velocity="127"/>
  </Event>
  <Event>
    <Absolute>199381</Absolute>
    <NoteOff Channel="1" Note="97" Velocity="64"/>
  </Event>
  <Event>
    <Absolute>199381</Absolute>
    <NoteOff Channel="1" Note="99" Velocity="64"/>
  </Event>
  <Event>
    <Absolute>199382</Absolute>
    <NoteOn Channel="1" Note="97" Velocity="127"/>
  </Event>
  <Event>
    <Absolute>199382</Absolute>
    <NoteOn Channel="1" Note="98" Velocity="127"/>
  </Event>
  <Event>
    <Absolute>199382</Absolute>
    <NoteOn Channel="1" Note="99" Velocity="127"/>
  </Event>
  <Event>
    <Absolute>201074</Absolute>
    <NoteOff Channel="1" Note="97" Velocity="64"/>
  </Event>
  <Event>
    <Absolute>201074</Absolute>
    <NoteOff Channel="1" Note="98" Velocity="64"/>
  </Event>
  <Event>
    <Absolute>201074</Absolute>
    <NoteOff Channel="1" Note="99" Velocity="64"/>
  </Event>
  <Event>
    <Absolute>201074</Absolute>
    <NoteOn Channel="1" Note="98" Velocity="127"/>
  </Event>
  <Event>
    <Absolute>201130</Absolute>
    <NoteOff Channel="1" Note="98" Velocity="64"/>
  </Event>
  <Event>
    <Absolute>201130</Absolute>
    <NoteOn Channel="1" Note="99" Velocity="127"/>
  </Event>
  <Event>
    <Absolute>201186</Absolute>
    <NoteOff Channel="1" Note="99" Velocity="64"/>
  </Event>
  <Event>
    <Absolute>201187</Absolute>
    <NoteOn Channel="1" Note="100" Velocity="127"/>
  </Event>
  <Event>
    <Absolute>202578</Absolute>
    <NoteOff Channel="1" Note="100" Velocity="64"/>
  </Event>
  <Event>
    <Absolute>202811</Absolute>
    <NoteOn Channel="1" Note="100" Velocity="127"/>
  </Event>
  <Event>
    <Absolute>202868</Absolute>
    <NoteOff Channel="1" Note="100" Velocity="64"/>
  </Event>
  <Event>
    <Absolute>202927</Absolute>
    <NoteOn Channel="1" Note="99" Velocity="127"/>
  </Event>
  <Event>
    <Absolute>202984</Absolute>
    <NoteOff Channel="1" Note="99" Velocity="64"/>
  </Event>
  <Event>
    <Absolute>203043</Absolute>
    <NoteOn Channel="1" Note="99" Velocity="127"/>
  </Event>
  <Event>
    <Absolute>203043</Absolute>
    <NoteOn Channel="1" Note="100" Velocity="127"/>
  </Event>
  <Event>
    <Absolute>204422</Absolute>
    <NoteOff Channel="1" Note="99" Velocity="64"/>
  </Event>
  <Event>
    <Absolute>204422</Absolute>
    <NoteOff Channel="1" Note="100" Velocity="64"/>
  </Event>
  <Event>
    <Absolute>204712</Absolute>
    <NoteOn Channel="1" Note="100" Velocity="127"/>
  </Event>
  <Event>
    <Absolute>205442</Absolute>
    <NoteOff Channel="1" Note="100" Velocity="64"/>
  </Event>
  <Event>
    <Absolute>205443</Absolute>
    <NoteOn Channel="1" Note="99" Velocity="127"/>
  </Event>
  <Event>
    <Absolute>206072</Absolute>
    <NoteOff Channel="1" Note="99" Velocity="64"/>
  </Event>
  <Event>
    <Absolute>206074</Absolute>
    <NoteOn Channel="1" Note="98" Velocity="127"/>
  </Event>
  <Event>
    <Absolute>206717</Absolute>
    <NoteOff Channel="1" Note="98" Velocity="64"/>
  </Event>
  <Event>
    <Absolute>206717</Absolute>
    <NoteOn Channel="1" Note="97" Velocity="127"/>
  </Event>
  <Event>
    <Absolute>207314</Absolute>
    <NoteOff Channel="1" Note="97" Velocity="64"/>
  </Event>
  <Event>
    <Absolute>207315</Absolute>
    <NoteOn Channel="1" Note="96" Velocity="127"/>
  </Event>
  <Event>
    <Absolute>210459</Absolute>
    <NoteOff Channel="1" Note="96" Velocity="64"/>
  </Event>
  <Event>
    <Absolute>210459</Absolute>
    <NoteOn Channel="1" Note="98" Velocity="127"/>
  </Event>
  <Event>
    <Absolute>210517</Absolute>
    <NoteOff Channel="1" Note="98" Velocity="64"/>
  </Event>
  <Event>
    <Absolute>210518</Absolute>
    <NoteOn Channel="1" Note="99" Velocity="127"/>
  </Event>
  <Event>
    <Absolute>210576</Absolute>
    <NoteOff Channel="1" Note="99" Velocity="64"/>
  </Event>
  <Event>
    <Absolute>210925</Absolute>
    <NoteOn Channel="1" Note="98" Velocity="127"/>
  </Event>
  <Event>
    <Absolute>210983</Absolute>
    <NoteOff Channel="1" Note="98" Velocity="64"/>
  </Event>
  <Event>
    <Absolute>210983</Absolute>
    <NoteOn Channel="1" Note="99" Velocity="127"/>
  </Event>
  <Event>
    <Absolute>211855</Absolute>
    <NoteOff Channel="1" Note="99" Velocity="64"/>
  </Event>
  <Event>
    <Absolute>212087</Absolute>
    <NoteOn Channel="1" Note="96" Velocity="127"/>
  </Event>
  <Event>
    <Absolute>212145</Absolute>
    <NoteOff Channel="1" Note="96" Velocity="64"/>
  </Event>
  <Event>
    <Absolute>212320</Absolute>
    <NoteOn Channel="1" Note="99" Velocity="127"/>
  </Event>
  <Event>
    <Absolute>212320</Absolute>
    <NoteOn Channel="1" Note="100" Velocity="127"/>
  </Event>
  <Event>
    <Absolute>212378</Absolute>
    <NoteOff Channel="1" Note="99" Velocity="64"/>
  </Event>
  <Event>
    <Absolute>212378</Absolute>
    <NoteOff Channel="1" Note="100" Velocity="64"/>
  </Event>
  <Event>
    <Absolute>212436</Absolute>
    <NoteOn Channel="1" Note="98" Velocity="127"/>
  </Event>
  <Event>
    <Absolute>212436</Absolute>
    <NoteOn Channel="1" Note="99" Velocity="127"/>
  </Event>
  <Event>
    <Absolute>212494</Absolute>
    <NoteOff Channel="1" Note="98" Velocity="64"/>
  </Event>
  <Event>
    <Absolute>212494</Absolute>
    <NoteOff Channel="1" Note="99" Velocity="64"/>
  </Event>
  <Event>
    <Absolute>212669</Absolute>
    <NoteOn Channel="1" Note="97" Velocity="127"/>
  </Event>
  <Event>
    <Absolute>212669</Absolute>
    <NoteOn Channel="1" Note="98" Velocity="127"/>
  </Event>
  <Event>
    <Absolute>212727</Absolute>
    <NoteOff Channel="1" Note="97" Velocity="64"/>
  </Event>
  <Event>
    <Absolute>212727</Absolute>
    <NoteOff Channel="1" Note="98" Velocity="64"/>
  </Event>
  <Event>
    <Absolute>212901</Absolute>
    <NoteOn Channel="1" Note="96" Velocity="127"/>
  </Event>
  <Event>
    <Absolute>212959</Absolute>
    <NoteOff Channel="1" Note="96" Velocity="64"/>
  </Event>
  <Event>
    <Absolute>213017</Absolute>
    <NoteOn Channel="1" Note="96" Velocity="127"/>
  </Event>
  <Event>
    <Absolute>213017</Absolute>
    <NoteOn Channel="1" Note="97" Velocity="127"/>
  </Event>
  <Event>
    <Absolute>213482</Absolute>
    <NoteOff Channel="1" Note="96" Velocity="64"/>
  </Event>
  <Event>
    <Absolute>213482</Absolute>
    <NoteOff Channel="1" Note="97" Velocity="64"/>
  </Event>
  <Event>
    <Absolute>214183</Absolute>
    <NoteOn Channel="1" Note="99" Velocity="127"/>
  </Event>
  <Event>
    <Absolute>214241</Absolute>
    <NoteOff Channel="1" Note="99" Velocity="64"/>
  </Event>
  <Event>
    <Absolute>214241</Absolute>
    <NoteOn Channel="1" Note="100" Velocity="127"/>
  </Event>
  <Event>
    <Absolute>214299</Absolute>
    <NoteOff Channel="1" Note="100" Velocity="64"/>
  </Event>
  <Event>
    <Absolute>214650</Absolute>
    <NoteOn Channel="1" Note="99" Velocity="127"/>
  </Event>
  <Event>
    <Absolute>214708</Absolute>
    <NoteOff Channel="1" Note="99" Velocity="64"/>
  </Event>
  <Event>
    <Absolute>214709</Absolute>
    <NoteOn Channel="1" Note="100" Velocity="127"/>
  </Event>
  <Event>
    <Absolute>215585</Absolute>
    <NoteOff Channel="1" Note="100" Velocity="64"/>
  </Event>
  <Event>
    <Absolute>215824</Absolute>
    <NoteOn Channel="1" Note="97" Velocity="127"/>
  </Event>
  <Event>
    <Absolute>215883</Absolute>
    <NoteOff Channel="1" Note="97" Velocity="64"/>
  </Event>
  <Event>
    <Absolute>215944</Absolute>
    <NoteOn Channel="1" Note="97" Velocity="127"/>
  </Event>
  <Event>
    <Absolute>216003</Absolute>
    <NoteOff Channel="1" Note="97" Velocity="64"/>
  </Event>
  <Event>
    <Absolute>216063</Absolute>
    <NoteOn Channel="1" Note="99" Velocity="127"/>
  </Event>
  <Event>
    <Absolute>216063</Absolute>
    <NoteOn Channel="1" Note="100" Velocity="127"/>
  </Event>
  <Event>
    <Absolute>216121</Absolute>
    <NoteOff Channel="1" Note="99" Velocity="64"/>
  </Event>
  <Event>
    <Absolute>216121</Absolute>
    <NoteOff Channel="1" Note="100" Velocity="64"/>
  </Event>
  <Event>
    <Absolute>216180</Absolute>
    <NoteOn Channel="1" Note="99" Velocity="127"/>
  </Event>
  <Event>
    <Absolute>216180</Absolute>
    <NoteOn Channel="1" Note="100" Velocity="127"/>
  </Event>
  <Event>
    <Absolute>216238</Absolute>
    <NoteOff Channel="1" Note="99" Velocity="64"/>
  </Event>
  <Event>
    <Absolute>216238</Absolute>
    <NoteOff Channel="1" Note="100" Velocity="64"/>
  </Event>
  <Event>
    <Absolute>216297</Absolute>
    <NoteOn Channel="1" Note="99" Velocity="127"/>
  </Event>
  <Event>
    <Absolute>216297</Absolute>
    <NoteOn Channel="1" Note="100" Velocity="127"/>
  </Event>
  <Event>
    <Absolute>216355</Absolute>
    <NoteOff Channel="1" Note="99" Velocity="64"/>
  </Event>
  <Event>
    <Absolute>216355</Absolute>
    <NoteOff Channel="1" Note="100" Velocity="64"/>
  </Event>
  <Event>
    <Absolute>216414</Absolute>
    <NoteOn Channel="1" Note="99" Velocity="127"/>
  </Event>
  <Event>
    <Absolute>216414</Absolute>
    <NoteOn Channel="1" Note="100" Velocity="127"/>
  </Event>
  <Event>
    <Absolute>216472</Absolute>
    <NoteOff Channel="1" Note="99" Velocity="64"/>
  </Event>
  <Event>
    <Absolute>216472</Absolute>
    <NoteOff Channel="1" Note="100" Velocity="64"/>
  </Event>
  <Event>
    <Absolute>216531</Absolute>
    <NoteOn Channel="1" Note="98" Velocity="127"/>
  </Event>
  <Event>
    <Absolute>216531</Absolute>
    <NoteOn Channel="1" Note="100" Velocity="127"/>
  </Event>
  <Event>
    <Absolute>216588</Absolute>
    <NoteOff Channel="1" Note="98" Velocity="64"/>
  </Event>
  <Event>
    <Absolute>216588</Absolute>
    <NoteOff Channel="1" Note="100" Velocity="64"/>
  </Event>
  <Event>
    <Absolute>216646</Absolute>
    <NoteOn Channel="1" Note="98" Velocity="127"/>
  </Event>
  <Event>
    <Absolute>216646</Absolute>
    <NoteOn Channel="1" Note="100" Velocity="127"/>
  </Event>
  <Event>
    <Absolute>216703</Absolute>
    <NoteOff Channel="1" Note="98" Velocity="64"/>
  </Event>
  <Event>
    <Absolute>216703</Absolute>
    <NoteOff Channel="1" Note="100" Velocity="64"/>
  </Event>
  <Event>
    <Absolute>216761</Absolute>
    <NoteOn Channel="1" Note="98" Velocity="127"/>
  </Event>
  <Event>
    <Absolute>216761</Absolute>
    <NoteOn Channel="1" Note="100" Velocity="127"/>
  </Event>
  <Event>
    <Absolute>216818</Absolute>
    <NoteOff Channel="1" Note="98" Velocity="64"/>
  </Event>
  <Event>
    <Absolute>216818</Absolute>
    <NoteOff Channel="1" Note="100" Velocity="64"/>
  </Event>
  <Event>
    <Absolute>216877</Absolute>
    <NoteOn Channel="1" Note="98" Velocity="127"/>
  </Event>
  <Event>
    <Absolute>216877</Absolute>
    <NoteOn Channel="1" Note="99" Velocity="127"/>
  </Event>
  <Event>
    <Absolute>216934</Absolute>
    <NoteOff Channel="1" Note="98" Velocity="64"/>
  </Event>
  <Event>
    <Absolute>216934</Absolute>
    <NoteOff Channel="1" Note="99" Velocity="64"/>
  </Event>
  <Event>
    <Absolute>216992</Absolute>
    <NoteOn Channel="1" Note="98" Velocity="127"/>
  </Event>
  <Event>
    <Absolute>216992</Absolute>
    <NoteOn Channel="1" Note="99" Velocity="127"/>
  </Event>
  <Event>
    <Absolute>217049</Absolute>
    <NoteOff Channel="1" Note="98" Velocity="64"/>
  </Event>
  <Event>
    <Absolute>217049</Absolute>
    <NoteOff Channel="1" Note="99" Velocity="64"/>
  </Event>
  <Event>
    <Absolute>217107</Absolute>
    <NoteOn Channel="1" Note="98" Velocity="127"/>
  </Event>
  <Event>
    <Absolute>217107</Absolute>
    <NoteOn Channel="1" Note="99" Velocity="127"/>
  </Event>
  <Event>
    <Absolute>217164</Absolute>
    <NoteOff Channel="1" Note="98" Velocity="64"/>
  </Event>
  <Event>
    <Absolute>217164</Absolute>
    <NoteOff Channel="1" Note="99" Velocity="64"/>
  </Event>
  <Event>
    <Absolute>217222</Absolute>
    <NoteOn Channel="1" Note="97" Velocity="127"/>
  </Event>
  <Event>
    <Absolute>217222</Absolute>
    <NoteOn Channel="1" Note="99" Velocity="127"/>
  </Event>
  <Event>
    <Absolute>217279</Absolute>
    <NoteOff Channel="1" Note="97" Velocity="64"/>
  </Event>
  <Event>
    <Absolute>217279</Absolute>
    <NoteOff Channel="1" Note="99" Velocity="64"/>
  </Event>
  <Event>
    <Absolute>217337</Absolute>
    <NoteOn Channel="1" Note="97" Velocity="127"/>
  </Event>
  <Event>
    <Absolute>217337</Absolute>
    <NoteOn Channel="1" Note="99" Velocity="127"/>
  </Event>
  <Event>
    <Absolute>217394</Absolute>
    <NoteOff Channel="1" Note="97" Velocity="64"/>
  </Event>
  <Event>
    <Absolute>217394</Absolute>
    <NoteOff Channel="1" Note="99" Velocity="64"/>
  </Event>
  <Event>
    <Absolute>217453</Absolute>
    <NoteOn Channel="1" Note="97" Velocity="127"/>
  </Event>
  <Event>
    <Absolute>217453</Absolute>
    <NoteOn Channel="1" Note="98" Velocity="127"/>
  </Event>
  <Event>
    <Absolute>217510</Absolute>
    <NoteOff Channel="1" Note="97" Velocity="64"/>
  </Event>
  <Event>
    <Absolute>217510</Absolute>
    <NoteOff Channel="1" Note="98" Velocity="64"/>
  </Event>
  <Event>
    <Absolute>217568</Absolute>
    <NoteOn Channel="1" Note="97" Velocity="127"/>
  </Event>
  <Event>
    <Absolute>217568</Absolute>
    <NoteOn Channel="1" Note="98" Velocity="127"/>
  </Event>
  <Event>
    <Absolute>217625</Absolute>
    <NoteOff Channel="1" Note="97" Velocity="64"/>
  </Event>
  <Event>
    <Absolute>217625</Absolute>
    <NoteOff Channel="1" Note="98" Velocity="64"/>
  </Event>
  <Event>
    <Absolute>217683</Absolute>
    <NoteOn Channel="1" Note="96" Velocity="127"/>
  </Event>
  <Event>
    <Absolute>217740</Absolute>
    <NoteOff Channel="1" Note="96" Velocity="64"/>
  </Event>
  <Event>
    <Absolute>217798</Absolute>
    <NoteOn Channel="1" Note="96" Velocity="127"/>
  </Event>
  <Event>
    <Absolute>217855</Absolute>
    <NoteOff Channel="1" Note="96" Velocity="64"/>
  </Event>
  <Event>
    <Absolute>217913</Absolute>
    <NoteOn Channel="1" Note="99" Velocity="127"/>
  </Event>
  <Event>
    <Absolute>217913</Absolute>
    <NoteOn Channel="1" Note="100" Velocity="127"/>
  </Event>
  <Event>
    <Absolute>217971</Absolute>
    <NoteOff Channel="1" Note="99" Velocity="64"/>
  </Event>
  <Event>
    <Absolute>217971</Absolute>
    <NoteOff Channel="1" Note="100" Velocity="64"/>
  </Event>
  <Event>
    <Absolute>218030</Absolute>
    <NoteOn Channel="1" Note="99" Velocity="127"/>
  </Event>
  <Event>
    <Absolute>218030</Absolute>
    <NoteOn Channel="1" Note="100" Velocity="127"/>
  </Event>
  <Event>
    <Absolute>218088</Absolute>
    <NoteOff Channel="1" Note="99" Velocity="64"/>
  </Event>
  <Event>
    <Absolute>218088</Absolute>
    <NoteOff Channel="1" Note="100" Velocity="64"/>
  </Event>
  <Event>
    <Absolute>218146</Absolute>
    <NoteOn Channel="1" Note="99" Velocity="127"/>
  </Event>
  <Event>
    <Absolute>218146</Absolute>
    <NoteOn Channel="1" Note="100" Velocity="127"/>
  </Event>
  <Event>
    <Absolute>218204</Absolute>
    <NoteOff Channel="1" Note="99" Velocity="64"/>
  </Event>
  <Event>
    <Absolute>218204</Absolute>
    <NoteOff Channel="1" Note="100" Velocity="64"/>
  </Event>
  <Event>
    <Absolute>218262</Absolute>
    <NoteOn Channel="1" Note="99" Velocity="127"/>
  </Event>
  <Event>
    <Absolute>218262</Absolute>
    <NoteOn Channel="1" Note="100" Velocity="127"/>
  </Event>
  <Event>
    <Absolute>218320</Absolute>
    <NoteOff Channel="1" Note="99" Velocity="64"/>
  </Event>
  <Event>
    <Absolute>218320</Absolute>
    <NoteOff Channel="1" Note="100" Velocity="64"/>
  </Event>
  <Event>
    <Absolute>218378</Absolute>
    <NoteOn Channel="1" Note="98" Velocity="127"/>
  </Event>
  <Event>
    <Absolute>218378</Absolute>
    <NoteOn Channel="1" Note="100" Velocity="127"/>
  </Event>
  <Event>
    <Absolute>218436</Absolute>
    <NoteOff Channel="1" Note="98" Velocity="64"/>
  </Event>
  <Event>
    <Absolute>218436</Absolute>
    <NoteOff Channel="1" Note="100" Velocity="64"/>
  </Event>
  <Event>
    <Absolute>218494</Absolute>
    <NoteOn Channel="1" Note="98" Velocity="127"/>
  </Event>
  <Event>
    <Absolute>218494</Absolute>
    <NoteOn Channel="1" Note="100" Velocity="127"/>
  </Event>
  <Event>
    <Absolute>218552</Absolute>
    <NoteOff Channel="1" Note="98" Velocity="64"/>
  </Event>
  <Event>
    <Absolute>218552</Absolute>
    <NoteOff Channel="1" Note="100" Velocity="64"/>
  </Event>
  <Event>
    <Absolute>218610</Absolute>
    <NoteOn Channel="1" Note="98" Velocity="127"/>
  </Event>
  <Event>
    <Absolute>218610</Absolute>
    <NoteOn Channel="1" Note="100" Velocity="127"/>
  </Event>
  <Event>
    <Absolute>218668</Absolute>
    <NoteOff Channel="1" Note="98" Velocity="64"/>
  </Event>
  <Event>
    <Absolute>218668</Absolute>
    <NoteOff Channel="1" Note="100" Velocity="64"/>
  </Event>
  <Event>
    <Absolute>218726</Absolute>
    <NoteOn Channel="1" Note="98" Velocity="127"/>
  </Event>
  <Event>
    <Absolute>218726</Absolute>
    <NoteOn Channel="1" Note="99" Velocity="127"/>
  </Event>
  <Event>
    <Absolute>218784</Absolute>
    <NoteOff Channel="1" Note="98" Velocity="64"/>
  </Event>
  <Event>
    <Absolute>218784</Absolute>
    <NoteOff Channel="1" Note="99" Velocity="64"/>
  </Event>
  <Event>
    <Absolute>218843</Absolute>
    <NoteOn Channel="1" Note="98" Velocity="127"/>
  </Event>
  <Event>
    <Absolute>218843</Absolute>
    <NoteOn Channel="1" Note="99" Velocity="127"/>
  </Event>
  <Event>
    <Absolute>218901</Absolute>
    <NoteOff Channel="1" Note="98" Velocity="64"/>
  </Event>
  <Event>
    <Absolute>218901</Absolute>
    <NoteOff Channel="1" Note="99" Velocity="64"/>
  </Event>
  <Event>
    <Absolute>218959</Absolute>
    <NoteOn Channel="1" Note="98" Velocity="127"/>
  </Event>
  <Event>
    <Absolute>218959</Absolute>
    <NoteOn Channel="1" Note="99" Velocity="127"/>
  </Event>
  <Event>
    <Absolute>219017</Absolute>
    <NoteOff Channel="1" Note="98" Velocity="64"/>
  </Event>
  <Event>
    <Absolute>219017</Absolute>
    <NoteOff Channel="1" Note="99" Velocity="64"/>
  </Event>
  <Event>
    <Absolute>219075</Absolute>
    <NoteOn Channel="1" Note="97" Velocity="127"/>
  </Event>
  <Event>
    <Absolute>219075</Absolute>
    <NoteOn Channel="1" Note="99" Velocity="127"/>
  </Event>
  <Event>
    <Absolute>219133</Absolute>
    <NoteOff Channel="1" Note="97" Velocity="64"/>
  </Event>
  <Event>
    <Absolute>219133</Absolute>
    <NoteOff Channel="1" Note="99" Velocity="64"/>
  </Event>
  <Event>
    <Absolute>219191</Absolute>
    <NoteOn Channel="1" Note="97" Velocity="127"/>
  </Event>
  <Event>
    <Absolute>219191</Absolute>
    <NoteOn Channel="1" Note="99" Velocity="127"/>
  </Event>
  <Event>
    <Absolute>219249</Absolute>
    <NoteOff Channel="1" Note="97" Velocity="64"/>
  </Event>
  <Event>
    <Absolute>219249</Absolute>
    <NoteOff Channel="1" Note="99" Velocity="64"/>
  </Event>
  <Event>
    <Absolute>219307</Absolute>
    <NoteOn Channel="1" Note="97" Velocity="127"/>
  </Event>
  <Event>
    <Absolute>219307</Absolute>
    <NoteOn Channel="1" Note="98" Velocity="127"/>
  </Event>
  <Event>
    <Absolute>219366</Absolute>
    <NoteOff Channel="1" Note="97" Velocity="64"/>
  </Event>
  <Event>
    <Absolute>219366</Absolute>
    <NoteOff Channel="1" Note="98" Velocity="64"/>
  </Event>
  <Event>
    <Absolute>219426</Absolute>
    <NoteOn Channel="1" Note="97" Velocity="127"/>
  </Event>
  <Event>
    <Absolute>219426</Absolute>
    <NoteOn Channel="1" Note="98" Velocity="127"/>
  </Event>
  <Event>
    <Absolute>219485</Absolute>
    <NoteOff Channel="1" Note="97" Velocity="64"/>
  </Event>
  <Event>
    <Absolute>219485</Absolute>
    <NoteOff Channel="1" Note="98" Velocity="64"/>
  </Event>
  <Event>
    <Absolute>219544</Absolute>
    <NoteOn Channel="1" Note="96" Velocity="127"/>
  </Event>
  <Event>
    <Absolute>219603</Absolute>
    <NoteOff Channel="1" Note="96" Velocity="64"/>
  </Event>
  <Event>
    <Absolute>219662</Absolute>
    <NoteOn Channel="1" Note="96" Velocity="127"/>
  </Event>
  <Event>
    <Absolute>219721</Absolute>
    <NoteOff Channel="1" Note="96" Velocity="64"/>
  </Event>
  <Event>
    <Absolute>219781</Absolute>
    <NoteOn Channel="1" Note="97" Velocity="127"/>
  </Event>
  <Event>
    <Absolute>219840</Absolute>
    <NoteOff Channel="1" Note="97" Velocity="64"/>
  </Event>
  <Event>
    <Absolute>220018</Absolute>
    <NoteOn Channel="1" Note="96" Velocity="127"/>
  </Event>
  <Event>
    <Absolute>220077</Absolute>
    <NoteOff Channel="1" Note="96" Velocity="64"/>
  </Event>
  <Event>
    <Absolute>220255</Absolute>
    <NoteOn Channel="1" Note="97" Velocity="127"/>
  </Event>
  <Event>
    <Absolute>220313</Absolute>
    <NoteOff Channel="1" Note="97" Velocity="64"/>
  </Event>
  <Event>
    <Absolute>220488</Absolute>
    <NoteOn Channel="1" Note="98" Velocity="127"/>
  </Event>
  <Event>
    <Absolute>220546</Absolute>
    <NoteOff Channel="1" Note="98" Velocity="64"/>
  </Event>
  <Event>
    <Absolute>220722</Absolute>
    <NoteOn Channel="1" Note="97" Velocity="127"/>
  </Event>
  <Event>
    <Absolute>220722</Absolute>
    <NoteOn Channel="1" Note="98" Velocity="127"/>
  </Event>
  <Event>
    <Absolute>220780</Absolute>
    <NoteOff Channel="1" Note="97" Velocity="64"/>
  </Event>
  <Event>
    <Absolute>220780</Absolute>
    <NoteOff Channel="1" Note="98" Velocity="64"/>
  </Event>
  <Event>
    <Absolute>220956</Absolute>
    <NoteOn Channel="1" Note="96" Velocity="127"/>
  </Event>
  <Event>
    <Absolute>220956</Absolute>
    <NoteOn Channel="1" Note="97" Velocity="127"/>
  </Event>
  <Event>
    <Absolute>221014</Absolute>
    <NoteOff Channel="1" Note="96" Velocity="64"/>
  </Event>
  <Event>
    <Absolute>221014</Absolute>
    <NoteOff Channel="1" Note="97" Velocity="64"/>
  </Event>
  <Event>
    <Absolute>221190</Absolute>
    <NoteOn Channel="1" Note="97" Velocity="127"/>
  </Event>
  <Event>
    <Absolute>221190</Absolute>
    <NoteOn Channel="1" Note="98" Velocity="127"/>
  </Event>
  <Event>
    <Absolute>221250</Absolute>
    <NoteOff Channel="1" Note="97" Velocity="64"/>
  </Event>
  <Event>
    <Absolute>221250</Absolute>
    <NoteOff Channel="1" Note="98" Velocity="64"/>
  </Event>
  <Event>
    <Absolute>221431</Absolute>
    <NoteOn Channel="1" Note="98" Velocity="127"/>
  </Event>
  <Event>
    <Absolute>221431</Absolute>
    <NoteOn Channel="1" Note="99" Velocity="127"/>
  </Event>
  <Event>
    <Absolute>221491</Absolute>
    <NoteOff Channel="1" Note="98" Velocity="64"/>
  </Event>
  <Event>
    <Absolute>221491</Absolute>
    <NoteOff Channel="1" Note="99" Velocity="64"/>
  </Event>
  <Event>
    <Absolute>221672</Absolute>
    <NoteOn Channel="1" Note="96" Velocity="127"/>
  </Event>
  <Event>
    <Absolute>221672</Absolute>
    <NoteOn Channel="1" Note="97" Velocity="127"/>
  </Event>
  <Event>
    <Absolute>221731</Absolute>
    <NoteOff Channel="1" Note="96" Velocity="64"/>
  </Event>
  <Event>
    <Absolute>221731</Absolute>
    <NoteOff Channel="1" Note="97" Velocity="64"/>
  </Event>
  <Event>
    <Absolute>221910</Absolute>
    <NoteOn Channel="1" Note="97" Velocity="127"/>
  </Event>
  <Event>
    <Absolute>221910</Absolute>
    <NoteOn Channel="1" Note="98" Velocity="127"/>
  </Event>
  <Event>
    <Absolute>221969</Absolute>
    <NoteOff Channel="1" Note="97" Velocity="64"/>
  </Event>
  <Event>
    <Absolute>221969</Absolute>
    <NoteOff Channel="1" Note="98" Velocity="64"/>
  </Event>
  <Event>
    <Absolute>222148</Absolute>
    <NoteOn Channel="1" Note="98" Velocity="127"/>
  </Event>
  <Event>
    <Absolute>222148</Absolute>
    <NoteOn Channel="1" Note="99" Velocity="127"/>
  </Event>
  <Event>
    <Absolute>222207</Absolute>
    <NoteOff Channel="1" Note="98" Velocity="64"/>
  </Event>
  <Event>
    <Absolute>222207</Absolute>
    <NoteOff Channel="1" Note="99" Velocity="64"/>
  </Event>
  <Event>
    <Absolute>222386</Absolute>
    <NoteOn Channel="1" Note="97" Velocity="127"/>
  </Event>
  <Event>
    <Absolute>222386</Absolute>
    <NoteOn Channel="1" Note="98" Velocity="127"/>
  </Event>
  <Event>
    <Absolute>222386</Absolute>
    <NoteOn Channel="1" Note="99" Velocity="127"/>
  </Event>
  <Event>
    <Absolute>222445</Absolute>
    <NoteOff Channel="1" Note="97" Velocity="64"/>
  </Event>
  <Event>
    <Absolute>222445</Absolute>
    <NoteOff Channel="1" Note="98" Velocity="64"/>
  </Event>
  <Event>
    <Absolute>222445</Absolute>
    <NoteOff Channel="1" Note="99" Velocity="64"/>
  </Event>
  <Event>
    <Absolute>222623</Absolute>
    <NoteOn Channel="1" Note="98" Velocity="127"/>
  </Event>
  <Event>
    <Absolute>222623</Absolute>
    <NoteOn Channel="1" Note="99" Velocity="127"/>
  </Event>
  <Event>
    <Absolute>222623</Absolute>
    <NoteOn Channel="1" Note="100" Velocity="127"/>
  </Event>
  <Event>
    <Absolute>223487</Absolute>
    <NoteOff Channel="1" Note="98" Velocity="64"/>
  </Event>
  <Event>
    <Absolute>223487</Absolute>
    <NoteOff Channel="1" Note="99" Velocity="64"/>
  </Event>
  <Event>
    <Absolute>223487</Absolute>
    <NoteOff Channel="1" Note="100" Velocity="64"/>
  </Event>
  <Event>
    <Absolute>223609</Absolute>
    <NoteOn Channel="1" Note="97" Velocity="127"/>
  </Event>
  <Event>
    <Absolute>223609</Absolute>
    <NoteOn Channel="1" Note="99" Velocity="127"/>
  </Event>
  <Event>
    <Absolute>223671</Absolute>
    <NoteOff Channel="1" Note="97" Velocity="64"/>
  </Event>
  <Event>
    <Absolute>223671</Absolute>
    <NoteOff Channel="1" Note="99" Velocity="64"/>
  </Event>
  <Event>
    <Absolute>224108</Absolute>
    <NoteOn Channel="1" Note="96" Velocity="127"/>
  </Event>
  <Event>
    <Absolute>224108</Absolute>
    <NoteOn Channel="1" Note="98" Velocity="127"/>
  </Event>
  <Event>
    <Absolute>224166</Absolute>
    <NoteOff Channel="1" Note="96" Velocity="64"/>
  </Event>
  <Event>
    <Absolute>224166</Absolute>
    <NoteOff Channel="1" Note="98" Velocity="64"/>
  </Event>
  <Event>
    <Absolute>224579</Absolute>
    <NoteOn Channel="1" Note="97" Velocity="127"/>
  </Event>
  <Event>
    <Absolute>224579</Absolute>
    <NoteOn Channel="1" Note="99" Velocity="127"/>
  </Event>
  <Event>
    <Absolute>224637</Absolute>
    <NoteOff Channel="1" Note="97" Velocity="64"/>
  </Event>
  <Event>
    <Absolute>224637</Absolute>
    <NoteOff Channel="1" Note="99" Velocity="64"/>
  </Event>
  <Event>
    <Absolute>225051</Absolute>
    <NoteOn Channel="1" Note="97" Velocity="127"/>
  </Event>
  <Event>
    <Absolute>225051</Absolute>
    <NoteOn Channel="1" Note="100" Velocity="127"/>
  </Event>
  <Event>
    <Absolute>225110</Absolute>
    <NoteOff Channel="1" Note="97" Velocity="64"/>
  </Event>
  <Event>
    <Absolute>225110</Absolute>
    <NoteOff Channel="1" Note="100" Velocity="64"/>
  </Event>
  <Event>
    <Absolute>225530</Absolute>
    <NoteOn Channel="1" Note="98" Velocity="127"/>
  </Event>
  <Event>
    <Absolute>225530</Absolute>
    <NoteOn Channel="1" Note="100" Velocity="127"/>
  </Event>
  <Event>
    <Absolute>225590</Absolute>
    <NoteOff Channel="1" Note="98" Velocity="64"/>
  </Event>
  <Event>
    <Absolute>225590</Absolute>
    <NoteOff Channel="1" Note="100" Velocity="64"/>
  </Event>
  <Event>
    <Absolute>226014</Absolute>
    <NoteOn Channel="1" Note="97" Velocity="127"/>
  </Event>
  <Event>
    <Absolute>226014</Absolute>
    <NoteOn Channel="1" Note="99" Velocity="127"/>
  </Event>
  <Event>
    <Absolute>226074</Absolute>
    <NoteOff Channel="1" Note="97" Velocity="64"/>
  </Event>
  <Event>
    <Absolute>226074</Absolute>
    <NoteOff Channel="1" Note="99" Velocity="64"/>
  </Event>
  <Event>
    <Absolute>226500</Absolute>
    <NoteOn Channel="1" Note="98" Velocity="127"/>
  </Event>
  <Event>
    <Absolute>226500</Absolute>
    <NoteOn Channel="1" Note="100" Velocity="127"/>
  </Event>
  <Event>
    <Absolute>226557</Absolute>
    <NoteOff Channel="1" Note="98" Velocity="64"/>
  </Event>
  <Event>
    <Absolute>226557</Absolute>
    <NoteOff Channel="1" Note="100" Velocity="64"/>
  </Event>
  <Event>
    <Absolute>226959</Absolute>
    <NoteOn Channel="1" Note="99" Velocity="127"/>
  </Event>
  <Event>
    <Absolute>226959</Absolute>
    <NoteOn Channel="1" Note="100" Velocity="127"/>
  </Event>
  <Event>
    <Absolute>227022</Absolute>
    <NoteOff Channel="1" Note="99" Velocity="64"/>
  </Event>
  <Event>
    <Absolute>227022</Absolute>
    <NoteOff Channel="1" Note="100" Velocity="64"/>
  </Event>
  <Event>
    <Absolute>227469</Absolute>
    <NoteOn Channel="1" Note="99" Velocity="127"/>
  </Event>
  <Event>
    <Absolute>227963</Absolute>
    <NoteOff Channel="1" Note="99" Velocity="64"/>
  </Event>
  <Event>
    <Absolute>227964</Absolute>
    <NoteOn Channel="1" Note="98" Velocity="127"/>
  </Event>
  <Event>
    <Absolute>228430</Absolute>
    <NoteOff Channel="1" Note="98" Velocity="64"/>
  </Event>
  <Event>
    <Absolute>228430</Absolute>
    <NoteOn Channel="1" Note="97" Velocity="127"/>
  </Event>
  <Event>
    <Absolute>228488</Absolute>
    <NoteOff Channel="1" Note="97" Velocity="64"/>
  </Event>
  <Event>
    <Absolute>228663</Absolute>
    <NoteOn Channel="1" Note="97" Velocity="127"/>
  </Event>
  <Event>
    <Absolute>228721</Absolute>
    <NoteOff Channel="1" Note="97" Velocity="64"/>
  </Event>
  <Event>
    <Absolute>228780</Absolute>
    <NoteOn Channel="1" Note="97" Velocity="127"/>
  </Event>
  <Event>
    <Absolute>228838</Absolute>
    <NoteOff Channel="1" Note="97" Velocity="64"/>
  </Event>
  <Event>
    <Absolute>228896</Absolute>
    <NoteOn Channel="1" Note="96" Velocity="127"/>
  </Event>
  <Event>
    <Absolute>228956</Absolute>
    <NoteOff Channel="1" Note="96" Velocity="64"/>
  </Event>
  <Event>
    <Absolute>229138</Absolute>
    <NoteOn Channel="1" Note="96" Velocity="127"/>
  </Event>
  <Event>
    <Absolute>229198</Absolute>
    <NoteOff Channel="1" Note="96" Velocity="64"/>
  </Event>
  <Event>
    <Absolute>229259</Absolute>
    <NoteOn Channel="1" Note="96" Velocity="127"/>
  </Event>
  <Event>
    <Absolute>229319</Absolute>
    <NoteOff Channel="1" Note="96" Velocity="64"/>
  </Event>
  <Event>
    <Absolute>229380</Absolute>
    <NoteOn Channel="1" Note="97" Velocity="127"/>
  </Event>
  <Event>
    <Absolute>229380</Absolute>
    <NoteOn Channel="1" Note="100" Velocity="127"/>
  </Event>
  <Event>
    <Absolute>229884</Absolute>
    <NoteOff Channel="1" Note="97" Velocity="64"/>
  </Event>
  <Event>
    <Absolute>229884</Absolute>
    <NoteOff Channel="1" Note="100" Velocity="64"/>
  </Event>
  <Event>
    <Absolute>229884</Absolute>
    <NoteOn Channel="1" Note="97" Velocity="127"/>
  </Event>
  <Event>
    <Absolute>229884</Absolute>
    <NoteOn Channel="1" Note="99" Velocity="127"/>
  </Event>
  <Event>
    <Absolute>229943</Absolute>
    <NoteOff Channel="1" Note="97" Velocity="64"/>
  </Event>
  <Event>
    <Absolute>229943</Absolute>
    <NoteOff Channel="1" Note="99" Velocity="64"/>
  </Event>
  <Event>
    <Absolute>230123</Absolute>
    <NoteOn Channel="1" Note="99" Velocity="127"/>
  </Event>
  <Event>
    <Absolute>230182</Absolute>
    <NoteOff Channel="1" Note="99" Velocity="64"/>
  </Event>
  <Event>
    <Absolute>230243</Absolute>
    <NoteOn Channel="1" Note="99" Velocity="127"/>
  </Event>
  <Event>
    <Absolute>230302</Absolute>
    <NoteOff Channel="1" Note="99" Velocity="64"/>
  </Event>
  <Event>
    <Absolute>230362</Absolute>
    <NoteOn Channel="1" Note="99" Velocity="127"/>
  </Event>
  <Event>
    <Absolute>230362</Absolute>
    <NoteOn Channel="1" Note="100" Velocity="127"/>
  </Event>
  <Event>
    <Absolute>230839</Absolute>
    <NoteOff Channel="1" Note="99" Velocity="64"/>
  </Event>
  <Event>
    <Absolute>230839</Absolute>
    <NoteOff Channel="1" Note="100" Velocity="64"/>
  </Event>
  <Event>
    <Absolute>231317</Absolute>
    <NoteOn Channel="1" Note="100" Velocity="127"/>
  </Event>
  <Event>
    <Absolute>231380</Absolute>
    <NoteOff Channel="1" Note="100" Velocity="64"/>
  </Event>
  <Event>
    <Absolute>231571</Absolute>
    <NoteOn Channel="1" Note="100" Velocity="127"/>
  </Event>
  <Event>
    <Absolute>231634</Absolute>
    <NoteOff Channel="1" Note="100" Velocity="64"/>
  </Event>
  <Event>
    <Absolute>231825</Absolute>
    <NoteOn Channel="1" Note="99" Velocity="127"/>
  </Event>
  <Event>
    <Absolute>231886</Absolute>
    <NoteOff Channel="1" Note="99" Velocity="64"/>
  </Event>
  <Event>
    <Absolute>232071</Absolute>
    <NoteOn Channel="1" Note="98" Velocity="127"/>
  </Event>
  <Event>
    <Absolute>232132</Absolute>
    <NoteOff Channel="1" Note="98" Velocity="64"/>
  </Event>
  <Event>
    <Absolute>232194</Absolute>
    <NoteOn Channel="1" Note="98" Velocity="127"/>
  </Event>
  <Event>
    <Absolute>232255</Absolute>
    <NoteOff Channel="1" Note="98" Velocity="64"/>
  </Event>
  <Event>
    <Absolute>232439</Absolute>
    <NoteOn Channel="1" Note="97" Velocity="127"/>
  </Event>
  <Event>
    <Absolute>232500</Absolute>
    <NoteOff Channel="1" Note="97" Velocity="64"/>
  </Event>
  <Event>
    <Absolute>232562</Absolute>
    <NoteOn Channel="1" Note="97" Velocity="127"/>
  </Event>
  <Event>
    <Absolute>232623</Absolute>
    <NoteOff Channel="1" Note="97" Velocity="64"/>
  </Event>
  <Event>
    <Absolute>232808</Absolute>
    <NoteOn Channel="1" Note="96" Velocity="127"/>
  </Event>
  <Event>
    <Absolute>232868</Absolute>
    <NoteOff Channel="1" Note="96" Velocity="64"/>
  </Event>
  <Event>
    <Absolute>232868</Absolute>
    <NoteOn Channel="1" Note="97" Velocity="127"/>
  </Event>
  <Event>
    <Absolute>232928</Absolute>
    <NoteOff Channel="1" Note="97" Velocity="64"/>
  </Event>
  <Event>
    <Absolute>233048</Absolute>
    <NoteOn Channel="1" Note="96" Velocity="127"/>
  </Event>
  <Event>
    <Absolute>233108</Absolute>
    <NoteOff Channel="1" Note="96" Velocity="64"/>
  </Event>
  <Event>
    <Absolute>233288</Absolute>
    <NoteOn Channel="1" Note="100" Velocity="127"/>
  </Event>
  <Event>
    <Absolute>233348</Absolute>
    <NoteOff Channel="1" Note="100" Velocity="64"/>
  </Event>
  <Event>
    <Absolute>233528</Absolute>
    <NoteOn Channel="1" Note="100" Velocity="127"/>
  </Event>
  <Event>
    <Absolute>233588</Absolute>
    <NoteOff Channel="1" Note="100" Velocity="64"/>
  </Event>
  <Event>
    <Absolute>233768</Absolute>
    <NoteOn Channel="1" Note="99" Velocity="127"/>
  </Event>
  <Event>
    <Absolute>233825</Absolute>
    <NoteOff Channel="1" Note="99" Velocity="64"/>
  </Event>
  <Event>
    <Absolute>233999</Absolute>
    <NoteOn Channel="1" Note="98" Velocity="127"/>
  </Event>
  <Event>
    <Absolute>234056</Absolute>
    <NoteOff Channel="1" Note="98" Velocity="64"/>
  </Event>
  <Event>
    <Absolute>234115</Absolute>
    <NoteOn Channel="1" Note="98" Velocity="127"/>
  </Event>
  <Event>
    <Absolute>234172</Absolute>
    <NoteOff Channel="1" Note="98" Velocity="64"/>
  </Event>
  <Event>
    <Absolute>234346</Absolute>
    <NoteOn Channel="1" Note="97" Velocity="127"/>
  </Event>
  <Event>
    <Absolute>234403</Absolute>
    <NoteOff Channel="1" Note="97" Velocity="64"/>
  </Event>
  <Event>
    <Absolute>234462</Absolute>
    <NoteOn Channel="1" Note="97" Velocity="127"/>
  </Event>
  <Event>
    <Absolute>234519</Absolute>
    <NoteOff Channel="1" Note="97" Velocity="64"/>
  </Event>
  <Event>
    <Absolute>234693</Absolute>
    <NoteOn Channel="1" Note="96" Velocity="127"/>
  </Event>
  <Event>
    <Absolute>234755</Absolute>
    <NoteOff Channel="1" Note="96" Velocity="64"/>
  </Event>
  <Event>
    <Absolute>234756</Absolute>
    <NoteOn Channel="1" Note="97" Velocity="127"/>
  </Event>
  <Event>
    <Absolute>234818</Absolute>
    <NoteOff Channel="1" Note="97" Velocity="64"/>
  </Event>
  <Event>
    <Absolute>234943</Absolute>
    <NoteOn Channel="1" Note="96" Velocity="127"/>
  </Event>
  <Event>
    <Absolute>235005</Absolute>
    <NoteOff Channel="1" Note="96" Velocity="64"/>
  </Event>
  <Event>
    <Absolute>235192</Absolute>
    <NoteOn Channel="1" Note="99" Velocity="127"/>
  </Event>
  <Event>
    <Absolute>235689</Absolute>
    <NoteOff Channel="1" Note="99" Velocity="64"/>
  </Event>
  <Event>
    <Absolute>235690</Absolute>
    <NoteOn Channel="1" Note="98" Velocity="127"/>
  </Event>
  <Event>
    <Absolute>236169</Absolute>
    <NoteOff Channel="1" Note="98" Velocity="64"/>
  </Event>
  <Event>
    <Absolute>236169</Absolute>
    <NoteOn Channel="1" Note="97" Velocity="127"/>
  </Event>
  <Event>
    <Absolute>236648</Absolute>
    <NoteOff Channel="1" Note="97" Velocity="64"/>
  </Event>
  <Event>
    <Absolute>236648</Absolute>
    <NoteOn Channel="1" Note="96" Velocity="127"/>
  </Event>
  <Event>
    <Absolute>236707</Absolute>
    <NoteOff Channel="1" Note="96" Velocity="64"/>
  </Event>
  <Event>
    <Absolute>236888</Absolute>
    <NoteOn Channel="1" Note="96" Velocity="127"/>
  </Event>
  <Event>
    <Absolute>236947</Absolute>
    <NoteOff Channel="1" Note="96" Velocity="64"/>
  </Event>
  <Event>
    <Absolute>237008</Absolute>
    <NoteOn Channel="1" Note="96" Velocity="127"/>
  </Event>
  <Event>
    <Absolute>237067</Absolute>
    <NoteOff Channel="1" Note="96" Velocity="64"/>
  </Event>
  <Event>
    <Absolute>237128</Absolute>
    <NoteOn Channel="1" Note="97" Velocity="127"/>
  </Event>
  <Event>
    <Absolute>237128</Absolute>
    <NoteOn Channel="1" Note="100" Velocity="127"/>
  </Event>
  <Event>
    <Absolute>237606</Absolute>
    <NoteOff Channel="1" Note="97" Velocity="64"/>
  </Event>
  <Event>
    <Absolute>237606</Absolute>
    <NoteOff Channel="1" Note="100" Velocity="64"/>
  </Event>
  <Event>
    <Absolute>237606</Absolute>
    <NoteOn Channel="1" Note="98" Velocity="127"/>
  </Event>
  <Event>
    <Absolute>237665</Absolute>
    <NoteOff Channel="1" Note="98" Velocity="64"/>
  </Event>
  <Event>
    <Absolute>237726</Absolute>
    <NoteOn Channel="1" Note="98" Velocity="127"/>
  </Event>
  <Event>
    <Absolute>237785</Absolute>
    <NoteOff Channel="1" Note="98" Velocity="64"/>
  </Event>
  <Event>
    <Absolute>237965</Absolute>
    <NoteOn Channel="1" Note="98" Velocity="127"/>
  </Event>
  <Event>
    <Absolute>238024</Absolute>
    <NoteOff Channel="1" Note="98" Velocity="64"/>
  </Event>
  <Event>
    <Absolute>238085</Absolute>
    <NoteOn Channel="1" Note="98" Velocity="127"/>
  </Event>
  <Event>
    <Absolute>238144</Absolute>
    <NoteOff Channel="1" Note="98" Velocity="64"/>
  </Event>
  <Event>
    <Absolute>238205</Absolute>
    <NoteOn Channel="1" Note="98" Velocity="127"/>
  </Event>
  <Event>
    <Absolute>238264</Absolute>
    <NoteOff Channel="1" Note="98" Velocity="64"/>
  </Event>
  <Event>
    <Absolute>238444</Absolute>
    <NoteOn Channel="1" Note="98" Velocity="127"/>
  </Event>
  <Event>
    <Absolute>238503</Absolute>
    <NoteOff Channel="1" Note="98" Velocity="64"/>
  </Event>
  <Event>
    <Absolute>238564</Absolute>
    <NoteOn Channel="1" Note="99" Velocity="127"/>
  </Event>
  <Event>
    <Absolute>238564</Absolute>
    <NoteOn Channel="1" Note="100" Velocity="127"/>
  </Event>
  <Event>
    <Absolute>239042</Absolute>
    <NoteOff Channel="1" Note="99" Velocity="64"/>
  </Event>
  <Event>
    <Absolute>239042</Absolute>
    <NoteOff Channel="1" Note="100" Velocity="64"/>
  </Event>
  <Event>
    <Absolute>239042</Absolute>
    <NoteOn Channel="1" Note="100" Velocity="127"/>
  </Event>
  <Event>
    <Absolute>239106</Absolute>
    <NoteOff Channel="1" Note="100" Velocity="64"/>
  </Event>
  <Event>
    <Absolute>239299</Absolute>
    <NoteOn Channel="1" Note="100" Velocity="127"/>
  </Event>
  <Event>
    <Absolute>239363</Absolute>
    <NoteOff Channel="1" Note="100" Velocity="64"/>
  </Event>
  <Event>
    <Absolute>239557</Absolute>
    <NoteOn Channel="1" Note="99" Velocity="127"/>
  </Event>
  <Event>
    <Absolute>239618</Absolute>
    <NoteOff Channel="1" Note="99" Velocity="64"/>
  </Event>
  <Event>
    <Absolute>239802</Absolute>
    <NoteOn Channel="1" Note="98" Velocity="127"/>
  </Event>
  <Event>
    <Absolute>239863</Absolute>
    <NoteOff Channel="1" Note="98" Velocity="64"/>
  </Event>
  <Event>
    <Absolute>239924</Absolute>
    <NoteOn Channel="1" Note="98" Velocity="127"/>
  </Event>
  <Event>
    <Absolute>239985</Absolute>
    <NoteOff Channel="1" Note="98" Velocity="64"/>
  </Event>
  <Event>
    <Absolute>240169</Absolute>
    <NoteOn Channel="1" Note="97" Velocity="127"/>
  </Event>
  <Event>
    <Absolute>240230</Absolute>
    <NoteOff Channel="1" Note="97" Velocity="64"/>
  </Event>
  <Event>
    <Absolute>240292</Absolute>
    <NoteOn Channel="1" Note="97" Velocity="127"/>
  </Event>
  <Event>
    <Absolute>240353</Absolute>
    <NoteOff Channel="1" Note="97" Velocity="64"/>
  </Event>
  <Event>
    <Absolute>240537</Absolute>
    <NoteOn Channel="1" Note="96" Velocity="127"/>
  </Event>
  <Event>
    <Absolute>240594</Absolute>
    <NoteOff Channel="1" Note="96" Velocity="64"/>
  </Event>
  <Event>
    <Absolute>240595</Absolute>
    <NoteOn Channel="1" Note="97" Velocity="127"/>
  </Event>
  <Event>
    <Absolute>240652</Absolute>
    <NoteOff Channel="1" Note="97" Velocity="64"/>
  </Event>
  <Event>
    <Absolute>240768</Absolute>
    <NoteOn Channel="1" Note="96" Velocity="127"/>
  </Event>
  <Event>
    <Absolute>240825</Absolute>
    <NoteOff Channel="1" Note="96" Velocity="64"/>
  </Event>
  <Event>
    <Absolute>240998</Absolute>
    <NoteOn Channel="1" Note="100" Velocity="127"/>
  </Event>
  <Event>
    <Absolute>241056</Absolute>
    <NoteOff Channel="1" Note="100" Velocity="64"/>
  </Event>
  <Event>
    <Absolute>241233</Absolute>
    <NoteOn Channel="1" Note="100" Velocity="127"/>
  </Event>
  <Event>
    <Absolute>241291</Absolute>
    <NoteOff Channel="1" Note="100" Velocity="64"/>
  </Event>
  <Event>
    <Absolute>241468</Absolute>
    <NoteOn Channel="1" Note="99" Velocity="127"/>
  </Event>
  <Event>
    <Absolute>241526</Absolute>
    <NoteOff Channel="1" Note="99" Velocity="64"/>
  </Event>
  <Event>
    <Absolute>241702</Absolute>
    <NoteOn Channel="1" Note="98" Velocity="127"/>
  </Event>
  <Event>
    <Absolute>241760</Absolute>
    <NoteOff Channel="1" Note="98" Velocity="64"/>
  </Event>
  <Event>
    <Absolute>241820</Absolute>
    <NoteOn Channel="1" Note="98" Velocity="127"/>
  </Event>
  <Event>
    <Absolute>241878</Absolute>
    <NoteOff Channel="1" Note="98" Velocity="64"/>
  </Event>
  <Event>
    <Absolute>242054</Absolute>
    <NoteOn Channel="1" Note="97" Velocity="127"/>
  </Event>
  <Event>
    <Absolute>242112</Absolute>
    <NoteOff Channel="1" Note="97" Velocity="64"/>
  </Event>
  <Event>
    <Absolute>242172</Absolute>
    <NoteOn Channel="1" Note="97" Velocity="127"/>
  </Event>
  <Event>
    <Absolute>242230</Absolute>
    <NoteOff Channel="1" Note="97" Velocity="64"/>
  </Event>
  <Event>
    <Absolute>242407</Absolute>
    <NoteOn Channel="1" Note="96" Velocity="127"/>
  </Event>
  <Event>
    <Absolute>242469</Absolute>
    <NoteOff Channel="1" Note="96" Velocity="64"/>
  </Event>
  <Event>
    <Absolute>242469</Absolute>
    <NoteOn Channel="1" Note="97" Velocity="127"/>
  </Event>
  <Event>
    <Absolute>242531</Absolute>
    <NoteOff Channel="1" Note="97" Velocity="64"/>
  </Event>
  <Event>
    <Absolute>242656</Absolute>
    <NoteOn Channel="1" Note="96" Velocity="127"/>
  </Event>
  <Event>
    <Absolute>242718</Absolute>
    <NoteOff Channel="1" Note="96" Velocity="64"/>
  </Event>
  <Event>
    <Absolute>242905</Absolute>
    <NoteOn Channel="1" Note="96" Velocity="127"/>
  </Event>
  <Event>
    <Absolute>242905</Absolute>
    <NoteOn Channel="1" Note="99" Velocity="127"/>
  </Event>
  <Event>
    <Absolute>243381</Absolute>
    <NoteOff Channel="1" Note="96" Velocity="64"/>
  </Event>
  <Event>
    <Absolute>243381</Absolute>
    <NoteOff Channel="1" Note="99" Velocity="64"/>
  </Event>
  <Event>
    <Absolute>243381</Absolute>
    <NoteOn Channel="1" Note="96" Velocity="127"/>
  </Event>
  <Event>
    <Absolute>243381</Absolute>
    <NoteOn Channel="1" Note="98" Velocity="127"/>
  </Event>
  <Event>
    <Absolute>243857</Absolute>
    <NoteOff Channel="1" Note="96" Velocity="64"/>
  </Event>
  <Event>
    <Absolute>243857</Absolute>
    <NoteOff Channel="1" Note="98" Velocity="64"/>
  </Event>
  <Event>
    <Absolute>243858</Absolute>
    <NoteOn Channel="1" Note="96" Velocity="127"/>
  </Event>
  <Event>
    <Absolute>243858</Absolute>
    <NoteOn Channel="1" Note="97" Velocity="127"/>
  </Event>
  <Event>
    <Absolute>244334</Absolute>
    <NoteOff Channel="1" Note="96" Velocity="64"/>
  </Event>
  <Event>
    <Absolute>244334</Absolute>
    <NoteOff Channel="1" Note="97" Velocity="64"/>
  </Event>
  <Event>
    <Absolute>244334</Absolute>
    <NoteOn Channel="1" Note="96" Velocity="127"/>
  </Event>
  <Event>
    <Absolute>244820</Absolute>
    <NoteOff Channel="1" Note="96" Velocity="64"/>
  </Event>
  <Event>
    <Absolute>244821</Absolute>
    <NoteOn Channel="1" Note="97" Velocity="127"/>
  </Event>
  <Event>
    <Absolute>244821</Absolute>
    <NoteOn Channel="1" Note="100" Velocity="127"/>
  </Event>
  <Event>
    <Absolute>245303</Absolute>
    <NoteOff Channel="1" Note="97" Velocity="64"/>
  </Event>
  <Event>
    <Absolute>245303</Absolute>
    <NoteOff Channel="1" Note="100" Velocity="64"/>
  </Event>
  <Event>
    <Absolute>245304</Absolute>
    <NoteOn Channel="1" Note="97" Velocity="127"/>
  </Event>
  <Event>
    <Absolute>245304</Absolute>
    <NoteOn Channel="1" Note="99" Velocity="127"/>
  </Event>
  <Event>
    <Absolute>245769</Absolute>
    <NoteOff Channel="1" Note="97" Velocity="64"/>
  </Event>
  <Event>
    <Absolute>245769</Absolute>
    <NoteOff Channel="1" Note="99" Velocity="64"/>
  </Event>
  <Event>
    <Absolute>245769</Absolute>
    <NoteOn Channel="1" Note="97" Velocity="127"/>
  </Event>
  <Event>
    <Absolute>245769</Absolute>
    <NoteOn Channel="1" Note="98" Velocity="127"/>
  </Event>
  <Event>
    <Absolute>246234</Absolute>
    <NoteOff Channel="1" Note="97" Velocity="64"/>
  </Event>
  <Event>
    <Absolute>246234</Absolute>
    <NoteOff Channel="1" Note="98" Velocity="64"/>
  </Event>
  <Event>
    <Absolute>246234</Absolute>
    <NoteOn Channel="1" Note="97" Velocity="127"/>
  </Event>
  <Event>
    <Absolute>246720</Absolute>
    <NoteOff Channel="1" Note="97" Velocity="64"/>
  </Event>
  <Event>
    <Absolute>246721</Absolute>
    <NoteOn Channel="1" Note="100" Velocity="127"/>
  </Event>
  <Event>
    <Absolute>246782</Absolute>
    <NoteOff Channel="1" Note="100" Velocity="64"/>
  </Event>
  <Event>
    <Absolute>246966</Absolute>
    <NoteOn Channel="1" Note="100" Velocity="127"/>
  </Event>
  <Event>
    <Absolute>247027</Absolute>
    <NoteOff Channel="1" Note="100" Velocity="64"/>
  </Event>
  <Event>
    <Absolute>247211</Absolute>
    <NoteOn Channel="1" Note="99" Velocity="127"/>
  </Event>
  <Event>
    <Absolute>247272</Absolute>
    <NoteOff Channel="1" Note="99" Velocity="64"/>
  </Event>
  <Event>
    <Absolute>247455</Absolute>
    <NoteOn Channel="1" Note="98" Velocity="127"/>
  </Event>
  <Event>
    <Absolute>247516</Absolute>
    <NoteOff Channel="1" Note="98" Velocity="64"/>
  </Event>
  <Event>
    <Absolute>247578</Absolute>
    <NoteOn Channel="1" Note="98" Velocity="127"/>
  </Event>
  <Event>
    <Absolute>247639</Absolute>
    <NoteOff Channel="1" Note="98" Velocity="64"/>
  </Event>
  <Event>
    <Absolute>247823</Absolute>
    <NoteOn Channel="1" Note="97" Velocity="127"/>
  </Event>
  <Event>
    <Absolute>247884</Absolute>
    <NoteOff Channel="1" Note="97" Velocity="64"/>
  </Event>
  <Event>
    <Absolute>247945</Absolute>
    <NoteOn Channel="1" Note="97" Velocity="127"/>
  </Event>
  <Event>
    <Absolute>248006</Absolute>
    <NoteOff Channel="1" Note="97" Velocity="64"/>
  </Event>
  <Event>
    <Absolute>248190</Absolute>
    <NoteOn Channel="1" Note="96" Velocity="127"/>
  </Event>
  <Event>
    <Absolute>248248</Absolute>
    <NoteOff Channel="1" Note="96" Velocity="64"/>
  </Event>
  <Event>
    <Absolute>248248</Absolute>
    <NoteOn Channel="1" Note="97" Velocity="127"/>
  </Event>
  <Event>
    <Absolute>248306</Absolute>
    <NoteOff Channel="1" Note="97" Velocity="64"/>
  </Event>
  <Event>
    <Absolute>248425</Absolute>
    <NoteOn Channel="1" Note="96" Velocity="127"/>
  </Event>
  <Event>
    <Absolute>248483</Absolute>
    <NoteOff Channel="1" Note="96" Velocity="64"/>
  </Event>
  <Event>
    <Absolute>248659</Absolute>
    <NoteOn Channel="1" Note="100" Velocity="127"/>
  </Event>
  <Event>
    <Absolute>248717</Absolute>
    <NoteOff Channel="1" Note="100" Velocity="64"/>
  </Event>
  <Event>
    <Absolute>248894</Absolute>
    <NoteOn Channel="1" Note="100" Velocity="127"/>
  </Event>
  <Event>
    <Absolute>248952</Absolute>
    <NoteOff Channel="1" Note="100" Velocity="64"/>
  </Event>
  <Event>
    <Absolute>249129</Absolute>
    <NoteOn Channel="1" Note="99" Velocity="127"/>
  </Event>
  <Event>
    <Absolute>249187</Absolute>
    <NoteOff Channel="1" Note="99" Velocity="64"/>
  </Event>
  <Event>
    <Absolute>249364</Absolute>
    <NoteOn Channel="1" Note="98" Velocity="127"/>
  </Event>
  <Event>
    <Absolute>249422</Absolute>
    <NoteOff Channel="1" Note="98" Velocity="64"/>
  </Event>
  <Event>
    <Absolute>249481</Absolute>
    <NoteOn Channel="1" Note="98" Velocity="127"/>
  </Event>
  <Event>
    <Absolute>249539</Absolute>
    <NoteOff Channel="1" Note="98" Velocity="64"/>
  </Event>
  <Event>
    <Absolute>249716</Absolute>
    <NoteOn Channel="1" Note="97" Velocity="127"/>
  </Event>
  <Event>
    <Absolute>249774</Absolute>
    <NoteOff Channel="1" Note="97" Velocity="64"/>
  </Event>
  <Event>
    <Absolute>249833</Absolute>
    <NoteOn Channel="1" Note="97" Velocity="127"/>
  </Event>
  <Event>
    <Absolute>249891</Absolute>
    <NoteOff Channel="1" Note="97" Velocity="64"/>
  </Event>
  <Event>
    <Absolute>250068</Absolute>
    <NoteOn Channel="1" Note="96" Velocity="127"/>
  </Event>
  <Event>
    <Absolute>250129</Absolute>
    <NoteOff Channel="1" Note="96" Velocity="64"/>
  </Event>
  <Event>
    <Absolute>250129</Absolute>
    <NoteOn Channel="1" Note="97" Velocity="127"/>
  </Event>
  <Event>
    <Absolute>250190</Absolute>
    <NoteOff Channel="1" Note="97" Velocity="64"/>
  </Event>
  <Event>
    <Absolute>250313</Absolute>
    <NoteOn Channel="1" Note="96" Velocity="127"/>
  </Event>
  <Event>
    <Absolute>250374</Absolute>
    <NoteOff Channel="1" Note="96" Velocity="64"/>
  </Event>
  <Event>
    <Absolute>250558</Absolute>
    <NoteOn Channel="1" Note="96" Velocity="127"/>
  </Event>
  <Event>
    <Absolute>250558</Absolute>
    <NoteOn Channel="1" Note="99" Velocity="127"/>
  </Event>
  <Event>
    <Absolute>251048</Absolute>
    <NoteOff Channel="1" Note="96" Velocity="64"/>
  </Event>
  <Event>
    <Absolute>251048</Absolute>
    <NoteOff Channel="1" Note="99" Velocity="64"/>
  </Event>
  <Event>
    <Absolute>251048</Absolute>
    <NoteOn Channel="1" Note="96" Velocity="127"/>
  </Event>
  <Event>
    <Absolute>251048</Absolute>
    <NoteOn Channel="1" Note="98" Velocity="127"/>
  </Event>
  <Event>
    <Absolute>251522</Absolute>
    <NoteOff Channel="1" Note="96" Velocity="64"/>
  </Event>
  <Event>
    <Absolute>251522</Absolute>
    <NoteOff Channel="1" Note="98" Velocity="64"/>
  </Event>
  <Event>
    <Absolute>251522</Absolute>
    <NoteOn Channel="1" Note="96" Velocity="127"/>
  </Event>
  <Event>
    <Absolute>251522</Absolute>
    <NoteOn Channel="1" Note="97" Velocity="127"/>
  </Event>
  <Event>
    <Absolute>251996</Absolute>
    <NoteOff Channel="1" Note="96" Velocity="64"/>
  </Event>
  <Event>
    <Absolute>251996</Absolute>
    <NoteOff Channel="1" Note="97" Velocity="64"/>
  </Event>
  <Event>
    <Absolute>251996</Absolute>
    <NoteOn Channel="1" Note="96" Velocity="127"/>
  </Event>
  <Event>
    <Absolute>251996</Absolute>
    <NoteOn Channel="1" Note="98" Velocity="127"/>
  </Event>
  <Event>
    <Absolute>252055</Absolute>
    <NoteOff Channel="1" Note="96" Velocity="64"/>
  </Event>
  <Event>
    <Absolute>252055</Absolute>
    <NoteOff Channel="1" Note="98" Velocity="64"/>
  </Event>
  <Event>
    <Absolute>252233</Absolute>
    <NoteOn Channel="1" Note="96" Velocity="127"/>
  </Event>
  <Event>
    <Absolute>252292</Absolute>
    <NoteOff Channel="1" Note="96" Velocity="64"/>
  </Event>
  <Event>
    <Absolute>252352</Absolute>
    <NoteOn Channel="1" Note="96" Velocity="127"/>
  </Event>
  <Event>
    <Absolute>252411</Absolute>
    <NoteOff Channel="1" Note="96" Velocity="64"/>
  </Event>
  <Event>
    <Absolute>252470</Absolute>
    <NoteOn Channel="1" Note="97" Velocity="127"/>
  </Event>
  <Event>
    <Absolute>252470</Absolute>
    <NoteOn Channel="1" Note="100" Velocity="127"/>
  </Event>
  <Event>
    <Absolute>252944</Absolute>
    <NoteOff Channel="1" Note="97" Velocity="64"/>
  </Event>
  <Event>
    <Absolute>252944</Absolute>
    <NoteOff Channel="1" Note="100" Velocity="64"/>
  </Event>
  <Event>
    <Absolute>252944</Absolute>
    <NoteOn Channel="1" Note="97" Velocity="127"/>
  </Event>
  <Event>
    <Absolute>252944</Absolute>
    <NoteOn Channel="1" Note="99" Velocity="127"/>
  </Event>
  <Event>
    <Absolute>253419</Absolute>
    <NoteOff Channel="1" Note="97" Velocity="64"/>
  </Event>
  <Event>
    <Absolute>253419</Absolute>
    <NoteOff Channel="1" Note="99" Velocity="64"/>
  </Event>
  <Event>
    <Absolute>253420</Absolute>
    <NoteOn Channel="1" Note="97" Velocity="127"/>
  </Event>
  <Event>
    <Absolute>253420</Absolute>
    <NoteOn Channel="1" Note="98" Velocity="127"/>
  </Event>
  <Event>
    <Absolute>253420</Absolute>
    <NoteOn Channel="1" Note="99" Velocity="127"/>
  </Event>
  <Event>
    <Absolute>253895</Absolute>
    <NoteOff Channel="1" Note="97" Velocity="64"/>
  </Event>
  <Event>
    <Absolute>253895</Absolute>
    <NoteOff Channel="1" Note="98" Velocity="64"/>
  </Event>
  <Event>
    <Absolute>253895</Absolute>
    <NoteOff Channel="1" Note="99" Velocity="64"/>
  </Event>
  <Event>
    <Absolute>253896</Absolute>
    <NoteOn Channel="1" Note="97" Velocity="127"/>
  </Event>
  <Event>
    <Absolute>253896</Absolute>
    <NoteOn Channel="1" Note="98" Velocity="127"/>
  </Event>
  <Event>
    <Absolute>254371</Absolute>
    <NoteOff Channel="1" Note="97" Velocity="64"/>
  </Event>
  <Event>
    <Absolute>254371</Absolute>
    <NoteOff Channel="1" Note="98" Velocity="64"/>
  </Event>
  <Event>
    <Absolute>254372</Absolute>
    <NoteOn Channel="1" Note="99" Velocity="127"/>
  </Event>
  <Event>
    <Absolute>254372</Absolute>
    <NoteOn Channel="1" Note="100" Velocity="127"/>
  </Event>
  <Event>
    <Absolute>254434</Absolute>
    <NoteOff Channel="1" Note="99" Velocity="64"/>
  </Event>
  <Event>
    <Absolute>254434</Absolute>
    <NoteOff Channel="1" Note="100" Velocity="64"/>
  </Event>
  <Event>
    <Absolute>254749</Absolute>
    <NoteOn Channel="1" Note="98" Velocity="127"/>
  </Event>
  <Event>
    <Absolute>254749</Absolute>
    <NoteOn Channel="1" Note="100" Velocity="127"/>
  </Event>
  <Event>
    <Absolute>254811</Absolute>
    <NoteOff Channel="1" Note="98" Velocity="64"/>
  </Event>
  <Event>
    <Absolute>254811</Absolute>
    <NoteOff Channel="1" Note="100" Velocity="64"/>
  </Event>
  <Event>
    <Absolute>255127</Absolute>
    <NoteOn Channel="1" Note="97" Velocity="127"/>
  </Event>
  <Event>
    <Absolute>255127</Absolute>
    <NoteOn Channel="1" Note="99" Velocity="127"/>
  </Event>
  <Event>
    <Absolute>255189</Absolute>
    <NoteOff Channel="1" Note="97" Velocity="64"/>
  </Event>
  <Event>
    <Absolute>255189</Absolute>
    <NoteOff Channel="1" Note="99" Velocity="64"/>
  </Event>
  <Event>
    <Absolute>255505</Absolute>
    <NoteOn Channel="1" Note="96" Velocity="127"/>
  </Event>
  <Event>
    <Absolute>255505</Absolute>
    <NoteOn Channel="1" Note="99" Velocity="127"/>
  </Event>
  <Event>
    <Absolute>255567</Absolute>
    <NoteOff Channel="1" Note="96" Velocity="64"/>
  </Event>
  <Event>
    <Absolute>255567</Absolute>
    <NoteOff Channel="1" Note="99" Velocity="64"/>
  </Event>
  <Event>
    <Absolute>255883</Absolute>
    <NoteOn Channel="1" Note="96" Velocity="127"/>
  </Event>
  <Event>
    <Absolute>255883</Absolute>
    <NoteOn Channel="1" Note="98" Velocity="127"/>
  </Event>
  <Event>
    <Absolute>255947</Absolute>
    <NoteOff Channel="1" Note="96" Velocity="64"/>
  </Event>
  <Event>
    <Absolute>255947</Absolute>
    <NoteOff Channel="1" Note="98" Velocity="64"/>
  </Event>
  <Event>
    <Absolute>256140</Absolute>
    <NoteOn Channel="1" Note="96" Velocity="127"/>
  </Event>
  <Event>
    <Absolute>256140</Absolute>
    <NoteOn Channel="1" Note="97" Velocity="127"/>
  </Event>
  <Event>
    <Absolute>256204</Absolute>
    <NoteOff Channel="1" Note="96" Velocity="64"/>
  </Event>
  <Event>
    <Absolute>256204</Absolute>
    <NoteOff Channel="1" Note="97" Velocity="64"/>
  </Event>
  <Event>
    <Absolute>256398</Absolute>
    <NoteOn Channel="1" Note="96" Velocity="127"/>
  </Event>
  <Event>
    <Absolute>256398</Absolute>
    <NoteOn Channel="1" Note="99" Velocity="127"/>
  </Event>
  <Event>
    <Absolute>256465</Absolute>
    <NoteOff Channel="1" Note="96" Velocity="64"/>
  </Event>
  <Event>
    <Absolute>256465</Absolute>
    <NoteOff Channel="1" Note="99" Velocity="64"/>
  </Event>
  <Event>
    <Absolute>256801</Absolute>
    <NoteOn Channel="1" Note="96" Velocity="127"/>
  </Event>
  <Event>
    <Absolute>256801</Absolute>
    <NoteOn Channel="1" Note="98" Velocity="127"/>
  </Event>
  <Event>
    <Absolute>256868</Absolute>
    <NoteOff Channel="1" Note="96" Velocity="64"/>
  </Event>
  <Event>
    <Absolute>256868</Absolute>
    <NoteOff Channel="1" Note="98" Velocity="64"/>
  </Event>
  <Event>
    <Absolute>257220</Absolute>
    <NoteOn Channel="1" Note="96" Velocity="127"/>
  </Event>
  <Event>
    <Absolute>257220</Absolute>
    <NoteOn Channel="1" Note="97" Velocity="127"/>
  </Event>
  <Event>
    <Absolute>257290</Absolute>
    <NoteOff Channel="1" Note="96" Velocity="64"/>
  </Event>
  <Event>
    <Absolute>257290</Absolute>
    <NoteOff Channel="1" Note="97" Velocity="64"/>
  </Event>
  <Event>
    <Absolute>258071</Absolute>
    <NoteOn Channel="1" Note="96" Velocity="127"/>
  </Event>
  <Event>
    <Absolute>258071</Absolute>
    <NoteOn Channel="1" Note="98" Velocity="127"/>
  </Event>
  <Event>
    <Absolute>258071</Absolute>
    <NoteOn Channel="1" Note="99" Velocity="127"/>
  </Event>
  <Event>
    <Absolute>267720</Absolute>
    <NoteOff Channel="1" Note="96" Velocity="64"/>
  </Event>
  <Event>
    <Absolute>267720</Absolute>
    <NoteOff Channel="1" Note="98" Velocity="64"/>
  </Event>
  <Event>
    <Absolute>267720</Absolute>
    <NoteOff Channel="1" Note="99" Velocity="64"/>
  </Event>
  <Event>
    <Absolute>267720</Absolute>
    <EndOfTrack/>
  </Event>
</Track>
<Track Number="2">
  <Event>
    <Absolute>0</Absolute>
    <TrackName>PART BASS</TrackName>
  </Event>
  <Event>
    <Absolute>7478</Absolute>
    <NoteOn Channel="1" Note="100" Velocity="64"/>
  </Event>
  <Event>
    <Absolute>9842</Absolute>
    <NoteOff Channel="1" Note="100" Velocity="64"/>
  </Event>
  <Event>
    <Absolute>9843</Absolute>
    <NoteOn Channel="1" Note="99" Velocity="64"/>
  </Event>
  <Event>
    <Absolute>11904</Absolute>
    <NoteOff Channel="1" Note="99" Velocity="64"/>
  </Event>
  <Event>
    <Absolute>11905</Absolute>
    <NoteOn Channel="1" Note="98" Velocity="64"/>
  </Event>
  <Event>
    <Absolute>12199</Absolute>
    <NoteOff Channel="1" Note="98" Velocity="64"/>
  </Event>
  <Event>
    <Absolute>12199</Absolute>
    <NoteOn Channel="1" Note="96" Velocity="64"/>
  </Event>
  <Event>
    <Absolute>14093</Absolute>
    <NoteOff Channel="1" Note="96" Velocity="64"/>
  </Event>
  <Event>
    <Absolute>14239</Absolute>
    <NoteOn Channel="1" Note="97" Velocity="64"/>
  </Event>
  <Event>
    <Absolute>14311</Absolute>
    <NoteOff Channel="1" Note="97" Velocity="64"/>
  </Event>
  <Event>
    <Absolute>14385</Absolute>
    <NoteOn Channel="1" Note="98" Velocity="64"/>
  </Event>
  <Event>
    <Absolute>14457</Absolute>
    <NoteOff Channel="1" Note="98" Velocity="64"/>
  </Event>
  <Event>
    <Absolute>14531</Absolute>
    <NoteOn Channel="1" Note="99" Velocity="64"/>
  </Event>
  <Event>
    <Absolute>16618</Absolute>
    <NoteOff Channel="1" Note="99" Velocity="64"/>
  </Event>
  <Event>
    <Absolute>16618</Absolute>
    <NoteOn Channel="1" Note="98" Velocity="64"/>
  </Event>
  <Event>
    <Absolute>16692</Absolute>
    <NoteOff Channel="1" Note="98" Velocity="64"/>
  </Event>
  <Event>
    <Absolute>16767</Absolute>
    <NoteOn Channel="1" Note="99" Velocity="64"/>
  </Event>
  <Event>
    <Absolute>16841</Absolute>
    <NoteOff Channel="1" Note="99" Velocity="64"/>
  </Event>
  <Event>
    <Absolute>16916</Absolute>
    <NoteOn Channel="1" Note="100" Velocity="64"/>
  </Event>
  <Event>
    <Absolute>16990</Absolute>
    <NoteOff Channel="1" Note="100" Velocity="64"/>
  </Event>
  <Event>
    <Absolute>17064</Absolute>
    <NoteOn Channel="1" Note="100" Velocity="64"/>
  </Event>
  <Event>
    <Absolute>17138</Absolute>
    <NoteOff Channel="1" Note="100" Velocity="64"/>
  </Event>
  <Event>
    <Absolute>17212</Absolute>
    <NoteOn Channel="1" Note="100" Velocity="64"/>
  </Event>
  <Event>
    <Absolute>17286</Absolute>
    <NoteOff Channel="1" Note="100" Velocity="64"/>
  </Event>
  <Event>
    <Absolute>17360</Absolute>
    <NoteOn Channel="1" Note="100" Velocity="64"/>
  </Event>
  <Event>
    <Absolute>17434</Absolute>
    <NoteOff Channel="1" Note="100" Velocity="64"/>
  </Event>
  <Event>
    <Absolute>17508</Absolute>
    <NoteOn Channel="1" Note="100" Velocity="64"/>
  </Event>
  <Event>
    <Absolute>17582</Absolute>
    <NoteOff Channel="1" Note="100" Velocity="64"/>
  </Event>
  <Event>
    <Absolute>17656</Absolute>
    <NoteOn Channel="1" Note="100" Velocity="64"/>
  </Event>
  <Event>
    <Absolute>17730</Absolute>
    <NoteOff Channel="1" Note="100" Velocity="64"/>
  </Event>
  <Event>
    <Absolute>17805</Absolute>
    <NoteOn Channel="1" Note="100" Velocity="64"/>
  </Event>
  <Event>
    <Absolute>17879</Absolute>
    <NoteOff Channel="1" Note="100" Velocity="64"/>
  </Event>
  <Event>
    <Absolute>17953</Absolute>
    <NoteOn Channel="1" Note="100" Velocity="64"/>
  </Event>
  <Event>
    <Absolute>18027</Absolute>
    <NoteOff Channel="1" Note="100" Velocity="64"/>
  </Event>
  <Event>
    <Absolute>18101</Absolute>
    <NoteOn Channel="1" Note="100" Velocity="64"/>
  </Event>
  <Event>
    <Absolute>18175</Absolute>
    <NoteOff Channel="1" Note="100" Velocity="64"/>
  </Event>
  <Event>
    <Absolute>18249</Absolute>
    <NoteOn Channel="1" Note="100" Velocity="64"/>
  </Event>
  <Event>
    <Absolute>18323</Absolute>
    <NoteOff Channel="1" Note="100" Velocity="64"/>
  </Event>
  <Event>
    <Absolute>18397</Absolute>
    <NoteOn Channel="1" Note="100" Velocity="64"/>
  </Event>
  <Event>
    <Absolute>18471</Absolute>
    <NoteOff Channel="1" Note="100" Velocity="64"/>
  </Event>
  <Event>
    <Absolute>18545</Absolute>
    <NoteOn Channel="1" Note="100" Velocity="64"/>
  </Event>
  <Event>
    <Absolute>18619</Absolute>
    <NoteOff Channel="1" Note="100" Velocity="64"/>
  </Event>
  <Event>
    <Absolute>18693</Absolute>
    <NoteOn Channel="1" Note="100" Velocity="64"/>
  </Event>
  <Event>
    <Absolute>18767</Absolute>
    <NoteOff Channel="1" Note="100" Velocity="64"/>
  </Event>
  <Event>
    <Absolute>18841</Absolute>
    <NoteOn Channel="1" Note="100" Velocity="64"/>
  </Event>
  <Event>
    <Absolute>18915</Absolute>
    <NoteOff Channel="1" Note="100" Velocity="64"/>
  </Event>
  <Event>
    <Absolute>18989</Absolute>
    <NoteOn Channel="1" Note="100" Velocity="64"/>
  </Event>
  <Event>
    <Absolute>19063</Absolute>
    <NoteOff Channel="1" Note="100" Velocity="64"/>
  </Event>
  <Event>
    <Absolute>19138</Absolute>
    <NoteOn Channel="1" Note="100" Velocity="64"/>
  </Event>
  <Event>
    <Absolute>19212</Absolute>
    <NoteOff Channel="1" Note="100" Velocity="64"/>
  </Event>
  <Event>
    <Absolute>19286</Absolute>
    <NoteOn Channel="1" Note="99" Velocity="64"/>
  </Event>
  <Event>
    <Absolute>19360</Absolute>
    <NoteOff Channel="1" Note="99" Velocity="64"/>
  </Event>
  <Event>
    <Absolute>19435</Absolute>
    <NoteOn Channel="1" Note="99" Velocity="64"/>
  </Event>
  <Event>
    <Absolute>19509</Absolute>
    <NoteOff Channel="1" Note="99" Velocity="64"/>
  </Event>
  <Event>
    <Absolute>19583</Absolute>
    <NoteOn Channel="1" Note="99" Velocity="64"/>
  </Event>
  <Event>
    <Absolute>19657</Absolute>
    <NoteOff Channel="1" Note="99" Velocity="64"/>
  </Event>
  <Event>
    <Absolute>19732</Absolute>
    <NoteOn Channel="1" Note="99" Velocity="64"/>
  </Event>
  <Event>
    <Absolute>19806</Absolute>
    <NoteOff Channel="1" Note="99" Velocity="64"/>
  </Event>
  <Event>
    <Absolute>19881</Absolute>
    <NoteOn Channel="1" Note="99" Velocity="64"/>
  </Event>
  <Event>
    <Absolute>19955</Absolute>
    <NoteOff Channel="1" Note="99" Velocity="64"/>
  </Event>
  <Event>
    <Absolute>20030</Absolute>
    <NoteOn Channel="1" Note="99" Velocity="64"/>
  </Event>
  <Event>
    <Absolute>20104</Absolute>
    <NoteOff Channel="1" Note="99" Velocity="64"/>
  </Event>
  <Event>
    <Absolute>20179</Absolute>
    <NoteOn Channel="1" Note="99" Velocity="64"/>
  </Event>
  <Event>
    <Absolute>20253</Absolute>
    <NoteOff Channel="1" Note="99" Velocity="64"/>
  </Event>
  <Event>
    <Absolute>20327</Absolute>
    <NoteOn Channel="1" Note="99" Velocity="64"/>
  </Event>
  <Event>
    <Absolute>20401</Absolute>
    <NoteOff Channel="1" Note="99" Velocity="64"/>
  </Event>
  <Event>
    <Absolute>20476</Absolute>
    <NoteOn Channel="1" Note="99" Velocity="64"/>
  </Event>
  <Event>
    <Absolute>20550</Absolute>
    <NoteOff Channel="1" Note="99" Velocity="64"/>
  </Event>
  <Event>
    <Absolute>20625</Absolute>
    <NoteOn Channel="1" Note="99" Velocity="64"/>
  </Event>
  <Event>
    <Absolute>20699</Absolute>
    <NoteOff Channel="1" Note="99" Velocity="64"/>
  </Event>
  <Event>
    <Absolute>20774</Absolute>
    <NoteOn Channel="1" Note="99" Velocity="64"/>
  </Event>
  <Event>
    <Absolute>20848</Absolute>
    <NoteOff Channel="1" Note="99" Velocity="64"/>
  </Event>
  <Event>
    <Absolute>20923</Absolute>
    <NoteOn Channel="1" Note="99" Velocity="64"/>
  </Event>
  <Event>
    <Absolute>20997</Absolute>
    <NoteOff Channel="1" Note="99" Velocity="64"/>
  </Event>
  <Event>
    <Absolute>21071</Absolute>
    <NoteOn Channel="1" Note="99" Velocity="64"/>
  </Event>
  <Event>
    <Absolute>21145</Absolute>
    <NoteOff Channel="1" Note="99" Velocity="64"/>
  </Event>
  <Event>
    <Absolute>21220</Absolute>
    <NoteOn Channel="1" Note="99" Velocity="64"/>
  </Event>
  <Event>
    <Absolute>21294</Absolute>
    <NoteOff Channel="1" Note="99" Velocity="64"/>
  </Event>
  <Event>
    <Absolute>21369</Absolute>
    <NoteOn Channel="1" Note="99" Velocity="64"/>
  </Event>
  <Event>
    <Absolute>21443</Absolute>
    <NoteOff Channel="1" Note="99" Velocity="64"/>
  </Event>
  <Event>
    <Absolute>21518</Absolute>
    <NoteOn Channel="1" Note="98" Velocity="64"/>
  </Event>
  <Event>
    <Absolute>21592</Absolute>
    <NoteOff Channel="1" Note="98" Velocity="64"/>
  </Event>
  <Event>
    <Absolute>21667</Absolute>
    <NoteOn Channel="1" Note="97" Velocity="64"/>
  </Event>
  <Event>
    <Absolute>21741</Absolute>
    <NoteOff Channel="1" Note="97" Velocity="64"/>
  </Event>
  <Event>
    <Absolute>21966</Absolute>
    <NoteOn Channel="1" Note="97" Velocity="64"/>
  </Event>
  <Event>
    <Absolute>22040</Absolute>
    <NoteOff Channel="1" Note="97" Velocity="64"/>
  </Event>
  <Event>
    <Absolute>22115</Absolute>
    <NoteOn Channel="1" Note="97" Velocity="64"/>
  </Event>
  <Event>
    <Absolute>22189</Absolute>
    <NoteOff Channel="1" Note="97" Velocity="64"/>
  </Event>
  <Event>
    <Absolute>22265</Absolute>
    <NoteOn Channel="1" Note="97" Velocity="64"/>
  </Event>
  <Event>
    <Absolute>22339</Absolute>
    <NoteOff Channel="1" Note="97" Velocity="64"/>
  </Event>
  <Event>
    <Absolute>22415</Absolute>
    <NoteOn Channel="1" Note="97" Velocity="64"/>
  </Event>
  <Event>
    <Absolute>22489</Absolute>
    <NoteOff Channel="1" Note="97" Velocity="64"/>
  </Event>
  <Event>
    <Absolute>22564</Absolute>
    <NoteOn Channel="1" Note="97" Velocity="64"/>
  </Event>
  <Event>
    <Absolute>22638</Absolute>
    <NoteOff Channel="1" Note="97" Velocity="64"/>
  </Event>
  <Event>
    <Absolute>22714</Absolute>
    <NoteOn Channel="1" Note="97" Velocity="64"/>
  </Event>
  <Event>
    <Absolute>22788</Absolute>
    <NoteOff Channel="1" Note="97" Velocity="64"/>
  </Event>
  <Event>
    <Absolute>22864</Absolute>
    <NoteOn Channel="1" Note="97" Velocity="64"/>
  </Event>
  <Event>
    <Absolute>22938</Absolute>
    <NoteOff Channel="1" Note="97" Velocity="64"/>
  </Event>
  <Event>
    <Absolute>23013</Absolute>
    <NoteOn Channel="1" Note="97" Velocity="64"/>
  </Event>
  <Event>
    <Absolute>23087</Absolute>
    <NoteOff Channel="1" Note="97" Velocity="64"/>
  </Event>
  <Event>
    <Absolute>23163</Absolute>
    <NoteOn Channel="1" Note="97" Velocity="64"/>
  </Event>
  <Event>
    <Absolute>23237</Absolute>
    <NoteOff Channel="1" Note="97" Velocity="64"/>
  </Event>
  <Event>
    <Absolute>23312</Absolute>
    <NoteOn Channel="1" Note="97" Velocity="64"/>
  </Event>
  <Event>
    <Absolute>23386</Absolute>
    <NoteOff Channel="1" Note="97" Velocity="64"/>
  </Event>
  <Event>
    <Absolute>23462</Absolute>
    <NoteOn Channel="1" Note="97" Velocity="64"/>
  </Event>
  <Event>
    <Absolute>23536</Absolute>
    <NoteOff Channel="1" Note="97" Velocity="64"/>
  </Event>
  <Event>
    <Absolute>23612</Absolute>
    <NoteOn Channel="1" Note="97" Velocity="64"/>
  </Event>
  <Event>
    <Absolute>23686</Absolute>
    <NoteOff Channel="1" Note="97" Velocity="64"/>
  </Event>
  <Event>
    <Absolute>23761</Absolute>
    <NoteOn Channel="1" Note="97" Velocity="64"/>
  </Event>
  <Event>
    <Absolute>23835</Absolute>
    <NoteOff Channel="1" Note="97" Velocity="64"/>
  </Event>
  <Event>
    <Absolute>23911</Absolute>
    <NoteOn Channel="1" Note="96" Velocity="64"/>
  </Event>
  <Event>
    <Absolute>23985</Absolute>
    <NoteOff Channel="1" Note="96" Velocity="64"/>
  </Event>
  <Event>
    <Absolute>24060</Absolute>
    <NoteOn Channel="1" Note="98" Velocity="64"/>
  </Event>
  <Event>
    <Absolute>25190</Absolute>
    <NoteOff Channel="1" Note="98" Velocity="64"/>
  </Event>
  <Event>
    <Absolute>25191</Absolute>
    <NoteOn Channel="1" Note="96" Velocity="64"/>
  </Event>
  <Event>
    <Absolute>26298</Absolute>
    <NoteOff Channel="1" Note="96" Velocity="64"/>
  </Event>
  <Event>
    <Absolute>26299</Absolute>
    <NoteOn Channel="1" Note="97" Velocity="64"/>
  </Event>
  <Event>
    <Absolute>26365</Absolute>
    <NoteOff Channel="1" Note="97" Velocity="64"/>
  </Event>
  <Event>
    <Absolute>26566</Absolute>
    <NoteOn Channel="1" Note="97" Velocity="64"/>
  </Event>
  <Event>
    <Absolute>26632</Absolute>
    <NoteOff Channel="1" Note="97" Velocity="64"/>
  </Event>
  <Event>
    <Absolute>26833</Absolute>
    <NoteOn Channel="1" Note="97" Velocity="64"/>
  </Event>
  <Event>
    <Absolute>26899</Absolute>
    <NoteOff Channel="1" Note="97" Velocity="64"/>
  </Event>
  <Event>
    <Absolute>27098</Absolute>
    <NoteOn Channel="1" Note="97" Velocity="64"/>
  </Event>
  <Event>
    <Absolute>27164</Absolute>
    <NoteOff Channel="1" Note="97" Velocity="64"/>
  </Event>
  <Event>
    <Absolute>27363</Absolute>
    <NoteOn Channel="1" Note="97" Velocity="64"/>
  </Event>
  <Event>
    <Absolute>27428</Absolute>
    <NoteOff Channel="1" Note="97" Velocity="64"/>
  </Event>
  <Event>
    <Absolute>27626</Absolute>
    <NoteOn Channel="1" Note="97" Velocity="64"/>
  </Event>
  <Event>
    <Absolute>27691</Absolute>
    <NoteOff Channel="1" Note="97" Velocity="64"/>
  </Event>
  <Event>
    <Absolute>27889</Absolute>
    <NoteOn Channel="1" Note="97" Velocity="64"/>
  </Event>
  <Event>
    <Absolute>27954</Absolute>
    <NoteOff Channel="1" Note="97" Velocity="64"/>
  </Event>
  <Event>
    <Absolute>28149</Absolute>
    <NoteOn Channel="1" Note="97" Velocity="64"/>
  </Event>
  <Event>
    <Absolute>28214</Absolute>
    <NoteOff Channel="1" Note="97" Velocity="64"/>
  </Event>
  <Event>
    <Absolute>28409</Absolute>
    <NoteOn Channel="1" Note="97" Velocity="64"/>
  </Event>
  <Event>
    <Absolute>28472</Absolute>
    <NoteOff Channel="1" Note="97" Velocity="64"/>
  </Event>
  <Event>
    <Absolute>28665</Absolute>
    <NoteOn Channel="1" Note="99" Velocity="64"/>
  </Event>
  <Event>
    <Absolute>28920</Absolute>
    <NoteOff Channel="1" Note="99" Velocity="64"/>
  </Event>
  <Event>
    <Absolute>28921</Absolute>
    <NoteOn Channel="1" Note="98" Velocity="64"/>
  </Event>
  <Event>
    <Absolute>28982</Absolute>
    <NoteOff Channel="1" Note="98" Velocity="64"/>
  </Event>
  <Event>
    <Absolute>29166</Absolute>
    <NoteOn Channel="1" Note="99" Velocity="64"/>
  </Event>
  <Event>
    <Absolute>29227</Absolute>
    <NoteOff Channel="1" Note="99" Velocity="64"/>
  </Event>
  <Event>
    <Absolute>29411</Absolute>
    <NoteOn Channel="1" Note="100" Velocity="64"/>
  </Event>
  <Event>
    <Absolute>29478</Absolute>
    <NoteOff Channel="1" Note="100" Velocity="64"/>
  </Event>
  <Event>
    <Absolute>29681</Absolute>
    <NoteOn Channel="1" Note="96" Velocity="64"/>
  </Event>
  <Event>
    <Absolute>29748</Absolute>
    <NoteOff Channel="1" Note="96" Velocity="64"/>
  </Event>
  <Event>
    <Absolute>29951</Absolute>
    <NoteOn Channel="1" Note="98" Velocity="64"/>
  </Event>
  <Event>
    <Absolute>30407</Absolute>
    <NoteOff Channel="1" Note="98" Velocity="64"/>
  </Event>
  <Event>
    <Absolute>30407</Absolute>
    <NoteOn Channel="1" Note="99" Velocity="64"/>
  </Event>
  <Event>
    <Absolute>30469</Absolute>
    <NoteOff Channel="1" Note="99" Velocity="64"/>
  </Event>
  <Event>
    <Absolute>30657</Absolute>
    <NoteOn Channel="1" Note="99" Velocity="64"/>
  </Event>
  <Event>
    <Absolute>30719</Absolute>
    <NoteOff Channel="1" Note="99" Velocity="64"/>
  </Event>
  <Event>
    <Absolute>30907</Absolute>
    <NoteOn Channel="1" Note="98" Velocity="64"/>
  </Event>
  <Event>
    <Absolute>30968</Absolute>
    <NoteOff Channel="1" Note="98" Velocity="64"/>
  </Event>
  <Event>
    <Absolute>31154</Absolute>
    <NoteOn Channel="1" Note="98" Velocity="64"/>
  </Event>
  <Event>
    <Absolute>31215</Absolute>
    <NoteOff Channel="1" Note="98" Velocity="64"/>
  </Event>
  <Event>
    <Absolute>31278</Absolute>
    <NoteOn Channel="1" Note="99" Velocity="64"/>
  </Event>
  <Event>
    <Absolute>31339</Absolute>
    <NoteOff Channel="1" Note="99" Velocity="64"/>
  </Event>
  <Event>
    <Absolute>31525</Absolute>
    <NoteOn Channel="1" Note="99" Velocity="64"/>
  </Event>
  <Event>
    <Absolute>31586</Absolute>
    <NoteOff Channel="1" Note="99" Velocity="64"/>
  </Event>
  <Event>
    <Absolute>31649</Absolute>
    <NoteOn Channel="1" Note="98" Velocity="64"/>
  </Event>
  <Event>
    <Absolute>31710</Absolute>
    <NoteOff Channel="1" Note="98" Velocity="64"/>
  </Event>
  <Event>
    <Absolute>31896</Absolute>
    <NoteOn Channel="1" Note="97" Velocity="64"/>
  </Event>
  <Event>
    <Absolute>31957</Absolute>
    <NoteOff Channel="1" Note="97" Velocity="64"/>
  </Event>
  <Event>
    <Absolute>32143</Absolute>
    <NoteOn Channel="1" Note="96" Velocity="64"/>
  </Event>
  <Event>
    <Absolute>32204</Absolute>
    <NoteOff Channel="1" Note="96" Velocity="64"/>
  </Event>
  <Event>
    <Absolute>32267</Absolute>
    <NoteOn Channel="1" Note="96" Velocity="64"/>
  </Event>
  <Event>
    <Absolute>32328</Absolute>
    <NoteOff Channel="1" Note="96" Velocity="64"/>
  </Event>
  <Event>
    <Absolute>32390</Absolute>
    <NoteOn Channel="1" Note="99" Velocity="64"/>
  </Event>
  <Event>
    <Absolute>32451</Absolute>
    <NoteOff Channel="1" Note="99" Velocity="64"/>
  </Event>
  <Event>
    <Absolute>32637</Absolute>
    <NoteOn Channel="1" Note="99" Velocity="64"/>
  </Event>
  <Event>
    <Absolute>32698</Absolute>
    <NoteOff Channel="1" Note="99" Velocity="64"/>
  </Event>
  <Event>
    <Absolute>32885</Absolute>
    <NoteOn Channel="1" Note="98" Velocity="64"/>
  </Event>
  <Event>
    <Absolute>32946</Absolute>
    <NoteOff Channel="1" Note="98" Velocity="64"/>
  </Event>
  <Event>
    <Absolute>33130</Absolute>
    <NoteOn Channel="1" Note="98" Velocity="64"/>
  </Event>
  <Event>
    <Absolute>33191</Absolute>
    <NoteOff Channel="1" Note="98" Velocity="64"/>
  </Event>
  <Event>
    <Absolute>33252</Absolute>
    <NoteOn Channel="1" Note="99" Velocity="64"/>
  </Event>
  <Event>
    <Absolute>33313</Absolute>
    <NoteOff Channel="1" Note="99" Velocity="64"/>
  </Event>
  <Event>
    <Absolute>33498</Absolute>
    <NoteOn Channel="1" Note="99" Velocity="64"/>
  </Event>
  <Event>
    <Absolute>33559</Absolute>
    <NoteOff Channel="1" Note="99" Velocity="64"/>
  </Event>
  <Event>
    <Absolute>33620</Absolute>
    <NoteOn Channel="1" Note="98" Velocity="64"/>
  </Event>
  <Event>
    <Absolute>33681</Absolute>
    <NoteOff Channel="1" Note="98" Velocity="64"/>
  </Event>
  <Event>
    <Absolute>33866</Absolute>
    <NoteOn Channel="1" Note="97" Velocity="64"/>
  </Event>
  <Event>
    <Absolute>33927</Absolute>
    <NoteOff Channel="1" Note="97" Velocity="64"/>
  </Event>
  <Event>
    <Absolute>34111</Absolute>
    <NoteOn Channel="1" Note="96" Velocity="64"/>
  </Event>
  <Event>
    <Absolute>34172</Absolute>
    <NoteOff Channel="1" Note="96" Velocity="64"/>
  </Event>
  <Event>
    <Absolute>34234</Absolute>
    <NoteOn Channel="1" Note="96" Velocity="64"/>
  </Event>
  <Event>
    <Absolute>34295</Absolute>
    <NoteOff Channel="1" Note="96" Velocity="64"/>
  </Event>
  <Event>
    <Absolute>34356</Absolute>
    <NoteOn Channel="1" Note="99" Velocity="64"/>
  </Event>
  <Event>
    <Absolute>34417</Absolute>
    <NoteOff Channel="1" Note="99" Velocity="64"/>
  </Event>
  <Event>
    <Absolute>34602</Absolute>
    <NoteOn Channel="1" Note="99" Velocity="64"/>
  </Event>
  <Event>
    <Absolute>34663</Absolute>
    <NoteOff Channel="1" Note="99" Velocity="64"/>
  </Event>
  <Event>
    <Absolute>34848</Absolute>
    <NoteOn Channel="1" Note="98" Velocity="64"/>
  </Event>
  <Event>
    <Absolute>34909</Absolute>
    <NoteOff Channel="1" Note="98" Velocity="64"/>
  </Event>
  <Event>
    <Absolute>35094</Absolute>
    <NoteOn Channel="1" Note="98" Velocity="64"/>
  </Event>
  <Event>
    <Absolute>35155</Absolute>
    <NoteOff Channel="1" Note="98" Velocity="64"/>
  </Event>
  <Event>
    <Absolute>35217</Absolute>
    <NoteOn Channel="1" Note="99" Velocity="64"/>
  </Event>
  <Event>
    <Absolute>35278</Absolute>
    <NoteOff Channel="1" Note="99" Velocity="64"/>
  </Event>
  <Event>
    <Absolute>35463</Absolute>
    <NoteOn Channel="1" Note="99" Velocity="64"/>
  </Event>
  <Event>
    <Absolute>35524</Absolute>
    <NoteOff Channel="1" Note="99" Velocity="64"/>
  </Event>
  <Event>
    <Absolute>35586</Absolute>
    <NoteOn Channel="1" Note="98" Velocity="64"/>
  </Event>
  <Event>
    <Absolute>35647</Absolute>
    <NoteOff Channel="1" Note="98" Velocity="64"/>
  </Event>
  <Event>
    <Absolute>35831</Absolute>
    <NoteOn Channel="1" Note="97" Velocity="64"/>
  </Event>
  <Event>
    <Absolute>35892</Absolute>
    <NoteOff Channel="1" Note="97" Velocity="64"/>
  </Event>
  <Event>
    <Absolute>36077</Absolute>
    <NoteOn Channel="1" Note="96" Velocity="64"/>
  </Event>
  <Event>
    <Absolute>36138</Absolute>
    <NoteOff Channel="1" Note="96" Velocity="64"/>
  </Event>
  <Event>
    <Absolute>36200</Absolute>
    <NoteOn Channel="1" Note="96" Velocity="64"/>
  </Event>
  <Event>
    <Absolute>36261</Absolute>
    <NoteOff Channel="1" Note="96" Velocity="64"/>
  </Event>
  <Event>
    <Absolute>36323</Absolute>
    <NoteOn Channel="1" Note="99" Velocity="64"/>
  </Event>
  <Event>
    <Absolute>36384</Absolute>
    <NoteOff Channel="1" Note="99" Velocity="64"/>
  </Event>
  <Event>
    <Absolute>36569</Absolute>
    <NoteOn Channel="1" Note="99" Velocity="64"/>
  </Event>
  <Event>
    <Absolute>36630</Absolute>
    <NoteOff Channel="1" Note="99" Velocity="64"/>
  </Event>
  <Event>
    <Absolute>36815</Absolute>
    <NoteOn Channel="1" Note="98" Velocity="64"/>
  </Event>
  <Event>
    <Absolute>36876</Absolute>
    <NoteOff Channel="1" Note="98" Velocity="64"/>
  </Event>
  <Event>
    <Absolute>37059</Absolute>
    <NoteOn Channel="1" Note="98" Velocity="64"/>
  </Event>
  <Event>
    <Absolute>37120</Absolute>
    <NoteOff Channel="1" Note="98" Velocity="64"/>
  </Event>
  <Event>
    <Absolute>37182</Absolute>
    <NoteOn Channel="1" Note="99" Velocity="64"/>
  </Event>
  <Event>
    <Absolute>37243</Absolute>
    <NoteOff Channel="1" Note="99" Velocity="64"/>
  </Event>
  <Event>
    <Absolute>37426</Absolute>
    <NoteOn Channel="1" Note="99" Velocity="64"/>
  </Event>
  <Event>
    <Absolute>37487</Absolute>
    <NoteOff Channel="1" Note="99" Velocity="64"/>
  </Event>
  <Event>
    <Absolute>37549</Absolute>
    <NoteOn Channel="1" Note="100" Velocity="64"/>
  </Event>
  <Event>
    <Absolute>37610</Absolute>
    <NoteOff Channel="1" Note="100" Velocity="64"/>
  </Event>
  <Event>
    <Absolute>37793</Absolute>
    <NoteOn Channel="1" Note="100" Velocity="64"/>
  </Event>
  <Event>
    <Absolute>37854</Absolute>
    <NoteOff Channel="1" Note="100" Velocity="64"/>
  </Event>
  <Event>
    <Absolute>38038</Absolute>
    <NoteOn Channel="1" Note="100" Velocity="64"/>
  </Event>
  <Event>
    <Absolute>38099</Absolute>
    <NoteOff Channel="1" Note="100" Velocity="64"/>
  </Event>
  <Event>
    <Absolute>38283</Absolute>
    <NoteOn Channel="1" Note="99" Velocity="64"/>
  </Event>
  <Event>
    <Absolute>38343</Absolute>
    <NoteOff Channel="1" Note="99" Velocity="64"/>
  </Event>
  <Event>
    <Absolute>38525</Absolute>
    <NoteOn Channel="1" Note="99" Velocity="64"/>
  </Event>
  <Event>
    <Absolute>38585</Absolute>
    <NoteOff Channel="1" Note="99" Velocity="64"/>
  </Event>
  <Event>
    <Absolute>38768</Absolute>
    <NoteOn Channel="1" Note="98" Velocity="64"/>
  </Event>
  <Event>
    <Absolute>38828</Absolute>
    <NoteOff Channel="1" Note="98" Velocity="64"/>
  </Event>
  <Event>
    <Absolute>39011</Absolute>
    <NoteOn Channel="1" Note="98" Velocity="64"/>
  </Event>
  <Event>
    <Absolute>39071</Absolute>
    <NoteOff Channel="1" Note="98" Velocity="64"/>
  </Event>
  <Event>
    <Absolute>39132</Absolute>
    <NoteOn Channel="1" Note="99" Velocity="64"/>
  </Event>
  <Event>
    <Absolute>39192</Absolute>
    <NoteOff Channel="1" Note="99" Velocity="64"/>
  </Event>
  <Event>
    <Absolute>39375</Absolute>
    <NoteOn Channel="1" Note="99" Velocity="64"/>
  </Event>
  <Event>
    <Absolute>39435</Absolute>
    <NoteOff Channel="1" Note="99" Velocity="64"/>
  </Event>
  <Event>
    <Absolute>39496</Absolute>
    <NoteOn Channel="1" Note="98" Velocity="64"/>
  </Event>
  <Event>
    <Absolute>39556</Absolute>
    <NoteOff Channel="1" Note="98" Velocity="64"/>
  </Event>
  <Event>
    <Absolute>39739</Absolute>
    <NoteOn Channel="1" Note="97" Velocity="64"/>
  </Event>
  <Event>
    <Absolute>39799</Absolute>
    <NoteOff Channel="1" Note="97" Velocity="64"/>
  </Event>
  <Event>
    <Absolute>39981</Absolute>
    <NoteOn Channel="1" Note="96" Velocity="64"/>
  </Event>
  <Event>
    <Absolute>40041</Absolute>
    <NoteOff Channel="1" Note="96" Velocity="64"/>
  </Event>
  <Event>
    <Absolute>40103</Absolute>
    <NoteOn Channel="1" Note="96" Velocity="64"/>
  </Event>
  <Event>
    <Absolute>40163</Absolute>
    <NoteOff Channel="1" Note="96" Velocity="64"/>
  </Event>
  <Event>
    <Absolute>40224</Absolute>
    <NoteOn Channel="1" Note="99" Velocity="64"/>
  </Event>
  <Event>
    <Absolute>40284</Absolute>
    <NoteOff Channel="1" Note="99" Velocity="64"/>
  </Event>
  <Event>
    <Absolute>40466</Absolute>
    <NoteOn Channel="1" Note="99" Velocity="64"/>
  </Event>
  <Event>
    <Absolute>40526</Absolute>
    <NoteOff Channel="1" Note="99" Velocity="64"/>
  </Event>
  <Event>
    <Absolute>40709</Absolute>
    <NoteOn Channel="1" Note="98" Velocity="64"/>
  </Event>
  <Event>
    <Absolute>40769</Absolute>
    <NoteOff Channel="1" Note="98" Velocity="64"/>
  </Event>
  <Event>
    <Absolute>40950</Absolute>
    <NoteOn Channel="1" Note="98" Velocity="64"/>
  </Event>
  <Event>
    <Absolute>41010</Absolute>
    <NoteOff Channel="1" Note="98" Velocity="64"/>
  </Event>
  <Event>
    <Absolute>41071</Absolute>
    <NoteOn Channel="1" Note="99" Velocity="64"/>
  </Event>
  <Event>
    <Absolute>41131</Absolute>
    <NoteOff Channel="1" Note="99" Velocity="64"/>
  </Event>
  <Event>
    <Absolute>41313</Absolute>
    <NoteOn Channel="1" Note="99" Velocity="64"/>
  </Event>
  <Event>
    <Absolute>41373</Absolute>
    <NoteOff Channel="1" Note="99" Velocity="64"/>
  </Event>
  <Event>
    <Absolute>41433</Absolute>
    <NoteOn Channel="1" Note="98" Velocity="64"/>
  </Event>
  <Event>
    <Absolute>41493</Absolute>
    <NoteOff Channel="1" Note="98" Velocity="64"/>
  </Event>
  <Event>
    <Absolute>41675</Absolute>
    <NoteOn Channel="1" Note="97" Velocity="64"/>
  </Event>
  <Event>
    <Absolute>41735</Absolute>
    <NoteOff Channel="1" Note="97" Velocity="64"/>
  </Event>
  <Event>
    <Absolute>41916</Absolute>
    <NoteOn Channel="1" Note="96" Velocity="64"/>
  </Event>
  <Event>
    <Absolute>41976</Absolute>
    <NoteOff Channel="1" Note="96" Velocity="64"/>
  </Event>
  <Event>
    <Absolute>42037</Absolute>
    <NoteOn Channel="1" Note="96" Velocity="64"/>
  </Event>
  <Event>
    <Absolute>42097</Absolute>
    <NoteOff Channel="1" Note="96" Velocity="64"/>
  </Event>
  <Event>
    <Absolute>42158</Absolute>
    <NoteOn Channel="1" Note="99" Velocity="64"/>
  </Event>
  <Event>
    <Absolute>42218</Absolute>
    <NoteOff Channel="1" Note="99" Velocity="64"/>
  </Event>
  <Event>
    <Absolute>42399</Absolute>
    <NoteOn Channel="1" Note="99" Velocity="64"/>
  </Event>
  <Event>
    <Absolute>42459</Absolute>
    <NoteOff Channel="1" Note="99" Velocity="64"/>
  </Event>
  <Event>
    <Absolute>42640</Absolute>
    <NoteOn Channel="1" Note="98" Velocity="64"/>
  </Event>
  <Event>
    <Absolute>42700</Absolute>
    <NoteOff Channel="1" Note="98" Velocity="64"/>
  </Event>
  <Event>
    <Absolute>42883</Absolute>
    <NoteOn Channel="1" Note="98" Velocity="64"/>
  </Event>
  <Event>
    <Absolute>42943</Absolute>
    <NoteOff Channel="1" Note="98" Velocity="64"/>
  </Event>
  <Event>
    <Absolute>43005</Absolute>
    <NoteOn Channel="1" Note="99" Velocity="64"/>
  </Event>
  <Event>
    <Absolute>43065</Absolute>
    <NoteOff Channel="1" Note="99" Velocity="64"/>
  </Event>
  <Event>
    <Absolute>43248</Absolute>
    <NoteOn Channel="1" Note="99" Velocity="64"/>
  </Event>
  <Event>
    <Absolute>43308</Absolute>
    <NoteOff Channel="1" Note="99" Velocity="64"/>
  </Event>
  <Event>
    <Absolute>43369</Absolute>
    <NoteOn Channel="1" Note="98" Velocity="64"/>
  </Event>
  <Event>
    <Absolute>43429</Absolute>
    <NoteOff Channel="1" Note="98" Velocity="64"/>
  </Event>
  <Event>
    <Absolute>43612</Absolute>
    <NoteOn Channel="1" Note="97" Velocity="64"/>
  </Event>
  <Event>
    <Absolute>43672</Absolute>
    <NoteOff Channel="1" Note="97" Velocity="64"/>
  </Event>
  <Event>
    <Absolute>43855</Absolute>
    <NoteOn Channel="1" Note="96" Velocity="64"/>
  </Event>
  <Event>
    <Absolute>43915</Absolute>
    <NoteOff Channel="1" Note="96" Velocity="64"/>
  </Event>
  <Event>
    <Absolute>43977</Absolute>
    <NoteOn Channel="1" Note="96" Velocity="64"/>
  </Event>
  <Event>
    <Absolute>44037</Absolute>
    <NoteOff Channel="1" Note="96" Velocity="64"/>
  </Event>
  <Event>
    <Absolute>44098</Absolute>
    <NoteOn Channel="1" Note="99" Velocity="64"/>
  </Event>
  <Event>
    <Absolute>44158</Absolute>
    <NoteOff Channel="1" Note="99" Velocity="64"/>
  </Event>
  <Event>
    <Absolute>44341</Absolute>
    <NoteOn Channel="1" Note="99" Velocity="64"/>
  </Event>
  <Event>
    <Absolute>44401</Absolute>
    <NoteOff Channel="1" Note="99" Velocity="64"/>
  </Event>
  <Event>
    <Absolute>44584</Absolute>
    <NoteOn Channel="1" Note="98" Velocity="64"/>
  </Event>
  <Event>
    <Absolute>44644</Absolute>
    <NoteOff Channel="1" Note="98" Velocity="64"/>
  </Event>
  <Event>
    <Absolute>44825</Absolute>
    <NoteOn Channel="1" Note="98" Velocity="64"/>
  </Event>
  <Event>
    <Absolute>44885</Absolute>
    <NoteOff Channel="1" Note="98" Velocity="64"/>
  </Event>
  <Event>
    <Absolute>44945</Absolute>
    <NoteOn Channel="1" Note="99" Velocity="64"/>
  </Event>
  <Event>
    <Absolute>45005</Absolute>
    <NoteOff Channel="1" Note="99" Velocity="64"/>
  </Event>
  <Event>
    <Absolute>45186</Absolute>
    <NoteOn Channel="1" Note="99" Velocity="64"/>
  </Event>
  <Event>
    <Absolute>45246</Absolute>
    <NoteOff Channel="1" Note="99" Velocity="64"/>
  </Event>
  <Event>
    <Absolute>45306</Absolute>
    <NoteOn Channel="1" Note="98" Velocity="64"/>
  </Event>
  <Event>
    <Absolute>45366</Absolute>
    <NoteOff Channel="1" Note="98" Velocity="64"/>
  </Event>
  <Event>
    <Absolute>45547</Absolute>
    <NoteOn Channel="1" Note="99" Velocity="64"/>
  </Event>
  <Event>
    <Absolute>45605</Absolute>
    <NoteOff Channel="1" Note="99" Velocity="64"/>
  </Event>
  <Event>
    <Absolute>45783</Absolute>
    <NoteOn Channel="1" Note="98" Velocity="64"/>
  </Event>
  <Event>
    <Absolute>45841</Absolute>
    <NoteOff Channel="1" Note="98" Velocity="64"/>
  </Event>
  <Event>
    <Absolute>45901</Absolute>
    <NoteOn Channel="1" Note="99" Velocity="64"/>
  </Event>
  <Event>
    <Absolute>45959</Absolute>
    <NoteOff Channel="1" Note="99" Velocity="64"/>
  </Event>
  <Event>
    <Absolute>46019</Absolute>
    <NoteOn Channel="1" Note="100" Velocity="64"/>
  </Event>
  <Event>
    <Absolute>46490</Absolute>
    <NoteOn Channel="1" Note="99" Velocity="64"/>
  </Event>
  <Event>
    <Absolute>46490</Absolute>
    <NoteOff Channel="1" Note="100" Velocity="64"/>
  </Event>
  <Event>
    <Absolute>46551</Absolute>
    <NoteOff Channel="1" Note="99" Velocity="64"/>
  </Event>
  <Event>
    <Absolute>46736</Absolute>
    <NoteOn Channel="1" Note="99" Velocity="64"/>
  </Event>
  <Event>
    <Absolute>46797</Absolute>
    <NoteOff Channel="1" Note="99" Velocity="64"/>
  </Event>
  <Event>
    <Absolute>46859</Absolute>
    <NoteOn Channel="1" Note="100" Velocity="64"/>
  </Event>
  <Event>
    <Absolute>46920</Absolute>
    <NoteOff Channel="1" Note="100" Velocity="64"/>
  </Event>
  <Event>
    <Absolute>47106</Absolute>
    <NoteOn Channel="1" Note="100" Velocity="64"/>
  </Event>
  <Event>
    <Absolute>47167</Absolute>
    <NoteOff Channel="1" Note="100" Velocity="64"/>
  </Event>
  <Event>
    <Absolute>47229</Absolute>
    <NoteOn Channel="1" Note="99" Velocity="64"/>
  </Event>
  <Event>
    <Absolute>47290</Absolute>
    <NoteOff Channel="1" Note="99" Velocity="64"/>
  </Event>
  <Event>
    <Absolute>47475</Absolute>
    <NoteOn Channel="1" Note="98" Velocity="64"/>
  </Event>
  <Event>
    <Absolute>47536</Absolute>
    <NoteOff Channel="1" Note="98" Velocity="64"/>
  </Event>
  <Event>
    <Absolute>47719</Absolute>
    <NoteOn Channel="1" Note="97" Velocity="64"/>
  </Event>
  <Event>
    <Absolute>47780</Absolute>
    <NoteOff Channel="1" Note="97" Velocity="64"/>
  </Event>
  <Event>
    <Absolute>47963</Absolute>
    <NoteOn Channel="1" Note="100" Velocity="64"/>
  </Event>
  <Event>
    <Absolute>48024</Absolute>
    <NoteOff Channel="1" Note="100" Velocity="64"/>
  </Event>
  <Event>
    <Absolute>48208</Absolute>
    <NoteOn Channel="1" Note="100" Velocity="64"/>
  </Event>
  <Event>
    <Absolute>48269</Absolute>
    <NoteOff Channel="1" Note="100" Velocity="64"/>
  </Event>
  <Event>
    <Absolute>48452</Absolute>
    <NoteOn Channel="1" Note="99" Velocity="64"/>
  </Event>
  <Event>
    <Absolute>48513</Absolute>
    <NoteOff Channel="1" Note="99" Velocity="64"/>
  </Event>
  <Event>
    <Absolute>48697</Absolute>
    <NoteOn Channel="1" Note="99" Velocity="64"/>
  </Event>
  <Event>
    <Absolute>48758</Absolute>
    <NoteOff Channel="1" Note="99" Velocity="64"/>
  </Event>
  <Event>
    <Absolute>48819</Absolute>
    <NoteOn Channel="1" Note="100" Velocity="64"/>
  </Event>
  <Event>
    <Absolute>48880</Absolute>
    <NoteOff Channel="1" Note="100" Velocity="64"/>
  </Event>
  <Event>
    <Absolute>49064</Absolute>
    <NoteOn Channel="1" Note="100" Velocity="64"/>
  </Event>
  <Event>
    <Absolute>49125</Absolute>
    <NoteOff Channel="1" Note="100" Velocity="64"/>
  </Event>
  <Event>
    <Absolute>49187</Absolute>
    <NoteOn Channel="1" Note="99" Velocity="64"/>
  </Event>
  <Event>
    <Absolute>49248</Absolute>
    <NoteOff Channel="1" Note="99" Velocity="64"/>
  </Event>
  <Event>
    <Absolute>49432</Absolute>
    <NoteOn Channel="1" Note="98" Velocity="64"/>
  </Event>
  <Event>
    <Absolute>49493</Absolute>
    <NoteOff Channel="1" Note="98" Velocity="64"/>
  </Event>
  <Event>
    <Absolute>49677</Absolute>
    <NoteOn Channel="1" Note="97" Velocity="64"/>
  </Event>
  <Event>
    <Absolute>49738</Absolute>
    <NoteOff Channel="1" Note="97" Velocity="64"/>
  </Event>
  <Event>
    <Absolute>49922</Absolute>
    <NoteOn Channel="1" Note="100" Velocity="64"/>
  </Event>
  <Event>
    <Absolute>49983</Absolute>
    <NoteOff Channel="1" Note="100" Velocity="64"/>
  </Event>
  <Event>
    <Absolute>50167</Absolute>
    <NoteOn Channel="1" Note="100" Velocity="64"/>
  </Event>
  <Event>
    <Absolute>50228</Absolute>
    <NoteOff Channel="1" Note="100" Velocity="64"/>
  </Event>
  <Event>
    <Absolute>50412</Absolute>
    <NoteOn Channel="1" Note="99" Velocity="64"/>
  </Event>
  <Event>
    <Absolute>50472</Absolute>
    <NoteOff Channel="1" Note="99" Velocity="64"/>
  </Event>
  <Event>
    <Absolute>50655</Absolute>
    <NoteOn Channel="1" Note="99" Velocity="64"/>
  </Event>
  <Event>
    <Absolute>50715</Absolute>
    <NoteOff Channel="1" Note="99" Velocity="64"/>
  </Event>
  <Event>
    <Absolute>50777</Absolute>
    <NoteOn Channel="1" Note="100" Velocity="64"/>
  </Event>
  <Event>
    <Absolute>50837</Absolute>
    <NoteOff Channel="1" Note="100" Velocity="64"/>
  </Event>
  <Event>
    <Absolute>51020</Absolute>
    <NoteOn Channel="1" Note="100" Velocity="64"/>
  </Event>
  <Event>
    <Absolute>51080</Absolute>
    <NoteOff Channel="1" Note="100" Velocity="64"/>
  </Event>
  <Event>
    <Absolute>51141</Absolute>
    <NoteOn Channel="1" Note="99" Velocity="64"/>
  </Event>
  <Event>
    <Absolute>51201</Absolute>
    <NoteOff Channel="1" Note="99" Velocity="64"/>
  </Event>
  <Event>
    <Absolute>51384</Absolute>
    <NoteOn Channel="1" Note="98" Velocity="64"/>
  </Event>
  <Event>
    <Absolute>51444</Absolute>
    <NoteOff Channel="1" Note="98" Velocity="64"/>
  </Event>
  <Event>
    <Absolute>51628</Absolute>
    <NoteOn Channel="1" Note="97" Velocity="64"/>
  </Event>
  <Event>
    <Absolute>51688</Absolute>
    <NoteOff Channel="1" Note="97" Velocity="64"/>
  </Event>
  <Event>
    <Absolute>51871</Absolute>
    <NoteOn Channel="1" Note="100" Velocity="64"/>
  </Event>
  <Event>
    <Absolute>51931</Absolute>
    <NoteOff Channel="1" Note="100" Velocity="64"/>
  </Event>
  <Event>
    <Absolute>52114</Absolute>
    <NoteOn Channel="1" Note="100" Velocity="64"/>
  </Event>
  <Event>
    <Absolute>52174</Absolute>
    <NoteOff Channel="1" Note="100" Velocity="64"/>
  </Event>
  <Event>
    <Absolute>52357</Absolute>
    <NoteOn Channel="1" Note="99" Velocity="64"/>
  </Event>
  <Event>
    <Absolute>52418</Absolute>
    <NoteOff Channel="1" Note="99" Velocity="64"/>
  </Event>
  <Event>
    <Absolute>52603</Absolute>
    <NoteOn Channel="1" Note="99" Velocity="64"/>
  </Event>
  <Event>
    <Absolute>52664</Absolute>
    <NoteOff Channel="1" Note="99" Velocity="64"/>
  </Event>
  <Event>
    <Absolute>52726</Absolute>
    <NoteOn Channel="1" Note="100" Velocity="64"/>
  </Event>
  <Event>
    <Absolute>52787</Absolute>
    <NoteOff Channel="1" Note="100" Velocity="64"/>
  </Event>
  <Event>
    <Absolute>52972</Absolute>
    <NoteOn Channel="1" Note="100" Velocity="64"/>
  </Event>
  <Event>
    <Absolute>53033</Absolute>
    <NoteOff Channel="1" Note="100" Velocity="64"/>
  </Event>
  <Event>
    <Absolute>53094</Absolute>
    <NoteOn Channel="1" Note="99" Velocity="64"/>
  </Event>
  <Event>
    <Absolute>53155</Absolute>
    <NoteOff Channel="1" Note="99" Velocity="64"/>
  </Event>
  <Event>
    <Absolute>53340</Absolute>
    <NoteOn Channel="1" Note="100" Velocity="64"/>
  </Event>
  <Event>
    <Absolute>53401</Absolute>
    <NoteOff Channel="1" Note="100" Velocity="64"/>
  </Event>
  <Event>
    <Absolute>53586</Absolute>
    <NoteOn Channel="1" Note="97" Velocity="64"/>
  </Event>
  <Event>
    <Absolute>53647</Absolute>
    <NoteOff Channel="1" Note="97" Velocity="64"/>
  </Event>
  <Event>
    <Absolute>53832</Absolute>
    <NoteOn Channel="1" Note="98" Velocity="64"/>
  </Event>
  <Event>
    <Absolute>54323</Absolute>
    <NoteOff Channel="1" Note="98" Velocity="64"/>
  </Event>
  <Event>
    <Absolute>54323</Absolute>
    <NoteOn Channel="1" Note="98" Velocity="64"/>
  </Event>
  <Event>
    <Absolute>54814</Absolute>
    <NoteOff Channel="1" Note="98" Velocity="64"/>
  </Event>
  <Event>
    <Absolute>54815</Absolute>
    <NoteOn Channel="1" Note="98" Velocity="64"/>
  </Event>
  <Event>
    <Absolute>54876</Absolute>
    <NoteOff Channel="1" Note="98" Velocity="64"/>
  </Event>
  <Event>
    <Absolute>55060</Absolute>
    <NoteOn Channel="1" Note="96" Velocity="64"/>
  </Event>
  <Event>
    <Absolute>55121</Absolute>
    <NoteOff Channel="1" Note="96" Velocity="64"/>
  </Event>
  <Event>
    <Absolute>55306</Absolute>
    <NoteOn Channel="1" Note="97" Velocity="64"/>
  </Event>
  <Event>
    <Absolute>55367</Absolute>
    <NoteOff Channel="1" Note="97" Velocity="64"/>
  </Event>
  <Event>
    <Absolute>55552</Absolute>
    <NoteOn Channel="1" Note="96" Velocity="64"/>
  </Event>
  <Event>
    <Absolute>55613</Absolute>
    <NoteOff Channel="1" Note="96" Velocity="64"/>
  </Event>
  <Event>
    <Absolute>55798</Absolute>
    <NoteOn Channel="1" Note="99" Velocity="64"/>
  </Event>
  <Event>
    <Absolute>56287</Absolute>
    <NoteOn Channel="1" Note="99" Velocity="64"/>
  </Event>
  <Event>
    <Absolute>56287</Absolute>
    <NoteOff Channel="1" Note="99" Velocity="64"/>
  </Event>
  <Event>
    <Absolute>56776</Absolute>
    <NoteOff Channel="1" Note="99" Velocity="64"/>
  </Event>
  <Event>
    <Absolute>56777</Absolute>
    <NoteOn Channel="1" Note="99" Velocity="64"/>
  </Event>
  <Event>
    <Absolute>57266</Absolute>
    <NoteOff Channel="1" Note="99" Velocity="64"/>
  </Event>
  <Event>
    <Absolute>57266</Absolute>
    <NoteOn Channel="1" Note="99" Velocity="64"/>
  </Event>
  <Event>
    <Absolute>57327</Absolute>
    <NoteOff Channel="1" Note="99" Velocity="64"/>
  </Event>
  <Event>
    <Absolute>57511</Absolute>
    <NoteOn Channel="1" Note="97" Velocity="64"/>
  </Event>
  <Event>
    <Absolute>57572</Absolute>
    <NoteOff Channel="1" Note="97" Velocity="64"/>
  </Event>
  <Event>
    <Absolute>57633</Absolute>
    <NoteOn Channel="1" Note="97" Velocity="64"/>
  </Event>
  <Event>
    <Absolute>57694</Absolute>
    <NoteOff Channel="1" Note="97" Velocity="64"/>
  </Event>
  <Event>
    <Absolute>57755</Absolute>
    <NoteOn Channel="1" Note="100" Velocity="64"/>
  </Event>
  <Event>
    <Absolute>57816</Absolute>
    <NoteOff Channel="1" Note="100" Velocity="64"/>
  </Event>
  <Event>
    <Absolute>58000</Absolute>
    <NoteOn Channel="1" Note="100" Velocity="64"/>
  </Event>
  <Event>
    <Absolute>58061</Absolute>
    <NoteOff Channel="1" Note="100" Velocity="64"/>
  </Event>
  <Event>
    <Absolute>58245</Absolute>
    <NoteOn Channel="1" Note="99" Velocity="64"/>
  </Event>
  <Event>
    <Absolute>58306</Absolute>
    <NoteOff Channel="1" Note="99" Velocity="64"/>
  </Event>
  <Event>
    <Absolute>58490</Absolute>
    <NoteOn Channel="1" Note="97" Velocity="64"/>
  </Event>
  <Event>
    <Absolute>58551</Absolute>
    <NoteOff Channel="1" Note="97" Velocity="64"/>
  </Event>
  <Event>
    <Absolute>58612</Absolute>
    <NoteOn Channel="1" Note="98" Velocity="64"/>
  </Event>
  <Event>
    <Absolute>58673</Absolute>
    <NoteOff Channel="1" Note="98" Velocity="64"/>
  </Event>
  <Event>
    <Absolute>58857</Absolute>
    <NoteOn Channel="1" Note="98" Velocity="64"/>
  </Event>
  <Event>
    <Absolute>58918</Absolute>
    <NoteOff Channel="1" Note="98" Velocity="64"/>
  </Event>
  <Event>
    <Absolute>58979</Absolute>
    <NoteOn Channel="1" Note="97" Velocity="64"/>
  </Event>
  <Event>
    <Absolute>59040</Absolute>
    <NoteOff Channel="1" Note="97" Velocity="64"/>
  </Event>
  <Event>
    <Absolute>59224</Absolute>
    <NoteOn Channel="1" Note="98" Velocity="64"/>
  </Event>
  <Event>
    <Absolute>59285</Absolute>
    <NoteOff Channel="1" Note="98" Velocity="64"/>
  </Event>
  <Event>
    <Absolute>59469</Absolute>
    <NoteOn Channel="1" Note="96" Velocity="64"/>
  </Event>
  <Event>
    <Absolute>59530</Absolute>
    <NoteOff Channel="1" Note="96" Velocity="64"/>
  </Event>
  <Event>
    <Absolute>59713</Absolute>
    <NoteOn Channel="1" Note="100" Velocity="64"/>
  </Event>
  <Event>
    <Absolute>59774</Absolute>
    <NoteOff Channel="1" Note="100" Velocity="64"/>
  </Event>
  <Event>
    <Absolute>59958</Absolute>
    <NoteOn Channel="1" Note="100" Velocity="64"/>
  </Event>
  <Event>
    <Absolute>60019</Absolute>
    <NoteOff Channel="1" Note="100" Velocity="64"/>
  </Event>
  <Event>
    <Absolute>60203</Absolute>
    <NoteOn Channel="1" Note="99" Velocity="64"/>
  </Event>
  <Event>
    <Absolute>60263</Absolute>
    <NoteOff Channel="1" Note="99" Velocity="64"/>
  </Event>
  <Event>
    <Absolute>60443</Absolute>
    <NoteOn Channel="1" Note="97" Velocity="64"/>
  </Event>
  <Event>
    <Absolute>60503</Absolute>
    <NoteOff Channel="1" Note="97" Velocity="64"/>
  </Event>
  <Event>
    <Absolute>60563</Absolute>
    <NoteOn Channel="1" Note="98" Velocity="64"/>
  </Event>
  <Event>
    <Absolute>60623</Absolute>
    <NoteOff Channel="1" Note="98" Velocity="64"/>
  </Event>
  <Event>
    <Absolute>60804</Absolute>
    <NoteOn Channel="1" Note="98" Velocity="64"/>
  </Event>
  <Event>
    <Absolute>60864</Absolute>
    <NoteOff Channel="1" Note="98" Velocity="64"/>
  </Event>
  <Event>
    <Absolute>60924</Absolute>
    <NoteOn Channel="1" Note="97" Velocity="64"/>
  </Event>
  <Event>
    <Absolute>60984</Absolute>
    <NoteOff Channel="1" Note="97" Velocity="64"/>
  </Event>
  <Event>
    <Absolute>61164</Absolute>
    <NoteOn Channel="1" Note="98" Velocity="64"/>
  </Event>
  <Event>
    <Absolute>61225</Absolute>
    <NoteOff Channel="1" Note="98" Velocity="64"/>
  </Event>
  <Event>
    <Absolute>61409</Absolute>
    <NoteOn Channel="1" Note="96" Velocity="64"/>
  </Event>
  <Event>
    <Absolute>61470</Absolute>
    <NoteOff Channel="1" Note="96" Velocity="64"/>
  </Event>
  <Event>
    <Absolute>61653</Absolute>
    <NoteOn Channel="1" Note="100" Velocity="64"/>
  </Event>
  <Event>
    <Absolute>61714</Absolute>
    <NoteOff Channel="1" Note="100" Velocity="64"/>
  </Event>
  <Event>
    <Absolute>61898</Absolute>
    <NoteOn Channel="1" Note="100" Velocity="64"/>
  </Event>
  <Event>
    <Absolute>61959</Absolute>
    <NoteOff Channel="1" Note="100" Velocity="64"/>
  </Event>
  <Event>
    <Absolute>62142</Absolute>
    <NoteOn Channel="1" Note="99" Velocity="64"/>
  </Event>
  <Event>
    <Absolute>62202</Absolute>
    <NoteOff Channel="1" Note="99" Velocity="64"/>
  </Event>
  <Event>
    <Absolute>62385</Absolute>
    <NoteOn Channel="1" Note="97" Velocity="64"/>
  </Event>
  <Event>
    <Absolute>62445</Absolute>
    <NoteOff Channel="1" Note="97" Velocity="64"/>
  </Event>
  <Event>
    <Absolute>62506</Absolute>
    <NoteOn Channel="1" Note="98" Velocity="64"/>
  </Event>
  <Event>
    <Absolute>62566</Absolute>
    <NoteOff Channel="1" Note="98" Velocity="64"/>
  </Event>
  <Event>
    <Absolute>62749</Absolute>
    <NoteOn Channel="1" Note="98" Velocity="64"/>
  </Event>
  <Event>
    <Absolute>62809</Absolute>
    <NoteOff Channel="1" Note="98" Velocity="64"/>
  </Event>
  <Event>
    <Absolute>62870</Absolute>
    <NoteOn Channel="1" Note="97" Velocity="64"/>
  </Event>
  <Event>
    <Absolute>62930</Absolute>
    <NoteOff Channel="1" Note="97" Velocity="64"/>
  </Event>
  <Event>
    <Absolute>63112</Absolute>
    <NoteOn Channel="1" Note="98" Velocity="64"/>
  </Event>
  <Event>
    <Absolute>63172</Absolute>
    <NoteOff Channel="1" Note="98" Velocity="64"/>
  </Event>
  <Event>
    <Absolute>63355</Absolute>
    <NoteOn Channel="1" Note="96" Velocity="64"/>
  </Event>
  <Event>
    <Absolute>63415</Absolute>
    <NoteOff Channel="1" Note="96" Velocity="64"/>
  </Event>
  <Event>
    <Absolute>63597</Absolute>
    <NoteOn Channel="1" Note="100" Velocity="64"/>
  </Event>
  <Event>
    <Absolute>63960</Absolute>
    <NoteOff Channel="1" Note="100" Velocity="64"/>
  </Event>
  <Event>
    <Absolute>63961</Absolute>
    <NoteOn Channel="1" Note="99" Velocity="64"/>
  </Event>
  <Event>
    <Absolute>64324</Absolute>
    <NoteOff Channel="1" Note="99" Velocity="64"/>
  </Event>
  <Event>
    <Absolute>64325</Absolute>
    <NoteOn Channel="1" Note="98" Velocity="64"/>
  </Event>
  <Event>
    <Absolute>64809</Absolute>
    <NoteOff Channel="1" Note="98" Velocity="64"/>
  </Event>
  <Event>
    <Absolute>64810</Absolute>
    <NoteOn Channel="1" Note="97" Velocity="64"/>
  </Event>
  <Event>
    <Absolute>64870</Absolute>
    <NoteOff Channel="1" Note="97" Velocity="64"/>
  </Event>
  <Event>
    <Absolute>65052</Absolute>
    <NoteOn Channel="1" Note="96" Velocity="64"/>
  </Event>
  <Event>
    <Absolute>65112</Absolute>
    <NoteOff Channel="1" Note="96" Velocity="64"/>
  </Event>
  <Event>
    <Absolute>65295</Absolute>
    <NoteOn Channel="1" Note="97" Velocity="64"/>
  </Event>
  <Event>
    <Absolute>65355</Absolute>
    <NoteOff Channel="1" Note="97" Velocity="64"/>
  </Event>
  <Event>
    <Absolute>65537</Absolute>
    <NoteOn Channel="1" Note="99" Velocity="64"/>
  </Event>
  <Event>
    <Absolute>65597</Absolute>
    <NoteOff Channel="1" Note="99" Velocity="64"/>
  </Event>
  <Event>
    <Absolute>65780</Absolute>
    <NoteOn Channel="1" Note="99" Velocity="64"/>
  </Event>
  <Event>
    <Absolute>65840</Absolute>
    <NoteOff Channel="1" Note="99" Velocity="64"/>
  </Event>
  <Event>
    <Absolute>66022</Absolute>
    <NoteOn Channel="1" Note="98" Velocity="64"/>
  </Event>
  <Event>
    <Absolute>66082</Absolute>
    <NoteOff Channel="1" Note="98" Velocity="64"/>
  </Event>
  <Event>
    <Absolute>66265</Absolute>
    <NoteOn Channel="1" Note="98" Velocity="64"/>
  </Event>
  <Event>
    <Absolute>66325</Absolute>
    <NoteOff Channel="1" Note="98" Velocity="64"/>
  </Event>
  <Event>
    <Absolute>66386</Absolute>
    <NoteOn Channel="1" Note="99" Velocity="64"/>
  </Event>
  <Event>
    <Absolute>66446</Absolute>
    <NoteOff Channel="1" Note="99" Velocity="64"/>
  </Event>
  <Event>
    <Absolute>66628</Absolute>
    <NoteOn Channel="1" Note="99" Velocity="64"/>
  </Event>
  <Event>
    <Absolute>66688</Absolute>
    <NoteOff Channel="1" Note="99" Velocity="64"/>
  </Event>
  <Event>
    <Absolute>66750</Absolute>
    <NoteOn Channel="1" Note="98" Velocity="64"/>
  </Event>
  <Event>
    <Absolute>66810</Absolute>
    <NoteOff Channel="1" Note="98" Velocity="64"/>
  </Event>
  <Event>
    <Absolute>66992</Absolute>
    <NoteOn Channel="1" Note="97" Velocity="64"/>
  </Event>
  <Event>
    <Absolute>67051</Absolute>
    <NoteOff Channel="1" Note="97" Velocity="64"/>
  </Event>
  <Event>
    <Absolute>67229</Absolute>
    <NoteOn Channel="1" Note="96" Velocity="64"/>
  </Event>
  <Event>
    <Absolute>67288</Absolute>
    <NoteOff Channel="1" Note="96" Velocity="64"/>
  </Event>
  <Event>
    <Absolute>67348</Absolute>
    <NoteOn Channel="1" Note="96" Velocity="64"/>
  </Event>
  <Event>
    <Absolute>67407</Absolute>
    <NoteOff Channel="1" Note="96" Velocity="64"/>
  </Event>
  <Event>
    <Absolute>67466</Absolute>
    <NoteOn Channel="1" Note="99" Velocity="64"/>
  </Event>
  <Event>
    <Absolute>67525</Absolute>
    <NoteOff Channel="1" Note="99" Velocity="64"/>
  </Event>
  <Event>
    <Absolute>67703</Absolute>
    <NoteOn Channel="1" Note="99" Velocity="64"/>
  </Event>
  <Event>
    <Absolute>67762</Absolute>
    <NoteOff Channel="1" Note="99" Velocity="64"/>
  </Event>
  <Event>
    <Absolute>67940</Absolute>
    <NoteOn Channel="1" Note="98" Velocity="64"/>
  </Event>
  <Event>
    <Absolute>68000</Absolute>
    <NoteOff Channel="1" Note="98" Velocity="64"/>
  </Event>
  <Event>
    <Absolute>68183</Absolute>
    <NoteOn Channel="1" Note="98" Velocity="64"/>
  </Event>
  <Event>
    <Absolute>68243</Absolute>
    <NoteOff Channel="1" Note="98" Velocity="64"/>
  </Event>
  <Event>
    <Absolute>68305</Absolute>
    <NoteOn Channel="1" Note="99" Velocity="64"/>
  </Event>
  <Event>
    <Absolute>68365</Absolute>
    <NoteOff Channel="1" Note="99" Velocity="64"/>
  </Event>
  <Event>
    <Absolute>68548</Absolute>
    <NoteOn Channel="1" Note="99" Velocity="64"/>
  </Event>
  <Event>
    <Absolute>68608</Absolute>
    <NoteOff Channel="1" Note="99" Velocity="64"/>
  </Event>
  <Event>
    <Absolute>68669</Absolute>
    <NoteOn Channel="1" Note="98" Velocity="64"/>
  </Event>
  <Event>
    <Absolute>68729</Absolute>
    <NoteOff Channel="1" Note="98" Velocity="64"/>
  </Event>
  <Event>
    <Absolute>68913</Absolute>
    <NoteOn Channel="1" Note="97" Velocity="64"/>
  </Event>
  <Event>
    <Absolute>68974</Absolute>
    <NoteOff Channel="1" Note="97" Velocity="64"/>
  </Event>
  <Event>
    <Absolute>69157</Absolute>
    <NoteOn Channel="1" Note="96" Velocity="64"/>
  </Event>
  <Event>
    <Absolute>69218</Absolute>
    <NoteOff Channel="1" Note="96" Velocity="64"/>
  </Event>
  <Event>
    <Absolute>69279</Absolute>
    <NoteOn Channel="1" Note="96" Velocity="64"/>
  </Event>
  <Event>
    <Absolute>69340</Absolute>
    <NoteOff Channel="1" Note="96" Velocity="64"/>
  </Event>
  <Event>
    <Absolute>69401</Absolute>
    <NoteOn Channel="1" Note="99" Velocity="64"/>
  </Event>
  <Event>
    <Absolute>69462</Absolute>
    <NoteOff Channel="1" Note="99" Velocity="64"/>
  </Event>
  <Event>
    <Absolute>69645</Absolute>
    <NoteOn Channel="1" Note="99" Velocity="64"/>
  </Event>
  <Event>
    <Absolute>69706</Absolute>
    <NoteOff Channel="1" Note="99" Velocity="64"/>
  </Event>
  <Event>
    <Absolute>69889</Absolute>
    <NoteOn Channel="1" Note="98" Velocity="64"/>
  </Event>
  <Event>
    <Absolute>69949</Absolute>
    <NoteOff Channel="1" Note="98" Velocity="64"/>
  </Event>
  <Event>
    <Absolute>70129</Absolute>
    <NoteOn Channel="1" Note="98" Velocity="64"/>
  </Event>
  <Event>
    <Absolute>70189</Absolute>
    <NoteOff Channel="1" Note="98" Velocity="64"/>
  </Event>
  <Event>
    <Absolute>70249</Absolute>
    <NoteOn Channel="1" Note="99" Velocity="64"/>
  </Event>
  <Event>
    <Absolute>70309</Absolute>
    <NoteOff Channel="1" Note="99" Velocity="64"/>
  </Event>
  <Event>
    <Absolute>70489</Absolute>
    <NoteOn Channel="1" Note="99" Velocity="64"/>
  </Event>
  <Event>
    <Absolute>70549</Absolute>
    <NoteOff Channel="1" Note="99" Velocity="64"/>
  </Event>
  <Event>
    <Absolute>70609</Absolute>
    <NoteOn Channel="1" Note="98" Velocity="64"/>
  </Event>
  <Event>
    <Absolute>70669</Absolute>
    <NoteOff Channel="1" Note="98" Velocity="64"/>
  </Event>
  <Event>
    <Absolute>70849</Absolute>
    <NoteOn Channel="1" Note="97" Velocity="64"/>
  </Event>
  <Event>
    <Absolute>70909</Absolute>
    <NoteOff Channel="1" Note="97" Velocity="64"/>
  </Event>
  <Event>
    <Absolute>71090</Absolute>
    <NoteOn Channel="1" Note="96" Velocity="64"/>
  </Event>
  <Event>
    <Absolute>71150</Absolute>
    <NoteOff Channel="1" Note="96" Velocity="64"/>
  </Event>
  <Event>
    <Absolute>71210</Absolute>
    <NoteOn Channel="1" Note="96" Velocity="64"/>
  </Event>
  <Event>
    <Absolute>71270</Absolute>
    <NoteOff Channel="1" Note="96" Velocity="64"/>
  </Event>
  <Event>
    <Absolute>71331</Absolute>
    <NoteOn Channel="1" Note="99" Velocity="64"/>
  </Event>
  <Event>
    <Absolute>71391</Absolute>
    <NoteOff Channel="1" Note="99" Velocity="64"/>
  </Event>
  <Event>
    <Absolute>71572</Absolute>
    <NoteOn Channel="1" Note="99" Velocity="64"/>
  </Event>
  <Event>
    <Absolute>71632</Absolute>
    <NoteOff Channel="1" Note="99" Velocity="64"/>
  </Event>
  <Event>
    <Absolute>71813</Absolute>
    <NoteOn Channel="1" Note="98" Velocity="64"/>
  </Event>
  <Event>
    <Absolute>71872</Absolute>
    <NoteOff Channel="1" Note="98" Velocity="64"/>
  </Event>
  <Event>
    <Absolute>72053</Absolute>
    <NoteOn Channel="1" Note="98" Velocity="64"/>
  </Event>
  <Event>
    <Absolute>72112</Absolute>
    <NoteOff Channel="1" Note="98" Velocity="64"/>
  </Event>
  <Event>
    <Absolute>72172</Absolute>
    <NoteOn Channel="1" Note="99" Velocity="64"/>
  </Event>
  <Event>
    <Absolute>72231</Absolute>
    <NoteOff Channel="1" Note="99" Velocity="64"/>
  </Event>
  <Event>
    <Absolute>72412</Absolute>
    <NoteOn Channel="1" Note="99" Velocity="64"/>
  </Event>
  <Event>
    <Absolute>72471</Absolute>
    <NoteOff Channel="1" Note="99" Velocity="64"/>
  </Event>
  <Event>
    <Absolute>72532</Absolute>
    <NoteOn Channel="1" Note="98" Velocity="64"/>
  </Event>
  <Event>
    <Absolute>72591</Absolute>
    <NoteOff Channel="1" Note="98" Velocity="64"/>
  </Event>
  <Event>
    <Absolute>72772</Absolute>
    <NoteOn Channel="1" Note="99" Velocity="64"/>
  </Event>
  <Event>
    <Absolute>72832</Absolute>
    <NoteOff Channel="1" Note="99" Velocity="64"/>
  </Event>
  <Event>
    <Absolute>73015</Absolute>
    <NoteOn Channel="1" Note="98" Velocity="64"/>
  </Event>
  <Event>
    <Absolute>73075</Absolute>
    <NoteOff Channel="1" Note="98" Velocity="64"/>
  </Event>
  <Event>
    <Absolute>73258</Absolute>
    <NoteOn Channel="1" Note="100" Velocity="64"/>
  </Event>
  <Event>
    <Absolute>73744</Absolute>
    <NoteOff Channel="1" Note="100" Velocity="64"/>
  </Event>
  <Event>
    <Absolute>73744</Absolute>
    <NoteOn Channel="1" Note="99" Velocity="64"/>
  </Event>
  <Event>
    <Absolute>73804</Absolute>
    <NoteOff Channel="1" Note="99" Velocity="64"/>
  </Event>
  <Event>
    <Absolute>73987</Absolute>
    <NoteOn Channel="1" Note="99" Velocity="64"/>
  </Event>
  <Event>
    <Absolute>74047</Absolute>
    <NoteOff Channel="1" Note="99" Velocity="64"/>
  </Event>
  <Event>
    <Absolute>74108</Absolute>
    <NoteOn Channel="1" Note="100" Velocity="64"/>
  </Event>
  <Event>
    <Absolute>74168</Absolute>
    <NoteOff Channel="1" Note="100" Velocity="64"/>
  </Event>
  <Event>
    <Absolute>74351</Absolute>
    <NoteOn Channel="1" Note="100" Velocity="64"/>
  </Event>
  <Event>
    <Absolute>74411</Absolute>
    <NoteOff Channel="1" Note="100" Velocity="64"/>
  </Event>
  <Event>
    <Absolute>74473</Absolute>
    <NoteOn Channel="1" Note="99" Velocity="64"/>
  </Event>
  <Event>
    <Absolute>74533</Absolute>
    <NoteOff Channel="1" Note="99" Velocity="64"/>
  </Event>
  <Event>
    <Absolute>74716</Absolute>
    <NoteOn Channel="1" Note="98" Velocity="64"/>
  </Event>
  <Event>
    <Absolute>74777</Absolute>
    <NoteOff Channel="1" Note="98" Velocity="64"/>
  </Event>
  <Event>
    <Absolute>74960</Absolute>
    <NoteOn Channel="1" Note="97" Velocity="64"/>
  </Event>
  <Event>
    <Absolute>75021</Absolute>
    <NoteOff Channel="1" Note="97" Velocity="64"/>
  </Event>
  <Event>
    <Absolute>75204</Absolute>
    <NoteOn Channel="1" Note="100" Velocity="64"/>
  </Event>
  <Event>
    <Absolute>75265</Absolute>
    <NoteOff Channel="1" Note="100" Velocity="64"/>
  </Event>
  <Event>
    <Absolute>75448</Absolute>
    <NoteOn Channel="1" Note="100" Velocity="64"/>
  </Event>
  <Event>
    <Absolute>75509</Absolute>
    <NoteOff Channel="1" Note="100" Velocity="64"/>
  </Event>
  <Event>
    <Absolute>75692</Absolute>
    <NoteOn Channel="1" Note="99" Velocity="64"/>
  </Event>
  <Event>
    <Absolute>75752</Absolute>
    <NoteOff Channel="1" Note="99" Velocity="64"/>
  </Event>
  <Event>
    <Absolute>75934</Absolute>
    <NoteOn Channel="1" Note="99" Velocity="64"/>
  </Event>
  <Event>
    <Absolute>75994</Absolute>
    <NoteOff Channel="1" Note="99" Velocity="64"/>
  </Event>
  <Event>
    <Absolute>76055</Absolute>
    <NoteOn Channel="1" Note="100" Velocity="64"/>
  </Event>
  <Event>
    <Absolute>76115</Absolute>
    <NoteOff Channel="1" Note="100" Velocity="64"/>
  </Event>
  <Event>
    <Absolute>76297</Absolute>
    <NoteOn Channel="1" Note="100" Velocity="64"/>
  </Event>
  <Event>
    <Absolute>76357</Absolute>
    <NoteOff Channel="1" Note="100" Velocity="64"/>
  </Event>
  <Event>
    <Absolute>76418</Absolute>
    <NoteOn Channel="1" Note="99" Velocity="64"/>
  </Event>
  <Event>
    <Absolute>76478</Absolute>
    <NoteOff Channel="1" Note="99" Velocity="64"/>
  </Event>
  <Event>
    <Absolute>76660</Absolute>
    <NoteOn Channel="1" Note="98" Velocity="64"/>
  </Event>
  <Event>
    <Absolute>76720</Absolute>
    <NoteOff Channel="1" Note="98" Velocity="64"/>
  </Event>
  <Event>
    <Absolute>76902</Absolute>
    <NoteOn Channel="1" Note="97" Velocity="64"/>
  </Event>
  <Event>
    <Absolute>76962</Absolute>
    <NoteOff Channel="1" Note="97" Velocity="64"/>
  </Event>
  <Event>
    <Absolute>77144</Absolute>
    <NoteOn Channel="1" Note="100" Velocity="64"/>
  </Event>
  <Event>
    <Absolute>77204</Absolute>
    <NoteOff Channel="1" Note="100" Velocity="64"/>
  </Event>
  <Event>
    <Absolute>77386</Absolute>
    <NoteOn Channel="1" Note="100" Velocity="64"/>
  </Event>
  <Event>
    <Absolute>77446</Absolute>
    <NoteOff Channel="1" Note="100" Velocity="64"/>
  </Event>
  <Event>
    <Absolute>77628</Absolute>
    <NoteOn Channel="1" Note="99" Velocity="64"/>
  </Event>
  <Event>
    <Absolute>77688</Absolute>
    <NoteOff Channel="1" Note="99" Velocity="64"/>
  </Event>
  <Event>
    <Absolute>77871</Absolute>
    <NoteOn Channel="1" Note="99" Velocity="64"/>
  </Event>
  <Event>
    <Absolute>77931</Absolute>
    <NoteOff Channel="1" Note="99" Velocity="64"/>
  </Event>
  <Event>
    <Absolute>77993</Absolute>
    <NoteOn Channel="1" Note="100" Velocity="64"/>
  </Event>
  <Event>
    <Absolute>78053</Absolute>
    <NoteOff Channel="1" Note="100" Velocity="64"/>
  </Event>
  <Event>
    <Absolute>78235</Absolute>
    <NoteOn Channel="1" Note="100" Velocity="64"/>
  </Event>
  <Event>
    <Absolute>78295</Absolute>
    <NoteOff Channel="1" Note="100" Velocity="64"/>
  </Event>
  <Event>
    <Absolute>78357</Absolute>
    <NoteOn Channel="1" Note="99" Velocity="64"/>
  </Event>
  <Event>
    <Absolute>78417</Absolute>
    <NoteOff Channel="1" Note="99" Velocity="64"/>
  </Event>
  <Event>
    <Absolute>78600</Absolute>
    <NoteOn Channel="1" Note="98" Velocity="64"/>
  </Event>
  <Event>
    <Absolute>78660</Absolute>
    <NoteOff Channel="1" Note="98" Velocity="64"/>
  </Event>
  <Event>
    <Absolute>78843</Absolute>
    <NoteOn Channel="1" Note="97" Velocity="64"/>
  </Event>
  <Event>
    <Absolute>78903</Absolute>
    <NoteOff Channel="1" Note="97" Velocity="64"/>
  </Event>
  <Event>
    <Absolute>79086</Absolute>
    <NoteOn Channel="1" Note="100" Velocity="64"/>
  </Event>
  <Event>
    <Absolute>79146</Absolute>
    <NoteOff Channel="1" Note="100" Velocity="64"/>
  </Event>
  <Event>
    <Absolute>79329</Absolute>
    <NoteOn Channel="1" Note="100" Velocity="64"/>
  </Event>
  <Event>
    <Absolute>79389</Absolute>
    <NoteOff Channel="1" Note="100" Velocity="64"/>
  </Event>
  <Event>
    <Absolute>79572</Absolute>
    <NoteOn Channel="1" Note="99" Velocity="64"/>
  </Event>
  <Event>
    <Absolute>79632</Absolute>
    <NoteOff Channel="1" Note="99" Velocity="64"/>
  </Event>
  <Event>
    <Absolute>79815</Absolute>
    <NoteOn Channel="1" Note="99" Velocity="64"/>
  </Event>
  <Event>
    <Absolute>79875</Absolute>
    <NoteOff Channel="1" Note="99" Velocity="64"/>
  </Event>
  <Event>
    <Absolute>79936</Absolute>
    <NoteOn Channel="1" Note="100" Velocity="64"/>
  </Event>
  <Event>
    <Absolute>79996</Absolute>
    <NoteOff Channel="1" Note="100" Velocity="64"/>
  </Event>
  <Event>
    <Absolute>80179</Absolute>
    <NoteOn Channel="1" Note="100" Velocity="64"/>
  </Event>
  <Event>
    <Absolute>80239</Absolute>
    <NoteOff Channel="1" Note="100" Velocity="64"/>
  </Event>
  <Event>
    <Absolute>80300</Absolute>
    <NoteOn Channel="1" Note="99" Velocity="64"/>
  </Event>
  <Event>
    <Absolute>80360</Absolute>
    <NoteOff Channel="1" Note="99" Velocity="64"/>
  </Event>
  <Event>
    <Absolute>80543</Absolute>
    <NoteOn Channel="1" Note="100" Velocity="64"/>
  </Event>
  <Event>
    <Absolute>80603</Absolute>
    <NoteOff Channel="1" Note="100" Velocity="64"/>
  </Event>
  <Event>
    <Absolute>80786</Absolute>
    <NoteOn Channel="1" Note="97" Velocity="64"/>
  </Event>
  <Event>
    <Absolute>80846</Absolute>
    <NoteOff Channel="1" Note="97" Velocity="64"/>
  </Event>
  <Event>
    <Absolute>81028</Absolute>
    <NoteOn Channel="1" Note="98" Velocity="64"/>
  </Event>
  <Event>
    <Absolute>81513</Absolute>
    <NoteOff Channel="1" Note="98" Velocity="64"/>
  </Event>
  <Event>
    <Absolute>81514</Absolute>
    <NoteOn Channel="1" Note="98" Velocity="64"/>
  </Event>
  <Event>
    <Absolute>81999</Absolute>
    <NoteOff Channel="1" Note="98" Velocity="64"/>
  </Event>
  <Event>
    <Absolute>82000</Absolute>
    <NoteOn Channel="1" Note="98" Velocity="64"/>
  </Event>
  <Event>
    <Absolute>82060</Absolute>
    <NoteOff Channel="1" Note="98" Velocity="64"/>
  </Event>
  <Event>
    <Absolute>82243</Absolute>
    <NoteOn Channel="1" Note="96" Velocity="64"/>
  </Event>
  <Event>
    <Absolute>82303</Absolute>
    <NoteOff Channel="1" Note="96" Velocity="64"/>
  </Event>
  <Event>
    <Absolute>82486</Absolute>
    <NoteOn Channel="1" Note="97" Velocity="64"/>
  </Event>
  <Event>
    <Absolute>82546</Absolute>
    <NoteOff Channel="1" Note="97" Velocity="64"/>
  </Event>
  <Event>
    <Absolute>82729</Absolute>
    <NoteOn Channel="1" Note="96" Velocity="64"/>
  </Event>
  <Event>
    <Absolute>82789</Absolute>
    <NoteOff Channel="1" Note="96" Velocity="64"/>
  </Event>
  <Event>
    <Absolute>82972</Absolute>
    <NoteOn Channel="1" Note="99" Velocity="64"/>
  </Event>
  <Event>
    <Absolute>83457</Absolute>
    <NoteOff Channel="1" Note="99" Velocity="64"/>
  </Event>
  <Event>
    <Absolute>83458</Absolute>
    <NoteOn Channel="1" Note="99" Velocity="64"/>
  </Event>
  <Event>
    <Absolute>83943</Absolute>
    <NoteOff Channel="1" Note="99" Velocity="64"/>
  </Event>
  <Event>
    <Absolute>83944</Absolute>
    <NoteOn Channel="1" Note="99" Velocity="64"/>
  </Event>
  <Event>
    <Absolute>84429</Absolute>
    <NoteOff Channel="1" Note="99" Velocity="64"/>
  </Event>
  <Event>
    <Absolute>84430</Absolute>
    <NoteOn Channel="1" Note="99" Velocity="64"/>
  </Event>
  <Event>
    <Absolute>84491</Absolute>
    <NoteOff Channel="1" Note="99" Velocity="64"/>
  </Event>
  <Event>
    <Absolute>84677</Absolute>
    <NoteOn Channel="1" Note="97" Velocity="64"/>
  </Event>
  <Event>
    <Absolute>84738</Absolute>
    <NoteOff Channel="1" Note="97" Velocity="64"/>
  </Event>
  <Event>
    <Absolute>84801</Absolute>
    <NoteOn Channel="1" Note="97" Velocity="64"/>
  </Event>
  <Event>
    <Absolute>84862</Absolute>
    <NoteOff Channel="1" Note="97" Velocity="64"/>
  </Event>
  <Event>
    <Absolute>84924</Absolute>
    <NoteOn Channel="1" Note="100" Velocity="64"/>
  </Event>
  <Event>
    <Absolute>84985</Absolute>
    <NoteOff Channel="1" Note="100" Velocity="64"/>
  </Event>
  <Event>
    <Absolute>85171</Absolute>
    <NoteOn Channel="1" Note="100" Velocity="64"/>
  </Event>
  <Event>
    <Absolute>85232</Absolute>
    <NoteOff Channel="1" Note="100" Velocity="64"/>
  </Event>
  <Event>
    <Absolute>85418</Absolute>
    <NoteOn Channel="1" Note="99" Velocity="64"/>
  </Event>
  <Event>
    <Absolute>85479</Absolute>
    <NoteOff Channel="1" Note="99" Velocity="64"/>
  </Event>
  <Event>
    <Absolute>85666</Absolute>
    <NoteOn Channel="1" Note="97" Velocity="64"/>
  </Event>
  <Event>
    <Absolute>85727</Absolute>
    <NoteOff Channel="1" Note="97" Velocity="64"/>
  </Event>
  <Event>
    <Absolute>85789</Absolute>
    <NoteOn Channel="1" Note="98" Velocity="64"/>
  </Event>
  <Event>
    <Absolute>85850</Absolute>
    <NoteOff Channel="1" Note="98" Velocity="64"/>
  </Event>
  <Event>
    <Absolute>86036</Absolute>
    <NoteOn Channel="1" Note="98" Velocity="64"/>
  </Event>
  <Event>
    <Absolute>86097</Absolute>
    <NoteOff Channel="1" Note="98" Velocity="64"/>
  </Event>
  <Event>
    <Absolute>86160</Absolute>
    <NoteOn Channel="1" Note="97" Velocity="64"/>
  </Event>
  <Event>
    <Absolute>86221</Absolute>
    <NoteOff Channel="1" Note="97" Velocity="64"/>
  </Event>
  <Event>
    <Absolute>86407</Absolute>
    <NoteOn Channel="1" Note="98" Velocity="64"/>
  </Event>
  <Event>
    <Absolute>86467</Absolute>
    <NoteOff Channel="1" Note="98" Velocity="64"/>
  </Event>
  <Event>
    <Absolute>86651</Absolute>
    <NoteOn Channel="1" Note="96" Velocity="64"/>
  </Event>
  <Event>
    <Absolute>86711</Absolute>
    <NoteOff Channel="1" Note="96" Velocity="64"/>
  </Event>
  <Event>
    <Absolute>86895</Absolute>
    <NoteOn Channel="1" Note="100" Velocity="64"/>
  </Event>
  <Event>
    <Absolute>86955</Absolute>
    <NoteOff Channel="1" Note="100" Velocity="64"/>
  </Event>
  <Event>
    <Absolute>87139</Absolute>
    <NoteOn Channel="1" Note="100" Velocity="64"/>
  </Event>
  <Event>
    <Absolute>87199</Absolute>
    <NoteOff Channel="1" Note="100" Velocity="64"/>
  </Event>
  <Event>
    <Absolute>87383</Absolute>
    <NoteOn Channel="1" Note="99" Velocity="64"/>
  </Event>
  <Event>
    <Absolute>87442</Absolute>
    <NoteOff Channel="1" Note="99" Velocity="64"/>
  </Event>
  <Event>
    <Absolute>87620</Absolute>
    <NoteOn Channel="1" Note="97" Velocity="64"/>
  </Event>
  <Event>
    <Absolute>87679</Absolute>
    <NoteOff Channel="1" Note="97" Velocity="64"/>
  </Event>
  <Event>
    <Absolute>87738</Absolute>
    <NoteOn Channel="1" Note="98" Velocity="64"/>
  </Event>
  <Event>
    <Absolute>87797</Absolute>
    <NoteOff Channel="1" Note="98" Velocity="64"/>
  </Event>
  <Event>
    <Absolute>87975</Absolute>
    <NoteOn Channel="1" Note="98" Velocity="64"/>
  </Event>
  <Event>
    <Absolute>88034</Absolute>
    <NoteOff Channel="1" Note="98" Velocity="64"/>
  </Event>
  <Event>
    <Absolute>88094</Absolute>
    <NoteOn Channel="1" Note="97" Velocity="64"/>
  </Event>
  <Event>
    <Absolute>88153</Absolute>
    <NoteOff Channel="1" Note="97" Velocity="64"/>
  </Event>
  <Event>
    <Absolute>88331</Absolute>
    <NoteOn Channel="1" Note="98" Velocity="64"/>
  </Event>
  <Event>
    <Absolute>88391</Absolute>
    <NoteOff Channel="1" Note="98" Velocity="64"/>
  </Event>
  <Event>
    <Absolute>88571</Absolute>
    <NoteOn Channel="1" Note="96" Velocity="64"/>
  </Event>
  <Event>
    <Absolute>88631</Absolute>
    <NoteOff Channel="1" Note="96" Velocity="64"/>
  </Event>
  <Event>
    <Absolute>88812</Absolute>
    <NoteOn Channel="1" Note="100" Velocity="64"/>
  </Event>
  <Event>
    <Absolute>88872</Absolute>
    <NoteOff Channel="1" Note="100" Velocity="64"/>
  </Event>
  <Event>
    <Absolute>89053</Absolute>
    <NoteOn Channel="1" Note="100" Velocity="64"/>
  </Event>
  <Event>
    <Absolute>89113</Absolute>
    <NoteOff Channel="1" Note="100" Velocity="64"/>
  </Event>
  <Event>
    <Absolute>89294</Absolute>
    <NoteOn Channel="1" Note="99" Velocity="64"/>
  </Event>
  <Event>
    <Absolute>89354</Absolute>
    <NoteOff Channel="1" Note="99" Velocity="64"/>
  </Event>
  <Event>
    <Absolute>89534</Absolute>
    <NoteOn Channel="1" Note="97" Velocity="64"/>
  </Event>
  <Event>
    <Absolute>89594</Absolute>
    <NoteOff Channel="1" Note="97" Velocity="64"/>
  </Event>
  <Event>
    <Absolute>89655</Absolute>
    <NoteOn Channel="1" Note="98" Velocity="64"/>
  </Event>
  <Event>
    <Absolute>89715</Absolute>
    <NoteOff Channel="1" Note="98" Velocity="64"/>
  </Event>
  <Event>
    <Absolute>89896</Absolute>
    <NoteOn Channel="1" Note="98" Velocity="64"/>
  </Event>
  <Event>
    <Absolute>89956</Absolute>
    <NoteOff Channel="1" Note="98" Velocity="64"/>
  </Event>
  <Event>
    <Absolute>90016</Absolute>
    <NoteOn Channel="1" Note="97" Velocity="64"/>
  </Event>
  <Event>
    <Absolute>90076</Absolute>
    <NoteOff Channel="1" Note="97" Velocity="64"/>
  </Event>
  <Event>
    <Absolute>90257</Absolute>
    <NoteOn Channel="1" Note="98" Velocity="64"/>
  </Event>
  <Event>
    <Absolute>90316</Absolute>
    <NoteOff Channel="1" Note="98" Velocity="64"/>
  </Event>
  <Event>
    <Absolute>90495</Absolute>
    <NoteOn Channel="1" Note="96" Velocity="64"/>
  </Event>
  <Event>
    <Absolute>90554</Absolute>
    <NoteOff Channel="1" Note="96" Velocity="64"/>
  </Event>
  <Event>
    <Absolute>90734</Absolute>
    <NoteOn Channel="1" Note="97" Velocity="64"/>
  </Event>
  <Event>
    <Absolute>91096</Absolute>
    <NoteOff Channel="1" Note="97" Velocity="64"/>
  </Event>
  <Event>
    <Absolute>91097</Absolute>
    <NoteOn Channel="1" Note="97" Velocity="64"/>
  </Event>
  <Event>
    <Absolute>91459</Absolute>
    <NoteOff Channel="1" Note="97" Velocity="64"/>
  </Event>
  <Event>
    <Absolute>91460</Absolute>
    <NoteOn Channel="1" Note="97" Velocity="64"/>
  </Event>
  <Event>
    <Absolute>91943</Absolute>
    <NoteOff Channel="1" Note="97" Velocity="64"/>
  </Event>
  <Event>
    <Absolute>91943</Absolute>
    <NoteOn Channel="1" Note="97" Velocity="64"/>
  </Event>
  <Event>
    <Absolute>92003</Absolute>
    <NoteOff Channel="1" Note="97" Velocity="64"/>
  </Event>
  <Event>
    <Absolute>92185</Absolute>
    <NoteOn Channel="1" Note="100" Velocity="64"/>
  </Event>
  <Event>
    <Absolute>92678</Absolute>
    <NoteOff Channel="1" Note="100" Velocity="64"/>
  </Event>
  <Event>
    <Absolute>92678</Absolute>
    <NoteOn Channel="1" Note="96" Velocity="64"/>
  </Event>
  <Event>
    <Absolute>92740</Absolute>
    <NoteOff Channel="1" Note="96" Velocity="64"/>
  </Event>
  <Event>
    <Absolute>92927</Absolute>
    <NoteOn Channel="1" Note="98" Velocity="64"/>
  </Event>
  <Event>
    <Absolute>92989</Absolute>
    <NoteOff Channel="1" Note="98" Velocity="64"/>
  </Event>
  <Event>
    <Absolute>93176</Absolute>
    <NoteOn Channel="1" Note="99" Velocity="64"/>
  </Event>
  <Event>
    <Absolute>93238</Absolute>
    <NoteOff Channel="1" Note="99" Velocity="64"/>
  </Event>
  <Event>
    <Absolute>93425</Absolute>
    <NoteOn Channel="1" Note="96" Velocity="64"/>
  </Event>
  <Event>
    <Absolute>93487</Absolute>
    <NoteOff Channel="1" Note="96" Velocity="64"/>
  </Event>
  <Event>
    <Absolute>93549</Absolute>
    <NoteOn Channel="1" Note="96" Velocity="64"/>
  </Event>
  <Event>
    <Absolute>93611</Absolute>
    <NoteOff Channel="1" Note="96" Velocity="64"/>
  </Event>
  <Event>
    <Absolute>93674</Absolute>
    <NoteOn Channel="1" Note="96" Velocity="64"/>
  </Event>
  <Event>
    <Absolute>93736</Absolute>
    <NoteOff Channel="1" Note="96" Velocity="64"/>
  </Event>
  <Event>
    <Absolute>93923</Absolute>
    <NoteOn Channel="1" Note="100" Velocity="64"/>
  </Event>
  <Event>
    <Absolute>93985</Absolute>
    <NoteOff Channel="1" Note="100" Velocity="64"/>
  </Event>
  <Event>
    <Absolute>94171</Absolute>
    <NoteOn Channel="1" Note="100" Velocity="64"/>
  </Event>
  <Event>
    <Absolute>94233</Absolute>
    <NoteOff Channel="1" Note="100" Velocity="64"/>
  </Event>
  <Event>
    <Absolute>94420</Absolute>
    <NoteOn Channel="1" Note="96" Velocity="64"/>
  </Event>
  <Event>
    <Absolute>94482</Absolute>
    <NoteOff Channel="1" Note="96" Velocity="64"/>
  </Event>
  <Event>
    <Absolute>94545</Absolute>
    <NoteOn Channel="1" Note="96" Velocity="64"/>
  </Event>
  <Event>
    <Absolute>94607</Absolute>
    <NoteOff Channel="1" Note="96" Velocity="64"/>
  </Event>
  <Event>
    <Absolute>94669</Absolute>
    <NoteOn Channel="1" Note="96" Velocity="64"/>
  </Event>
  <Event>
    <Absolute>94731</Absolute>
    <NoteOff Channel="1" Note="96" Velocity="64"/>
  </Event>
  <Event>
    <Absolute>94918</Absolute>
    <NoteOn Channel="1" Note="98" Velocity="64"/>
  </Event>
  <Event>
    <Absolute>94980</Absolute>
    <NoteOff Channel="1" Note="98" Velocity="64"/>
  </Event>
  <Event>
    <Absolute>95167</Absolute>
    <NoteOn Channel="1" Note="99" Velocity="64"/>
  </Event>
  <Event>
    <Absolute>95229</Absolute>
    <NoteOff Channel="1" Note="99" Velocity="64"/>
  </Event>
  <Event>
    <Absolute>95416</Absolute>
    <NoteOn Channel="1" Note="96" Velocity="64"/>
  </Event>
  <Event>
    <Absolute>95478</Absolute>
    <NoteOff Channel="1" Note="96" Velocity="64"/>
  </Event>
  <Event>
    <Absolute>95540</Absolute>
    <NoteOn Channel="1" Note="96" Velocity="64"/>
  </Event>
  <Event>
    <Absolute>95602</Absolute>
    <NoteOff Channel="1" Note="96" Velocity="64"/>
  </Event>
  <Event>
    <Absolute>95665</Absolute>
    <NoteOn Channel="1" Note="97" Velocity="64"/>
  </Event>
  <Event>
    <Absolute>95727</Absolute>
    <NoteOff Channel="1" Note="97" Velocity="64"/>
  </Event>
  <Event>
    <Absolute>95914</Absolute>
    <NoteOn Channel="1" Note="97" Velocity="64"/>
  </Event>
  <Event>
    <Absolute>95976</Absolute>
    <NoteOff Channel="1" Note="97" Velocity="64"/>
  </Event>
  <Event>
    <Absolute>96163</Absolute>
    <NoteOn Channel="1" Note="97" Velocity="64"/>
  </Event>
  <Event>
    <Absolute>96225</Absolute>
    <NoteOff Channel="1" Note="97" Velocity="64"/>
  </Event>
  <Event>
    <Absolute>96412</Absolute>
    <NoteOn Channel="1" Note="96" Velocity="64"/>
  </Event>
  <Event>
    <Absolute>96474</Absolute>
    <NoteOff Channel="1" Note="96" Velocity="64"/>
  </Event>
  <Event>
    <Absolute>96536</Absolute>
    <NoteOn Channel="1" Note="96" Velocity="64"/>
  </Event>
  <Event>
    <Absolute>96598</Absolute>
    <NoteOff Channel="1" Note="96" Velocity="64"/>
  </Event>
  <Event>
    <Absolute>96660</Absolute>
    <NoteOn Channel="1" Note="96" Velocity="64"/>
  </Event>
  <Event>
    <Absolute>96722</Absolute>
    <NoteOff Channel="1" Note="96" Velocity="64"/>
  </Event>
  <Event>
    <Absolute>96909</Absolute>
    <NoteOn Channel="1" Note="98" Velocity="64"/>
  </Event>
  <Event>
    <Absolute>96971</Absolute>
    <NoteOff Channel="1" Note="98" Velocity="64"/>
  </Event>
  <Event>
    <Absolute>97158</Absolute>
    <NoteOn Channel="1" Note="99" Velocity="64"/>
  </Event>
  <Event>
    <Absolute>97219</Absolute>
    <NoteOff Channel="1" Note="99" Velocity="64"/>
  </Event>
  <Event>
    <Absolute>97406</Absolute>
    <NoteOn Channel="1" Note="96" Velocity="64"/>
  </Event>
  <Event>
    <Absolute>97467</Absolute>
    <NoteOff Channel="1" Note="96" Velocity="64"/>
  </Event>
  <Event>
    <Absolute>97530</Absolute>
    <NoteOn Channel="1" Note="96" Velocity="64"/>
  </Event>
  <Event>
    <Absolute>97591</Absolute>
    <NoteOff Channel="1" Note="96" Velocity="64"/>
  </Event>
  <Event>
    <Absolute>97654</Absolute>
    <NoteOn Channel="1" Note="96" Velocity="64"/>
  </Event>
  <Event>
    <Absolute>97715</Absolute>
    <NoteOff Channel="1" Note="96" Velocity="64"/>
  </Event>
  <Event>
    <Absolute>97901</Absolute>
    <NoteOn Channel="1" Note="100" Velocity="64"/>
  </Event>
  <Event>
    <Absolute>97962</Absolute>
    <NoteOff Channel="1" Note="100" Velocity="64"/>
  </Event>
  <Event>
    <Absolute>98149</Absolute>
    <NoteOn Channel="1" Note="100" Velocity="64"/>
  </Event>
  <Event>
    <Absolute>98210</Absolute>
    <NoteOff Channel="1" Note="100" Velocity="64"/>
  </Event>
  <Event>
    <Absolute>98394</Absolute>
    <NoteOn Channel="1" Note="96" Velocity="64"/>
  </Event>
  <Event>
    <Absolute>98455</Absolute>
    <NoteOff Channel="1" Note="96" Velocity="64"/>
  </Event>
  <Event>
    <Absolute>98516</Absolute>
    <NoteOn Channel="1" Note="96" Velocity="64"/>
  </Event>
  <Event>
    <Absolute>98577</Absolute>
    <NoteOff Channel="1" Note="96" Velocity="64"/>
  </Event>
  <Event>
    <Absolute>98639</Absolute>
    <NoteOn Channel="1" Note="96" Velocity="64"/>
  </Event>
  <Event>
    <Absolute>98700</Absolute>
    <NoteOff Channel="1" Note="96" Velocity="64"/>
  </Event>
  <Event>
    <Absolute>98884</Absolute>
    <NoteOn Channel="1" Note="98" Velocity="64"/>
  </Event>
  <Event>
    <Absolute>98945</Absolute>
    <NoteOff Channel="1" Note="98" Velocity="64"/>
  </Event>
  <Event>
    <Absolute>99129</Absolute>
    <NoteOn Channel="1" Note="99" Velocity="64"/>
  </Event>
  <Event>
    <Absolute>99190</Absolute>
    <NoteOff Channel="1" Note="99" Velocity="64"/>
  </Event>
  <Event>
    <Absolute>99374</Absolute>
    <NoteOn Channel="1" Note="96" Velocity="64"/>
  </Event>
  <Event>
    <Absolute>99435</Absolute>
    <NoteOff Channel="1" Note="96" Velocity="64"/>
  </Event>
  <Event>
    <Absolute>99496</Absolute>
    <NoteOn Channel="1" Note="96" Velocity="64"/>
  </Event>
  <Event>
    <Absolute>99557</Absolute>
    <NoteOff Channel="1" Note="96" Velocity="64"/>
  </Event>
  <Event>
    <Absolute>99619</Absolute>
    <NoteOn Channel="1" Note="97" Velocity="64"/>
  </Event>
  <Event>
    <Absolute>99680</Absolute>
    <NoteOff Channel="1" Note="97" Velocity="64"/>
  </Event>
  <Event>
    <Absolute>99864</Absolute>
    <NoteOn Channel="1" Note="97" Velocity="64"/>
  </Event>
  <Event>
    <Absolute>99925</Absolute>
    <NoteOff Channel="1" Note="97" Velocity="64"/>
  </Event>
  <Event>
    <Absolute>100109</Absolute>
    <NoteOn Channel="1" Note="97" Velocity="64"/>
  </Event>
  <Event>
    <Absolute>100170</Absolute>
    <NoteOff Channel="1" Note="97" Velocity="64"/>
  </Event>
  <Event>
    <Absolute>100354</Absolute>
    <NoteOn Channel="1" Note="96" Velocity="64"/>
  </Event>
  <Event>
    <Absolute>100415</Absolute>
    <NoteOff Channel="1" Note="96" Velocity="64"/>
  </Event>
  <Event>
    <Absolute>100476</Absolute>
    <NoteOn Channel="1" Note="96" Velocity="64"/>
  </Event>
  <Event>
    <Absolute>100537</Absolute>
    <NoteOff Channel="1" Note="96" Velocity="64"/>
  </Event>
  <Event>
    <Absolute>100599</Absolute>
    <NoteOn Channel="1" Note="96" Velocity="64"/>
  </Event>
  <Event>
    <Absolute>100660</Absolute>
    <NoteOff Channel="1" Note="96" Velocity="64"/>
  </Event>
  <Event>
    <Absolute>100844</Absolute>
    <NoteOn Channel="1" Note="98" Velocity="64"/>
  </Event>
  <Event>
    <Absolute>100905</Absolute>
    <NoteOff Channel="1" Note="98" Velocity="64"/>
  </Event>
  <Event>
    <Absolute>101089</Absolute>
    <NoteOn Channel="1" Note="99" Velocity="64"/>
  </Event>
  <Event>
    <Absolute>101151</Absolute>
    <NoteOff Channel="1" Note="99" Velocity="64"/>
  </Event>
  <Event>
    <Absolute>101339</Absolute>
    <NoteOn Channel="1" Note="96" Velocity="64"/>
  </Event>
  <Event>
    <Absolute>101401</Absolute>
    <NoteOff Channel="1" Note="96" Velocity="64"/>
  </Event>
  <Event>
    <Absolute>101464</Absolute>
    <NoteOn Channel="1" Note="96" Velocity="64"/>
  </Event>
  <Event>
    <Absolute>101526</Absolute>
    <NoteOff Channel="1" Note="96" Velocity="64"/>
  </Event>
  <Event>
    <Absolute>101589</Absolute>
    <NoteOn Channel="1" Note="96" Velocity="64"/>
  </Event>
  <Event>
    <Absolute>101651</Absolute>
    <NoteOff Channel="1" Note="96" Velocity="64"/>
  </Event>
  <Event>
    <Absolute>101840</Absolute>
    <NoteOn Channel="1" Note="100" Velocity="64"/>
  </Event>
  <Event>
    <Absolute>101902</Absolute>
    <NoteOff Channel="1" Note="100" Velocity="64"/>
  </Event>
  <Event>
    <Absolute>102090</Absolute>
    <NoteOn Channel="1" Note="100" Velocity="64"/>
  </Event>
  <Event>
    <Absolute>102152</Absolute>
    <NoteOff Channel="1" Note="100" Velocity="64"/>
  </Event>
  <Event>
    <Absolute>102338</Absolute>
    <NoteOn Channel="1" Note="96" Velocity="64"/>
  </Event>
  <Event>
    <Absolute>102400</Absolute>
    <NoteOff Channel="1" Note="96" Velocity="64"/>
  </Event>
  <Event>
    <Absolute>102462</Absolute>
    <NoteOn Channel="1" Note="96" Velocity="64"/>
  </Event>
  <Event>
    <Absolute>102524</Absolute>
    <NoteOff Channel="1" Note="96" Velocity="64"/>
  </Event>
  <Event>
    <Absolute>102586</Absolute>
    <NoteOn Channel="1" Note="96" Velocity="64"/>
  </Event>
  <Event>
    <Absolute>102648</Absolute>
    <NoteOff Channel="1" Note="96" Velocity="64"/>
  </Event>
  <Event>
    <Absolute>102835</Absolute>
    <NoteOn Channel="1" Note="98" Velocity="64"/>
  </Event>
  <Event>
    <Absolute>102897</Absolute>
    <NoteOff Channel="1" Note="98" Velocity="64"/>
  </Event>
  <Event>
    <Absolute>103083</Absolute>
    <NoteOn Channel="1" Note="99" Velocity="64"/>
  </Event>
  <Event>
    <Absolute>103144</Absolute>
    <NoteOff Channel="1" Note="99" Velocity="64"/>
  </Event>
  <Event>
    <Absolute>103329</Absolute>
    <NoteOn Channel="1" Note="96" Velocity="64"/>
  </Event>
  <Event>
    <Absolute>103390</Absolute>
    <NoteOff Channel="1" Note="96" Velocity="64"/>
  </Event>
  <Event>
    <Absolute>103453</Absolute>
    <NoteOn Channel="1" Note="96" Velocity="64"/>
  </Event>
  <Event>
    <Absolute>103514</Absolute>
    <NoteOff Channel="1" Note="96" Velocity="64"/>
  </Event>
  <Event>
    <Absolute>103576</Absolute>
    <NoteOn Channel="1" Note="97" Velocity="64"/>
  </Event>
  <Event>
    <Absolute>103637</Absolute>
    <NoteOff Channel="1" Note="97" Velocity="64"/>
  </Event>
  <Event>
    <Absolute>103823</Absolute>
    <NoteOn Channel="1" Note="100" Velocity="64"/>
  </Event>
  <Event>
    <Absolute>103884</Absolute>
    <NoteOff Channel="1" Note="100" Velocity="64"/>
  </Event>
  <Event>
    <Absolute>104070</Absolute>
    <NoteOn Channel="1" Note="97" Velocity="64"/>
  </Event>
  <Event>
    <Absolute>104131</Absolute>
    <NoteOff Channel="1" Note="97" Velocity="64"/>
  </Event>
  <Event>
    <Absolute>104316</Absolute>
    <NoteOn Channel="1" Note="100" Velocity="64"/>
  </Event>
  <Event>
    <Absolute>104377</Absolute>
    <NoteOff Channel="1" Note="100" Velocity="64"/>
  </Event>
  <Event>
    <Absolute>104563</Absolute>
    <NoteOn Channel="1" Note="96" Velocity="64"/>
  </Event>
  <Event>
    <Absolute>104624</Absolute>
    <NoteOff Channel="1" Note="96" Velocity="64"/>
  </Event>
  <Event>
    <Absolute>104810</Absolute>
    <NoteOn Channel="1" Note="98" Velocity="64"/>
  </Event>
  <Event>
    <Absolute>104871</Absolute>
    <NoteOff Channel="1" Note="98" Velocity="64"/>
  </Event>
  <Event>
    <Absolute>105056</Absolute>
    <NoteOn Channel="1" Note="99" Velocity="64"/>
  </Event>
  <Event>
    <Absolute>105117</Absolute>
    <NoteOff Channel="1" Note="99" Velocity="64"/>
  </Event>
  <Event>
    <Absolute>105303</Absolute>
    <NoteOn Channel="1" Note="96" Velocity="64"/>
  </Event>
  <Event>
    <Absolute>105364</Absolute>
    <NoteOff Channel="1" Note="96" Velocity="64"/>
  </Event>
  <Event>
    <Absolute>105426</Absolute>
    <NoteOn Channel="1" Note="96" Velocity="64"/>
  </Event>
  <Event>
    <Absolute>105487</Absolute>
    <NoteOff Channel="1" Note="96" Velocity="64"/>
  </Event>
  <Event>
    <Absolute>105550</Absolute>
    <NoteOn Channel="1" Note="96" Velocity="64"/>
  </Event>
  <Event>
    <Absolute>105611</Absolute>
    <NoteOff Channel="1" Note="96" Velocity="64"/>
  </Event>
  <Event>
    <Absolute>105797</Absolute>
    <NoteOn Channel="1" Note="100" Velocity="64"/>
  </Event>
  <Event>
    <Absolute>105858</Absolute>
    <NoteOff Channel="1" Note="100" Velocity="64"/>
  </Event>
  <Event>
    <Absolute>106043</Absolute>
    <NoteOn Channel="1" Note="100" Velocity="64"/>
  </Event>
  <Event>
    <Absolute>106103</Absolute>
    <NoteOff Channel="1" Note="100" Velocity="64"/>
  </Event>
  <Event>
    <Absolute>106286</Absolute>
    <NoteOn Channel="1" Note="96" Velocity="64"/>
  </Event>
  <Event>
    <Absolute>106346</Absolute>
    <NoteOff Channel="1" Note="96" Velocity="64"/>
  </Event>
  <Event>
    <Absolute>106407</Absolute>
    <NoteOn Channel="1" Note="96" Velocity="64"/>
  </Event>
  <Event>
    <Absolute>106467</Absolute>
    <NoteOff Channel="1" Note="96" Velocity="64"/>
  </Event>
  <Event>
    <Absolute>106528</Absolute>
    <NoteOn Channel="1" Note="96" Velocity="64"/>
  </Event>
  <Event>
    <Absolute>106588</Absolute>
    <NoteOff Channel="1" Note="96" Velocity="64"/>
  </Event>
  <Event>
    <Absolute>106771</Absolute>
    <NoteOn Channel="1" Note="98" Velocity="64"/>
  </Event>
  <Event>
    <Absolute>106831</Absolute>
    <NoteOff Channel="1" Note="98" Velocity="64"/>
  </Event>
  <Event>
    <Absolute>107014</Absolute>
    <NoteOn Channel="1" Note="99" Velocity="64"/>
  </Event>
  <Event>
    <Absolute>107074</Absolute>
    <NoteOff Channel="1" Note="99" Velocity="64"/>
  </Event>
  <Event>
    <Absolute>107256</Absolute>
    <NoteOn Channel="1" Note="96" Velocity="64"/>
  </Event>
  <Event>
    <Absolute>107316</Absolute>
    <NoteOff Channel="1" Note="96" Velocity="64"/>
  </Event>
  <Event>
    <Absolute>107377</Absolute>
    <NoteOn Channel="1" Note="96" Velocity="64"/>
  </Event>
  <Event>
    <Absolute>107437</Absolute>
    <NoteOff Channel="1" Note="96" Velocity="64"/>
  </Event>
  <Event>
    <Absolute>107499</Absolute>
    <NoteOn Channel="1" Note="97" Velocity="64"/>
  </Event>
  <Event>
    <Absolute>107559</Absolute>
    <NoteOff Channel="1" Note="97" Velocity="64"/>
  </Event>
  <Event>
    <Absolute>107741</Absolute>
    <NoteOn Channel="1" Note="97" Velocity="64"/>
  </Event>
  <Event>
    <Absolute>107801</Absolute>
    <NoteOff Channel="1" Note="97" Velocity="64"/>
  </Event>
  <Event>
    <Absolute>107984</Absolute>
    <NoteOn Channel="1" Note="97" Velocity="64"/>
  </Event>
  <Event>
    <Absolute>108044</Absolute>
    <NoteOff Channel="1" Note="97" Velocity="64"/>
  </Event>
  <Event>
    <Absolute>108226</Absolute>
    <NoteOn Channel="1" Note="96" Velocity="64"/>
  </Event>
  <Event>
    <Absolute>108286</Absolute>
    <NoteOff Channel="1" Note="96" Velocity="64"/>
  </Event>
  <Event>
    <Absolute>108348</Absolute>
    <NoteOn Channel="1" Note="96" Velocity="64"/>
  </Event>
  <Event>
    <Absolute>108408</Absolute>
    <NoteOff Channel="1" Note="96" Velocity="64"/>
  </Event>
  <Event>
    <Absolute>108469</Absolute>
    <NoteOn Channel="1" Note="99" Velocity="64"/>
  </Event>
  <Event>
    <Absolute>108530</Absolute>
    <NoteOff Channel="1" Note="99" Velocity="64"/>
  </Event>
  <Event>
    <Absolute>108715</Absolute>
    <NoteOn Channel="1" Note="99" Velocity="64"/>
  </Event>
  <Event>
    <Absolute>108776</Absolute>
    <NoteOff Channel="1" Note="99" Velocity="64"/>
  </Event>
  <Event>
    <Absolute>108961</Absolute>
    <NoteOn Channel="1" Note="98" Velocity="64"/>
  </Event>
  <Event>
    <Absolute>109020</Absolute>
    <NoteOff Channel="1" Note="98" Velocity="64"/>
  </Event>
  <Event>
    <Absolute>109200</Absolute>
    <NoteOn Channel="1" Note="98" Velocity="64"/>
  </Event>
  <Event>
    <Absolute>109259</Absolute>
    <NoteOff Channel="1" Note="98" Velocity="64"/>
  </Event>
  <Event>
    <Absolute>109319</Absolute>
    <NoteOn Channel="1" Note="99" Velocity="64"/>
  </Event>
  <Event>
    <Absolute>109378</Absolute>
    <NoteOff Channel="1" Note="99" Velocity="64"/>
  </Event>
  <Event>
    <Absolute>109558</Absolute>
    <NoteOn Channel="1" Note="99" Velocity="64"/>
  </Event>
  <Event>
    <Absolute>109617</Absolute>
    <NoteOff Channel="1" Note="99" Velocity="64"/>
  </Event>
  <Event>
    <Absolute>109677</Absolute>
    <NoteOn Channel="1" Note="98" Velocity="64"/>
  </Event>
  <Event>
    <Absolute>109736</Absolute>
    <NoteOff Channel="1" Note="98" Velocity="64"/>
  </Event>
  <Event>
    <Absolute>109916</Absolute>
    <NoteOn Channel="1" Note="97" Velocity="64"/>
  </Event>
  <Event>
    <Absolute>109975</Absolute>
    <NoteOff Channel="1" Note="97" Velocity="64"/>
  </Event>
  <Event>
    <Absolute>110156</Absolute>
    <NoteOn Channel="1" Note="96" Velocity="64"/>
  </Event>
  <Event>
    <Absolute>110215</Absolute>
    <NoteOff Channel="1" Note="96" Velocity="64"/>
  </Event>
  <Event>
    <Absolute>110276</Absolute>
    <NoteOn Channel="1" Note="96" Velocity="64"/>
  </Event>
  <Event>
    <Absolute>110335</Absolute>
    <NoteOff Channel="1" Note="96" Velocity="64"/>
  </Event>
  <Event>
    <Absolute>110396</Absolute>
    <NoteOn Channel="1" Note="99" Velocity="64"/>
  </Event>
  <Event>
    <Absolute>110455</Absolute>
    <NoteOff Channel="1" Note="99" Velocity="64"/>
  </Event>
  <Event>
    <Absolute>110636</Absolute>
    <NoteOn Channel="1" Note="99" Velocity="64"/>
  </Event>
  <Event>
    <Absolute>110695</Absolute>
    <NoteOff Channel="1" Note="99" Velocity="64"/>
  </Event>
  <Event>
    <Absolute>110876</Absolute>
    <NoteOn Channel="1" Note="98" Velocity="64"/>
  </Event>
  <Event>
    <Absolute>110936</Absolute>
    <NoteOff Channel="1" Note="98" Velocity="64"/>
  </Event>
  <Event>
    <Absolute>111117</Absolute>
    <NoteOn Channel="1" Note="98" Velocity="64"/>
  </Event>
  <Event>
    <Absolute>111177</Absolute>
    <NoteOff Channel="1" Note="98" Velocity="64"/>
  </Event>
  <Event>
    <Absolute>111238</Absolute>
    <NoteOn Channel="1" Note="99" Velocity="64"/>
  </Event>
  <Event>
    <Absolute>111298</Absolute>
    <NoteOff Channel="1" Note="99" Velocity="64"/>
  </Event>
  <Event>
    <Absolute>111479</Absolute>
    <NoteOn Channel="1" Note="99" Velocity="64"/>
  </Event>
  <Event>
    <Absolute>111539</Absolute>
    <NoteOff Channel="1" Note="99" Velocity="64"/>
  </Event>
  <Event>
    <Absolute>111600</Absolute>
    <NoteOn Channel="1" Note="98" Velocity="64"/>
  </Event>
  <Event>
    <Absolute>111660</Absolute>
    <NoteOff Channel="1" Note="98" Velocity="64"/>
  </Event>
  <Event>
    <Absolute>111841</Absolute>
    <NoteOn Channel="1" Note="97" Velocity="64"/>
  </Event>
  <Event>
    <Absolute>111901</Absolute>
    <NoteOff Channel="1" Note="97" Velocity="64"/>
  </Event>
  <Event>
    <Absolute>112085</Absolute>
    <NoteOn Channel="1" Note="96" Velocity="64"/>
  </Event>
  <Event>
    <Absolute>112145</Absolute>
    <NoteOff Channel="1" Note="96" Velocity="64"/>
  </Event>
  <Event>
    <Absolute>112207</Absolute>
    <NoteOn Channel="1" Note="96" Velocity="64"/>
  </Event>
  <Event>
    <Absolute>112267</Absolute>
    <NoteOff Channel="1" Note="96" Velocity="64"/>
  </Event>
  <Event>
    <Absolute>112329</Absolute>
    <NoteOn Channel="1" Note="99" Velocity="64"/>
  </Event>
  <Event>
    <Absolute>112389</Absolute>
    <NoteOff Channel="1" Note="99" Velocity="64"/>
  </Event>
  <Event>
    <Absolute>112572</Absolute>
    <NoteOn Channel="1" Note="99" Velocity="64"/>
  </Event>
  <Event>
    <Absolute>112632</Absolute>
    <NoteOff Channel="1" Note="99" Velocity="64"/>
  </Event>
  <Event>
    <Absolute>112816</Absolute>
    <NoteOn Channel="1" Note="98" Velocity="64"/>
  </Event>
  <Event>
    <Absolute>112875</Absolute>
    <NoteOff Channel="1" Note="98" Velocity="64"/>
  </Event>
  <Event>
    <Absolute>113053</Absolute>
    <NoteOn Channel="1" Note="98" Velocity="64"/>
  </Event>
  <Event>
    <Absolute>113112</Absolute>
    <NoteOff Channel="1" Note="98" Velocity="64"/>
  </Event>
  <Event>
    <Absolute>113172</Absolute>
    <NoteOn Channel="1" Note="99" Velocity="64"/>
  </Event>
  <Event>
    <Absolute>113231</Absolute>
    <NoteOff Channel="1" Note="99" Velocity="64"/>
  </Event>
  <Event>
    <Absolute>113409</Absolute>
    <NoteOn Channel="1" Note="99" Velocity="64"/>
  </Event>
  <Event>
    <Absolute>113468</Absolute>
    <NoteOff Channel="1" Note="99" Velocity="64"/>
  </Event>
  <Event>
    <Absolute>113528</Absolute>
    <NoteOn Channel="1" Note="98" Velocity="64"/>
  </Event>
  <Event>
    <Absolute>113587</Absolute>
    <NoteOff Channel="1" Note="98" Velocity="64"/>
  </Event>
  <Event>
    <Absolute>113765</Absolute>
    <NoteOn Channel="1" Note="97" Velocity="64"/>
  </Event>
  <Event>
    <Absolute>113825</Absolute>
    <NoteOff Channel="1" Note="97" Velocity="64"/>
  </Event>
  <Event>
    <Absolute>114006</Absolute>
    <NoteOn Channel="1" Note="96" Velocity="64"/>
  </Event>
  <Event>
    <Absolute>114066</Absolute>
    <NoteOff Channel="1" Note="96" Velocity="64"/>
  </Event>
  <Event>
    <Absolute>114126</Absolute>
    <NoteOn Channel="1" Note="96" Velocity="64"/>
  </Event>
  <Event>
    <Absolute>114186</Absolute>
    <NoteOff Channel="1" Note="96" Velocity="64"/>
  </Event>
  <Event>
    <Absolute>114247</Absolute>
    <NoteOn Channel="1" Note="99" Velocity="64"/>
  </Event>
  <Event>
    <Absolute>114307</Absolute>
    <NoteOff Channel="1" Note="99" Velocity="64"/>
  </Event>
  <Event>
    <Absolute>114488</Absolute>
    <NoteOn Channel="1" Note="99" Velocity="64"/>
  </Event>
  <Event>
    <Absolute>114548</Absolute>
    <NoteOff Channel="1" Note="99" Velocity="64"/>
  </Event>
  <Event>
    <Absolute>114728</Absolute>
    <NoteOn Channel="1" Note="98" Velocity="64"/>
  </Event>
  <Event>
    <Absolute>114788</Absolute>
    <NoteOff Channel="1" Note="98" Velocity="64"/>
  </Event>
  <Event>
    <Absolute>114969</Absolute>
    <NoteOn Channel="1" Note="98" Velocity="64"/>
  </Event>
  <Event>
    <Absolute>115029</Absolute>
    <NoteOff Channel="1" Note="98" Velocity="64"/>
  </Event>
  <Event>
    <Absolute>115090</Absolute>
    <NoteOn Channel="1" Note="99" Velocity="64"/>
  </Event>
  <Event>
    <Absolute>115150</Absolute>
    <NoteOff Channel="1" Note="99" Velocity="64"/>
  </Event>
  <Event>
    <Absolute>115330</Absolute>
    <NoteOn Channel="1" Note="99" Velocity="64"/>
  </Event>
  <Event>
    <Absolute>115390</Absolute>
    <NoteOff Channel="1" Note="99" Velocity="64"/>
  </Event>
  <Event>
    <Absolute>115451</Absolute>
    <NoteOn Channel="1" Note="98" Velocity="64"/>
  </Event>
  <Event>
    <Absolute>115511</Absolute>
    <NoteOff Channel="1" Note="98" Velocity="64"/>
  </Event>
  <Event>
    <Absolute>115691</Absolute>
    <NoteOn Channel="1" Note="99" Velocity="64"/>
  </Event>
  <Event>
    <Absolute>115750</Absolute>
    <NoteOff Channel="1" Note="99" Velocity="64"/>
  </Event>
  <Event>
    <Absolute>115929</Absolute>
    <NoteOn Channel="1" Note="98" Velocity="64"/>
  </Event>
  <Event>
    <Absolute>115988</Absolute>
    <NoteOff Channel="1" Note="98" Velocity="64"/>
  </Event>
  <Event>
    <Absolute>116167</Absolute>
    <NoteOn Channel="1" Note="100" Velocity="64"/>
  </Event>
  <Event>
    <Absolute>116642</Absolute>
    <NoteOff Channel="1" Note="100" Velocity="64"/>
  </Event>
  <Event>
    <Absolute>116642</Absolute>
    <NoteOn Channel="1" Note="99" Velocity="64"/>
  </Event>
  <Event>
    <Absolute>116702</Absolute>
    <NoteOff Channel="1" Note="99" Velocity="64"/>
  </Event>
  <Event>
    <Absolute>116884</Absolute>
    <NoteOn Channel="1" Note="99" Velocity="64"/>
  </Event>
  <Event>
    <Absolute>116944</Absolute>
    <NoteOff Channel="1" Note="99" Velocity="64"/>
  </Event>
  <Event>
    <Absolute>117005</Absolute>
    <NoteOn Channel="1" Note="100" Velocity="64"/>
  </Event>
  <Event>
    <Absolute>117065</Absolute>
    <NoteOff Channel="1" Note="100" Velocity="64"/>
  </Event>
  <Event>
    <Absolute>117247</Absolute>
    <NoteOn Channel="1" Note="100" Velocity="64"/>
  </Event>
  <Event>
    <Absolute>117307</Absolute>
    <NoteOff Channel="1" Note="100" Velocity="64"/>
  </Event>
  <Event>
    <Absolute>117368</Absolute>
    <NoteOn Channel="1" Note="99" Velocity="64"/>
  </Event>
  <Event>
    <Absolute>117428</Absolute>
    <NoteOff Channel="1" Note="99" Velocity="64"/>
  </Event>
  <Event>
    <Absolute>117610</Absolute>
    <NoteOn Channel="1" Note="98" Velocity="64"/>
  </Event>
  <Event>
    <Absolute>117670</Absolute>
    <NoteOff Channel="1" Note="98" Velocity="64"/>
  </Event>
  <Event>
    <Absolute>117851</Absolute>
    <NoteOn Channel="1" Note="97" Velocity="64"/>
  </Event>
  <Event>
    <Absolute>117911</Absolute>
    <NoteOff Channel="1" Note="97" Velocity="64"/>
  </Event>
  <Event>
    <Absolute>118092</Absolute>
    <NoteOn Channel="1" Note="100" Velocity="64"/>
  </Event>
  <Event>
    <Absolute>118152</Absolute>
    <NoteOff Channel="1" Note="100" Velocity="64"/>
  </Event>
  <Event>
    <Absolute>118332</Absolute>
    <NoteOn Channel="1" Note="100" Velocity="64"/>
  </Event>
  <Event>
    <Absolute>118392</Absolute>
    <NoteOff Channel="1" Note="100" Velocity="64"/>
  </Event>
  <Event>
    <Absolute>118573</Absolute>
    <NoteOn Channel="1" Note="99" Velocity="64"/>
  </Event>
  <Event>
    <Absolute>118633</Absolute>
    <NoteOff Channel="1" Note="99" Velocity="64"/>
  </Event>
  <Event>
    <Absolute>118816</Absolute>
    <NoteOn Channel="1" Note="99" Velocity="64"/>
  </Event>
  <Event>
    <Absolute>118876</Absolute>
    <NoteOff Channel="1" Note="99" Velocity="64"/>
  </Event>
  <Event>
    <Absolute>118937</Absolute>
    <NoteOn Channel="1" Note="100" Velocity="64"/>
  </Event>
  <Event>
    <Absolute>118997</Absolute>
    <NoteOff Channel="1" Note="100" Velocity="64"/>
  </Event>
  <Event>
    <Absolute>119180</Absolute>
    <NoteOn Channel="1" Note="100" Velocity="64"/>
  </Event>
  <Event>
    <Absolute>119240</Absolute>
    <NoteOff Channel="1" Note="100" Velocity="64"/>
  </Event>
  <Event>
    <Absolute>119301</Absolute>
    <NoteOn Channel="1" Note="99" Velocity="64"/>
  </Event>
  <Event>
    <Absolute>119361</Absolute>
    <NoteOff Channel="1" Note="99" Velocity="64"/>
  </Event>
  <Event>
    <Absolute>119544</Absolute>
    <NoteOn Channel="1" Note="98" Velocity="64"/>
  </Event>
  <Event>
    <Absolute>119604</Absolute>
    <NoteOff Channel="1" Note="98" Velocity="64"/>
  </Event>
  <Event>
    <Absolute>119784</Absolute>
    <NoteOn Channel="1" Note="97" Velocity="64"/>
  </Event>
  <Event>
    <Absolute>119844</Absolute>
    <NoteOff Channel="1" Note="97" Velocity="64"/>
  </Event>
  <Event>
    <Absolute>120025</Absolute>
    <NoteOn Channel="1" Note="100" Velocity="64"/>
  </Event>
  <Event>
    <Absolute>120085</Absolute>
    <NoteOff Channel="1" Note="100" Velocity="64"/>
  </Event>
  <Event>
    <Absolute>120265</Absolute>
    <NoteOn Channel="1" Note="100" Velocity="64"/>
  </Event>
  <Event>
    <Absolute>120325</Absolute>
    <NoteOff Channel="1" Note="100" Velocity="64"/>
  </Event>
  <Event>
    <Absolute>120505</Absolute>
    <NoteOn Channel="1" Note="99" Velocity="64"/>
  </Event>
  <Event>
    <Absolute>120565</Absolute>
    <NoteOff Channel="1" Note="99" Velocity="64"/>
  </Event>
  <Event>
    <Absolute>120747</Absolute>
    <NoteOn Channel="1" Note="99" Velocity="64"/>
  </Event>
  <Event>
    <Absolute>120807</Absolute>
    <NoteOff Channel="1" Note="99" Velocity="64"/>
  </Event>
  <Event>
    <Absolute>120868</Absolute>
    <NoteOn Channel="1" Note="100" Velocity="64"/>
  </Event>
  <Event>
    <Absolute>120928</Absolute>
    <NoteOff Channel="1" Note="100" Velocity="64"/>
  </Event>
  <Event>
    <Absolute>121110</Absolute>
    <NoteOn Channel="1" Note="100" Velocity="64"/>
  </Event>
  <Event>
    <Absolute>121170</Absolute>
    <NoteOff Channel="1" Note="100" Velocity="64"/>
  </Event>
  <Event>
    <Absolute>121231</Absolute>
    <NoteOn Channel="1" Note="99" Velocity="64"/>
  </Event>
  <Event>
    <Absolute>121291</Absolute>
    <NoteOff Channel="1" Note="99" Velocity="64"/>
  </Event>
  <Event>
    <Absolute>121472</Absolute>
    <NoteOn Channel="1" Note="98" Velocity="64"/>
  </Event>
  <Event>
    <Absolute>121532</Absolute>
    <NoteOff Channel="1" Note="98" Velocity="64"/>
  </Event>
  <Event>
    <Absolute>121713</Absolute>
    <NoteOn Channel="1" Note="97" Velocity="64"/>
  </Event>
  <Event>
    <Absolute>121773</Absolute>
    <NoteOff Channel="1" Note="97" Velocity="64"/>
  </Event>
  <Event>
    <Absolute>121954</Absolute>
    <NoteOn Channel="1" Note="100" Velocity="64"/>
  </Event>
  <Event>
    <Absolute>122014</Absolute>
    <NoteOff Channel="1" Note="100" Velocity="64"/>
  </Event>
  <Event>
    <Absolute>122196</Absolute>
    <NoteOn Channel="1" Note="100" Velocity="64"/>
  </Event>
  <Event>
    <Absolute>122256</Absolute>
    <NoteOff Channel="1" Note="100" Velocity="64"/>
  </Event>
  <Event>
    <Absolute>122437</Absolute>
    <NoteOn Channel="1" Note="99" Velocity="64"/>
  </Event>
  <Event>
    <Absolute>122498</Absolute>
    <NoteOff Channel="1" Note="99" Velocity="64"/>
  </Event>
  <Event>
    <Absolute>122682</Absolute>
    <NoteOn Channel="1" Note="99" Velocity="64"/>
  </Event>
  <Event>
    <Absolute>122743</Absolute>
    <NoteOff Channel="1" Note="99" Velocity="64"/>
  </Event>
  <Event>
    <Absolute>122805</Absolute>
    <NoteOn Channel="1" Note="100" Velocity="64"/>
  </Event>
  <Event>
    <Absolute>122866</Absolute>
    <NoteOff Channel="1" Note="100" Velocity="64"/>
  </Event>
  <Event>
    <Absolute>123051</Absolute>
    <NoteOn Channel="1" Note="100" Velocity="64"/>
  </Event>
  <Event>
    <Absolute>123112</Absolute>
    <NoteOff Channel="1" Note="100" Velocity="64"/>
  </Event>
  <Event>
    <Absolute>123174</Absolute>
    <NoteOn Channel="1" Note="99" Velocity="64"/>
  </Event>
  <Event>
    <Absolute>123235</Absolute>
    <NoteOff Channel="1" Note="99" Velocity="64"/>
  </Event>
  <Event>
    <Absolute>123419</Absolute>
    <NoteOn Channel="1" Note="100" Velocity="64"/>
  </Event>
  <Event>
    <Absolute>123480</Absolute>
    <NoteOff Channel="1" Note="100" Velocity="64"/>
  </Event>
  <Event>
    <Absolute>123665</Absolute>
    <NoteOn Channel="1" Note="97" Velocity="64"/>
  </Event>
  <Event>
    <Absolute>123726</Absolute>
    <NoteOff Channel="1" Note="97" Velocity="64"/>
  </Event>
  <Event>
    <Absolute>123911</Absolute>
    <NoteOn Channel="1" Note="98" Velocity="64"/>
  </Event>
  <Event>
    <Absolute>124396</Absolute>
    <NoteOff Channel="1" Note="98" Velocity="64"/>
  </Event>
  <Event>
    <Absolute>124396</Absolute>
    <NoteOn Channel="1" Note="98" Velocity="64"/>
  </Event>
  <Event>
    <Absolute>124881</Absolute>
    <NoteOff Channel="1" Note="98" Velocity="64"/>
  </Event>
  <Event>
    <Absolute>124882</Absolute>
    <NoteOn Channel="1" Note="98" Velocity="64"/>
  </Event>
  <Event>
    <Absolute>124942</Absolute>
    <NoteOff Channel="1" Note="98" Velocity="64"/>
  </Event>
  <Event>
    <Absolute>125124</Absolute>
    <NoteOn Channel="1" Note="96" Velocity="64"/>
  </Event>
  <Event>
    <Absolute>125184</Absolute>
    <NoteOff Channel="1" Note="96" Velocity="64"/>
  </Event>
  <Event>
    <Absolute>125367</Absolute>
    <NoteOn Channel="1" Note="97" Velocity="64"/>
  </Event>
  <Event>
    <Absolute>125430</Absolute>
    <NoteOff Channel="1" Note="97" Velocity="64"/>
  </Event>
  <Event>
    <Absolute>125622</Absolute>
    <NoteOn Channel="1" Note="96" Velocity="64"/>
  </Event>
  <Event>
    <Absolute>125685</Absolute>
    <NoteOff Channel="1" Note="96" Velocity="64"/>
  </Event>
  <Event>
    <Absolute>125878</Absolute>
    <NoteOn Channel="1" Note="99" Velocity="64"/>
  </Event>
  <Event>
    <Absolute>126366</Absolute>
    <NoteOff Channel="1" Note="99" Velocity="64"/>
  </Event>
  <Event>
    <Absolute>126366</Absolute>
    <NoteOn Channel="1" Note="99" Velocity="64"/>
  </Event>
  <Event>
    <Absolute>126854</Absolute>
    <NoteOff Channel="1" Note="99" Velocity="64"/>
  </Event>
  <Event>
    <Absolute>126854</Absolute>
    <NoteOn Channel="1" Note="99" Velocity="64"/>
  </Event>
  <Event>
    <Absolute>127342</Absolute>
    <NoteOff Channel="1" Note="99" Velocity="64"/>
  </Event>
  <Event>
    <Absolute>127343</Absolute>
    <NoteOn Channel="1" Note="99" Velocity="64"/>
  </Event>
  <Event>
    <Absolute>127404</Absolute>
    <NoteOff Channel="1" Note="99" Velocity="64"/>
  </Event>
  <Event>
    <Absolute>127587</Absolute>
    <NoteOn Channel="1" Note="97" Velocity="64"/>
  </Event>
  <Event>
    <Absolute>127648</Absolute>
    <NoteOff Channel="1" Note="97" Velocity="64"/>
  </Event>
  <Event>
    <Absolute>127709</Absolute>
    <NoteOn Channel="1" Note="97" Velocity="64"/>
  </Event>
  <Event>
    <Absolute>127770</Absolute>
    <NoteOff Channel="1" Note="97" Velocity="64"/>
  </Event>
  <Event>
    <Absolute>127831</Absolute>
    <NoteOn Channel="1" Note="100" Velocity="64"/>
  </Event>
  <Event>
    <Absolute>127892</Absolute>
    <NoteOff Channel="1" Note="100" Velocity="64"/>
  </Event>
  <Event>
    <Absolute>128076</Absolute>
    <NoteOn Channel="1" Note="100" Velocity="64"/>
  </Event>
  <Event>
    <Absolute>128137</Absolute>
    <NoteOff Channel="1" Note="100" Velocity="64"/>
  </Event>
  <Event>
    <Absolute>128320</Absolute>
    <NoteOn Channel="1" Note="99" Velocity="64"/>
  </Event>
  <Event>
    <Absolute>128381</Absolute>
    <NoteOff Channel="1" Note="99" Velocity="64"/>
  </Event>
  <Event>
    <Absolute>128564</Absolute>
    <NoteOn Channel="1" Note="97" Velocity="64"/>
  </Event>
  <Event>
    <Absolute>128625</Absolute>
    <NoteOff Channel="1" Note="97" Velocity="64"/>
  </Event>
  <Event>
    <Absolute>128686</Absolute>
    <NoteOn Channel="1" Note="98" Velocity="64"/>
  </Event>
  <Event>
    <Absolute>128747</Absolute>
    <NoteOff Channel="1" Note="98" Velocity="64"/>
  </Event>
  <Event>
    <Absolute>128930</Absolute>
    <NoteOn Channel="1" Note="98" Velocity="64"/>
  </Event>
  <Event>
    <Absolute>128991</Absolute>
    <NoteOff Channel="1" Note="98" Velocity="64"/>
  </Event>
  <Event>
    <Absolute>129052</Absolute>
    <NoteOn Channel="1" Note="97" Velocity="64"/>
  </Event>
  <Event>
    <Absolute>129113</Absolute>
    <NoteOff Channel="1" Note="97" Velocity="64"/>
  </Event>
  <Event>
    <Absolute>129297</Absolute>
    <NoteOn Channel="1" Note="98" Velocity="64"/>
  </Event>
  <Event>
    <Absolute>129358</Absolute>
    <NoteOff Channel="1" Note="98" Velocity="64"/>
  </Event>
  <Event>
    <Absolute>129541</Absolute>
    <NoteOn Channel="1" Note="96" Velocity="64"/>
  </Event>
  <Event>
    <Absolute>129602</Absolute>
    <NoteOff Channel="1" Note="96" Velocity="64"/>
  </Event>
  <Event>
    <Absolute>129785</Absolute>
    <NoteOn Channel="1" Note="100" Velocity="64"/>
  </Event>
  <Event>
    <Absolute>129846</Absolute>
    <NoteOff Channel="1" Note="100" Velocity="64"/>
  </Event>
  <Event>
    <Absolute>130032</Absolute>
    <NoteOn Channel="1" Note="100" Velocity="64"/>
  </Event>
  <Event>
    <Absolute>130093</Absolute>
    <NoteOff Channel="1" Note="100" Velocity="64"/>
  </Event>
  <Event>
    <Absolute>130280</Absolute>
    <NoteOn Channel="1" Note="99" Velocity="64"/>
  </Event>
  <Event>
    <Absolute>130340</Absolute>
    <NoteOff Channel="1" Note="99" Velocity="64"/>
  </Event>
  <Event>
    <Absolute>130521</Absolute>
    <NoteOn Channel="1" Note="97" Velocity="64"/>
  </Event>
  <Event>
    <Absolute>130581</Absolute>
    <NoteOff Channel="1" Note="97" Velocity="64"/>
  </Event>
  <Event>
    <Absolute>130641</Absolute>
    <NoteOn Channel="1" Note="98" Velocity="64"/>
  </Event>
  <Event>
    <Absolute>130701</Absolute>
    <NoteOff Channel="1" Note="98" Velocity="64"/>
  </Event>
  <Event>
    <Absolute>130882</Absolute>
    <NoteOn Channel="1" Note="98" Velocity="64"/>
  </Event>
  <Event>
    <Absolute>130942</Absolute>
    <NoteOff Channel="1" Note="98" Velocity="64"/>
  </Event>
  <Event>
    <Absolute>131003</Absolute>
    <NoteOn Channel="1" Note="97" Velocity="64"/>
  </Event>
  <Event>
    <Absolute>131063</Absolute>
    <NoteOff Channel="1" Note="97" Velocity="64"/>
  </Event>
  <Event>
    <Absolute>131244</Absolute>
    <NoteOn Channel="1" Note="98" Velocity="64"/>
  </Event>
  <Event>
    <Absolute>131304</Absolute>
    <NoteOff Channel="1" Note="98" Velocity="64"/>
  </Event>
  <Event>
    <Absolute>131487</Absolute>
    <NoteOn Channel="1" Note="96" Velocity="64"/>
  </Event>
  <Event>
    <Absolute>131547</Absolute>
    <NoteOff Channel="1" Note="96" Velocity="64"/>
  </Event>
  <Event>
    <Absolute>131729</Absolute>
    <NoteOn Channel="1" Note="100" Velocity="64"/>
  </Event>
  <Event>
    <Absolute>131789</Absolute>
    <NoteOff Channel="1" Note="100" Velocity="64"/>
  </Event>
  <Event>
    <Absolute>131972</Absolute>
    <NoteOn Channel="1" Note="100" Velocity="64"/>
  </Event>
  <Event>
    <Absolute>132032</Absolute>
    <NoteOff Channel="1" Note="100" Velocity="64"/>
  </Event>
  <Event>
    <Absolute>132214</Absolute>
    <NoteOn Channel="1" Note="99" Velocity="64"/>
  </Event>
  <Event>
    <Absolute>132274</Absolute>
    <NoteOff Channel="1" Note="99" Velocity="64"/>
  </Event>
  <Event>
    <Absolute>132455</Absolute>
    <NoteOn Channel="1" Note="97" Velocity="64"/>
  </Event>
  <Event>
    <Absolute>132515</Absolute>
    <NoteOff Channel="1" Note="97" Velocity="64"/>
  </Event>
  <Event>
    <Absolute>132575</Absolute>
    <NoteOn Channel="1" Note="98" Velocity="64"/>
  </Event>
  <Event>
    <Absolute>132635</Absolute>
    <NoteOff Channel="1" Note="98" Velocity="64"/>
  </Event>
  <Event>
    <Absolute>132815</Absolute>
    <NoteOn Channel="1" Note="98" Velocity="64"/>
  </Event>
  <Event>
    <Absolute>132875</Absolute>
    <NoteOff Channel="1" Note="98" Velocity="64"/>
  </Event>
  <Event>
    <Absolute>132935</Absolute>
    <NoteOn Channel="1" Note="97" Velocity="64"/>
  </Event>
  <Event>
    <Absolute>132995</Absolute>
    <NoteOff Channel="1" Note="97" Velocity="64"/>
  </Event>
  <Event>
    <Absolute>133175</Absolute>
    <NoteOn Channel="1" Note="98" Velocity="64"/>
  </Event>
  <Event>
    <Absolute>133234</Absolute>
    <NoteOff Channel="1" Note="98" Velocity="64"/>
  </Event>
  <Event>
    <Absolute>133415</Absolute>
    <NoteOn Channel="1" Note="96" Velocity="64"/>
  </Event>
  <Event>
    <Absolute>133474</Absolute>
    <NoteOff Channel="1" Note="96" Velocity="64"/>
  </Event>
  <Event>
    <Absolute>133654</Absolute>
    <NoteOn Channel="1" Note="100" Velocity="64"/>
  </Event>
  <Event>
    <Absolute>134018</Absolute>
    <NoteOff Channel="1" Note="100" Velocity="64"/>
  </Event>
  <Event>
    <Absolute>134018</Absolute>
    <NoteOn Channel="1" Note="99" Velocity="64"/>
  </Event>
  <Event>
    <Absolute>134382</Absolute>
    <NoteOff Channel="1" Note="99" Velocity="64"/>
  </Event>
  <Event>
    <Absolute>134382</Absolute>
    <NoteOn Channel="1" Note="98" Velocity="64"/>
  </Event>
  <Event>
    <Absolute>134867</Absolute>
    <NoteOff Channel="1" Note="98" Velocity="64"/>
  </Event>
  <Event>
    <Absolute>134868</Absolute>
    <NoteOn Channel="1" Note="99" Velocity="64"/>
  </Event>
  <Event>
    <Absolute>134928</Absolute>
    <NoteOff Channel="1" Note="99" Velocity="64"/>
  </Event>
  <Event>
    <Absolute>135111</Absolute>
    <NoteOn Channel="1" Note="98" Velocity="64"/>
  </Event>
  <Event>
    <Absolute>135173</Absolute>
    <NoteOff Channel="1" Note="98" Velocity="64"/>
  </Event>
  <Event>
    <Absolute>135360</Absolute>
    <NoteOn Channel="1" Note="96" Velocity="64"/>
  </Event>
  <Event>
    <Absolute>135422</Absolute>
    <NoteOff Channel="1" Note="96" Velocity="64"/>
  </Event>
  <Event>
    <Absolute>135609</Absolute>
    <NoteOn Channel="1" Note="99" Velocity="64"/>
  </Event>
  <Event>
    <Absolute>137132</Absolute>
    <NoteOff Channel="1" Note="99" Velocity="64"/>
  </Event>
  <Event>
    <Absolute>137619</Absolute>
    <NoteOn Channel="1" Note="96" Velocity="64"/>
  </Event>
  <Event>
    <Absolute>139110</Absolute>
    <NoteOff Channel="1" Note="96" Velocity="64"/>
  </Event>
  <Event>
    <Absolute>139609</Absolute>
    <NoteOn Channel="1" Note="99" Velocity="64"/>
  </Event>
  <Event>
    <Absolute>141222</Absolute>
    <NoteOff Channel="1" Note="99" Velocity="64"/>
  </Event>
  <Event>
    <Absolute>141593</Absolute>
    <NoteOn Channel="1" Note="96" Velocity="64"/>
  </Event>
  <Event>
    <Absolute>143064</Absolute>
    <NoteOff Channel="1" Note="96" Velocity="64"/>
  </Event>
  <Event>
    <Absolute>143306</Absolute>
    <NoteOn Channel="1" Note="97" Velocity="64"/>
  </Event>
  <Event>
    <Absolute>143366</Absolute>
    <NoteOff Channel="1" Note="97" Velocity="64"/>
  </Event>
  <Event>
    <Absolute>143426</Absolute>
    <NoteOn Channel="1" Note="98" Velocity="64"/>
  </Event>
  <Event>
    <Absolute>143486</Absolute>
    <NoteOff Channel="1" Note="98" Velocity="64"/>
  </Event>
  <Event>
    <Absolute>143547</Absolute>
    <NoteOn Channel="1" Note="99" Velocity="64"/>
  </Event>
  <Event>
    <Absolute>145066</Absolute>
    <NoteOff Channel="1" Note="99" Velocity="64"/>
  </Event>
  <Event>
    <Absolute>145307</Absolute>
    <NoteOn Channel="1" Note="98" Velocity="64"/>
  </Event>
  <Event>
    <Absolute>145367</Absolute>
    <NoteOff Channel="1" Note="98" Velocity="64"/>
  </Event>
  <Event>
    <Absolute>145428</Absolute>
    <NoteOn Channel="1" Note="99" Velocity="64"/>
  </Event>
  <Event>
    <Absolute>145488</Absolute>
    <NoteOff Channel="1" Note="99" Velocity="64"/>
  </Event>
  <Event>
    <Absolute>145548</Absolute>
    <NoteOn Channel="1" Note="100" Velocity="64"/>
  </Event>
  <Event>
    <Absolute>146744</Absolute>
    <NoteOff Channel="1" Note="100" Velocity="64"/>
  </Event>
  <Event>
    <Absolute>146745</Absolute>
    <NoteOn Channel="1" Note="96" Velocity="64"/>
  </Event>
  <Event>
    <Absolute>146804</Absolute>
    <NoteOff Channel="1" Note="96" Velocity="64"/>
  </Event>
  <Event>
    <Absolute>146984</Absolute>
    <NoteOn Channel="1" Note="97" Velocity="64"/>
  </Event>
  <Event>
    <Absolute>147044</Absolute>
    <NoteOff Channel="1" Note="97" Velocity="64"/>
  </Event>
  <Event>
    <Absolute>147227</Absolute>
    <NoteOn Channel="1" Note="98" Velocity="64"/>
  </Event>
  <Event>
    <Absolute>147287</Absolute>
    <NoteOff Channel="1" Note="98" Velocity="64"/>
  </Event>
  <Event>
    <Absolute>147470</Absolute>
    <NoteOn Channel="1" Note="99" Velocity="64"/>
  </Event>
  <Event>
    <Absolute>147956</Absolute>
    <NoteOff Channel="1" Note="99" Velocity="64"/>
  </Event>
  <Event>
    <Absolute>147957</Absolute>
    <NoteOn Channel="1" Note="99" Velocity="64"/>
  </Event>
  <Event>
    <Absolute>148320</Absolute>
    <NoteOff Channel="1" Note="99" Velocity="64"/>
  </Event>
  <Event>
    <Absolute>148320</Absolute>
    <NoteOn Channel="1" Note="96" Velocity="64"/>
  </Event>
  <Event>
    <Absolute>148380</Absolute>
    <NoteOff Channel="1" Note="96" Velocity="64"/>
  </Event>
  <Event>
    <Absolute>148441</Absolute>
    <NoteOn Channel="1" Note="99" Velocity="64"/>
  </Event>
  <Event>
    <Absolute>148501</Absolute>
    <NoteOff Channel="1" Note="99" Velocity="64"/>
  </Event>
  <Event>
    <Absolute>148684</Absolute>
    <NoteOn Channel="1" Note="98" Velocity="64"/>
  </Event>
  <Event>
    <Absolute>148744</Absolute>
    <NoteOff Channel="1" Note="98" Velocity="64"/>
  </Event>
  <Event>
    <Absolute>148926</Absolute>
    <NoteOn Channel="1" Note="97" Velocity="64"/>
  </Event>
  <Event>
    <Absolute>148986</Absolute>
    <NoteOff Channel="1" Note="97" Velocity="64"/>
  </Event>
  <Event>
    <Absolute>149166</Absolute>
    <NoteOn Channel="1" Note="96" Velocity="64"/>
  </Event>
  <Event>
    <Absolute>149226</Absolute>
    <NoteOff Channel="1" Note="96" Velocity="64"/>
  </Event>
  <Event>
    <Absolute>149406</Absolute>
    <NoteOn Channel="1" Note="98" Velocity="64"/>
  </Event>
  <Event>
    <Absolute>149464</Absolute>
    <NoteOff Channel="1" Note="98" Velocity="64"/>
  </Event>
  <Event>
    <Absolute>149642</Absolute>
    <NoteOn Channel="1" Note="98" Velocity="64"/>
  </Event>
  <Event>
    <Absolute>149700</Absolute>
    <NoteOff Channel="1" Note="98" Velocity="64"/>
  </Event>
  <Event>
    <Absolute>149877</Absolute>
    <NoteOn Channel="1" Note="98" Velocity="64"/>
  </Event>
  <Event>
    <Absolute>149935</Absolute>
    <NoteOff Channel="1" Note="98" Velocity="64"/>
  </Event>
  <Event>
    <Absolute>150112</Absolute>
    <NoteOn Channel="1" Note="98" Velocity="64"/>
  </Event>
  <Event>
    <Absolute>150170</Absolute>
    <NoteOff Channel="1" Note="98" Velocity="64"/>
  </Event>
  <Event>
    <Absolute>150347</Absolute>
    <NoteOn Channel="1" Note="98" Velocity="64"/>
  </Event>
  <Event>
    <Absolute>150405</Absolute>
    <NoteOff Channel="1" Note="98" Velocity="64"/>
  </Event>
  <Event>
    <Absolute>150816</Absolute>
    <NoteOn Channel="1" Note="96" Velocity="64"/>
  </Event>
  <Event>
    <Absolute>151320</Absolute>
    <NoteOff Channel="1" Note="96" Velocity="64"/>
  </Event>
  <Event>
    <Absolute>151320</Absolute>
    <NoteOn Channel="1" Note="98" Velocity="64"/>
  </Event>
  <Event>
    <Absolute>151378</Absolute>
    <NoteOff Channel="1" Note="98" Velocity="64"/>
  </Event>
  <Event>
    <Absolute>151554</Absolute>
    <NoteOn Channel="1" Note="98" Velocity="64"/>
  </Event>
  <Event>
    <Absolute>151612</Absolute>
    <NoteOff Channel="1" Note="98" Velocity="64"/>
  </Event>
  <Event>
    <Absolute>151788</Absolute>
    <NoteOn Channel="1" Note="98" Velocity="64"/>
  </Event>
  <Event>
    <Absolute>151847</Absolute>
    <NoteOff Channel="1" Note="98" Velocity="64"/>
  </Event>
  <Event>
    <Absolute>152024</Absolute>
    <NoteOn Channel="1" Note="98" Velocity="64"/>
  </Event>
  <Event>
    <Absolute>152083</Absolute>
    <NoteOff Channel="1" Note="98" Velocity="64"/>
  </Event>
  <Event>
    <Absolute>152261</Absolute>
    <NoteOn Channel="1" Note="98" Velocity="64"/>
  </Event>
  <Event>
    <Absolute>152320</Absolute>
    <NoteOff Channel="1" Note="98" Velocity="64"/>
  </Event>
  <Event>
    <Absolute>152735</Absolute>
    <NoteOn Channel="1" Note="96" Velocity="64"/>
  </Event>
  <Event>
    <Absolute>153212</Absolute>
    <NoteOff Channel="1" Note="96" Velocity="64"/>
  </Event>
  <Event>
    <Absolute>153212</Absolute>
    <NoteOn Channel="1" Note="98" Velocity="64"/>
  </Event>
  <Event>
    <Absolute>153271</Absolute>
    <NoteOff Channel="1" Note="98" Velocity="64"/>
  </Event>
  <Event>
    <Absolute>153451</Absolute>
    <NoteOn Channel="1" Note="98" Velocity="64"/>
  </Event>
  <Event>
    <Absolute>153510</Absolute>
    <NoteOff Channel="1" Note="98" Velocity="64"/>
  </Event>
  <Event>
    <Absolute>153690</Absolute>
    <NoteOn Channel="1" Note="98" Velocity="64"/>
  </Event>
  <Event>
    <Absolute>153750</Absolute>
    <NoteOff Channel="1" Note="98" Velocity="64"/>
  </Event>
  <Event>
    <Absolute>153933</Absolute>
    <NoteOn Channel="1" Note="98" Velocity="64"/>
  </Event>
  <Event>
    <Absolute>153993</Absolute>
    <NoteOff Channel="1" Note="98" Velocity="64"/>
  </Event>
  <Event>
    <Absolute>154176</Absolute>
    <NoteOn Channel="1" Note="98" Velocity="64"/>
  </Event>
  <Event>
    <Absolute>154236</Absolute>
    <NoteOff Channel="1" Note="98" Velocity="64"/>
  </Event>
  <Event>
    <Absolute>154662</Absolute>
    <NoteOn Channel="1" Note="96" Velocity="64"/>
  </Event>
  <Event>
    <Absolute>155143</Absolute>
    <NoteOff Channel="1" Note="96" Velocity="64"/>
  </Event>
  <Event>
    <Absolute>155143</Absolute>
    <NoteOn Channel="1" Note="99" Velocity="64"/>
  </Event>
  <Event>
    <Absolute>155202</Absolute>
    <NoteOff Channel="1" Note="99" Velocity="64"/>
  </Event>
  <Event>
    <Absolute>155381</Absolute>
    <NoteOn Channel="1" Note="99" Velocity="64"/>
  </Event>
  <Event>
    <Absolute>155440</Absolute>
    <NoteOff Channel="1" Note="99" Velocity="64"/>
  </Event>
  <Event>
    <Absolute>155618</Absolute>
    <NoteOn Channel="1" Note="99" Velocity="64"/>
  </Event>
  <Event>
    <Absolute>155677</Absolute>
    <NoteOff Channel="1" Note="99" Velocity="64"/>
  </Event>
  <Event>
    <Absolute>155855</Absolute>
    <NoteOn Channel="1" Note="99" Velocity="64"/>
  </Event>
  <Event>
    <Absolute>155914</Absolute>
    <NoteOff Channel="1" Note="99" Velocity="64"/>
  </Event>
  <Event>
    <Absolute>156092</Absolute>
    <NoteOn Channel="1" Note="100" Velocity="64"/>
  </Event>
  <Event>
    <Absolute>156151</Absolute>
    <NoteOff Channel="1" Note="100" Velocity="64"/>
  </Event>
  <Event>
    <Absolute>156329</Absolute>
    <NoteOn Channel="1" Note="100" Velocity="64"/>
  </Event>
  <Event>
    <Absolute>156388</Absolute>
    <NoteOff Channel="1" Note="100" Velocity="64"/>
  </Event>
  <Event>
    <Absolute>156567</Absolute>
    <NoteOn Channel="1" Note="100" Velocity="64"/>
  </Event>
  <Event>
    <Absolute>156629</Absolute>
    <NoteOff Channel="1" Note="100" Velocity="64"/>
  </Event>
  <Event>
    <Absolute>156817</Absolute>
    <NoteOn Channel="1" Note="100" Velocity="64"/>
  </Event>
  <Event>
    <Absolute>156879</Absolute>
    <NoteOff Channel="1" Note="100" Velocity="64"/>
  </Event>
  <Event>
    <Absolute>157068</Absolute>
    <NoteOn Channel="1" Note="96" Velocity="64"/>
  </Event>
  <Event>
    <Absolute>157131</Absolute>
    <NoteOff Channel="1" Note="96" Velocity="64"/>
  </Event>
  <Event>
    <Absolute>157321</Absolute>
    <NoteOn Channel="1" Note="98" Velocity="64"/>
  </Event>
  <Event>
    <Absolute>157384</Absolute>
    <NoteOff Channel="1" Note="98" Velocity="64"/>
  </Event>
  <Event>
    <Absolute>157573</Absolute>
    <NoteOn Channel="1" Note="99" Velocity="64"/>
  </Event>
  <Event>
    <Absolute>157634</Absolute>
    <NoteOff Channel="1" Note="99" Velocity="64"/>
  </Event>
  <Event>
    <Absolute>157819</Absolute>
    <NoteOn Channel="1" Note="96" Velocity="64"/>
  </Event>
  <Event>
    <Absolute>157880</Absolute>
    <NoteOff Channel="1" Note="96" Velocity="64"/>
  </Event>
  <Event>
    <Absolute>157942</Absolute>
    <NoteOn Channel="1" Note="96" Velocity="64"/>
  </Event>
  <Event>
    <Absolute>158003</Absolute>
    <NoteOff Channel="1" Note="96" Velocity="64"/>
  </Event>
  <Event>
    <Absolute>158066</Absolute>
    <NoteOn Channel="1" Note="96" Velocity="64"/>
  </Event>
  <Event>
    <Absolute>158127</Absolute>
    <NoteOff Channel="1" Note="96" Velocity="64"/>
  </Event>
  <Event>
    <Absolute>158312</Absolute>
    <NoteOn Channel="1" Note="100" Velocity="64"/>
  </Event>
  <Event>
    <Absolute>158373</Absolute>
    <NoteOff Channel="1" Note="100" Velocity="64"/>
  </Event>
  <Event>
    <Absolute>158558</Absolute>
    <NoteOn Channel="1" Note="100" Velocity="64"/>
  </Event>
  <Event>
    <Absolute>158619</Absolute>
    <NoteOff Channel="1" Note="100" Velocity="64"/>
  </Event>
  <Event>
    <Absolute>158804</Absolute>
    <NoteOn Channel="1" Note="96" Velocity="64"/>
  </Event>
  <Event>
    <Absolute>158865</Absolute>
    <NoteOff Channel="1" Note="96" Velocity="64"/>
  </Event>
  <Event>
    <Absolute>158927</Absolute>
    <NoteOn Channel="1" Note="96" Velocity="64"/>
  </Event>
  <Event>
    <Absolute>158988</Absolute>
    <NoteOff Channel="1" Note="96" Velocity="64"/>
  </Event>
  <Event>
    <Absolute>159050</Absolute>
    <NoteOn Channel="1" Note="96" Velocity="64"/>
  </Event>
  <Event>
    <Absolute>159111</Absolute>
    <NoteOff Channel="1" Note="96" Velocity="64"/>
  </Event>
  <Event>
    <Absolute>159296</Absolute>
    <NoteOn Channel="1" Note="98" Velocity="64"/>
  </Event>
  <Event>
    <Absolute>159357</Absolute>
    <NoteOff Channel="1" Note="98" Velocity="64"/>
  </Event>
  <Event>
    <Absolute>159542</Absolute>
    <NoteOn Channel="1" Note="99" Velocity="64"/>
  </Event>
  <Event>
    <Absolute>159603</Absolute>
    <NoteOff Channel="1" Note="99" Velocity="64"/>
  </Event>
  <Event>
    <Absolute>159788</Absolute>
    <NoteOn Channel="1" Note="96" Velocity="64"/>
  </Event>
  <Event>
    <Absolute>159849</Absolute>
    <NoteOff Channel="1" Note="96" Velocity="64"/>
  </Event>
  <Event>
    <Absolute>159911</Absolute>
    <NoteOn Channel="1" Note="96" Velocity="64"/>
  </Event>
  <Event>
    <Absolute>159972</Absolute>
    <NoteOff Channel="1" Note="96" Velocity="64"/>
  </Event>
  <Event>
    <Absolute>160034</Absolute>
    <NoteOn Channel="1" Note="97" Velocity="64"/>
  </Event>
  <Event>
    <Absolute>160095</Absolute>
    <NoteOff Channel="1" Note="97" Velocity="64"/>
  </Event>
  <Event>
    <Absolute>160280</Absolute>
    <NoteOn Channel="1" Note="97" Velocity="64"/>
  </Event>
  <Event>
    <Absolute>160341</Absolute>
    <NoteOff Channel="1" Note="97" Velocity="64"/>
  </Event>
  <Event>
    <Absolute>160526</Absolute>
    <NoteOn Channel="1" Note="97" Velocity="64"/>
  </Event>
  <Event>
    <Absolute>160587</Absolute>
    <NoteOff Channel="1" Note="97" Velocity="64"/>
  </Event>
  <Event>
    <Absolute>160772</Absolute>
    <NoteOn Channel="1" Note="96" Velocity="64"/>
  </Event>
  <Event>
    <Absolute>160833</Absolute>
    <NoteOff Channel="1" Note="96" Velocity="64"/>
  </Event>
  <Event>
    <Absolute>160895</Absolute>
    <NoteOn Channel="1" Note="96" Velocity="64"/>
  </Event>
  <Event>
    <Absolute>160956</Absolute>
    <NoteOff Channel="1" Note="96" Velocity="64"/>
  </Event>
  <Event>
    <Absolute>161018</Absolute>
    <NoteOn Channel="1" Note="96" Velocity="64"/>
  </Event>
  <Event>
    <Absolute>161079</Absolute>
    <NoteOff Channel="1" Note="96" Velocity="64"/>
  </Event>
  <Event>
    <Absolute>161264</Absolute>
    <NoteOn Channel="1" Note="98" Velocity="64"/>
  </Event>
  <Event>
    <Absolute>161325</Absolute>
    <NoteOff Channel="1" Note="98" Velocity="64"/>
  </Event>
  <Event>
    <Absolute>161510</Absolute>
    <NoteOn Channel="1" Note="99" Velocity="64"/>
  </Event>
  <Event>
    <Absolute>161570</Absolute>
    <NoteOff Channel="1" Note="99" Velocity="64"/>
  </Event>
  <Event>
    <Absolute>161754</Absolute>
    <NoteOn Channel="1" Note="96" Velocity="64"/>
  </Event>
  <Event>
    <Absolute>161814</Absolute>
    <NoteOff Channel="1" Note="96" Velocity="64"/>
  </Event>
  <Event>
    <Absolute>161876</Absolute>
    <NoteOn Channel="1" Note="96" Velocity="64"/>
  </Event>
  <Event>
    <Absolute>161936</Absolute>
    <NoteOff Channel="1" Note="96" Velocity="64"/>
  </Event>
  <Event>
    <Absolute>161998</Absolute>
    <NoteOn Channel="1" Note="96" Velocity="64"/>
  </Event>
  <Event>
    <Absolute>162058</Absolute>
    <NoteOff Channel="1" Note="96" Velocity="64"/>
  </Event>
  <Event>
    <Absolute>162242</Absolute>
    <NoteOn Channel="1" Note="100" Velocity="64"/>
  </Event>
  <Event>
    <Absolute>162302</Absolute>
    <NoteOff Channel="1" Note="100" Velocity="64"/>
  </Event>
  <Event>
    <Absolute>162485</Absolute>
    <NoteOn Channel="1" Note="100" Velocity="64"/>
  </Event>
  <Event>
    <Absolute>162545</Absolute>
    <NoteOff Channel="1" Note="100" Velocity="64"/>
  </Event>
  <Event>
    <Absolute>162729</Absolute>
    <NoteOn Channel="1" Note="96" Velocity="64"/>
  </Event>
  <Event>
    <Absolute>162789</Absolute>
    <NoteOff Channel="1" Note="96" Velocity="64"/>
  </Event>
  <Event>
    <Absolute>162851</Absolute>
    <NoteOn Channel="1" Note="96" Velocity="64"/>
  </Event>
  <Event>
    <Absolute>162911</Absolute>
    <NoteOff Channel="1" Note="96" Velocity="64"/>
  </Event>
  <Event>
    <Absolute>162973</Absolute>
    <NoteOn Channel="1" Note="96" Velocity="64"/>
  </Event>
  <Event>
    <Absolute>163033</Absolute>
    <NoteOff Channel="1" Note="96" Velocity="64"/>
  </Event>
  <Event>
    <Absolute>163217</Absolute>
    <NoteOn Channel="1" Note="98" Velocity="64"/>
  </Event>
  <Event>
    <Absolute>163277</Absolute>
    <NoteOff Channel="1" Note="98" Velocity="64"/>
  </Event>
  <Event>
    <Absolute>163460</Absolute>
    <NoteOn Channel="1" Note="99" Velocity="64"/>
  </Event>
  <Event>
    <Absolute>163520</Absolute>
    <NoteOff Channel="1" Note="99" Velocity="64"/>
  </Event>
  <Event>
    <Absolute>163704</Absolute>
    <NoteOn Channel="1" Note="96" Velocity="64"/>
  </Event>
  <Event>
    <Absolute>163764</Absolute>
    <NoteOff Channel="1" Note="96" Velocity="64"/>
  </Event>
  <Event>
    <Absolute>163948</Absolute>
    <NoteOn Channel="1" Note="97" Velocity="64"/>
  </Event>
  <Event>
    <Absolute>164008</Absolute>
    <NoteOff Channel="1" Note="97" Velocity="64"/>
  </Event>
  <Event>
    <Absolute>164192</Absolute>
    <NoteOn Channel="1" Note="97" Velocity="64"/>
  </Event>
  <Event>
    <Absolute>164252</Absolute>
    <NoteOff Channel="1" Note="97" Velocity="64"/>
  </Event>
  <Event>
    <Absolute>164435</Absolute>
    <NoteOn Channel="1" Note="97" Velocity="64"/>
  </Event>
  <Event>
    <Absolute>164922</Absolute>
    <NoteOff Channel="1" Note="97" Velocity="64"/>
  </Event>
  <Event>
    <Absolute>164923</Absolute>
    <NoteOn Channel="1" Note="99" Velocity="64"/>
  </Event>
  <Event>
    <Absolute>164985</Absolute>
    <NoteOff Channel="1" Note="99" Velocity="64"/>
  </Event>
  <Event>
    <Absolute>165172</Absolute>
    <NoteOn Channel="1" Note="98" Velocity="64"/>
  </Event>
  <Event>
    <Absolute>165234</Absolute>
    <NoteOff Channel="1" Note="98" Velocity="64"/>
  </Event>
  <Event>
    <Absolute>165422</Absolute>
    <NoteOn Channel="1" Note="99" Velocity="64"/>
  </Event>
  <Event>
    <Absolute>165484</Absolute>
    <NoteOff Channel="1" Note="99" Velocity="64"/>
  </Event>
  <Event>
    <Absolute>165672</Absolute>
    <NoteOn Channel="1" Note="98" Velocity="64"/>
  </Event>
  <Event>
    <Absolute>165734</Absolute>
    <NoteOff Channel="1" Note="98" Velocity="64"/>
  </Event>
  <Event>
    <Absolute>165796</Absolute>
    <NoteOn Channel="1" Note="98" Velocity="64"/>
  </Event>
  <Event>
    <Absolute>165858</Absolute>
    <NoteOff Channel="1" Note="98" Velocity="64"/>
  </Event>
  <Event>
    <Absolute>165921</Absolute>
    <NoteOn Channel="1" Note="99" Velocity="64"/>
  </Event>
  <Event>
    <Absolute>165983</Absolute>
    <NoteOff Channel="1" Note="99" Velocity="64"/>
  </Event>
  <Event>
    <Absolute>166171</Absolute>
    <NoteOn Channel="1" Note="98" Velocity="64"/>
  </Event>
  <Event>
    <Absolute>166233</Absolute>
    <NoteOff Channel="1" Note="98" Velocity="64"/>
  </Event>
  <Event>
    <Absolute>166420</Absolute>
    <NoteOn Channel="1" Note="99" Velocity="64"/>
  </Event>
  <Event>
    <Absolute>166482</Absolute>
    <NoteOff Channel="1" Note="99" Velocity="64"/>
  </Event>
  <Event>
    <Absolute>166670</Absolute>
    <NoteOn Channel="1" Note="98" Velocity="64"/>
  </Event>
  <Event>
    <Absolute>167169</Absolute>
    <NoteOff Channel="1" Note="98" Velocity="64"/>
  </Event>
  <Event>
    <Absolute>167169</Absolute>
    <NoteOn Channel="1" Note="97" Velocity="64"/>
  </Event>
  <Event>
    <Absolute>167231</Absolute>
    <NoteOff Channel="1" Note="97" Velocity="64"/>
  </Event>
  <Event>
    <Absolute>167418</Absolute>
    <NoteOn Channel="1" Note="98" Velocity="64"/>
  </Event>
  <Event>
    <Absolute>167478</Absolute>
    <NoteOff Channel="1" Note="98" Velocity="64"/>
  </Event>
  <Event>
    <Absolute>167661</Absolute>
    <NoteOn Channel="1" Note="97" Velocity="64"/>
  </Event>
  <Event>
    <Absolute>167721</Absolute>
    <NoteOff Channel="1" Note="97" Velocity="64"/>
  </Event>
  <Event>
    <Absolute>167782</Absolute>
    <NoteOn Channel="1" Note="97" Velocity="64"/>
  </Event>
  <Event>
    <Absolute>167842</Absolute>
    <NoteOff Channel="1" Note="97" Velocity="64"/>
  </Event>
  <Event>
    <Absolute>167904</Absolute>
    <NoteOn Channel="1" Note="98" Velocity="64"/>
  </Event>
  <Event>
    <Absolute>167964</Absolute>
    <NoteOff Channel="1" Note="98" Velocity="64"/>
  </Event>
  <Event>
    <Absolute>168146</Absolute>
    <NoteOn Channel="1" Note="97" Velocity="64"/>
  </Event>
  <Event>
    <Absolute>168206</Absolute>
    <NoteOff Channel="1" Note="97" Velocity="64"/>
  </Event>
  <Event>
    <Absolute>168389</Absolute>
    <NoteOn Channel="1" Note="98" Velocity="64"/>
  </Event>
  <Event>
    <Absolute>168451</Absolute>
    <NoteOff Channel="1" Note="98" Velocity="64"/>
  </Event>
  <Event>
    <Absolute>168637</Absolute>
    <NoteOn Channel="1" Note="96" Velocity="64"/>
  </Event>
  <Event>
    <Absolute>168699</Absolute>
    <NoteOff Channel="1" Note="96" Velocity="64"/>
  </Event>
  <Event>
    <Absolute>168762</Absolute>
    <NoteOn Channel="1" Note="96" Velocity="64"/>
  </Event>
  <Event>
    <Absolute>168824</Absolute>
    <NoteOff Channel="1" Note="96" Velocity="64"/>
  </Event>
  <Event>
    <Absolute>168886</Absolute>
    <NoteOn Channel="1" Note="99" Velocity="64"/>
  </Event>
  <Event>
    <Absolute>168948</Absolute>
    <NoteOff Channel="1" Note="99" Velocity="64"/>
  </Event>
  <Event>
    <Absolute>169134</Absolute>
    <NoteOn Channel="1" Note="98" Velocity="64"/>
  </Event>
  <Event>
    <Absolute>169196</Absolute>
    <NoteOff Channel="1" Note="98" Velocity="64"/>
  </Event>
  <Event>
    <Absolute>169383</Absolute>
    <NoteOn Channel="1" Note="99" Velocity="64"/>
  </Event>
  <Event>
    <Absolute>169444</Absolute>
    <NoteOff Channel="1" Note="99" Velocity="64"/>
  </Event>
  <Event>
    <Absolute>169629</Absolute>
    <NoteOn Channel="1" Note="98" Velocity="64"/>
  </Event>
  <Event>
    <Absolute>169690</Absolute>
    <NoteOff Channel="1" Note="98" Velocity="64"/>
  </Event>
  <Event>
    <Absolute>169752</Absolute>
    <NoteOn Channel="1" Note="98" Velocity="64"/>
  </Event>
  <Event>
    <Absolute>169813</Absolute>
    <NoteOff Channel="1" Note="98" Velocity="64"/>
  </Event>
  <Event>
    <Absolute>169875</Absolute>
    <NoteOn Channel="1" Note="99" Velocity="64"/>
  </Event>
  <Event>
    <Absolute>169936</Absolute>
    <NoteOff Channel="1" Note="99" Velocity="64"/>
  </Event>
  <Event>
    <Absolute>170122</Absolute>
    <NoteOn Channel="1" Note="98" Velocity="64"/>
  </Event>
  <Event>
    <Absolute>170183</Absolute>
    <NoteOff Channel="1" Note="98" Velocity="64"/>
  </Event>
  <Event>
    <Absolute>170368</Absolute>
    <NoteOn Channel="1" Note="99" Velocity="64"/>
  </Event>
  <Event>
    <Absolute>170429</Absolute>
    <NoteOff Channel="1" Note="99" Velocity="64"/>
  </Event>
  <Event>
    <Absolute>170614</Absolute>
    <NoteOn Channel="1" Note="98" Velocity="64"/>
  </Event>
  <Event>
    <Absolute>171106</Absolute>
    <NoteOff Channel="1" Note="98" Velocity="64"/>
  </Event>
  <Event>
    <Absolute>171107</Absolute>
    <NoteOn Channel="1" Note="97" Velocity="64"/>
  </Event>
  <Event>
    <Absolute>171168</Absolute>
    <NoteOff Channel="1" Note="97" Velocity="64"/>
  </Event>
  <Event>
    <Absolute>171353</Absolute>
    <NoteOn Channel="1" Note="98" Velocity="64"/>
  </Event>
  <Event>
    <Absolute>171415</Absolute>
    <NoteOff Channel="1" Note="98" Velocity="64"/>
  </Event>
  <Event>
    <Absolute>171603</Absolute>
    <NoteOn Channel="1" Note="97" Velocity="64"/>
  </Event>
  <Event>
    <Absolute>171665</Absolute>
    <NoteOff Channel="1" Note="97" Velocity="64"/>
  </Event>
  <Event>
    <Absolute>171728</Absolute>
    <NoteOn Channel="1" Note="97" Velocity="64"/>
  </Event>
  <Event>
    <Absolute>171790</Absolute>
    <NoteOff Channel="1" Note="97" Velocity="64"/>
  </Event>
  <Event>
    <Absolute>171853</Absolute>
    <NoteOn Channel="1" Note="98" Velocity="64"/>
  </Event>
  <Event>
    <Absolute>171915</Absolute>
    <NoteOff Channel="1" Note="98" Velocity="64"/>
  </Event>
  <Event>
    <Absolute>172102</Absolute>
    <NoteOn Channel="1" Note="97" Velocity="64"/>
  </Event>
  <Event>
    <Absolute>172164</Absolute>
    <NoteOff Channel="1" Note="97" Velocity="64"/>
  </Event>
  <Event>
    <Absolute>172352</Absolute>
    <NoteOn Channel="1" Note="98" Velocity="64"/>
  </Event>
  <Event>
    <Absolute>172412</Absolute>
    <NoteOff Channel="1" Note="98" Velocity="64"/>
  </Event>
  <Event>
    <Absolute>172595</Absolute>
    <NoteOn Channel="1" Note="96" Velocity="64"/>
  </Event>
  <Event>
    <Absolute>172655</Absolute>
    <NoteOff Channel="1" Note="96" Velocity="64"/>
  </Event>
  <Event>
    <Absolute>172717</Absolute>
    <NoteOn Channel="1" Note="96" Velocity="64"/>
  </Event>
  <Event>
    <Absolute>172777</Absolute>
    <NoteOff Channel="1" Note="96" Velocity="64"/>
  </Event>
  <Event>
    <Absolute>172838</Absolute>
    <NoteOn Channel="1" Note="99" Velocity="64"/>
  </Event>
  <Event>
    <Absolute>172900</Absolute>
    <NoteOff Channel="1" Note="99" Velocity="64"/>
  </Event>
  <Event>
    <Absolute>173087</Absolute>
    <NoteOn Channel="1" Note="98" Velocity="64"/>
  </Event>
  <Event>
    <Absolute>173149</Absolute>
    <NoteOff Channel="1" Note="98" Velocity="64"/>
  </Event>
  <Event>
    <Absolute>173335</Absolute>
    <NoteOn Channel="1" Note="99" Velocity="64"/>
  </Event>
  <Event>
    <Absolute>173396</Absolute>
    <NoteOff Channel="1" Note="99" Velocity="64"/>
  </Event>
  <Event>
    <Absolute>173579</Absolute>
    <NoteOn Channel="1" Note="98" Velocity="64"/>
  </Event>
  <Event>
    <Absolute>173640</Absolute>
    <NoteOff Channel="1" Note="98" Velocity="64"/>
  </Event>
  <Event>
    <Absolute>173701</Absolute>
    <NoteOn Channel="1" Note="98" Velocity="64"/>
  </Event>
  <Event>
    <Absolute>173762</Absolute>
    <NoteOff Channel="1" Note="98" Velocity="64"/>
  </Event>
  <Event>
    <Absolute>173823</Absolute>
    <NoteOn Channel="1" Note="99" Velocity="64"/>
  </Event>
  <Event>
    <Absolute>173884</Absolute>
    <NoteOff Channel="1" Note="99" Velocity="64"/>
  </Event>
  <Event>
    <Absolute>174068</Absolute>
    <NoteOn Channel="1" Note="98" Velocity="64"/>
  </Event>
  <Event>
    <Absolute>174129</Absolute>
    <NoteOff Channel="1" Note="98" Velocity="64"/>
  </Event>
  <Event>
    <Absolute>174312</Absolute>
    <NoteOn Channel="1" Note="99" Velocity="64"/>
  </Event>
  <Event>
    <Absolute>174373</Absolute>
    <NoteOff Channel="1" Note="99" Velocity="64"/>
  </Event>
  <Event>
    <Absolute>174556</Absolute>
    <NoteOn Channel="1" Note="98" Velocity="64"/>
  </Event>
  <Event>
    <Absolute>175044</Absolute>
    <NoteOff Channel="1" Note="98" Velocity="64"/>
  </Event>
  <Event>
    <Absolute>175044</Absolute>
    <NoteOn Channel="1" Note="97" Velocity="64"/>
  </Event>
  <Event>
    <Absolute>175105</Absolute>
    <NoteOff Channel="1" Note="97" Velocity="64"/>
  </Event>
  <Event>
    <Absolute>175288</Absolute>
    <NoteOn Channel="1" Note="98" Velocity="64"/>
  </Event>
  <Event>
    <Absolute>175349</Absolute>
    <NoteOff Channel="1" Note="98" Velocity="64"/>
  </Event>
  <Event>
    <Absolute>175534</Absolute>
    <NoteOn Channel="1" Note="96" Velocity="64"/>
  </Event>
  <Event>
    <Absolute>175595</Absolute>
    <NoteOff Channel="1" Note="96" Velocity="64"/>
  </Event>
  <Event>
    <Absolute>175780</Absolute>
    <NoteOn Channel="1" Note="98" Velocity="64"/>
  </Event>
  <Event>
    <Absolute>175841</Absolute>
    <NoteOff Channel="1" Note="98" Velocity="64"/>
  </Event>
  <Event>
    <Absolute>176025</Absolute>
    <NoteOn Channel="1" Note="96" Velocity="64"/>
  </Event>
  <Event>
    <Absolute>176086</Absolute>
    <NoteOff Channel="1" Note="96" Velocity="64"/>
  </Event>
  <Event>
    <Absolute>176271</Absolute>
    <NoteOn Channel="1" Note="97" Velocity="64"/>
  </Event>
  <Event>
    <Absolute>176332</Absolute>
    <NoteOff Channel="1" Note="97" Velocity="64"/>
  </Event>
  <Event>
    <Absolute>176516</Absolute>
    <NoteOn Channel="1" Note="96" Velocity="64"/>
  </Event>
  <Event>
    <Absolute>177007</Absolute>
    <NoteOff Channel="1" Note="96" Velocity="64"/>
  </Event>
  <Event>
    <Absolute>177008</Absolute>
    <NoteOn Channel="1" Note="96" Velocity="64"/>
  </Event>
  <Event>
    <Absolute>177069</Absolute>
    <NoteOff Channel="1" Note="96" Velocity="64"/>
  </Event>
  <Event>
    <Absolute>177253</Absolute>
    <NoteOn Channel="1" Note="100" Velocity="64"/>
  </Event>
  <Event>
    <Absolute>177315</Absolute>
    <NoteOff Channel="1" Note="100" Velocity="64"/>
  </Event>
  <Event>
    <Absolute>177502</Absolute>
    <NoteOn Channel="1" Note="96" Velocity="64"/>
  </Event>
  <Event>
    <Absolute>177564</Absolute>
    <NoteOff Channel="1" Note="96" Velocity="64"/>
  </Event>
  <Event>
    <Absolute>177751</Absolute>
    <NoteOn Channel="1" Note="96" Velocity="64"/>
  </Event>
  <Event>
    <Absolute>177813</Absolute>
    <NoteOff Channel="1" Note="96" Velocity="64"/>
  </Event>
  <Event>
    <Absolute>177999</Absolute>
    <NoteOn Channel="1" Note="96" Velocity="64"/>
  </Event>
  <Event>
    <Absolute>178061</Absolute>
    <NoteOff Channel="1" Note="96" Velocity="64"/>
  </Event>
  <Event>
    <Absolute>178248</Absolute>
    <NoteOn Channel="1" Note="100" Velocity="64"/>
  </Event>
  <Event>
    <Absolute>178308</Absolute>
    <NoteOff Channel="1" Note="100" Velocity="64"/>
  </Event>
  <Event>
    <Absolute>178489</Absolute>
    <NoteOn Channel="1" Note="96" Velocity="64"/>
  </Event>
  <Event>
    <Absolute>178549</Absolute>
    <NoteOff Channel="1" Note="96" Velocity="64"/>
  </Event>
  <Event>
    <Absolute>178729</Absolute>
    <NoteOn Channel="1" Note="96" Velocity="64"/>
  </Event>
  <Event>
    <Absolute>178789</Absolute>
    <NoteOff Channel="1" Note="96" Velocity="64"/>
  </Event>
  <Event>
    <Absolute>178970</Absolute>
    <NoteOn Channel="1" Note="96" Velocity="64"/>
  </Event>
  <Event>
    <Absolute>179030</Absolute>
    <NoteOff Channel="1" Note="96" Velocity="64"/>
  </Event>
  <Event>
    <Absolute>179210</Absolute>
    <NoteOn Channel="1" Note="100" Velocity="64"/>
  </Event>
  <Event>
    <Absolute>179270</Absolute>
    <NoteOff Channel="1" Note="100" Velocity="64"/>
  </Event>
  <Event>
    <Absolute>179453</Absolute>
    <NoteOn Channel="1" Note="96" Velocity="64"/>
  </Event>
  <Event>
    <Absolute>179513</Absolute>
    <NoteOff Channel="1" Note="96" Velocity="64"/>
  </Event>
  <Event>
    <Absolute>179695</Absolute>
    <NoteOn Channel="1" Note="96" Velocity="64"/>
  </Event>
  <Event>
    <Absolute>179755</Absolute>
    <NoteOff Channel="1" Note="96" Velocity="64"/>
  </Event>
  <Event>
    <Absolute>179937</Absolute>
    <NoteOn Channel="1" Note="97" Velocity="64"/>
  </Event>
  <Event>
    <Absolute>179997</Absolute>
    <NoteOff Channel="1" Note="97" Velocity="64"/>
  </Event>
  <Event>
    <Absolute>180180</Absolute>
    <NoteOn Channel="1" Note="98" Velocity="64"/>
  </Event>
  <Event>
    <Absolute>180240</Absolute>
    <NoteOff Channel="1" Note="98" Velocity="64"/>
  </Event>
  <Event>
    <Absolute>180422</Absolute>
    <NoteOn Channel="1" Note="99" Velocity="64"/>
  </Event>
  <Event>
    <Absolute>180906</Absolute>
    <NoteOff Channel="1" Note="99" Velocity="64"/>
  </Event>
  <Event>
    <Absolute>180907</Absolute>
    <NoteOn Channel="1" Note="99" Velocity="64"/>
  </Event>
  <Event>
    <Absolute>180967</Absolute>
    <NoteOff Channel="1" Note="99" Velocity="64"/>
  </Event>
  <Event>
    <Absolute>181149</Absolute>
    <NoteOn Channel="1" Note="99" Velocity="64"/>
  </Event>
  <Event>
    <Absolute>181210</Absolute>
    <NoteOff Channel="1" Note="99" Velocity="64"/>
  </Event>
  <Event>
    <Absolute>181395</Absolute>
    <NoteOn Channel="1" Note="96" Velocity="64"/>
  </Event>
  <Event>
    <Absolute>181456</Absolute>
    <NoteOff Channel="1" Note="96" Velocity="64"/>
  </Event>
  <Event>
    <Absolute>181518</Absolute>
    <NoteOn Channel="1" Note="96" Velocity="64"/>
  </Event>
  <Event>
    <Absolute>181579</Absolute>
    <NoteOff Channel="1" Note="96" Velocity="64"/>
  </Event>
  <Event>
    <Absolute>181641</Absolute>
    <NoteOn Channel="1" Note="99" Velocity="64"/>
  </Event>
  <Event>
    <Absolute>181702</Absolute>
    <NoteOff Channel="1" Note="99" Velocity="64"/>
  </Event>
  <Event>
    <Absolute>181887</Absolute>
    <NoteOn Channel="1" Note="97" Velocity="64"/>
  </Event>
  <Event>
    <Absolute>181948</Absolute>
    <NoteOff Channel="1" Note="97" Velocity="64"/>
  </Event>
  <Event>
    <Absolute>182133</Absolute>
    <NoteOn Channel="1" Note="98" Velocity="64"/>
  </Event>
  <Event>
    <Absolute>182193</Absolute>
    <NoteOff Channel="1" Note="98" Velocity="64"/>
  </Event>
  <Event>
    <Absolute>182376</Absolute>
    <NoteOn Channel="1" Note="99" Velocity="64"/>
  </Event>
  <Event>
    <Absolute>182436</Absolute>
    <NoteOff Channel="1" Note="99" Velocity="64"/>
  </Event>
  <Event>
    <Absolute>182619</Absolute>
    <NoteOn Channel="1" Note="96" Velocity="64"/>
  </Event>
  <Event>
    <Absolute>182679</Absolute>
    <NoteOff Channel="1" Note="96" Velocity="64"/>
  </Event>
  <Event>
    <Absolute>182862</Absolute>
    <NoteOn Channel="1" Note="99" Velocity="64"/>
  </Event>
  <Event>
    <Absolute>182922</Absolute>
    <NoteOff Channel="1" Note="99" Velocity="64"/>
  </Event>
  <Event>
    <Absolute>183105</Absolute>
    <NoteOn Channel="1" Note="96" Velocity="64"/>
  </Event>
  <Event>
    <Absolute>183164</Absolute>
    <NoteOff Channel="1" Note="96" Velocity="64"/>
  </Event>
  <Event>
    <Absolute>183342</Absolute>
    <NoteOn Channel="1" Note="99" Velocity="64"/>
  </Event>
  <Event>
    <Absolute>183401</Absolute>
    <NoteOff Channel="1" Note="99" Velocity="64"/>
  </Event>
  <Event>
    <Absolute>183578</Absolute>
    <NoteOn Channel="1" Note="100" Velocity="64"/>
  </Event>
  <Event>
    <Absolute>183637</Absolute>
    <NoteOff Channel="1" Note="100" Velocity="64"/>
  </Event>
  <Event>
    <Absolute>183815</Absolute>
    <NoteOn Channel="1" Note="98" Velocity="64"/>
  </Event>
  <Event>
    <Absolute>183874</Absolute>
    <NoteOff Channel="1" Note="98" Velocity="64"/>
  </Event>
  <Event>
    <Absolute>184052</Absolute>
    <NoteOn Channel="1" Note="100" Velocity="64"/>
  </Event>
  <Event>
    <Absolute>184114</Absolute>
    <NoteOff Channel="1" Note="100" Velocity="64"/>
  </Event>
  <Event>
    <Absolute>184301</Absolute>
    <NoteOn Channel="1" Note="98" Velocity="64"/>
  </Event>
  <Event>
    <Absolute>184799</Absolute>
    <NoteOff Channel="1" Note="98" Velocity="64"/>
  </Event>
  <Event>
    <Absolute>184800</Absolute>
    <NoteOn Channel="1" Note="98" Velocity="64"/>
  </Event>
  <Event>
    <Absolute>184862</Absolute>
    <NoteOff Channel="1" Note="98" Velocity="64"/>
  </Event>
  <Event>
    <Absolute>185050</Absolute>
    <NoteOn Channel="1" Note="97" Velocity="64"/>
  </Event>
  <Event>
    <Absolute>185110</Absolute>
    <NoteOff Channel="1" Note="97" Velocity="64"/>
  </Event>
  <Event>
    <Absolute>185293</Absolute>
    <NoteOn Channel="1" Note="96" Velocity="64"/>
  </Event>
  <Event>
    <Absolute>185353</Absolute>
    <NoteOff Channel="1" Note="96" Velocity="64"/>
  </Event>
  <Event>
    <Absolute>185536</Absolute>
    <NoteOn Channel="1" Note="97" Velocity="64"/>
  </Event>
  <Event>
    <Absolute>185596</Absolute>
    <NoteOff Channel="1" Note="97" Velocity="64"/>
  </Event>
  <Event>
    <Absolute>185778</Absolute>
    <NoteOn Channel="1" Note="98" Velocity="64"/>
  </Event>
  <Event>
    <Absolute>185838</Absolute>
    <NoteOff Channel="1" Note="98" Velocity="64"/>
  </Event>
  <Event>
    <Absolute>186020</Absolute>
    <NoteOn Channel="1" Note="96" Velocity="64"/>
  </Event>
  <Event>
    <Absolute>186080</Absolute>
    <NoteOff Channel="1" Note="96" Velocity="64"/>
  </Event>
  <Event>
    <Absolute>186262</Absolute>
    <NoteOn Channel="1" Note="98" Velocity="64"/>
  </Event>
  <Event>
    <Absolute>186745</Absolute>
    <NoteOff Channel="1" Note="98" Velocity="64"/>
  </Event>
  <Event>
    <Absolute>186745</Absolute>
    <NoteOn Channel="1" Note="98" Velocity="64"/>
  </Event>
  <Event>
    <Absolute>186805</Absolute>
    <NoteOff Channel="1" Note="98" Velocity="64"/>
  </Event>
  <Event>
    <Absolute>186987</Absolute>
    <NoteOn Channel="1" Note="97" Velocity="64"/>
  </Event>
  <Event>
    <Absolute>187047</Absolute>
    <NoteOff Channel="1" Note="97" Velocity="64"/>
  </Event>
  <Event>
    <Absolute>187230</Absolute>
    <NoteOn Channel="1" Note="96" Velocity="64"/>
  </Event>
  <Event>
    <Absolute>187290</Absolute>
    <NoteOff Channel="1" Note="96" Velocity="64"/>
  </Event>
  <Event>
    <Absolute>187473</Absolute>
    <NoteOn Channel="1" Note="97" Velocity="64"/>
  </Event>
  <Event>
    <Absolute>187533</Absolute>
    <NoteOff Channel="1" Note="97" Velocity="64"/>
  </Event>
  <Event>
    <Absolute>187716</Absolute>
    <NoteOn Channel="1" Note="96" Velocity="64"/>
  </Event>
  <Event>
    <Absolute>187776</Absolute>
    <NoteOff Channel="1" Note="96" Velocity="64"/>
  </Event>
  <Event>
    <Absolute>187959</Absolute>
    <NoteOn Channel="1" Note="97" Velocity="64"/>
  </Event>
  <Event>
    <Absolute>188019</Absolute>
    <NoteOff Channel="1" Note="97" Velocity="64"/>
  </Event>
  <Event>
    <Absolute>188202</Absolute>
    <NoteOn Channel="1" Note="98" Velocity="64"/>
  </Event>
  <Event>
    <Absolute>188688</Absolute>
    <NoteOff Channel="1" Note="98" Velocity="64"/>
  </Event>
  <Event>
    <Absolute>188689</Absolute>
    <NoteOn Channel="1" Note="98" Velocity="64"/>
  </Event>
  <Event>
    <Absolute>188749</Absolute>
    <NoteOff Channel="1" Note="98" Velocity="64"/>
  </Event>
  <Event>
    <Absolute>188932</Absolute>
    <NoteOn Channel="1" Note="98" Velocity="64"/>
  </Event>
  <Event>
    <Absolute>188993</Absolute>
    <NoteOff Channel="1" Note="98" Velocity="64"/>
  </Event>
  <Event>
    <Absolute>189177</Absolute>
    <NoteOn Channel="1" Note="96" Velocity="64"/>
  </Event>
  <Event>
    <Absolute>189238</Absolute>
    <NoteOff Channel="1" Note="96" Velocity="64"/>
  </Event>
  <Event>
    <Absolute>189300</Absolute>
    <NoteOn Channel="1" Note="96" Velocity="64"/>
  </Event>
  <Event>
    <Absolute>189361</Absolute>
    <NoteOff Channel="1" Note="96" Velocity="64"/>
  </Event>
  <Event>
    <Absolute>189423</Absolute>
    <NoteOn Channel="1" Note="98" Velocity="64"/>
  </Event>
  <Event>
    <Absolute>189484</Absolute>
    <NoteOff Channel="1" Note="98" Velocity="64"/>
  </Event>
  <Event>
    <Absolute>189669</Absolute>
    <NoteOn Channel="1" Note="98" Velocity="64"/>
  </Event>
  <Event>
    <Absolute>189730</Absolute>
    <NoteOff Channel="1" Note="98" Velocity="64"/>
  </Event>
  <Event>
    <Absolute>189914</Absolute>
    <NoteOn Channel="1" Note="96" Velocity="64"/>
  </Event>
  <Event>
    <Absolute>189972</Absolute>
    <NoteOff Channel="1" Note="96" Velocity="64"/>
  </Event>
  <Event>
    <Absolute>190149</Absolute>
    <NoteOn Channel="1" Note="98" Velocity="64"/>
  </Event>
  <Event>
    <Absolute>190617</Absolute>
    <NoteOff Channel="1" Note="98" Velocity="64"/>
  </Event>
  <Event>
    <Absolute>190617</Absolute>
    <NoteOn Channel="1" Note="98" Velocity="64"/>
  </Event>
  <Event>
    <Absolute>190675</Absolute>
    <NoteOff Channel="1" Note="98" Velocity="64"/>
  </Event>
  <Event>
    <Absolute>190852</Absolute>
    <NoteOn Channel="1" Note="98" Velocity="64"/>
  </Event>
  <Event>
    <Absolute>190911</Absolute>
    <NoteOff Channel="1" Note="98" Velocity="64"/>
  </Event>
  <Event>
    <Absolute>191090</Absolute>
    <NoteOn Channel="1" Note="96" Velocity="64"/>
  </Event>
  <Event>
    <Absolute>191149</Absolute>
    <NoteOff Channel="1" Note="96" Velocity="64"/>
  </Event>
  <Event>
    <Absolute>191209</Absolute>
    <NoteOn Channel="1" Note="96" Velocity="64"/>
  </Event>
  <Event>
    <Absolute>191268</Absolute>
    <NoteOff Channel="1" Note="96" Velocity="64"/>
  </Event>
  <Event>
    <Absolute>191328</Absolute>
    <NoteOn Channel="1" Note="98" Velocity="64"/>
  </Event>
  <Event>
    <Absolute>191387</Absolute>
    <NoteOff Channel="1" Note="98" Velocity="64"/>
  </Event>
  <Event>
    <Absolute>191804</Absolute>
    <NoteOn Channel="1" Note="99" Velocity="64"/>
  </Event>
  <Event>
    <Absolute>191863</Absolute>
    <NoteOff Channel="1" Note="99" Velocity="64"/>
  </Event>
  <Event>
    <Absolute>192042</Absolute>
    <NoteOn Channel="1" Note="96" Velocity="64"/>
  </Event>
  <Event>
    <Absolute>192101</Absolute>
    <NoteOff Channel="1" Note="96" Velocity="64"/>
  </Event>
  <Event>
    <Absolute>192161</Absolute>
    <NoteOn Channel="1" Note="96" Velocity="64"/>
  </Event>
  <Event>
    <Absolute>192220</Absolute>
    <NoteOff Channel="1" Note="96" Velocity="64"/>
  </Event>
  <Event>
    <Absolute>192280</Absolute>
    <NoteOn Channel="1" Note="97" Velocity="64"/>
  </Event>
  <Event>
    <Absolute>192339</Absolute>
    <NoteOff Channel="1" Note="97" Velocity="64"/>
  </Event>
  <Event>
    <Absolute>192518</Absolute>
    <NoteOn Channel="1" Note="97" Velocity="64"/>
  </Event>
  <Event>
    <Absolute>192577</Absolute>
    <NoteOff Channel="1" Note="97" Velocity="64"/>
  </Event>
  <Event>
    <Absolute>192756</Absolute>
    <NoteOn Channel="1" Note="97" Velocity="64"/>
  </Event>
  <Event>
    <Absolute>192815</Absolute>
    <NoteOff Channel="1" Note="97" Velocity="64"/>
  </Event>
  <Event>
    <Absolute>192994</Absolute>
    <NoteOn Channel="1" Note="97" Velocity="64"/>
  </Event>
  <Event>
    <Absolute>193053</Absolute>
    <NoteOff Channel="1" Note="97" Velocity="64"/>
  </Event>
  <Event>
    <Absolute>193233</Absolute>
    <NoteOn Channel="1" Note="97" Velocity="64"/>
  </Event>
  <Event>
    <Absolute>193293</Absolute>
    <NoteOff Channel="1" Note="97" Velocity="64"/>
  </Event>
  <Event>
    <Absolute>193475</Absolute>
    <NoteOn Channel="1" Note="97" Velocity="64"/>
  </Event>
  <Event>
    <Absolute>193535</Absolute>
    <NoteOff Channel="1" Note="97" Velocity="64"/>
  </Event>
  <Event>
    <Absolute>193717</Absolute>
    <NoteOn Channel="1" Note="96" Velocity="64"/>
  </Event>
  <Event>
    <Absolute>193776</Absolute>
    <NoteOff Channel="1" Note="96" Velocity="64"/>
  </Event>
  <Event>
    <Absolute>193954</Absolute>
    <NoteOn Channel="1" Note="98" Velocity="64"/>
  </Event>
  <Event>
    <Absolute>194013</Absolute>
    <NoteOff Channel="1" Note="98" Velocity="64"/>
  </Event>
  <Event>
    <Absolute>194072</Absolute>
    <NoteOn Channel="1" Note="99" Velocity="64"/>
  </Event>
  <Event>
    <Absolute>194131</Absolute>
    <NoteOff Channel="1" Note="99" Velocity="64"/>
  </Event>
  <Event>
    <Absolute>194191</Absolute>
    <NoteOn Channel="1" Note="100" Velocity="64"/>
  </Event>
  <Event>
    <Absolute>194250</Absolute>
    <NoteOff Channel="1" Note="100" Velocity="64"/>
  </Event>
  <Event>
    <Absolute>194427</Absolute>
    <NoteOn Channel="1" Note="100" Velocity="64"/>
  </Event>
  <Event>
    <Absolute>194486</Absolute>
    <NoteOff Channel="1" Note="100" Velocity="64"/>
  </Event>
  <Event>
    <Absolute>194664</Absolute>
    <NoteOn Channel="1" Note="100" Velocity="64"/>
  </Event>
  <Event>
    <Absolute>194723</Absolute>
    <NoteOff Channel="1" Note="100" Velocity="64"/>
  </Event>
  <Event>
    <Absolute>194903</Absolute>
    <NoteOn Channel="1" Note="100" Velocity="64"/>
  </Event>
  <Event>
    <Absolute>194962</Absolute>
    <NoteOff Channel="1" Note="100" Velocity="64"/>
  </Event>
  <Event>
    <Absolute>195142</Absolute>
    <NoteOn Channel="1" Note="100" Velocity="64"/>
  </Event>
  <Event>
    <Absolute>195201</Absolute>
    <NoteOff Channel="1" Note="100" Velocity="64"/>
  </Event>
  <Event>
    <Absolute>195381</Absolute>
    <NoteOn Channel="1" Note="99" Velocity="64"/>
  </Event>
  <Event>
    <Absolute>195440</Absolute>
    <NoteOff Channel="1" Note="99" Velocity="64"/>
  </Event>
  <Event>
    <Absolute>195619</Absolute>
    <NoteOn Channel="1" Note="98" Velocity="64"/>
  </Event>
  <Event>
    <Absolute>195678</Absolute>
    <NoteOff Channel="1" Note="98" Velocity="64"/>
  </Event>
  <Event>
    <Absolute>195858</Absolute>
    <NoteOn Channel="1" Note="96" Velocity="64"/>
  </Event>
  <Event>
    <Absolute>195917</Absolute>
    <NoteOff Channel="1" Note="96" Velocity="64"/>
  </Event>
  <Event>
    <Absolute>196097</Absolute>
    <NoteOn Channel="1" Note="97" Velocity="64"/>
  </Event>
  <Event>
    <Absolute>197481</Absolute>
    <NoteOff Channel="1" Note="97" Velocity="64"/>
  </Event>
  <Event>
    <Absolute>197482</Absolute>
    <NoteOn Channel="1" Note="98" Velocity="64"/>
  </Event>
  <Event>
    <Absolute>197948</Absolute>
    <NoteOff Channel="1" Note="98" Velocity="64"/>
  </Event>
  <Event>
    <Absolute>197949</Absolute>
    <NoteOn Channel="1" Note="100" Velocity="64"/>
  </Event>
  <Event>
    <Absolute>199641</Absolute>
    <NoteOff Channel="1" Note="100" Velocity="64"/>
  </Event>
  <Event>
    <Absolute>199754</Absolute>
    <NoteOn Channel="1" Note="96" Velocity="64"/>
  </Event>
  <Event>
    <Absolute>199811</Absolute>
    <NoteOff Channel="1" Note="96" Velocity="64"/>
  </Event>
  <Event>
    <Absolute>199870</Absolute>
    <NoteOn Channel="1" Note="96" Velocity="64"/>
  </Event>
  <Event>
    <Absolute>199927</Absolute>
    <NoteOff Channel="1" Note="96" Velocity="64"/>
  </Event>
  <Event>
    <Absolute>199986</Absolute>
    <NoteOn Channel="1" Note="96" Velocity="64"/>
  </Event>
  <Event>
    <Absolute>200043</Absolute>
    <NoteOff Channel="1" Note="96" Velocity="64"/>
  </Event>
  <Event>
    <Absolute>200102</Absolute>
    <NoteOn Channel="1" Note="96" Velocity="64"/>
  </Event>
  <Event>
    <Absolute>200159</Absolute>
    <NoteOff Channel="1" Note="96" Velocity="64"/>
  </Event>
  <Event>
    <Absolute>200218</Absolute>
    <NoteOn Channel="1" Note="97" Velocity="64"/>
  </Event>
  <Event>
    <Absolute>200275</Absolute>
    <NoteOff Channel="1" Note="97" Velocity="64"/>
  </Event>
  <Event>
    <Absolute>200334</Absolute>
    <NoteOn Channel="1" Note="97" Velocity="64"/>
  </Event>
  <Event>
    <Absolute>200391</Absolute>
    <NoteOff Channel="1" Note="97" Velocity="64"/>
  </Event>
  <Event>
    <Absolute>200450</Absolute>
    <NoteOn Channel="1" Note="97" Velocity="64"/>
  </Event>
  <Event>
    <Absolute>200507</Absolute>
    <NoteOff Channel="1" Note="97" Velocity="64"/>
  </Event>
  <Event>
    <Absolute>200566</Absolute>
    <NoteOn Channel="1" Note="98" Velocity="64"/>
  </Event>
  <Event>
    <Absolute>200623</Absolute>
    <NoteOff Channel="1" Note="98" Velocity="64"/>
  </Event>
  <Event>
    <Absolute>200682</Absolute>
    <NoteOn Channel="1" Note="98" Velocity="64"/>
  </Event>
  <Event>
    <Absolute>200739</Absolute>
    <NoteOff Channel="1" Note="98" Velocity="64"/>
  </Event>
  <Event>
    <Absolute>200798</Absolute>
    <NoteOn Channel="1" Note="98" Velocity="64"/>
  </Event>
  <Event>
    <Absolute>200855</Absolute>
    <NoteOff Channel="1" Note="98" Velocity="64"/>
  </Event>
  <Event>
    <Absolute>200914</Absolute>
    <NoteOn Channel="1" Note="97" Velocity="64"/>
  </Event>
  <Event>
    <Absolute>200971</Absolute>
    <NoteOff Channel="1" Note="97" Velocity="64"/>
  </Event>
  <Event>
    <Absolute>201030</Absolute>
    <NoteOn Channel="1" Note="97" Velocity="64"/>
  </Event>
  <Event>
    <Absolute>201087</Absolute>
    <NoteOff Channel="1" Note="97" Velocity="64"/>
  </Event>
  <Event>
    <Absolute>201146</Absolute>
    <NoteOn Channel="1" Note="98" Velocity="64"/>
  </Event>
  <Event>
    <Absolute>201203</Absolute>
    <NoteOff Channel="1" Note="98" Velocity="64"/>
  </Event>
  <Event>
    <Absolute>201262</Absolute>
    <NoteOn Channel="1" Note="98" Velocity="64"/>
  </Event>
  <Event>
    <Absolute>201319</Absolute>
    <NoteOff Channel="1" Note="98" Velocity="64"/>
  </Event>
  <Event>
    <Absolute>201378</Absolute>
    <NoteOn Channel="1" Note="99" Velocity="64"/>
  </Event>
  <Event>
    <Absolute>201435</Absolute>
    <NoteOff Channel="1" Note="99" Velocity="64"/>
  </Event>
  <Event>
    <Absolute>201494</Absolute>
    <NoteOn Channel="1" Note="99" Velocity="64"/>
  </Event>
  <Event>
    <Absolute>201551</Absolute>
    <NoteOff Channel="1" Note="99" Velocity="64"/>
  </Event>
  <Event>
    <Absolute>201610</Absolute>
    <NoteOn Channel="1" Note="97" Velocity="64"/>
  </Event>
  <Event>
    <Absolute>201668</Absolute>
    <NoteOff Channel="1" Note="97" Velocity="64"/>
  </Event>
  <Event>
    <Absolute>201726</Absolute>
    <NoteOn Channel="1" Note="97" Velocity="64"/>
  </Event>
  <Event>
    <Absolute>201784</Absolute>
    <NoteOff Channel="1" Note="97" Velocity="64"/>
  </Event>
  <Event>
    <Absolute>201842</Absolute>
    <NoteOn Channel="1" Note="97" Velocity="64"/>
  </Event>
  <Event>
    <Absolute>201900</Absolute>
    <NoteOff Channel="1" Note="97" Velocity="64"/>
  </Event>
  <Event>
    <Absolute>201958</Absolute>
    <NoteOn Channel="1" Note="97" Velocity="64"/>
  </Event>
  <Event>
    <Absolute>202016</Absolute>
    <NoteOff Channel="1" Note="97" Velocity="64"/>
  </Event>
  <Event>
    <Absolute>202074</Absolute>
    <NoteOn Channel="1" Note="98" Velocity="64"/>
  </Event>
  <Event>
    <Absolute>202131</Absolute>
    <NoteOff Channel="1" Note="98" Velocity="64"/>
  </Event>
  <Event>
    <Absolute>202188</Absolute>
    <NoteOn Channel="1" Note="98" Velocity="64"/>
  </Event>
  <Event>
    <Absolute>202245</Absolute>
    <NoteOff Channel="1" Note="98" Velocity="64"/>
  </Event>
  <Event>
    <Absolute>202303</Absolute>
    <NoteOn Channel="1" Note="98" Velocity="64"/>
  </Event>
  <Event>
    <Absolute>202360</Absolute>
    <NoteOff Channel="1" Note="98" Velocity="64"/>
  </Event>
  <Event>
    <Absolute>202417</Absolute>
    <NoteOn Channel="1" Note="99" Velocity="64"/>
  </Event>
  <Event>
    <Absolute>202474</Absolute>
    <NoteOff Channel="1" Note="99" Velocity="64"/>
  </Event>
  <Event>
    <Absolute>202532</Absolute>
    <NoteOn Channel="1" Note="99" Velocity="64"/>
  </Event>
  <Event>
    <Absolute>202589</Absolute>
    <NoteOff Channel="1" Note="99" Velocity="64"/>
  </Event>
  <Event>
    <Absolute>202646</Absolute>
    <NoteOn Channel="1" Note="99" Velocity="64"/>
  </Event>
  <Event>
    <Absolute>202703</Absolute>
    <NoteOff Channel="1" Note="99" Velocity="64"/>
  </Event>
  <Event>
    <Absolute>202761</Absolute>
    <NoteOn Channel="1" Note="98" Velocity="64"/>
  </Event>
  <Event>
    <Absolute>202818</Absolute>
    <NoteOff Channel="1" Note="98" Velocity="64"/>
  </Event>
  <Event>
    <Absolute>202875</Absolute>
    <NoteOn Channel="1" Note="98" Velocity="64"/>
  </Event>
  <Event>
    <Absolute>202932</Absolute>
    <NoteOff Channel="1" Note="98" Velocity="64"/>
  </Event>
  <Event>
    <Absolute>202989</Absolute>
    <NoteOn Channel="1" Note="99" Velocity="64"/>
  </Event>
  <Event>
    <Absolute>203046</Absolute>
    <NoteOff Channel="1" Note="99" Velocity="64"/>
  </Event>
  <Event>
    <Absolute>203105</Absolute>
    <NoteOn Channel="1" Note="99" Velocity="64"/>
  </Event>
  <Event>
    <Absolute>203162</Absolute>
    <NoteOff Channel="1" Note="99" Velocity="64"/>
  </Event>
  <Event>
    <Absolute>203221</Absolute>
    <NoteOn Channel="1" Note="99" Velocity="64"/>
  </Event>
  <Event>
    <Absolute>203278</Absolute>
    <NoteOff Channel="1" Note="99" Velocity="64"/>
  </Event>
  <Event>
    <Absolute>203337</Absolute>
    <NoteOn Channel="1" Note="99" Velocity="64"/>
  </Event>
  <Event>
    <Absolute>203394</Absolute>
    <NoteOff Channel="1" Note="99" Velocity="64"/>
  </Event>
  <Event>
    <Absolute>203452</Absolute>
    <NoteOn Channel="1" Note="100" Velocity="64"/>
  </Event>
  <Event>
    <Absolute>203509</Absolute>
    <NoteOff Channel="1" Note="100" Velocity="64"/>
  </Event>
  <Event>
    <Absolute>203568</Absolute>
    <NoteOn Channel="1" Note="100" Velocity="64"/>
  </Event>
  <Event>
    <Absolute>203625</Absolute>
    <NoteOff Channel="1" Note="100" Velocity="64"/>
  </Event>
  <Event>
    <Absolute>203684</Absolute>
    <NoteOn Channel="1" Note="100" Velocity="64"/>
  </Event>
  <Event>
    <Absolute>203741</Absolute>
    <NoteOff Channel="1" Note="100" Velocity="64"/>
  </Event>
  <Event>
    <Absolute>203799</Absolute>
    <NoteOn Channel="1" Note="100" Velocity="64"/>
  </Event>
  <Event>
    <Absolute>203856</Absolute>
    <NoteOff Channel="1" Note="100" Velocity="64"/>
  </Event>
  <Event>
    <Absolute>203915</Absolute>
    <NoteOn Channel="1" Note="99" Velocity="64"/>
  </Event>
  <Event>
    <Absolute>203971</Absolute>
    <NoteOff Channel="1" Note="99" Velocity="64"/>
  </Event>
  <Event>
    <Absolute>204028</Absolute>
    <NoteOn Channel="1" Note="99" Velocity="64"/>
  </Event>
  <Event>
    <Absolute>204084</Absolute>
    <NoteOff Channel="1" Note="99" Velocity="64"/>
  </Event>
  <Event>
    <Absolute>204141</Absolute>
    <NoteOn Channel="1" Note="99" Velocity="64"/>
  </Event>
  <Event>
    <Absolute>204197</Absolute>
    <NoteOff Channel="1" Note="99" Velocity="64"/>
  </Event>
  <Event>
    <Absolute>204254</Absolute>
    <NoteOn Channel="1" Note="98" Velocity="64"/>
  </Event>
  <Event>
    <Absolute>204310</Absolute>
    <NoteOff Channel="1" Note="98" Velocity="64"/>
  </Event>
  <Event>
    <Absolute>204367</Absolute>
    <NoteOn Channel="1" Note="98" Velocity="64"/>
  </Event>
  <Event>
    <Absolute>204423</Absolute>
    <NoteOff Channel="1" Note="98" Velocity="64"/>
  </Event>
  <Event>
    <Absolute>204480</Absolute>
    <NoteOn Channel="1" Note="98" Velocity="64"/>
  </Event>
  <Event>
    <Absolute>204536</Absolute>
    <NoteOff Channel="1" Note="98" Velocity="64"/>
  </Event>
  <Event>
    <Absolute>204593</Absolute>
    <NoteOn Channel="1" Note="97" Velocity="64"/>
  </Event>
  <Event>
    <Absolute>204649</Absolute>
    <NoteOff Channel="1" Note="97" Velocity="64"/>
  </Event>
  <Event>
    <Absolute>204705</Absolute>
    <NoteOn Channel="1" Note="97" Velocity="64"/>
  </Event>
  <Event>
    <Absolute>204761</Absolute>
    <NoteOff Channel="1" Note="97" Velocity="64"/>
  </Event>
  <Event>
    <Absolute>204818</Absolute>
    <NoteOn Channel="1" Note="98" Velocity="64"/>
  </Event>
  <Event>
    <Absolute>204876</Absolute>
    <NoteOff Channel="1" Note="98" Velocity="64"/>
  </Event>
  <Event>
    <Absolute>204935</Absolute>
    <NoteOn Channel="1" Note="98" Velocity="64"/>
  </Event>
  <Event>
    <Absolute>204993</Absolute>
    <NoteOff Channel="1" Note="98" Velocity="64"/>
  </Event>
  <Event>
    <Absolute>205051</Absolute>
    <NoteOn Channel="1" Note="96" Velocity="64"/>
  </Event>
  <Event>
    <Absolute>205109</Absolute>
    <NoteOff Channel="1" Note="96" Velocity="64"/>
  </Event>
  <Event>
    <Absolute>205168</Absolute>
    <NoteOn Channel="1" Note="96" Velocity="64"/>
  </Event>
  <Event>
    <Absolute>205226</Absolute>
    <NoteOff Channel="1" Note="96" Velocity="64"/>
  </Event>
  <Event>
    <Absolute>205284</Absolute>
    <NoteOn Channel="1" Note="100" Velocity="64"/>
  </Event>
  <Event>
    <Absolute>205344</Absolute>
    <NoteOff Channel="1" Note="100" Velocity="64"/>
  </Event>
  <Event>
    <Absolute>205405</Absolute>
    <NoteOn Channel="1" Note="100" Velocity="64"/>
  </Event>
  <Event>
    <Absolute>205465</Absolute>
    <NoteOff Channel="1" Note="100" Velocity="64"/>
  </Event>
  <Event>
    <Absolute>205525</Absolute>
    <NoteOn Channel="1" Note="100" Velocity="64"/>
  </Event>
  <Event>
    <Absolute>205585</Absolute>
    <NoteOff Channel="1" Note="100" Velocity="64"/>
  </Event>
  <Event>
    <Absolute>205645</Absolute>
    <NoteOn Channel="1" Note="100" Velocity="64"/>
  </Event>
  <Event>
    <Absolute>205705</Absolute>
    <NoteOff Channel="1" Note="100" Velocity="64"/>
  </Event>
  <Event>
    <Absolute>205766</Absolute>
    <NoteOn Channel="1" Note="99" Velocity="64"/>
  </Event>
  <Event>
    <Absolute>205824</Absolute>
    <NoteOff Channel="1" Note="99" Velocity="64"/>
  </Event>
  <Event>
    <Absolute>205882</Absolute>
    <NoteOn Channel="1" Note="99" Velocity="64"/>
  </Event>
  <Event>
    <Absolute>205940</Absolute>
    <NoteOff Channel="1" Note="99" Velocity="64"/>
  </Event>
  <Event>
    <Absolute>205999</Absolute>
    <NoteOn Channel="1" Note="99" Velocity="64"/>
  </Event>
  <Event>
    <Absolute>206057</Absolute>
    <NoteOff Channel="1" Note="99" Velocity="64"/>
  </Event>
  <Event>
    <Absolute>206115</Absolute>
    <NoteOn Channel="1" Note="98" Velocity="64"/>
  </Event>
  <Event>
    <Absolute>206173</Absolute>
    <NoteOff Channel="1" Note="98" Velocity="64"/>
  </Event>
  <Event>
    <Absolute>206232</Absolute>
    <NoteOn Channel="1" Note="98" Velocity="64"/>
  </Event>
  <Event>
    <Absolute>206290</Absolute>
    <NoteOff Channel="1" Note="98" Velocity="64"/>
  </Event>
  <Event>
    <Absolute>206349</Absolute>
    <NoteOn Channel="1" Note="98" Velocity="64"/>
  </Event>
  <Event>
    <Absolute>206407</Absolute>
    <NoteOff Channel="1" Note="98" Velocity="64"/>
  </Event>
  <Event>
    <Absolute>206465</Absolute>
    <NoteOn Channel="1" Note="97" Velocity="64"/>
  </Event>
  <Event>
    <Absolute>206523</Absolute>
    <NoteOff Channel="1" Note="97" Velocity="64"/>
  </Event>
  <Event>
    <Absolute>206582</Absolute>
    <NoteOn Channel="1" Note="97" Velocity="64"/>
  </Event>
  <Event>
    <Absolute>206640</Absolute>
    <NoteOff Channel="1" Note="97" Velocity="64"/>
  </Event>
  <Event>
    <Absolute>206698</Absolute>
    <NoteOn Channel="1" Note="98" Velocity="64"/>
  </Event>
  <Event>
    <Absolute>206758</Absolute>
    <NoteOff Channel="1" Note="98" Velocity="64"/>
  </Event>
  <Event>
    <Absolute>206818</Absolute>
    <NoteOn Channel="1" Note="98" Velocity="64"/>
  </Event>
  <Event>
    <Absolute>206878</Absolute>
    <NoteOff Channel="1" Note="98" Velocity="64"/>
  </Event>
  <Event>
    <Absolute>206938</Absolute>
    <NoteOn Channel="1" Note="96" Velocity="64"/>
  </Event>
  <Event>
    <Absolute>206998</Absolute>
    <NoteOff Channel="1" Note="96" Velocity="64"/>
  </Event>
  <Event>
    <Absolute>207058</Absolute>
    <NoteOn Channel="1" Note="96" Velocity="64"/>
  </Event>
  <Event>
    <Absolute>207118</Absolute>
    <NoteOff Channel="1" Note="96" Velocity="64"/>
  </Event>
  <Event>
    <Absolute>207178</Absolute>
    <NoteOn Channel="1" Note="100" Velocity="64"/>
  </Event>
  <Event>
    <Absolute>207235</Absolute>
    <NoteOff Channel="1" Note="100" Velocity="64"/>
  </Event>
  <Event>
    <Absolute>207294</Absolute>
    <NoteOn Channel="1" Note="100" Velocity="64"/>
  </Event>
  <Event>
    <Absolute>207351</Absolute>
    <NoteOff Channel="1" Note="100" Velocity="64"/>
  </Event>
  <Event>
    <Absolute>207409</Absolute>
    <NoteOn Channel="1" Note="100" Velocity="64"/>
  </Event>
  <Event>
    <Absolute>207466</Absolute>
    <NoteOff Channel="1" Note="100" Velocity="64"/>
  </Event>
  <Event>
    <Absolute>207524</Absolute>
    <NoteOn Channel="1" Note="100" Velocity="64"/>
  </Event>
  <Event>
    <Absolute>207581</Absolute>
    <NoteOff Channel="1" Note="100" Velocity="64"/>
  </Event>
  <Event>
    <Absolute>207639</Absolute>
    <NoteOn Channel="1" Note="99" Velocity="64"/>
  </Event>
  <Event>
    <Absolute>207696</Absolute>
    <NoteOff Channel="1" Note="99" Velocity="64"/>
  </Event>
  <Event>
    <Absolute>207755</Absolute>
    <NoteOn Channel="1" Note="99" Velocity="64"/>
  </Event>
  <Event>
    <Absolute>207812</Absolute>
    <NoteOff Channel="1" Note="99" Velocity="64"/>
  </Event>
  <Event>
    <Absolute>207870</Absolute>
    <NoteOn Channel="1" Note="99" Velocity="64"/>
  </Event>
  <Event>
    <Absolute>207927</Absolute>
    <NoteOff Channel="1" Note="99" Velocity="64"/>
  </Event>
  <Event>
    <Absolute>207985</Absolute>
    <NoteOn Channel="1" Note="98" Velocity="64"/>
  </Event>
  <Event>
    <Absolute>208042</Absolute>
    <NoteOff Channel="1" Note="98" Velocity="64"/>
  </Event>
  <Event>
    <Absolute>208100</Absolute>
    <NoteOn Channel="1" Note="98" Velocity="64"/>
  </Event>
  <Event>
    <Absolute>208157</Absolute>
    <NoteOff Channel="1" Note="98" Velocity="64"/>
  </Event>
  <Event>
    <Absolute>208216</Absolute>
    <NoteOn Channel="1" Note="98" Velocity="64"/>
  </Event>
  <Event>
    <Absolute>208273</Absolute>
    <NoteOff Channel="1" Note="98" Velocity="64"/>
  </Event>
  <Event>
    <Absolute>208331</Absolute>
    <NoteOn Channel="1" Note="97" Velocity="64"/>
  </Event>
  <Event>
    <Absolute>208388</Absolute>
    <NoteOff Channel="1" Note="97" Velocity="64"/>
  </Event>
  <Event>
    <Absolute>208446</Absolute>
    <NoteOn Channel="1" Note="97" Velocity="64"/>
  </Event>
  <Event>
    <Absolute>208503</Absolute>
    <NoteOff Channel="1" Note="97" Velocity="64"/>
  </Event>
  <Event>
    <Absolute>208561</Absolute>
    <NoteOn Channel="1" Note="98" Velocity="64"/>
  </Event>
  <Event>
    <Absolute>208619</Absolute>
    <NoteOff Channel="1" Note="98" Velocity="64"/>
  </Event>
  <Event>
    <Absolute>208678</Absolute>
    <NoteOn Channel="1" Note="98" Velocity="64"/>
  </Event>
  <Event>
    <Absolute>208736</Absolute>
    <NoteOff Channel="1" Note="98" Velocity="64"/>
  </Event>
  <Event>
    <Absolute>208794</Absolute>
    <NoteOn Channel="1" Note="96" Velocity="64"/>
  </Event>
  <Event>
    <Absolute>208852</Absolute>
    <NoteOff Channel="1" Note="96" Velocity="64"/>
  </Event>
  <Event>
    <Absolute>208910</Absolute>
    <NoteOn Channel="1" Note="96" Velocity="64"/>
  </Event>
  <Event>
    <Absolute>208968</Absolute>
    <NoteOff Channel="1" Note="96" Velocity="64"/>
  </Event>
  <Event>
    <Absolute>209026</Absolute>
    <NoteOn Channel="1" Note="100" Velocity="64"/>
  </Event>
  <Event>
    <Absolute>209084</Absolute>
    <NoteOff Channel="1" Note="100" Velocity="64"/>
  </Event>
  <Event>
    <Absolute>209143</Absolute>
    <NoteOn Channel="1" Note="100" Velocity="64"/>
  </Event>
  <Event>
    <Absolute>209201</Absolute>
    <NoteOff Channel="1" Note="100" Velocity="64"/>
  </Event>
  <Event>
    <Absolute>209259</Absolute>
    <NoteOn Channel="1" Note="100" Velocity="64"/>
  </Event>
  <Event>
    <Absolute>209317</Absolute>
    <NoteOff Channel="1" Note="100" Velocity="64"/>
  </Event>
  <Event>
    <Absolute>209375</Absolute>
    <NoteOn Channel="1" Note="100" Velocity="64"/>
  </Event>
  <Event>
    <Absolute>209433</Absolute>
    <NoteOff Channel="1" Note="100" Velocity="64"/>
  </Event>
  <Event>
    <Absolute>209492</Absolute>
    <NoteOn Channel="1" Note="99" Velocity="64"/>
  </Event>
  <Event>
    <Absolute>209550</Absolute>
    <NoteOff Channel="1" Note="99" Velocity="64"/>
  </Event>
  <Event>
    <Absolute>209608</Absolute>
    <NoteOn Channel="1" Note="99" Velocity="64"/>
  </Event>
  <Event>
    <Absolute>209666</Absolute>
    <NoteOff Channel="1" Note="99" Velocity="64"/>
  </Event>
  <Event>
    <Absolute>209724</Absolute>
    <NoteOn Channel="1" Note="99" Velocity="64"/>
  </Event>
  <Event>
    <Absolute>209782</Absolute>
    <NoteOff Channel="1" Note="99" Velocity="64"/>
  </Event>
  <Event>
    <Absolute>209840</Absolute>
    <NoteOn Channel="1" Note="98" Velocity="64"/>
  </Event>
  <Event>
    <Absolute>209898</Absolute>
    <NoteOff Channel="1" Note="98" Velocity="64"/>
  </Event>
  <Event>
    <Absolute>209957</Absolute>
    <NoteOn Channel="1" Note="98" Velocity="64"/>
  </Event>
  <Event>
    <Absolute>210015</Absolute>
    <NoteOff Channel="1" Note="98" Velocity="64"/>
  </Event>
  <Event>
    <Absolute>210073</Absolute>
    <NoteOn Channel="1" Note="98" Velocity="64"/>
  </Event>
  <Event>
    <Absolute>210131</Absolute>
    <NoteOff Channel="1" Note="98" Velocity="64"/>
  </Event>
  <Event>
    <Absolute>210189</Absolute>
    <NoteOn Channel="1" Note="97" Velocity="64"/>
  </Event>
  <Event>
    <Absolute>210247</Absolute>
    <NoteOff Channel="1" Note="97" Velocity="64"/>
  </Event>
  <Event>
    <Absolute>210305</Absolute>
    <NoteOn Channel="1" Note="97" Velocity="64"/>
  </Event>
  <Event>
    <Absolute>210363</Absolute>
    <NoteOff Channel="1" Note="97" Velocity="64"/>
  </Event>
  <Event>
    <Absolute>210422</Absolute>
    <NoteOn Channel="1" Note="98" Velocity="64"/>
  </Event>
  <Event>
    <Absolute>210480</Absolute>
    <NoteOff Channel="1" Note="98" Velocity="64"/>
  </Event>
  <Event>
    <Absolute>210538</Absolute>
    <NoteOn Channel="1" Note="98" Velocity="64"/>
  </Event>
  <Event>
    <Absolute>210596</Absolute>
    <NoteOff Channel="1" Note="98" Velocity="64"/>
  </Event>
  <Event>
    <Absolute>210654</Absolute>
    <NoteOn Channel="1" Note="96" Velocity="64"/>
  </Event>
  <Event>
    <Absolute>210712</Absolute>
    <NoteOff Channel="1" Note="96" Velocity="64"/>
  </Event>
  <Event>
    <Absolute>210771</Absolute>
    <NoteOn Channel="1" Note="96" Velocity="64"/>
  </Event>
  <Event>
    <Absolute>210829</Absolute>
    <NoteOff Channel="1" Note="96" Velocity="64"/>
  </Event>
  <Event>
    <Absolute>210887</Absolute>
    <NoteOn Channel="1" Note="100" Velocity="64"/>
  </Event>
  <Event>
    <Absolute>210945</Absolute>
    <NoteOff Channel="1" Note="100" Velocity="64"/>
  </Event>
  <Event>
    <Absolute>211003</Absolute>
    <NoteOn Channel="1" Note="100" Velocity="64"/>
  </Event>
  <Event>
    <Absolute>211061</Absolute>
    <NoteOff Channel="1" Note="100" Velocity="64"/>
  </Event>
  <Event>
    <Absolute>211119</Absolute>
    <NoteOn Channel="1" Note="100" Velocity="64"/>
  </Event>
  <Event>
    <Absolute>211177</Absolute>
    <NoteOff Channel="1" Note="100" Velocity="64"/>
  </Event>
  <Event>
    <Absolute>211236</Absolute>
    <NoteOn Channel="1" Note="100" Velocity="64"/>
  </Event>
  <Event>
    <Absolute>211294</Absolute>
    <NoteOff Channel="1" Note="100" Velocity="64"/>
  </Event>
  <Event>
    <Absolute>211352</Absolute>
    <NoteOn Channel="1" Note="99" Velocity="64"/>
  </Event>
  <Event>
    <Absolute>211410</Absolute>
    <NoteOff Channel="1" Note="99" Velocity="64"/>
  </Event>
  <Event>
    <Absolute>211468</Absolute>
    <NoteOn Channel="1" Note="99" Velocity="64"/>
  </Event>
  <Event>
    <Absolute>211526</Absolute>
    <NoteOff Channel="1" Note="99" Velocity="64"/>
  </Event>
  <Event>
    <Absolute>211584</Absolute>
    <NoteOn Channel="1" Note="99" Velocity="64"/>
  </Event>
  <Event>
    <Absolute>211642</Absolute>
    <NoteOff Channel="1" Note="99" Velocity="64"/>
  </Event>
  <Event>
    <Absolute>211701</Absolute>
    <NoteOn Channel="1" Note="98" Velocity="64"/>
  </Event>
  <Event>
    <Absolute>211759</Absolute>
    <NoteOff Channel="1" Note="98" Velocity="64"/>
  </Event>
  <Event>
    <Absolute>211817</Absolute>
    <NoteOn Channel="1" Note="98" Velocity="64"/>
  </Event>
  <Event>
    <Absolute>211875</Absolute>
    <NoteOff Channel="1" Note="98" Velocity="64"/>
  </Event>
  <Event>
    <Absolute>211933</Absolute>
    <NoteOn Channel="1" Note="98" Velocity="64"/>
  </Event>
  <Event>
    <Absolute>211991</Absolute>
    <NoteOff Channel="1" Note="98" Velocity="64"/>
  </Event>
  <Event>
    <Absolute>212049</Absolute>
    <NoteOn Channel="1" Note="97" Velocity="64"/>
  </Event>
  <Event>
    <Absolute>212107</Absolute>
    <NoteOff Channel="1" Note="97" Velocity="64"/>
  </Event>
  <Event>
    <Absolute>212166</Absolute>
    <NoteOn Channel="1" Note="97" Velocity="64"/>
  </Event>
  <Event>
    <Absolute>212224</Absolute>
    <NoteOff Channel="1" Note="97" Velocity="64"/>
  </Event>
  <Event>
    <Absolute>212282</Absolute>
    <NoteOn Channel="1" Note="98" Velocity="64"/>
  </Event>
  <Event>
    <Absolute>212340</Absolute>
    <NoteOff Channel="1" Note="98" Velocity="64"/>
  </Event>
  <Event>
    <Absolute>212399</Absolute>
    <NoteOn Channel="1" Note="98" Velocity="64"/>
  </Event>
  <Event>
    <Absolute>212457</Absolute>
    <NoteOff Channel="1" Note="98" Velocity="64"/>
  </Event>
  <Event>
    <Absolute>212516</Absolute>
    <NoteOn Channel="1" Note="96" Velocity="64"/>
  </Event>
  <Event>
    <Absolute>212574</Absolute>
    <NoteOff Channel="1" Note="96" Velocity="64"/>
  </Event>
  <Event>
    <Absolute>212633</Absolute>
    <NoteOn Channel="1" Note="96" Velocity="64"/>
  </Event>
  <Event>
    <Absolute>212691</Absolute>
    <NoteOff Channel="1" Note="96" Velocity="64"/>
  </Event>
  <Event>
    <Absolute>212750</Absolute>
    <NoteOn Channel="1" Note="100" Velocity="64"/>
  </Event>
  <Event>
    <Absolute>212808</Absolute>
    <NoteOff Channel="1" Note="100" Velocity="64"/>
  </Event>
  <Event>
    <Absolute>212867</Absolute>
    <NoteOn Channel="1" Note="100" Velocity="64"/>
  </Event>
  <Event>
    <Absolute>212925</Absolute>
    <NoteOff Channel="1" Note="100" Velocity="64"/>
  </Event>
  <Event>
    <Absolute>212984</Absolute>
    <NoteOn Channel="1" Note="100" Velocity="64"/>
  </Event>
  <Event>
    <Absolute>213042</Absolute>
    <NoteOff Channel="1" Note="100" Velocity="64"/>
  </Event>
  <Event>
    <Absolute>213101</Absolute>
    <NoteOn Channel="1" Note="100" Velocity="64"/>
  </Event>
  <Event>
    <Absolute>213159</Absolute>
    <NoteOff Channel="1" Note="100" Velocity="64"/>
  </Event>
  <Event>
    <Absolute>213217</Absolute>
    <NoteOn Channel="1" Note="99" Velocity="64"/>
  </Event>
  <Event>
    <Absolute>213275</Absolute>
    <NoteOff Channel="1" Note="99" Velocity="64"/>
  </Event>
  <Event>
    <Absolute>213334</Absolute>
    <NoteOn Channel="1" Note="99" Velocity="64"/>
  </Event>
  <Event>
    <Absolute>213392</Absolute>
    <NoteOff Channel="1" Note="99" Velocity="64"/>
  </Event>
  <Event>
    <Absolute>213451</Absolute>
    <NoteOn Channel="1" Note="99" Velocity="64"/>
  </Event>
  <Event>
    <Absolute>213509</Absolute>
    <NoteOff Channel="1" Note="99" Velocity="64"/>
  </Event>
  <Event>
    <Absolute>213568</Absolute>
    <NoteOn Channel="1" Note="98" Velocity="64"/>
  </Event>
  <Event>
    <Absolute>213626</Absolute>
    <NoteOff Channel="1" Note="98" Velocity="64"/>
  </Event>
  <Event>
    <Absolute>213685</Absolute>
    <NoteOn Channel="1" Note="98" Velocity="64"/>
  </Event>
  <Event>
    <Absolute>213743</Absolute>
    <NoteOff Channel="1" Note="98" Velocity="64"/>
  </Event>
  <Event>
    <Absolute>213802</Absolute>
    <NoteOn Channel="1" Note="98" Velocity="64"/>
  </Event>
  <Event>
    <Absolute>213860</Absolute>
    <NoteOff Channel="1" Note="98" Velocity="64"/>
  </Event>
  <Event>
    <Absolute>213919</Absolute>
    <NoteOn Channel="1" Note="97" Velocity="64"/>
  </Event>
  <Event>
    <Absolute>213977</Absolute>
    <NoteOff Channel="1" Note="97" Velocity="64"/>
  </Event>
  <Event>
    <Absolute>214036</Absolute>
    <NoteOn Channel="1" Note="97" Velocity="64"/>
  </Event>
  <Event>
    <Absolute>214094</Absolute>
    <NoteOff Channel="1" Note="97" Velocity="64"/>
  </Event>
  <Event>
    <Absolute>214153</Absolute>
    <NoteOn Channel="1" Note="98" Velocity="64"/>
  </Event>
  <Event>
    <Absolute>214212</Absolute>
    <NoteOff Channel="1" Note="98" Velocity="64"/>
  </Event>
  <Event>
    <Absolute>214272</Absolute>
    <NoteOn Channel="1" Note="98" Velocity="64"/>
  </Event>
  <Event>
    <Absolute>214331</Absolute>
    <NoteOff Channel="1" Note="98" Velocity="64"/>
  </Event>
  <Event>
    <Absolute>214391</Absolute>
    <NoteOn Channel="1" Note="96" Velocity="64"/>
  </Event>
  <Event>
    <Absolute>214450</Absolute>
    <NoteOff Channel="1" Note="96" Velocity="64"/>
  </Event>
  <Event>
    <Absolute>214511</Absolute>
    <NoteOn Channel="1" Note="96" Velocity="64"/>
  </Event>
  <Event>
    <Absolute>214570</Absolute>
    <NoteOff Channel="1" Note="96" Velocity="64"/>
  </Event>
  <Event>
    <Absolute>214630</Absolute>
    <NoteOn Channel="1" Note="100" Velocity="64"/>
  </Event>
  <Event>
    <Absolute>214688</Absolute>
    <NoteOff Channel="1" Note="100" Velocity="64"/>
  </Event>
  <Event>
    <Absolute>214747</Absolute>
    <NoteOn Channel="1" Note="100" Velocity="64"/>
  </Event>
  <Event>
    <Absolute>214805</Absolute>
    <NoteOff Channel="1" Note="100" Velocity="64"/>
  </Event>
  <Event>
    <Absolute>214864</Absolute>
    <NoteOn Channel="1" Note="100" Velocity="64"/>
  </Event>
  <Event>
    <Absolute>214922</Absolute>
    <NoteOff Channel="1" Note="100" Velocity="64"/>
  </Event>
  <Event>
    <Absolute>214981</Absolute>
    <NoteOn Channel="1" Note="100" Velocity="64"/>
  </Event>
  <Event>
    <Absolute>215039</Absolute>
    <NoteOff Channel="1" Note="100" Velocity="64"/>
  </Event>
  <Event>
    <Absolute>215098</Absolute>
    <NoteOn Channel="1" Note="99" Velocity="64"/>
  </Event>
  <Event>
    <Absolute>215155</Absolute>
    <NoteOff Channel="1" Note="99" Velocity="64"/>
  </Event>
  <Event>
    <Absolute>215213</Absolute>
    <NoteOn Channel="1" Note="99" Velocity="64"/>
  </Event>
  <Event>
    <Absolute>215270</Absolute>
    <NoteOff Channel="1" Note="99" Velocity="64"/>
  </Event>
  <Event>
    <Absolute>215328</Absolute>
    <NoteOn Channel="1" Note="99" Velocity="64"/>
  </Event>
  <Event>
    <Absolute>215385</Absolute>
    <NoteOff Channel="1" Note="99" Velocity="64"/>
  </Event>
  <Event>
    <Absolute>215444</Absolute>
    <NoteOn Channel="1" Note="98" Velocity="64"/>
  </Event>
  <Event>
    <Absolute>215501</Absolute>
    <NoteOff Channel="1" Note="98" Velocity="64"/>
  </Event>
  <Event>
    <Absolute>215559</Absolute>
    <NoteOn Channel="1" Note="98" Velocity="64"/>
  </Event>
  <Event>
    <Absolute>215616</Absolute>
    <NoteOff Channel="1" Note="98" Velocity="64"/>
  </Event>
  <Event>
    <Absolute>215674</Absolute>
    <NoteOn Channel="1" Note="98" Velocity="64"/>
  </Event>
  <Event>
    <Absolute>215731</Absolute>
    <NoteOff Channel="1" Note="98" Velocity="64"/>
  </Event>
  <Event>
    <Absolute>215789</Absolute>
    <NoteOn Channel="1" Note="97" Velocity="64"/>
  </Event>
  <Event>
    <Absolute>215846</Absolute>
    <NoteOff Channel="1" Note="97" Velocity="64"/>
  </Event>
  <Event>
    <Absolute>215904</Absolute>
    <NoteOn Channel="1" Note="97" Velocity="64"/>
  </Event>
  <Event>
    <Absolute>215961</Absolute>
    <NoteOff Channel="1" Note="97" Velocity="64"/>
  </Event>
  <Event>
    <Absolute>216020</Absolute>
    <NoteOn Channel="1" Note="98" Velocity="64"/>
  </Event>
  <Event>
    <Absolute>216077</Absolute>
    <NoteOff Channel="1" Note="98" Velocity="64"/>
  </Event>
  <Event>
    <Absolute>216135</Absolute>
    <NoteOn Channel="1" Note="98" Velocity="64"/>
  </Event>
  <Event>
    <Absolute>216192</Absolute>
    <NoteOff Channel="1" Note="98" Velocity="64"/>
  </Event>
  <Event>
    <Absolute>216250</Absolute>
    <NoteOn Channel="1" Note="96" Velocity="64"/>
  </Event>
  <Event>
    <Absolute>216307</Absolute>
    <NoteOff Channel="1" Note="96" Velocity="64"/>
  </Event>
  <Event>
    <Absolute>216365</Absolute>
    <NoteOn Channel="1" Note="96" Velocity="64"/>
  </Event>
  <Event>
    <Absolute>216422</Absolute>
    <NoteOff Channel="1" Note="96" Velocity="64"/>
  </Event>
  <Event>
    <Absolute>216480</Absolute>
    <NoteOn Channel="1" Note="100" Velocity="64"/>
  </Event>
  <Event>
    <Absolute>216538</Absolute>
    <NoteOff Channel="1" Note="100" Velocity="64"/>
  </Event>
  <Event>
    <Absolute>216597</Absolute>
    <NoteOn Channel="1" Note="100" Velocity="64"/>
  </Event>
  <Event>
    <Absolute>216655</Absolute>
    <NoteOff Channel="1" Note="100" Velocity="64"/>
  </Event>
  <Event>
    <Absolute>216713</Absolute>
    <NoteOn Channel="1" Note="100" Velocity="64"/>
  </Event>
  <Event>
    <Absolute>216771</Absolute>
    <NoteOff Channel="1" Note="100" Velocity="64"/>
  </Event>
  <Event>
    <Absolute>216829</Absolute>
    <NoteOn Channel="1" Note="100" Velocity="64"/>
  </Event>
  <Event>
    <Absolute>216887</Absolute>
    <NoteOff Channel="1" Note="100" Velocity="64"/>
  </Event>
  <Event>
    <Absolute>216945</Absolute>
    <NoteOn Channel="1" Note="99" Velocity="64"/>
  </Event>
  <Event>
    <Absolute>217003</Absolute>
    <NoteOff Channel="1" Note="99" Velocity="64"/>
  </Event>
  <Event>
    <Absolute>217061</Absolute>
    <NoteOn Channel="1" Note="99" Velocity="64"/>
  </Event>
  <Event>
    <Absolute>217119</Absolute>
    <NoteOff Channel="1" Note="99" Velocity="64"/>
  </Event>
  <Event>
    <Absolute>217177</Absolute>
    <NoteOn Channel="1" Note="99" Velocity="64"/>
  </Event>
  <Event>
    <Absolute>217235</Absolute>
    <NoteOff Channel="1" Note="99" Velocity="64"/>
  </Event>
  <Event>
    <Absolute>217293</Absolute>
    <NoteOn Channel="1" Note="98" Velocity="64"/>
  </Event>
  <Event>
    <Absolute>217351</Absolute>
    <NoteOff Channel="1" Note="98" Velocity="64"/>
  </Event>
  <Event>
    <Absolute>217410</Absolute>
    <NoteOn Channel="1" Note="98" Velocity="64"/>
  </Event>
  <Event>
    <Absolute>217468</Absolute>
    <NoteOff Channel="1" Note="98" Velocity="64"/>
  </Event>
  <Event>
    <Absolute>217526</Absolute>
    <NoteOn Channel="1" Note="98" Velocity="64"/>
  </Event>
  <Event>
    <Absolute>217584</Absolute>
    <NoteOff Channel="1" Note="98" Velocity="64"/>
  </Event>
  <Event>
    <Absolute>217642</Absolute>
    <NoteOn Channel="1" Note="97" Velocity="64"/>
  </Event>
  <Event>
    <Absolute>217700</Absolute>
    <NoteOff Channel="1" Note="97" Velocity="64"/>
  </Event>
  <Event>
    <Absolute>217758</Absolute>
    <NoteOn Channel="1" Note="97" Velocity="64"/>
  </Event>
  <Event>
    <Absolute>217816</Absolute>
    <NoteOff Channel="1" Note="97" Velocity="64"/>
  </Event>
  <Event>
    <Absolute>217874</Absolute>
    <NoteOn Channel="1" Note="98" Velocity="64"/>
  </Event>
  <Event>
    <Absolute>217933</Absolute>
    <NoteOff Channel="1" Note="98" Velocity="64"/>
  </Event>
  <Event>
    <Absolute>217993</Absolute>
    <NoteOn Channel="1" Note="98" Velocity="64"/>
  </Event>
  <Event>
    <Absolute>218052</Absolute>
    <NoteOff Channel="1" Note="98" Velocity="64"/>
  </Event>
  <Event>
    <Absolute>218111</Absolute>
    <NoteOn Channel="1" Note="96" Velocity="64"/>
  </Event>
  <Event>
    <Absolute>218170</Absolute>
    <NoteOff Channel="1" Note="96" Velocity="64"/>
  </Event>
  <Event>
    <Absolute>218229</Absolute>
    <NoteOn Channel="1" Note="96" Velocity="64"/>
  </Event>
  <Event>
    <Absolute>218288</Absolute>
    <NoteOff Channel="1" Note="96" Velocity="64"/>
  </Event>
  <Event>
    <Absolute>218348</Absolute>
    <NoteOn Channel="1" Note="100" Velocity="64"/>
  </Event>
  <Event>
    <Absolute>218407</Absolute>
    <NoteOff Channel="1" Note="100" Velocity="64"/>
  </Event>
  <Event>
    <Absolute>218466</Absolute>
    <NoteOn Channel="1" Note="100" Velocity="64"/>
  </Event>
  <Event>
    <Absolute>218525</Absolute>
    <NoteOff Channel="1" Note="100" Velocity="64"/>
  </Event>
  <Event>
    <Absolute>218585</Absolute>
    <NoteOn Channel="1" Note="100" Velocity="64"/>
  </Event>
  <Event>
    <Absolute>218644</Absolute>
    <NoteOff Channel="1" Note="100" Velocity="64"/>
  </Event>
  <Event>
    <Absolute>218703</Absolute>
    <NoteOn Channel="1" Note="100" Velocity="64"/>
  </Event>
  <Event>
    <Absolute>218762</Absolute>
    <NoteOff Channel="1" Note="100" Velocity="64"/>
  </Event>
  <Event>
    <Absolute>218822</Absolute>
    <NoteOn Channel="1" Note="99" Velocity="64"/>
  </Event>
  <Event>
    <Absolute>218880</Absolute>
    <NoteOff Channel="1" Note="99" Velocity="64"/>
  </Event>
  <Event>
    <Absolute>218938</Absolute>
    <NoteOn Channel="1" Note="99" Velocity="64"/>
  </Event>
  <Event>
    <Absolute>218996</Absolute>
    <NoteOff Channel="1" Note="99" Velocity="64"/>
  </Event>
  <Event>
    <Absolute>219055</Absolute>
    <NoteOn Channel="1" Note="99" Velocity="64"/>
  </Event>
  <Event>
    <Absolute>219113</Absolute>
    <NoteOff Channel="1" Note="99" Velocity="64"/>
  </Event>
  <Event>
    <Absolute>219172</Absolute>
    <NoteOn Channel="1" Note="98" Velocity="64"/>
  </Event>
  <Event>
    <Absolute>219230</Absolute>
    <NoteOff Channel="1" Note="98" Velocity="64"/>
  </Event>
  <Event>
    <Absolute>219289</Absolute>
    <NoteOn Channel="1" Note="98" Velocity="64"/>
  </Event>
  <Event>
    <Absolute>219347</Absolute>
    <NoteOff Channel="1" Note="98" Velocity="64"/>
  </Event>
  <Event>
    <Absolute>219406</Absolute>
    <NoteOn Channel="1" Note="98" Velocity="64"/>
  </Event>
  <Event>
    <Absolute>219464</Absolute>
    <NoteOff Channel="1" Note="98" Velocity="64"/>
  </Event>
  <Event>
    <Absolute>219523</Absolute>
    <NoteOn Channel="1" Note="97" Velocity="64"/>
  </Event>
  <Event>
    <Absolute>219581</Absolute>
    <NoteOff Channel="1" Note="97" Velocity="64"/>
  </Event>
  <Event>
    <Absolute>219640</Absolute>
    <NoteOn Channel="1" Note="97" Velocity="64"/>
  </Event>
  <Event>
    <Absolute>219698</Absolute>
    <NoteOff Channel="1" Note="97" Velocity="64"/>
  </Event>
  <Event>
    <Absolute>219757</Absolute>
    <NoteOn Channel="1" Note="98" Velocity="64"/>
  </Event>
  <Event>
    <Absolute>219817</Absolute>
    <NoteOff Channel="1" Note="98" Velocity="64"/>
  </Event>
  <Event>
    <Absolute>219877</Absolute>
    <NoteOn Channel="1" Note="98" Velocity="64"/>
  </Event>
  <Event>
    <Absolute>219937</Absolute>
    <NoteOff Channel="1" Note="98" Velocity="64"/>
  </Event>
  <Event>
    <Absolute>219998</Absolute>
    <NoteOn Channel="1" Note="96" Velocity="64"/>
  </Event>
  <Event>
    <Absolute>220058</Absolute>
    <NoteOff Channel="1" Note="96" Velocity="64"/>
  </Event>
  <Event>
    <Absolute>220118</Absolute>
    <NoteOn Channel="1" Note="96" Velocity="64"/>
  </Event>
  <Event>
    <Absolute>220178</Absolute>
    <NoteOff Channel="1" Note="96" Velocity="64"/>
  </Event>
  <Event>
    <Absolute>220239</Absolute>
    <NoteOn Channel="1" Note="100" Velocity="64"/>
  </Event>
  <Event>
    <Absolute>220298</Absolute>
    <NoteOff Channel="1" Note="100" Velocity="64"/>
  </Event>
  <Event>
    <Absolute>220358</Absolute>
    <NoteOn Channel="1" Note="100" Velocity="64"/>
  </Event>
  <Event>
    <Absolute>220417</Absolute>
    <NoteOff Channel="1" Note="100" Velocity="64"/>
  </Event>
  <Event>
    <Absolute>220477</Absolute>
    <NoteOn Channel="1" Note="100" Velocity="64"/>
  </Event>
  <Event>
    <Absolute>220536</Absolute>
    <NoteOff Channel="1" Note="100" Velocity="64"/>
  </Event>
  <Event>
    <Absolute>220596</Absolute>
    <NoteOn Channel="1" Note="100" Velocity="64"/>
  </Event>
  <Event>
    <Absolute>220655</Absolute>
    <NoteOff Channel="1" Note="100" Velocity="64"/>
  </Event>
  <Event>
    <Absolute>220715</Absolute>
    <NoteOn Channel="1" Note="99" Velocity="64"/>
  </Event>
  <Event>
    <Absolute>220774</Absolute>
    <NoteOff Channel="1" Note="99" Velocity="64"/>
  </Event>
  <Event>
    <Absolute>220834</Absolute>
    <NoteOn Channel="1" Note="99" Velocity="64"/>
  </Event>
  <Event>
    <Absolute>220893</Absolute>
    <NoteOff Channel="1" Note="99" Velocity="64"/>
  </Event>
  <Event>
    <Absolute>220953</Absolute>
    <NoteOn Channel="1" Note="99" Velocity="64"/>
  </Event>
  <Event>
    <Absolute>221012</Absolute>
    <NoteOff Channel="1" Note="99" Velocity="64"/>
  </Event>
  <Event>
    <Absolute>221072</Absolute>
    <NoteOn Channel="1" Note="98" Velocity="64"/>
  </Event>
  <Event>
    <Absolute>221131</Absolute>
    <NoteOff Channel="1" Note="98" Velocity="64"/>
  </Event>
  <Event>
    <Absolute>221190</Absolute>
    <NoteOn Channel="1" Note="98" Velocity="64"/>
  </Event>
  <Event>
    <Absolute>221252</Absolute>
    <NoteOff Channel="1" Note="98" Velocity="64"/>
  </Event>
  <Event>
    <Absolute>221316</Absolute>
    <NoteOn Channel="1" Note="98" Velocity="64"/>
  </Event>
  <Event>
    <Absolute>221378</Absolute>
    <NoteOff Channel="1" Note="98" Velocity="64"/>
  </Event>
  <Event>
    <Absolute>221441</Absolute>
    <NoteOn Channel="1" Note="97" Velocity="64"/>
  </Event>
  <Event>
    <Absolute>221503</Absolute>
    <NoteOff Channel="1" Note="97" Velocity="64"/>
  </Event>
  <Event>
    <Absolute>221567</Absolute>
    <NoteOn Channel="1" Note="97" Velocity="64"/>
  </Event>
  <Event>
    <Absolute>221629</Absolute>
    <NoteOff Channel="1" Note="97" Velocity="64"/>
  </Event>
  <Event>
    <Absolute>221692</Absolute>
    <NoteOn Channel="1" Note="98" Velocity="64"/>
  </Event>
  <Event>
    <Absolute>221752</Absolute>
    <NoteOff Channel="1" Note="98" Velocity="64"/>
  </Event>
  <Event>
    <Absolute>221934</Absolute>
    <NoteOn Channel="1" Note="96" Velocity="64"/>
  </Event>
  <Event>
    <Absolute>221994</Absolute>
    <NoteOff Channel="1" Note="96" Velocity="64"/>
  </Event>
  <Event>
    <Absolute>222176</Absolute>
    <NoteOn Channel="1" Note="97" Velocity="64"/>
  </Event>
  <Event>
    <Absolute>222675</Absolute>
    <NoteOff Channel="1" Note="97" Velocity="64"/>
  </Event>
  <Event>
    <Absolute>222675</Absolute>
    <NoteOn Channel="1" Note="96" Velocity="64"/>
  </Event>
  <Event>
    <Absolute>223146</Absolute>
    <NoteOff Channel="1" Note="96" Velocity="64"/>
  </Event>
  <Event>
    <Absolute>223146</Absolute>
    <NoteOn Channel="1" Note="97" Velocity="64"/>
  </Event>
  <Event>
    <Absolute>223617</Absolute>
    <NoteOff Channel="1" Note="97" Velocity="64"/>
  </Event>
  <Event>
    <Absolute>223618</Absolute>
    <NoteOn Channel="1" Note="98" Velocity="64"/>
  </Event>
  <Event>
    <Absolute>224097</Absolute>
    <NoteOff Channel="1" Note="98" Velocity="64"/>
  </Event>
  <Event>
    <Absolute>224097</Absolute>
    <NoteOn Channel="1" Note="99" Velocity="64"/>
  </Event>
  <Event>
    <Absolute>224580</Absolute>
    <NoteOff Channel="1" Note="99" Velocity="64"/>
  </Event>
  <Event>
    <Absolute>224581</Absolute>
    <NoteOn Channel="1" Note="98" Velocity="64"/>
  </Event>
  <Event>
    <Absolute>225067</Absolute>
    <NoteOff Channel="1" Note="98" Velocity="64"/>
  </Event>
  <Event>
    <Absolute>225067</Absolute>
    <NoteOn Channel="1" Note="99" Velocity="64"/>
  </Event>
  <Event>
    <Absolute>225526</Absolute>
    <NoteOff Channel="1" Note="99" Velocity="64"/>
  </Event>
  <Event>
    <Absolute>225526</Absolute>
    <NoteOn Channel="1" Note="100" Velocity="64"/>
  </Event>
  <Event>
    <Absolute>225589</Absolute>
    <NoteOff Channel="1" Note="100" Velocity="64"/>
  </Event>
  <Event>
    <Absolute>225781</Absolute>
    <NoteOn Channel="1" Note="96" Velocity="64"/>
  </Event>
  <Event>
    <Absolute>225844</Absolute>
    <NoteOff Channel="1" Note="96" Velocity="64"/>
  </Event>
  <Event>
    <Absolute>226036</Absolute>
    <NoteOn Channel="1" Note="98" Velocity="64"/>
  </Event>
  <Event>
    <Absolute>226530</Absolute>
    <NoteOff Channel="1" Note="98" Velocity="64"/>
  </Event>
  <Event>
    <Absolute>226531</Absolute>
    <NoteOn Channel="1" Note="98" Velocity="64"/>
  </Event>
  <Event>
    <Absolute>226997</Absolute>
    <NoteOff Channel="1" Note="98" Velocity="64"/>
  </Event>
  <Event>
    <Absolute>226997</Absolute>
    <NoteOn Channel="1" Note="98" Velocity="64"/>
  </Event>
  <Event>
    <Absolute>227055</Absolute>
    <NoteOff Channel="1" Note="98" Velocity="64"/>
  </Event>
  <Event>
    <Absolute>227230</Absolute>
    <NoteOn Channel="1" Note="96" Velocity="64"/>
  </Event>
  <Event>
    <Absolute>227288</Absolute>
    <NoteOff Channel="1" Note="96" Velocity="64"/>
  </Event>
  <Event>
    <Absolute>227463</Absolute>
    <NoteOn Channel="1" Note="97" Velocity="64"/>
  </Event>
  <Event>
    <Absolute>227523</Absolute>
    <NoteOff Channel="1" Note="97" Velocity="64"/>
  </Event>
  <Event>
    <Absolute>227705</Absolute>
    <NoteOn Channel="1" Note="96" Velocity="64"/>
  </Event>
  <Event>
    <Absolute>227765</Absolute>
    <NoteOff Channel="1" Note="96" Velocity="64"/>
  </Event>
  <Event>
    <Absolute>227947</Absolute>
    <NoteOn Channel="1" Note="99" Velocity="64"/>
  </Event>
  <Event>
    <Absolute>228451</Absolute>
    <NoteOff Channel="1" Note="99" Velocity="64"/>
  </Event>
  <Event>
    <Absolute>228451</Absolute>
    <NoteOn Channel="1" Note="99" Velocity="64"/>
  </Event>
  <Event>
    <Absolute>228928</Absolute>
    <NoteOff Channel="1" Note="99" Velocity="64"/>
  </Event>
  <Event>
    <Absolute>228929</Absolute>
    <NoteOn Channel="1" Note="99" Velocity="64"/>
  </Event>
  <Event>
    <Absolute>229406</Absolute>
    <NoteOff Channel="1" Note="99" Velocity="64"/>
  </Event>
  <Event>
    <Absolute>229407</Absolute>
    <NoteOn Channel="1" Note="99" Velocity="64"/>
  </Event>
  <Event>
    <Absolute>229466</Absolute>
    <NoteOff Channel="1" Note="99" Velocity="64"/>
  </Event>
  <Event>
    <Absolute>229645</Absolute>
    <NoteOn Channel="1" Note="97" Velocity="64"/>
  </Event>
  <Event>
    <Absolute>229704</Absolute>
    <NoteOff Channel="1" Note="97" Velocity="64"/>
  </Event>
  <Event>
    <Absolute>229765</Absolute>
    <NoteOn Channel="1" Note="97" Velocity="64"/>
  </Event>
  <Event>
    <Absolute>229824</Absolute>
    <NoteOff Channel="1" Note="97" Velocity="64"/>
  </Event>
  <Event>
    <Absolute>229884</Absolute>
    <NoteOn Channel="1" Note="100" Velocity="64"/>
  </Event>
  <Event>
    <Absolute>229947</Absolute>
    <NoteOff Channel="1" Note="100" Velocity="64"/>
  </Event>
  <Event>
    <Absolute>230138</Absolute>
    <NoteOn Channel="1" Note="100" Velocity="64"/>
  </Event>
  <Event>
    <Absolute>230201</Absolute>
    <NoteOff Channel="1" Note="100" Velocity="64"/>
  </Event>
  <Event>
    <Absolute>230392</Absolute>
    <NoteOn Channel="1" Note="99" Velocity="64"/>
  </Event>
  <Event>
    <Absolute>230453</Absolute>
    <NoteOff Channel="1" Note="99" Velocity="64"/>
  </Event>
  <Event>
    <Absolute>230638</Absolute>
    <NoteOn Channel="1" Note="97" Velocity="64"/>
  </Event>
  <Event>
    <Absolute>230699</Absolute>
    <NoteOff Channel="1" Note="97" Velocity="64"/>
  </Event>
  <Event>
    <Absolute>230761</Absolute>
    <NoteOn Channel="1" Note="98" Velocity="64"/>
  </Event>
  <Event>
    <Absolute>230822</Absolute>
    <NoteOff Channel="1" Note="98" Velocity="64"/>
  </Event>
  <Event>
    <Absolute>231006</Absolute>
    <NoteOn Channel="1" Note="98" Velocity="64"/>
  </Event>
  <Event>
    <Absolute>231067</Absolute>
    <NoteOff Channel="1" Note="98" Velocity="64"/>
  </Event>
  <Event>
    <Absolute>231129</Absolute>
    <NoteOn Channel="1" Note="97" Velocity="64"/>
  </Event>
  <Event>
    <Absolute>231190</Absolute>
    <NoteOff Channel="1" Note="97" Velocity="64"/>
  </Event>
  <Event>
    <Absolute>231375</Absolute>
    <NoteOn Channel="1" Note="98" Velocity="64"/>
  </Event>
  <Event>
    <Absolute>231435</Absolute>
    <NoteOff Channel="1" Note="98" Velocity="64"/>
  </Event>
  <Event>
    <Absolute>231615</Absolute>
    <NoteOn Channel="1" Note="96" Velocity="64"/>
  </Event>
  <Event>
    <Absolute>231675</Absolute>
    <NoteOff Channel="1" Note="96" Velocity="64"/>
  </Event>
  <Event>
    <Absolute>231855</Absolute>
    <NoteOn Channel="1" Note="100" Velocity="64"/>
  </Event>
  <Event>
    <Absolute>231915</Absolute>
    <NoteOff Channel="1" Note="100" Velocity="64"/>
  </Event>
  <Event>
    <Absolute>232095</Absolute>
    <NoteOn Channel="1" Note="100" Velocity="64"/>
  </Event>
  <Event>
    <Absolute>232155</Absolute>
    <NoteOff Channel="1" Note="100" Velocity="64"/>
  </Event>
  <Event>
    <Absolute>232335</Absolute>
    <NoteOn Channel="1" Note="99" Velocity="64"/>
  </Event>
  <Event>
    <Absolute>232392</Absolute>
    <NoteOff Channel="1" Note="99" Velocity="64"/>
  </Event>
  <Event>
    <Absolute>232566</Absolute>
    <NoteOn Channel="1" Note="97" Velocity="64"/>
  </Event>
  <Event>
    <Absolute>232623</Absolute>
    <NoteOff Channel="1" Note="97" Velocity="64"/>
  </Event>
  <Event>
    <Absolute>232682</Absolute>
    <NoteOn Channel="1" Note="98" Velocity="64"/>
  </Event>
  <Event>
    <Absolute>232739</Absolute>
    <NoteOff Channel="1" Note="98" Velocity="64"/>
  </Event>
  <Event>
    <Absolute>232913</Absolute>
    <NoteOn Channel="1" Note="98" Velocity="64"/>
  </Event>
  <Event>
    <Absolute>232970</Absolute>
    <NoteOff Channel="1" Note="98" Velocity="64"/>
  </Event>
  <Event>
    <Absolute>233029</Absolute>
    <NoteOn Channel="1" Note="97" Velocity="64"/>
  </Event>
  <Event>
    <Absolute>233086</Absolute>
    <NoteOff Channel="1" Note="97" Velocity="64"/>
  </Event>
  <Event>
    <Absolute>233260</Absolute>
    <NoteOn Channel="1" Note="98" Velocity="64"/>
  </Event>
  <Event>
    <Absolute>233322</Absolute>
    <NoteOff Channel="1" Note="98" Velocity="64"/>
  </Event>
  <Event>
    <Absolute>233510</Absolute>
    <NoteOn Channel="1" Note="96" Velocity="64"/>
  </Event>
  <Event>
    <Absolute>233572</Absolute>
    <NoteOff Channel="1" Note="96" Velocity="64"/>
  </Event>
  <Event>
    <Absolute>233759</Absolute>
    <NoteOn Channel="1" Note="98" Velocity="64"/>
  </Event>
  <Event>
    <Absolute>234256</Absolute>
    <NoteOff Channel="1" Note="98" Velocity="64"/>
  </Event>
  <Event>
    <Absolute>234257</Absolute>
    <NoteOn Channel="1" Note="98" Velocity="64"/>
  </Event>
  <Event>
    <Absolute>234736</Absolute>
    <NoteOff Channel="1" Note="98" Velocity="64"/>
  </Event>
  <Event>
    <Absolute>234736</Absolute>
    <NoteOn Channel="1" Note="98" Velocity="64"/>
  </Event>
  <Event>
    <Absolute>234795</Absolute>
    <NoteOff Channel="1" Note="98" Velocity="64"/>
  </Event>
  <Event>
    <Absolute>234976</Absolute>
    <NoteOn Channel="1" Note="96" Velocity="64"/>
  </Event>
  <Event>
    <Absolute>235035</Absolute>
    <NoteOff Channel="1" Note="96" Velocity="64"/>
  </Event>
  <Event>
    <Absolute>235215</Absolute>
    <NoteOn Channel="1" Note="97" Velocity="64"/>
  </Event>
  <Event>
    <Absolute>235274</Absolute>
    <NoteOff Channel="1" Note="97" Velocity="64"/>
  </Event>
  <Event>
    <Absolute>235455</Absolute>
    <NoteOn Channel="1" Note="96" Velocity="64"/>
  </Event>
  <Event>
    <Absolute>235514</Absolute>
    <NoteOff Channel="1" Note="96" Velocity="64"/>
  </Event>
  <Event>
    <Absolute>235695</Absolute>
    <NoteOn Channel="1" Note="99" Velocity="64"/>
  </Event>
  <Event>
    <Absolute>236173</Absolute>
    <NoteOff Channel="1" Note="99" Velocity="64"/>
  </Event>
  <Event>
    <Absolute>236173</Absolute>
    <NoteOn Channel="1" Note="99" Velocity="64"/>
  </Event>
  <Event>
    <Absolute>236651</Absolute>
    <NoteOff Channel="1" Note="99" Velocity="64"/>
  </Event>
  <Event>
    <Absolute>236652</Absolute>
    <NoteOn Channel="1" Note="99" Velocity="64"/>
  </Event>
  <Event>
    <Absolute>237130</Absolute>
    <NoteOff Channel="1" Note="99" Velocity="64"/>
  </Event>
  <Event>
    <Absolute>237131</Absolute>
    <NoteOn Channel="1" Note="99" Velocity="64"/>
  </Event>
  <Event>
    <Absolute>237190</Absolute>
    <NoteOff Channel="1" Note="99" Velocity="64"/>
  </Event>
  <Event>
    <Absolute>237370</Absolute>
    <NoteOn Channel="1" Note="97" Velocity="64"/>
  </Event>
  <Event>
    <Absolute>237429</Absolute>
    <NoteOff Channel="1" Note="97" Velocity="64"/>
  </Event>
  <Event>
    <Absolute>237490</Absolute>
    <NoteOn Channel="1" Note="97" Velocity="64"/>
  </Event>
  <Event>
    <Absolute>237549</Absolute>
    <NoteOff Channel="1" Note="97" Velocity="64"/>
  </Event>
  <Event>
    <Absolute>237609</Absolute>
    <NoteOn Channel="1" Note="100" Velocity="64"/>
  </Event>
  <Event>
    <Absolute>237673</Absolute>
    <NoteOff Channel="1" Note="100" Velocity="64"/>
  </Event>
  <Event>
    <Absolute>237866</Absolute>
    <NoteOn Channel="1" Note="100" Velocity="64"/>
  </Event>
  <Event>
    <Absolute>237930</Absolute>
    <NoteOff Channel="1" Note="100" Velocity="64"/>
  </Event>
  <Event>
    <Absolute>238124</Absolute>
    <NoteOn Channel="1" Note="99" Velocity="64"/>
  </Event>
  <Event>
    <Absolute>238185</Absolute>
    <NoteOff Channel="1" Note="99" Velocity="64"/>
  </Event>
  <Event>
    <Absolute>238369</Absolute>
    <NoteOn Channel="1" Note="97" Velocity="64"/>
  </Event>
  <Event>
    <Absolute>238430</Absolute>
    <NoteOff Channel="1" Note="97" Velocity="64"/>
  </Event>
  <Event>
    <Absolute>238491</Absolute>
    <NoteOn Channel="1" Note="98" Velocity="64"/>
  </Event>
  <Event>
    <Absolute>238552</Absolute>
    <NoteOff Channel="1" Note="98" Velocity="64"/>
  </Event>
  <Event>
    <Absolute>238736</Absolute>
    <NoteOn Channel="1" Note="98" Velocity="64"/>
  </Event>
  <Event>
    <Absolute>238797</Absolute>
    <NoteOff Channel="1" Note="98" Velocity="64"/>
  </Event>
  <Event>
    <Absolute>238859</Absolute>
    <NoteOn Channel="1" Note="97" Velocity="64"/>
  </Event>
  <Event>
    <Absolute>238920</Absolute>
    <NoteOff Channel="1" Note="97" Velocity="64"/>
  </Event>
  <Event>
    <Absolute>239104</Absolute>
    <NoteOn Channel="1" Note="98" Velocity="64"/>
  </Event>
  <Event>
    <Absolute>239161</Absolute>
    <NoteOff Channel="1" Note="98" Velocity="64"/>
  </Event>
  <Event>
    <Absolute>239335</Absolute>
    <NoteOn Channel="1" Note="96" Velocity="64"/>
  </Event>
  <Event>
    <Absolute>239392</Absolute>
    <NoteOff Channel="1" Note="96" Velocity="64"/>
  </Event>
  <Event>
    <Absolute>239565</Absolute>
    <NoteOn Channel="1" Note="100" Velocity="64"/>
  </Event>
  <Event>
    <Absolute>239623</Absolute>
    <NoteOff Channel="1" Note="100" Velocity="64"/>
  </Event>
  <Event>
    <Absolute>239800</Absolute>
    <NoteOn Channel="1" Note="100" Velocity="64"/>
  </Event>
  <Event>
    <Absolute>239858</Absolute>
    <NoteOff Channel="1" Note="100" Velocity="64"/>
  </Event>
  <Event>
    <Absolute>240035</Absolute>
    <NoteOn Channel="1" Note="99" Velocity="64"/>
  </Event>
  <Event>
    <Absolute>240093</Absolute>
    <NoteOff Channel="1" Note="99" Velocity="64"/>
  </Event>
  <Event>
    <Absolute>240269</Absolute>
    <NoteOn Channel="1" Note="97" Velocity="64"/>
  </Event>
  <Event>
    <Absolute>240327</Absolute>
    <NoteOff Channel="1" Note="97" Velocity="64"/>
  </Event>
  <Event>
    <Absolute>240387</Absolute>
    <NoteOn Channel="1" Note="98" Velocity="64"/>
  </Event>
  <Event>
    <Absolute>240445</Absolute>
    <NoteOff Channel="1" Note="98" Velocity="64"/>
  </Event>
  <Event>
    <Absolute>240621</Absolute>
    <NoteOn Channel="1" Note="98" Velocity="64"/>
  </Event>
  <Event>
    <Absolute>240679</Absolute>
    <NoteOff Channel="1" Note="98" Velocity="64"/>
  </Event>
  <Event>
    <Absolute>240739</Absolute>
    <NoteOn Channel="1" Note="97" Velocity="64"/>
  </Event>
  <Event>
    <Absolute>240797</Absolute>
    <NoteOff Channel="1" Note="97" Velocity="64"/>
  </Event>
  <Event>
    <Absolute>240974</Absolute>
    <NoteOn Channel="1" Note="98" Velocity="64"/>
  </Event>
  <Event>
    <Absolute>241036</Absolute>
    <NoteOff Channel="1" Note="98" Velocity="64"/>
  </Event>
  <Event>
    <Absolute>241223</Absolute>
    <NoteOn Channel="1" Note="96" Velocity="64"/>
  </Event>
  <Event>
    <Absolute>241285</Absolute>
    <NoteOff Channel="1" Note="96" Velocity="64"/>
  </Event>
  <Event>
    <Absolute>241472</Absolute>
    <NoteOn Channel="1" Note="98" Velocity="64"/>
  </Event>
  <Event>
    <Absolute>241948</Absolute>
    <NoteOff Channel="1" Note="98" Velocity="64"/>
  </Event>
  <Event>
    <Absolute>241948</Absolute>
    <NoteOn Channel="1" Note="98" Velocity="64"/>
  </Event>
  <Event>
    <Absolute>242424</Absolute>
    <NoteOff Channel="1" Note="98" Velocity="64"/>
  </Event>
  <Event>
    <Absolute>242425</Absolute>
    <NoteOn Channel="1" Note="98" Velocity="64"/>
  </Event>
  <Event>
    <Absolute>242484</Absolute>
    <NoteOff Channel="1" Note="98" Velocity="64"/>
  </Event>
  <Event>
    <Absolute>242663</Absolute>
    <NoteOn Channel="1" Note="96" Velocity="64"/>
  </Event>
  <Event>
    <Absolute>242722</Absolute>
    <NoteOff Channel="1" Note="96" Velocity="64"/>
  </Event>
  <Event>
    <Absolute>242901</Absolute>
    <NoteOn Channel="1" Note="97" Velocity="64"/>
  </Event>
  <Event>
    <Absolute>242961</Absolute>
    <NoteOff Channel="1" Note="97" Velocity="64"/>
  </Event>
  <Event>
    <Absolute>243144</Absolute>
    <NoteOn Channel="1" Note="96" Velocity="64"/>
  </Event>
  <Event>
    <Absolute>243204</Absolute>
    <NoteOff Channel="1" Note="96" Velocity="64"/>
  </Event>
  <Event>
    <Absolute>243388</Absolute>
    <NoteOn Channel="1" Note="99" Velocity="64"/>
  </Event>
  <Event>
    <Absolute>243870</Absolute>
    <NoteOff Channel="1" Note="99" Velocity="64"/>
  </Event>
  <Event>
    <Absolute>243871</Absolute>
    <NoteOn Channel="1" Note="99" Velocity="64"/>
  </Event>
  <Event>
    <Absolute>244336</Absolute>
    <NoteOff Channel="1" Note="99" Velocity="64"/>
  </Event>
  <Event>
    <Absolute>244336</Absolute>
    <NoteOn Channel="1" Note="99" Velocity="64"/>
  </Event>
  <Event>
    <Absolute>244801</Absolute>
    <NoteOff Channel="1" Note="99" Velocity="64"/>
  </Event>
  <Event>
    <Absolute>244801</Absolute>
    <NoteOn Channel="1" Note="99" Velocity="64"/>
  </Event>
  <Event>
    <Absolute>244861</Absolute>
    <NoteOff Channel="1" Note="99" Velocity="64"/>
  </Event>
  <Event>
    <Absolute>245044</Absolute>
    <NoteOn Channel="1" Note="97" Velocity="64"/>
  </Event>
  <Event>
    <Absolute>245104</Absolute>
    <NoteOff Channel="1" Note="97" Velocity="64"/>
  </Event>
  <Event>
    <Absolute>245166</Absolute>
    <NoteOn Channel="1" Note="97" Velocity="64"/>
  </Event>
  <Event>
    <Absolute>245226</Absolute>
    <NoteOff Channel="1" Note="97" Velocity="64"/>
  </Event>
  <Event>
    <Absolute>245288</Absolute>
    <NoteOn Channel="1" Note="100" Velocity="64"/>
  </Event>
  <Event>
    <Absolute>245349</Absolute>
    <NoteOff Channel="1" Note="100" Velocity="64"/>
  </Event>
  <Event>
    <Absolute>245533</Absolute>
    <NoteOn Channel="1" Note="100" Velocity="64"/>
  </Event>
  <Event>
    <Absolute>245594</Absolute>
    <NoteOff Channel="1" Note="100" Velocity="64"/>
  </Event>
  <Event>
    <Absolute>245778</Absolute>
    <NoteOn Channel="1" Note="99" Velocity="64"/>
  </Event>
  <Event>
    <Absolute>245839</Absolute>
    <NoteOff Channel="1" Note="99" Velocity="64"/>
  </Event>
  <Event>
    <Absolute>246022</Absolute>
    <NoteOn Channel="1" Note="97" Velocity="64"/>
  </Event>
  <Event>
    <Absolute>246083</Absolute>
    <NoteOff Channel="1" Note="97" Velocity="64"/>
  </Event>
  <Event>
    <Absolute>246145</Absolute>
    <NoteOn Channel="1" Note="98" Velocity="64"/>
  </Event>
  <Event>
    <Absolute>246206</Absolute>
    <NoteOff Channel="1" Note="98" Velocity="64"/>
  </Event>
  <Event>
    <Absolute>246390</Absolute>
    <NoteOn Channel="1" Note="98" Velocity="64"/>
  </Event>
  <Event>
    <Absolute>246451</Absolute>
    <NoteOff Channel="1" Note="98" Velocity="64"/>
  </Event>
  <Event>
    <Absolute>246512</Absolute>
    <NoteOn Channel="1" Note="97" Velocity="64"/>
  </Event>
  <Event>
    <Absolute>246573</Absolute>
    <NoteOff Channel="1" Note="97" Velocity="64"/>
  </Event>
  <Event>
    <Absolute>246757</Absolute>
    <NoteOn Channel="1" Note="98" Velocity="64"/>
  </Event>
  <Event>
    <Absolute>246815</Absolute>
    <NoteOff Channel="1" Note="98" Velocity="64"/>
  </Event>
  <Event>
    <Absolute>246992</Absolute>
    <NoteOn Channel="1" Note="96" Velocity="64"/>
  </Event>
  <Event>
    <Absolute>247050</Absolute>
    <NoteOff Channel="1" Note="96" Velocity="64"/>
  </Event>
  <Event>
    <Absolute>247226</Absolute>
    <NoteOn Channel="1" Note="100" Velocity="64"/>
  </Event>
  <Event>
    <Absolute>247284</Absolute>
    <NoteOff Channel="1" Note="100" Velocity="64"/>
  </Event>
  <Event>
    <Absolute>247461</Absolute>
    <NoteOn Channel="1" Note="100" Velocity="64"/>
  </Event>
  <Event>
    <Absolute>247519</Absolute>
    <NoteOff Channel="1" Note="100" Velocity="64"/>
  </Event>
  <Event>
    <Absolute>247696</Absolute>
    <NoteOn Channel="1" Note="99" Velocity="64"/>
  </Event>
  <Event>
    <Absolute>247754</Absolute>
    <NoteOff Channel="1" Note="99" Velocity="64"/>
  </Event>
  <Event>
    <Absolute>247931</Absolute>
    <NoteOn Channel="1" Note="97" Velocity="64"/>
  </Event>
  <Event>
    <Absolute>247989</Absolute>
    <NoteOff Channel="1" Note="97" Velocity="64"/>
  </Event>
  <Event>
    <Absolute>248048</Absolute>
    <NoteOn Channel="1" Note="98" Velocity="64"/>
  </Event>
  <Event>
    <Absolute>248106</Absolute>
    <NoteOff Channel="1" Note="98" Velocity="64"/>
  </Event>
  <Event>
    <Absolute>248283</Absolute>
    <NoteOn Channel="1" Note="98" Velocity="64"/>
  </Event>
  <Event>
    <Absolute>248341</Absolute>
    <NoteOff Channel="1" Note="98" Velocity="64"/>
  </Event>
  <Event>
    <Absolute>248400</Absolute>
    <NoteOn Channel="1" Note="97" Velocity="64"/>
  </Event>
  <Event>
    <Absolute>248458</Absolute>
    <NoteOff Channel="1" Note="97" Velocity="64"/>
  </Event>
  <Event>
    <Absolute>248635</Absolute>
    <NoteOn Channel="1" Note="98" Velocity="64"/>
  </Event>
  <Event>
    <Absolute>248696</Absolute>
    <NoteOff Channel="1" Note="98" Velocity="64"/>
  </Event>
  <Event>
    <Absolute>248880</Absolute>
    <NoteOn Channel="1" Note="96" Velocity="64"/>
  </Event>
  <Event>
    <Absolute>248941</Absolute>
    <NoteOff Channel="1" Note="96" Velocity="64"/>
  </Event>
  <Event>
    <Absolute>249125</Absolute>
    <NoteOn Channel="1" Note="98" Velocity="64"/>
  </Event>
  <Event>
    <Absolute>249615</Absolute>
    <NoteOn Channel="1" Note="98" Velocity="64"/>
  </Event>
  <Event>
    <Absolute>249615</Absolute>
    <NoteOff Channel="1" Note="98" Velocity="64"/>
  </Event>
  <Event>
    <Absolute>250089</Absolute>
    <NoteOff Channel="1" Note="98" Velocity="64"/>
  </Event>
  <Event>
    <Absolute>250089</Absolute>
    <NoteOn Channel="1" Note="98" Velocity="64"/>
  </Event>
  <Event>
    <Absolute>250148</Absolute>
    <NoteOff Channel="1" Note="98" Velocity="64"/>
  </Event>
  <Event>
    <Absolute>250326</Absolute>
    <NoteOn Channel="1" Note="96" Velocity="64"/>
  </Event>
  <Event>
    <Absolute>250385</Absolute>
    <NoteOff Channel="1" Note="96" Velocity="64"/>
  </Event>
  <Event>
    <Absolute>250563</Absolute>
    <NoteOn Channel="1" Note="97" Velocity="64"/>
  </Event>
  <Event>
    <Absolute>250622</Absolute>
    <NoteOff Channel="1" Note="97" Velocity="64"/>
  </Event>
  <Event>
    <Absolute>250800</Absolute>
    <NoteOn Channel="1" Note="96" Velocity="64"/>
  </Event>
  <Event>
    <Absolute>250859</Absolute>
    <NoteOff Channel="1" Note="96" Velocity="64"/>
  </Event>
  <Event>
    <Absolute>251037</Absolute>
    <NoteOn Channel="1" Note="99" Velocity="64"/>
  </Event>
  <Event>
    <Absolute>251511</Absolute>
    <NoteOff Channel="1" Note="99" Velocity="64"/>
  </Event>
  <Event>
    <Absolute>251511</Absolute>
    <NoteOn Channel="1" Note="99" Velocity="64"/>
  </Event>
  <Event>
    <Absolute>251986</Absolute>
    <NoteOff Channel="1" Note="99" Velocity="64"/>
  </Event>
  <Event>
    <Absolute>251987</Absolute>
    <NoteOn Channel="1" Note="99" Velocity="64"/>
  </Event>
  <Event>
    <Absolute>252462</Absolute>
    <NoteOff Channel="1" Note="99" Velocity="64"/>
  </Event>
  <Event>
    <Absolute>252463</Absolute>
    <NoteOn Channel="1" Note="99" Velocity="64"/>
  </Event>
  <Event>
    <Absolute>252522</Absolute>
    <NoteOff Channel="1" Note="99" Velocity="64"/>
  </Event>
  <Event>
    <Absolute>252701</Absolute>
    <NoteOn Channel="1" Note="97" Velocity="64"/>
  </Event>
  <Event>
    <Absolute>252760</Absolute>
    <NoteOff Channel="1" Note="97" Velocity="64"/>
  </Event>
  <Event>
    <Absolute>252820</Absolute>
    <NoteOn Channel="1" Note="97" Velocity="64"/>
  </Event>
  <Event>
    <Absolute>252879</Absolute>
    <NoteOff Channel="1" Note="97" Velocity="64"/>
  </Event>
  <Event>
    <Absolute>252939</Absolute>
    <NoteOn Channel="1" Note="100" Velocity="64"/>
  </Event>
  <Event>
    <Absolute>253316</Absolute>
    <NoteOff Channel="1" Note="100" Velocity="64"/>
  </Event>
  <Event>
    <Absolute>253316</Absolute>
    <NoteOn Channel="1" Note="99" Velocity="64"/>
  </Event>
  <Event>
    <Absolute>253693</Absolute>
    <NoteOff Channel="1" Note="99" Velocity="64"/>
  </Event>
  <Event>
    <Absolute>253694</Absolute>
    <NoteOn Channel="1" Note="98" Velocity="64"/>
  </Event>
  <Event>
    <Absolute>254071</Absolute>
    <NoteOff Channel="1" Note="98" Velocity="64"/>
  </Event>
  <Event>
    <Absolute>254072</Absolute>
    <NoteOn Channel="1" Note="99" Velocity="64"/>
  </Event>
  <Event>
    <Absolute>254449</Absolute>
    <NoteOff Channel="1" Note="99" Velocity="64"/>
  </Event>
  <Event>
    <Absolute>254450</Absolute>
    <NoteOn Channel="1" Note="98" Velocity="64"/>
  </Event>
  <Event>
    <Absolute>254514</Absolute>
    <NoteOff Channel="1" Note="98" Velocity="64"/>
  </Event>
  <Event>
    <Absolute>254707</Absolute>
    <NoteOn Channel="1" Note="96" Velocity="64"/>
  </Event>
  <Event>
    <Absolute>254771</Absolute>
    <NoteOff Channel="1" Note="96" Velocity="64"/>
  </Event>
  <Event>
    <Absolute>254965</Absolute>
    <NoteOn Channel="1" Note="99" Velocity="64"/>
  </Event>
  <Event>
    <Absolute>255368</Absolute>
    <NoteOff Channel="1" Note="99" Velocity="64"/>
  </Event>
  <Event>
    <Absolute>255368</Absolute>
    <NoteOn Channel="1" Note="98" Velocity="64"/>
  </Event>
  <Event>
    <Absolute>255786</Absolute>
    <NoteOff Channel="1" Note="98" Velocity="64"/>
  </Event>
  <Event>
    <Absolute>255787</Absolute>
    <NoteOn Channel="1" Note="96" Velocity="64"/>
  </Event>
  <Event>
    <Absolute>255857</Absolute>
    <NoteOff Channel="1" Note="96" Velocity="64"/>
  </Event>
  <Event>
    <Absolute>256638</Absolute>
    <NoteOn Channel="1" Note="96" Velocity="64"/>
  </Event>
  <Event>
    <Absolute>256638</Absolute>
    <NoteOn Channel="1" Note="99" Velocity="64"/>
  </Event>
  <Event>
    <Absolute>262882</Absolute>
    <NoteOff Channel="1" Note="96" Velocity="64"/>
  </Event>
  <Event>
    <Absolute>262882</Absolute>
    <NoteOff Channel="1" Note="99" Velocity="64"/>
  </Event>
  <Event>
    <Absolute>262882</Absolute>
    <EndOfTrack/>
  </Event>
</Track>
<Track Number="3">
  <Event>
    <Absolute>0</Absolute>
    <TrackName>Marcadores</TrackName>
  </Event>
  <Event>
    <Absolute>0</Absolute>
    <Marker></Marker>
  </Event>
  <Event>
    <Absolute>12480</Absolute>
    <Marker></Marker>
  </Event>
  <Event>
    <Absolute>12480</Absolute>
    <EndOfTrack/>
  </Event>
</Track>
</MIDIFile>